<svg xmlns="http://www.w3.org/2000/svg" fill="none" viewBox="0 0 24 24">
  <path fill="#fff" d="M12 6.25a5.75 5.75 0 100 11.5 5.75 5.75 0 000-11.5zm0 9.48a3.73 3.73 0 110-7.46 3.73 3.73 0 010 7.46z"/>
  <path fill="#fff" d="M16.62.87c-2.06-.1-7.17-.1-9.23 0-1.81.09-3.41.52-4.7 1.81C.53 4.84.8 7.74.8 12c0 4.35-.24 7.19 1.88 9.31 2.16 2.16 5.1 1.88 9.31 1.88 4.32 0 5.81 0 7.34-.59 2.07-.8 3.64-2.66 3.79-5.99.1-2.06.1-7.16 0-9.23-.18-3.93-2.3-6.32-6.51-6.51zm3.26 19.02c-1.41 1.4-3.37 1.28-7.9 1.28-4.67 0-6.54.07-7.9-1.3-1.58-1.56-1.3-4.08-1.3-7.89 0-5.16-.53-8.87 4.65-9.13 1.19-.05 1.54-.06 4.53-.06l.05.03c4.97 0 8.87-.52 9.1 4.65.06 1.18.07 1.54.07 4.53 0 4.6.09 6.5-1.3 7.89z"/>
  <path fill="#fff" d="M17.98 7.36a1.34 1.34 0 100-2.68 1.34 1.34 0 000 2.68z"/>
</svg>
