<svg xmlns="http://www.w3.org/2000/svg" fill="none" viewBox="0 0 24 24">
  <g clip-path="url(#clip0)">
    <path fill="#fff" d="M12 3.28c-.73 0-7.13.07-8.95.56a3.7 3.7 0 00-2.6 2.6C-.04 8.23 0 11.66 0 11.93c0 .27-.03 3.73.44 5.53a3.79 3.79 0 002.6 2.63h.02c1.8.47 8.2.53 8.93.54h.02c.72-.01 7.14-.07 8.94-.56a3.7 3.7 0 002.6-2.6c.5-1.8.45-5.27.45-5.56 0-.29.03-3.69-.44-5.48a3.71 3.71 0 00-2.62-2.61c-1.8-.48-8.2-.53-8.93-.54H12zm-9.75 13.7c-.41-1.59-.37-5-.37-5.04v-.02c-.02-.95.03-3.7.37-5 .17-.61.66-1.1 1.3-1.27 1.33-.37 6.54-.48 8.45-.5 1.91.02 7.13.13 8.46.48.62.17 1.12.66 1.28 1.28a25.3 25.3 0 01.38 5.02c.02.96-.01 3.73-.37 5.04a1.83 1.83 0 01-1.3 1.3c-1.32.35-6.54.47-8.45.48-1.91-.01-7.13-.12-8.46-.47a1.88 1.88 0 01-1.29-1.3zm7.36-8.82v7.59l6.56-3.8-6.56-3.8z"/>
  </g>
  <defs>
    <clipPath id="clip0">
      <path fill="#fff" d="M0 0h24v24H0z" transform="matrix(1 0 0 -1 0 24)"/>
    </clipPath>
  </defs>
</svg>
