<svg width="30" height="20" viewBox="0 0 30 20" fill="none" xmlns="http://www.w3.org/2000/svg">
<path d="M30 0H0V20H30V0Z" fill="#FF0000"/>
<path fill-rule="evenodd" clip-rule="evenodd" d="M16.0089 14.9137C15.8206 14.7538 15.5924 14.4298 15.5956 14.1176C15.6125 13.8848 15.7754 13.7495 15.8807 14.0337C16.0295 14.3474 16.3487 14.8662 16.7886 14.5619C16.9808 14.4236 16.9778 14.2201 16.7143 14.2435C16.3889 14.2216 16.189 14.0461 16.0434 13.5944C16.0169 13.3459 16.1224 13.3521 16.2695 13.512C16.4587 13.7247 16.8352 14.0461 17.2505 13.8738C17.4813 13.779 17.5465 13.5834 17.1978 13.5353C16.8677 13.54 16.5982 13.3303 16.3299 13.0104C16.1828 12.8334 16.3998 12.6547 16.53 12.8053C16.6462 12.9031 16.8089 13.0833 16.9483 13.1082C17.1096 13.1392 17.3095 13.1238 17.5309 13.0089C17.7696 12.813 17.6921 12.6718 17.4023 12.6393C17.1777 12.6502 17.0553 12.7338 16.7656 12.5445C16.2448 12.1995 15.8307 11.7385 15.766 11.184C15.7235 10.8194 15.9236 10.7089 16.09 10.7509C16.5424 10.865 16.8384 11.6936 17.1514 12.1488C17.2539 12.2799 17.3481 12.2821 17.4147 12.2416C17.5403 12.1361 17.6406 12.0494 17.7661 11.9314C17.7661 11.9314 18.6871 12.0936 19.1886 12.2538L18.6302 12.4483C18.4187 12.3339 18.1636 12.4572 18.1636 12.6558C17.9635 12.7914 17.9796 12.9503 18.0659 13.1037C18.0922 12.9969 18.1147 12.8582 18.2728 12.8397C18.4983 12.9312 18.7612 12.8007 18.7612 12.628L19.4199 12.3743L20.0854 12.7435C20.0854 12.9931 20.3268 13.0722 20.5778 13.0048C20.6961 13.0768 20.7722 13.2017 20.8123 13.3353C20.8864 13.1427 20.8709 13.0066 20.7549 12.9121C20.8215 12.663 20.4653 12.4235 20.1896 12.583L19.7108 12.3136L20.5303 12.2911C20.6254 12.4561 20.9692 12.4652 21.0695 12.2911C21.1552 12.2681 21.2276 12.2535 21.3947 12.3752C21.3421 12.1782 21.2396 12.094 21.0858 12.094C20.969 11.8912 20.5463 11.8921 20.4852 12.1205L19.6317 12.1437L20.1381 11.7904C20.3272 11.8998 20.5924 11.7782 20.6455 11.5795C20.7209 11.4917 20.8139 11.4504 20.9968 11.51C20.9025 11.3463 20.7696 11.2975 20.5297 11.4086C20.3108 11.2461 20.0223 11.4432 20.0661 11.6068L19.3923 12.0561C18.9033 11.9131 18.0175 11.6904 18.0175 11.6904C18.123 11.5817 18.23 11.4807 18.3353 11.3704C18.3733 11.3059 18.3152 11.2307 18.2345 11.215C17.4442 11.0552 16.9917 10.743 16.7175 9.94946C16.6029 9.61712 16.8508 9.51782 16.936 9.7211C17.0538 10.0038 17.1839 10.3128 17.5387 10.5521C17.6611 10.636 18.0254 10.5675 17.81 10.3672C17.5868 10.187 17.4907 10.1095 17.3808 9.67148C17.3808 9.44954 17.6116 9.35003 17.7403 9.56276C17.8781 9.99911 17.8922 10.187 18.1416 10.4682C18.3306 10.6809 18.577 10.8239 18.6993 10.8207C18.9195 10.8177 19.1411 10.5846 18.8467 10.4153C18.4143 10.2461 18.2563 10.0147 18.1926 9.79409C18.123 9.4091 18.199 9.22271 18.436 9.4121C18.7722 9.78638 19.4138 10.4836 19.7499 10.8082C20.1266 11.091 20.5588 11.1001 20.9028 10.8129C21.0997 10.5908 21.0298 10.3518 20.7215 10.4029C20.0258 10.4605 19.499 10.1219 18.921 9.20708C18.8078 9.00056 18.7768 8.70395 19.0265 8.9246C19.3145 9.30659 19.7345 9.63122 20.1251 9.77096C20.5172 9.90902 20.8409 9.83276 20.9664 9.71192C21.1177 9.56366 21.0779 9.19016 20.8161 9.28022C20.6006 9.35474 20.297 9.37334 19.981 9.25373C19.6647 9.13259 19.3363 8.87174 18.9876 8.42918C18.8682 8.17922 18.9071 7.96799 19.1488 8.09678C19.7206 8.57213 20.4582 8.95712 20.8347 8.72579C21.1121 8.5565 21.1168 8.12165 20.7651 8.14967C20.0568 8.24426 19.7888 8.09063 19.1085 7.50212C18.9536 7.38869 18.9644 7.10129 19.2107 7.28468C19.7826 7.64657 20.5635 7.78778 20.8703 7.59842C21.1462 7.42913 21.1059 6.91187 20.641 7.09508C20.269 7.3172 19.8584 7.31099 19.0356 6.7349C18.8281 6.56564 18.9829 6.34499 19.1533 6.43979C19.8151 6.80939 20.779 6.96773 21.0299 6.21616C21.1274 5.92894 20.9509 5.76118 20.692 5.95996C20.1234 6.47552 19.4787 6.22235 19.1179 5.96297C19.0145 5.90326 18.8249 5.6011 19.158 5.65717C20.0196 5.84977 20.8718 5.68201 21.0269 5.08408C21.1168 4.88998 20.9399 4.54672 20.6254 4.83412C20.2118 5.23474 19.7732 5.24863 19.2216 5.24563C18.9411 5.18809 18.9381 4.88527 19.1736 4.84033C19.609 4.84951 20.0382 4.66312 20.3822 4.47373C20.7185 4.28434 20.9974 4.01875 21.0858 3.65068C21.14 3.32152 20.8161 2.97208 20.6209 3.32152C20.3327 3.83236 19.6942 4.31386 18.9844 4.40077C18.9475 4.34017 18.8544 4.18483 18.7397 4.22848C18.5313 4.30768 18.283 4.41364 18.0273 4.53265C17.4761 4.78912 17.2465 4.91272 17.3126 5.35585C17.3817 5.81824 17.018 6.11045 16.7175 6.02975C16.4555 5.96062 16.3109 5.72866 16.3579 5.32633C16.3955 5.00575 16.7239 4.61797 17.094 4.41463C17.3336 4.28323 17.6953 4.21135 18.1307 4.11655C18.3957 4.0654 18.5306 3.96439 18.546 3.85867C18.546 3.85867 18.3649 3.98857 18.075 3.96907C17.9379 3.95947 17.8461 3.90037 17.8115 3.84007C17.9123 3.81997 18.0951 3.84328 18.2593 3.84328C18.4777 3.84157 18.9848 3.79363 19.1194 3.49228C19.1612 3.2935 19.0279 3.25777 18.9039 3.38509C18.7707 3.5227 18.7158 3.64639 18.4484 3.69259C18.2857 3.72064 18.123 3.75319 17.9137 3.70354C18.0316 3.56635 18.2189 3.42598 18.3786 3.45184C18.4311 3.46042 18.501 3.50794 18.5569 3.59332C18.5911 3.37588 18.5304 3.13042 17.937 3.23293C17.9464 3.06838 17.593 2.99689 17.3808 3.0001C17.2599 3.0031 17.0135 3.07309 16.8354 3.15676C16.5533 3.24235 16.2745 3.30442 15.9458 3.32776C16.1365 3.4876 16.1722 3.49702 16.3626 3.63205C16.0746 3.73756 15.8514 3.955 15.7506 4.09795C15.7506 4.09795 16.087 4.08874 16.1722 4.12597C15.8203 4.22677 15.6622 4.28734 15.4763 4.47373C15.5414 4.48465 15.6389 4.50325 15.6808 4.51888C15.7244 4.5343 15.7131 4.56232 15.6778 4.58866C15.602 4.64536 15.2888 5.00188 15.1974 5.08726C15.106 5.00188 14.7928 4.64536 14.717 4.58866C14.6817 4.56232 14.6704 4.5343 14.714 4.51888C14.7558 4.50328 14.8534 4.48465 14.9185 4.47373C14.7325 4.28734 14.5745 4.22677 14.2226 4.12597C14.3078 4.08874 14.6441 4.09795 14.6441 4.09795C14.5433 3.955 14.3202 3.73756 14.0321 3.63205C14.2226 3.49702 14.2583 3.4876 14.449 3.32773C14.1203 3.30442 13.8415 3.24235 13.5594 3.15673C13.3813 3.07309 13.1349 3.0031 13.014 3.0001C12.8018 2.99689 12.4483 3.06838 12.4578 3.2329C11.8644 3.13042 11.8037 3.37588 11.8379 3.59332C11.8938 3.50794 11.9636 3.46042 12.0162 3.45187C12.1759 3.42598 12.3632 3.56635 12.481 3.70354C12.2718 3.75319 12.109 3.72064 11.9463 3.69262C11.679 3.64642 11.6241 3.5227 11.4908 3.38512C11.3668 3.25777 11.2336 3.2935 11.2754 3.49231C11.4099 3.79363 11.917 3.84157 12.1355 3.84328C12.2997 3.84328 12.4825 3.81994 12.5833 3.84007C12.5487 3.90043 12.4569 3.95947 12.3198 3.96907C12.0298 3.98857 11.8487 3.85867 11.8487 3.85867C11.8641 3.96439 11.9991 4.06537 12.2641 4.11655C12.6995 4.21135 13.0612 4.28326 13.3008 4.41466C13.6708 4.61797 13.9993 5.00575 14.0368 5.32633C14.0838 5.72863 13.9393 5.96062 13.6772 6.02975C13.3768 6.11045 13.0131 5.81824 13.0821 5.35585C13.1483 4.91272 12.9186 4.78912 12.3675 4.53265C12.1118 4.41364 11.8635 4.30765 11.6551 4.22845C11.5404 4.18483 11.4473 4.3402 11.4104 4.40077C10.7006 4.31386 10.0621 3.83236 9.77385 3.32152C9.57866 2.97208 9.25475 3.32152 9.30897 3.65068C9.39738 4.01878 9.67626 4.28434 10.0126 4.47373C10.3566 4.66312 10.7858 4.84951 11.2212 4.84033C11.4567 4.88527 11.4537 5.18809 11.1731 5.24563C10.6216 5.24863 10.183 5.23474 9.76935 4.83412C9.45484 4.54672 9.27802 4.88998 9.36793 5.08408C9.52295 5.68198 10.3752 5.84977 11.2368 5.65717C11.5698 5.60107 11.3803 5.90329 11.2769 5.96299C10.9161 6.22234 10.2714 6.47551 9.70273 5.95999C9.44394 5.76118 9.26731 5.92894 9.36493 6.21616C9.61583 6.96773 10.5797 6.80939 11.2415 6.43979C11.4119 6.34499 11.5667 6.56564 11.3591 6.7349C10.5364 7.31099 10.1258 7.3172 9.75377 7.09508C9.28892 6.91187 9.24854 7.42913 9.52445 7.59842C9.83128 7.78781 10.6122 7.64657 11.184 7.28468C11.4305 7.10129 11.4411 7.38869 11.2863 7.50212C10.606 8.09063 10.338 8.24426 9.62972 8.14967C9.27799 8.12165 9.2827 8.55647 9.56011 8.72579C9.93655 8.95709 10.6741 8.57213 11.2459 8.09681C11.4877 7.96799 11.5265 8.17922 11.4072 8.42918C11.0585 8.87174 10.73 9.13259 10.4138 9.25373C10.0978 9.37334 9.79414 9.35474 9.57869 9.28025C9.31687 9.19016 9.27707 9.56366 9.42836 9.71192C9.55396 9.83276 9.87762 9.90902 10.2697 9.77096C10.6602 9.63122 11.0803 9.30656 11.3683 8.9246C11.6179 8.70395 11.587 9.00056 11.4738 9.20708C10.8958 10.1219 10.369 10.4605 9.67325 10.4029C9.36493 10.3518 9.2951 10.5908 9.49197 10.8129C9.83599 11.1001 10.2682 11.091 10.6448 10.8082C10.9809 10.4836 11.6226 9.78638 11.9587 9.4121C12.1957 9.22271 12.2718 9.4091 12.2022 9.79409C12.1385 10.0147 11.9805 10.2461 11.5481 10.4153C11.2536 10.5846 11.4752 10.8176 11.6954 10.8206C11.8178 10.8239 12.0642 10.6809 12.2532 10.4682C12.5026 10.187 12.5167 9.99911 12.6544 9.56276C12.7832 9.35003 13.014 9.44954 13.014 9.67145C12.904 10.1095 12.808 10.187 12.5848 10.3671C12.3693 10.5675 12.7337 10.6359 12.856 10.5521C13.2109 10.3128 13.3409 10.0038 13.4588 9.7211C13.544 9.51782 13.7919 9.61712 13.6772 9.94946C13.4031 10.743 12.9506 11.0552 12.1603 11.2151C12.0796 11.2307 12.0215 11.3059 12.0595 11.3704C12.1648 11.4807 12.2718 11.5816 12.3772 11.6904C12.3772 11.6904 11.4915 11.9131 11.0024 12.0561L10.3286 11.6068C10.3724 11.4432 10.0839 11.2461 9.86504 11.4085C9.62507 11.2975 9.49225 11.3463 9.39796 11.51C9.5809 11.4504 9.67384 11.4917 9.7492 11.5794C9.80232 11.7782 10.0676 11.8998 10.2566 11.7903L10.763 12.1437L9.90955 12.1205C9.84848 11.8921 9.42572 11.8912 9.30888 12.094C9.1552 12.094 9.05265 12.1782 9 12.3752C9.16714 12.2535 9.2396 12.2681 9.32529 12.2911C9.42557 12.4652 9.76935 12.4561 9.86443 12.2911L10.6839 12.3136L10.2052 12.583C9.92945 12.4235 9.57328 12.663 9.63986 12.9121C9.52384 13.0066 9.50835 13.1427 9.58246 13.3353C9.6225 13.2017 9.6986 13.0768 9.81695 13.0048C10.068 13.0722 10.3093 12.9931 10.3093 12.7435L10.9748 12.3743L11.6336 12.628C11.6336 12.8007 11.8964 12.9312 12.122 12.8397C12.28 12.8582 12.3025 12.9969 12.3288 13.1037C12.4152 12.9503 12.4313 12.7914 12.2312 12.6558C12.2312 12.4572 11.976 12.3339 11.7646 12.4483L11.2061 12.2538C11.7077 12.0936 12.6287 11.9315 12.6287 11.9315C12.7542 12.0494 12.8545 12.1361 12.9801 12.2417C13.0467 12.2821 13.1409 12.2799 13.2433 12.1488C13.5564 11.6936 13.8523 10.865 14.3048 10.7509C14.4712 10.7089 14.6713 10.8194 14.6288 11.184C14.5641 11.7385 14.15 12.1995 13.6292 12.5445C13.3394 12.7338 13.2171 12.6502 12.9925 12.6393C12.7027 12.6718 12.6252 12.813 12.8639 13.0089C13.0853 13.1238 13.2852 13.1392 13.4464 13.1082C13.5859 13.0833 13.7486 12.9031 13.8647 12.8053C13.995 12.6547 14.212 12.8334 14.0648 13.0104C13.7966 13.3303 13.5271 13.54 13.197 13.5353C12.8483 13.5834 12.9134 13.779 13.1443 13.8738C13.5596 14.0461 13.936 13.7247 14.1253 13.512C14.2724 13.3521 14.3779 13.3459 14.3514 13.5944C14.2057 14.0461 14.0059 14.2216 13.6805 14.2435C13.417 14.2201 13.414 14.4236 13.6061 14.5619C14.046 14.8662 14.3653 14.3474 14.5141 14.0337C14.6194 13.7495 14.7823 13.8848 14.7992 14.1176C14.8024 14.4298 14.5742 14.7538 14.3859 14.9137C14.1977 15.0738 15.1974 16.0908 15.1974 16.0908C15.1974 16.0908 16.1971 15.0737 16.0089 14.9137L16.0089 14.9137ZM17.3486 3.39553C17.193 3.39553 17.0968 3.44893 17.0968 3.51373C17.0968 3.57955 17.193 3.63319 17.3486 3.63319C17.5033 3.63319 17.6015 3.57469 17.6015 3.50878C17.6015 3.44398 17.5032 3.3955 17.3486 3.3955V3.39553ZM13.0462 3.39553C13.2018 3.39553 13.2979 3.44893 13.2979 3.51373C13.2979 3.57955 13.2018 3.63319 13.0462 3.63319C12.8915 3.63319 12.7933 3.57469 12.7933 3.50878C12.7933 3.44398 12.8916 3.3955 13.0462 3.3955V3.39553Z" fill="black"/>
</svg>
