<svg width="30" height="20" viewBox="0 0 30 20" fill="none" xmlns="http://www.w3.org/2000/svg">
<g clip-path="url(#clip0)">
<path d="M30 13.334H0V20.0006H30V13.334Z" fill="#007C30"/>
<path d="M30 0H0V13.3332H30V0Z" fill="#CE1720"/>
<path d="M3.35989 0.0195312H0.0148926V20.0195H3.35989V0.0195312Z" fill="#CE1720"/>
<path d="M0.0150484 14.12C0.0618484 14.12 0.108648 14.12 0.163248 14.12C0.163248 14.2224 0.163248 14.321 0.163248 14.4286C0.213448 14.4344 0.256648 14.4394 0.311048 14.4458C0.311048 14.5152 0.314448 14.5814 0.310248 14.6466C0.304648 14.7346 0.325448 14.7798 0.396848 14.7678C0.413248 14.765 0.430648 14.7736 0.452248 14.778C0.452248 14.8806 0.452248 14.98 0.452248 15.0738C0.460848 15.0836 0.464448 15.091 0.468448 15.0916C0.601448 15.1098 0.601448 15.1098 0.601648 15.2974C0.601648 15.3334 0.601648 15.3694 0.601648 15.3994C0.613048 15.409 0.616848 15.4148 0.621049 15.4154C0.745448 15.4316 0.745448 15.4316 0.745648 15.6066C0.745848 15.7712 0.747648 15.773 0.881249 15.7398C0.881249 15.6402 0.881249 15.5382 0.881249 15.4432C0.892848 15.4328 0.896649 15.4266 0.901048 15.426C1.02305 15.4066 1.02265 15.4068 1.02345 15.2426C1.02365 15.1968 1.02665 15.151 1.02845 15.101C1.07605 15.0976 1.11765 15.0946 1.16805 15.091C1.16805 14.9852 1.16805 14.8834 1.16805 14.7758C1.22025 14.7694 1.26405 14.7642 1.31445 14.758C1.31445 14.6538 1.31445 14.555 1.31445 14.4444C1.36165 14.4402 1.40265 14.4368 1.45545 14.4322C1.45545 14.3298 1.45545 14.2288 1.45545 14.1192C1.50825 14.116 1.54965 14.1134 1.60325 14.11C1.60325 14.0396 1.60745 13.9706 1.60225 13.903C1.59505 13.8084 1.61645 13.764 1.69225 13.7854C1.71065 13.7906 1.73045 13.7862 1.75685 13.7862C1.75685 13.8956 1.75685 13.9976 1.75685 14.1076C1.80705 14.1118 1.85085 14.1156 1.90505 14.12C1.90505 14.2238 1.90505 14.325 1.90505 14.4232C2.04685 14.4582 2.05005 14.4584 2.04665 14.648C2.04505 14.7366 2.06245 14.781 2.13405 14.7678C2.15045 14.7648 2.16805 14.7726 2.19265 14.7768C2.19265 14.881 2.19265 14.9826 2.19265 15.0904C2.24385 15.0944 2.28745 15.0976 2.33925 15.1016C2.33925 15.2062 2.33925 15.3048 2.33925 15.3946C2.35145 15.407 2.35505 15.4138 2.35925 15.4144C2.48265 15.4346 2.48245 15.4344 2.48305 15.6062C2.48325 15.6518 2.48605 15.6976 2.48765 15.748C2.53325 15.748 2.57205 15.748 2.61885 15.748C2.61885 15.642 2.61885 15.54 2.61885 15.4464C2.63065 15.4342 2.63425 15.4274 2.63865 15.4266C2.76185 15.4038 2.76165 15.4038 2.76225 15.2352C2.76245 15.1926 2.76485 15.1502 2.76665 15.1006C2.81405 15.0976 2.85545 15.095 2.90565 15.092C2.90565 14.988 2.90565 14.8864 2.90565 14.793C2.91845 14.781 2.92205 14.7746 2.92645 14.7738C3.05545 14.7488 3.05545 14.7488 3.05565 14.5686C3.05565 14.5294 3.05565 14.4902 3.05565 14.4438C3.10305 14.44 3.14225 14.437 3.19305 14.433C3.19305 14.3324 3.19305 14.2316 3.19305 14.1206C3.24785 14.1168 3.29125 14.1136 3.34965 14.1094C3.34965 14.0286 3.34965 13.9504 3.34965 13.8722C3.34965 13.7922 3.34965 13.7122 3.34965 13.6322C3.34965 13.4866 3.34925 13.4892 3.24065 13.4638C3.22365 13.4598 3.20085 13.4198 3.19905 13.394C3.19365 13.3154 3.19705 13.2358 3.19705 13.15C3.14765 13.1452 3.10665 13.1414 3.05565 13.1364C3.05565 13.083 3.05565 13.034 3.05565 12.9852C3.05565 12.9356 3.05565 12.886 3.05565 12.8258C3.00605 12.8188 2.96065 12.8122 2.90985 12.805C2.90985 12.6992 2.90985 12.6002 2.90985 12.4928C2.86585 12.4928 2.82745 12.4928 2.77625 12.4928C2.77625 12.558 2.77265 12.6268 2.77705 12.6948C2.78265 12.7818 2.76465 12.8296 2.69185 12.8162C2.67525 12.8132 2.65745 12.8198 2.63065 12.8234C2.63065 12.9258 2.63065 13.0272 2.63065 13.1374C2.58005 13.1408 2.53865 13.1438 2.49005 13.147C2.49005 13.2462 2.49005 13.3436 2.49005 13.456C2.56425 13.456 2.63825 13.4592 2.71185 13.4548C2.76085 13.452 2.77805 13.4754 2.77685 13.5406C2.77085 13.8574 2.81225 13.7924 2.58625 13.7996C2.52385 13.8016 2.46105 13.7958 2.39885 13.801C2.34125 13.8058 2.32385 13.7726 2.32685 13.7012C2.32985 13.6286 2.32745 13.5554 2.32745 13.4726C2.27925 13.469 2.23805 13.466 2.18605 13.4622C2.18605 13.4074 2.18605 13.3552 2.18605 13.3032C2.18605 13.254 2.18605 13.2048 2.18605 13.1564C2.13405 13.144 2.05905 13.1492 2.05005 13.1194C2.02925 13.0498 2.03885 12.9634 2.03885 12.8838C2.03865 12.8134 2.04025 12.8134 2.18505 12.7876C2.18505 12.6884 2.18505 12.587 2.18505 12.4796C2.23305 12.4764 2.27225 12.4738 2.32745 12.47C2.32745 12.4024 2.33125 12.334 2.32645 12.2668C2.32005 12.1744 2.34105 12.1264 2.41645 12.1408C2.43085 12.1436 2.44605 12.1376 2.47105 12.1346C2.47105 12.0332 2.47105 11.9322 2.47105 11.8228C2.52445 11.8186 2.56825 11.815 2.62025 11.8108C2.62025 11.706 2.62025 11.6044 2.62025 11.509C2.63305 11.5 2.63725 11.4951 2.64165 11.4945C2.76205 11.4825 2.76205 11.4827 2.76205 11.3205C2.76205 11.2971 2.76385 11.2735 2.76185 11.2505C2.75385 11.1613 2.79465 11.1589 2.84505 11.1565C2.89985 11.1539 2.92585 11.1761 2.91745 11.2523C2.91645 11.2621 2.91725 11.2723 2.91725 11.2823C2.91765 11.4739 2.91765 11.4738 3.06345 11.5016C3.06345 11.5518 3.06345 11.604 3.06345 11.6562C3.06345 11.7054 3.06345 11.7546 3.06345 11.7992C3.07465 11.8072 3.07885 11.8124 3.08305 11.8128C3.21065 11.8234 3.21065 11.8232 3.21085 11.996C3.21085 12.0388 3.21085 12.0816 3.21085 12.1174C3.22165 12.128 3.22545 12.1344 3.22945 12.1352C3.35205 12.1556 3.35205 12.1556 3.35205 12.3284C3.35205 12.3748 3.35205 12.4212 3.35205 12.4794C3.30645 12.4822 3.26525 12.4848 3.21745 12.4878C3.21745 12.5874 3.21745 12.6848 3.21745 12.7904C3.23885 12.7928 3.26045 12.7954 3.28185 12.7976C3.30145 12.7996 3.32085 12.8014 3.34445 12.8038C3.34705 12.8296 3.35145 12.8518 3.35145 12.8738C3.35505 13.9596 3.35925 15.0454 3.36145 16.1314C3.36345 17.1644 3.36345 18.1974 3.36365 19.2304C3.36365 19.4936 3.36125 19.7566 3.36005 20.0198C3.16005 20.0198 2.96005 20.0198 2.76005 20.0198C2.76065 19.9832 2.76145 19.9466 2.76165 19.91C2.76185 19.7088 2.76185 19.7088 2.90925 19.6662C2.90925 19.5684 2.90925 19.4674 2.90925 19.3632C2.96285 19.3582 3.00645 19.354 3.05825 19.3492C3.05825 19.2404 3.05825 19.1388 3.05825 19.0392C3.19605 19.0212 3.19605 19.0212 3.19625 18.8446C3.19625 18.8412 3.19645 18.8378 3.19625 18.8346C3.18665 18.7372 3.20705 18.6812 3.29225 18.6962C3.30905 18.6992 3.34385 18.6706 3.34505 18.6538C3.35045 18.5664 3.34765 18.4782 3.34765 18.383C3.29165 18.383 3.24985 18.383 3.19645 18.383C3.19645 18.3266 3.19645 18.2776 3.19645 18.2286C3.19645 18.1766 3.19645 18.1244 3.19645 18.0682C3.14445 18.0632 3.10345 18.0594 3.05545 18.0548C3.05545 18.0036 3.05545 17.961 3.05545 17.9184C3.05545 17.742 3.05545 17.7422 2.92765 17.7242C2.92345 17.7236 2.91965 17.7176 2.90625 17.706C2.90625 17.613 2.90625 17.5116 2.90625 17.412C2.76205 17.3914 2.76205 17.3914 2.76185 17.264C2.76165 17.0952 2.76165 17.0954 2.63845 17.072C2.63425 17.0712 2.63065 17.0644 2.61905 17.0524C2.61905 16.9584 2.61905 16.8566 2.61905 16.7504C2.57245 16.7504 2.53345 16.7504 2.48245 16.7504C2.48245 16.8032 2.48245 16.852 2.48245 16.9008C2.48245 17.0658 2.48245 17.0658 2.36025 17.0844C2.35605 17.085 2.35225 17.0912 2.34465 17.0982C2.34365 17.1242 2.34145 17.1536 2.34125 17.183C2.33945 17.3838 2.33965 17.3838 2.19285 17.4166C2.19285 17.516 2.19285 17.6176 2.19285 17.7168C2.04765 17.7496 2.04765 17.7496 2.04765 17.8866C2.04765 18.0496 2.04765 18.0494 1.92425 18.0666C1.92005 18.0672 1.91645 18.0738 1.90445 18.0854C1.90445 18.176 1.90445 18.2746 1.90445 18.3798C1.85305 18.3832 1.80945 18.3862 1.76345 18.3894C1.76345 18.4938 1.76345 18.5916 1.76345 18.6926C1.78505 18.695 1.80265 18.7012 1.81925 18.6982C1.88845 18.6854 1.91405 18.723 1.90725 18.8154C1.90225 18.8834 1.90625 18.9526 1.90625 19.025C1.95785 19.0302 1.99885 19.0346 2.04985 19.0398C2.04985 19.1472 2.04985 19.2484 2.04985 19.3514C2.10145 19.3554 2.14305 19.3588 2.19385 19.3628C2.19385 19.4698 2.19385 19.5712 2.19385 19.6744C2.22025 19.6782 2.23765 19.685 2.25425 19.6822C2.32325 19.6708 2.34885 19.7084 2.34205 19.8004C2.33665 19.873 2.34045 19.9468 2.34005 20.02C2.14505 20.02 1.95005 20.02 1.75505 20.02C1.75505 19.8082 1.75505 19.5966 1.75505 19.389C1.64885 19.3476 1.61605 19.3604 1.61565 19.443C1.61485 19.6354 1.61825 19.8276 1.62005 20.02C1.42005 20.02 1.22005 20.02 1.02005 20.02C1.02105 19.9768 1.02265 19.9336 1.02285 19.8902C1.02325 19.7056 1.02305 19.7056 1.15405 19.6746C1.15605 19.6742 1.15765 19.6706 1.16805 19.6586C1.16805 19.6298 1.16805 19.5906 1.16805 19.5514C1.16825 19.3682 1.16825 19.3684 1.29905 19.3524C1.30325 19.3518 1.30685 19.3454 1.31945 19.3338C1.31945 19.2404 1.31945 19.1388 1.31945 19.039C1.45765 19.0218 1.45765 19.0218 1.45765 18.8744C1.45765 18.7086 1.45765 18.7086 1.58305 18.6948C1.58745 18.6944 1.59145 18.6888 1.59745 18.684C1.59745 18.5874 1.59745 18.4898 1.59745 18.3828C1.55065 18.3828 1.50925 18.3828 1.45765 18.3828C1.45765 18.331 1.45765 18.2886 1.45765 18.246C1.45745 18.0762 1.45745 18.0764 1.33385 18.0564C1.32965 18.0558 1.32605 18.0488 1.31605 18.0384C1.31605 17.9954 1.31605 17.9458 1.31605 17.8964C1.31605 17.8446 1.31605 17.7926 1.31605 17.738C1.26205 17.7318 1.21865 17.7268 1.16805 17.721C1.16805 17.6638 1.16805 17.6146 1.16805 17.5654C1.16805 17.5136 1.16805 17.4618 1.16805 17.4118C1.02325 17.3934 1.02325 17.3934 1.02285 17.2122C1.02285 17.2056 1.02225 17.1988 1.02285 17.1922C1.03165 17.1086 1.01045 17.0646 0.941449 17.0786C0.889649 17.0892 0.878249 17.0508 0.880449 16.9898C0.883249 16.9112 0.881049 16.8322 0.881049 16.7554C0.745448 16.7334 0.745449 16.7334 0.745248 16.8962C0.745049 17.066 0.745049 17.0658 0.625449 17.0824C0.618849 17.0834 0.612849 17.091 0.601249 17.099C0.601249 17.1398 0.601249 17.1826 0.601249 17.2256C0.601249 17.3968 0.601248 17.3968 0.473048 17.407C0.468648 17.4074 0.464648 17.4126 0.452248 17.421C0.452248 17.517 0.452248 17.6186 0.452248 17.7228C0.427248 17.7256 0.409848 17.7318 0.393248 17.7288C0.325648 17.7164 0.301648 17.7568 0.310448 17.8426C0.312448 17.8622 0.310648 17.8826 0.310648 17.9024C0.310448 18.0524 0.310448 18.0522 0.196448 18.0636C0.187448 18.0646 0.178648 18.0716 0.163048 18.079C0.163048 18.1784 0.163048 18.2768 0.163048 18.38C0.108448 18.38 0.0616484 18.38 0.0146484 18.38C0.0146484 18.16 0.0146484 17.94 0.0146484 17.72C0.0270484 17.719 0.0392484 17.7174 0.0516484 17.717C0.153048 17.715 0.153048 17.715 0.153248 17.575C0.153448 17.4116 0.153448 17.4116 0.0146484 17.4C0.0146484 17.0666 0.0146484 16.7334 0.0146484 16.4C0.0370484 16.4018 0.0598484 16.4082 0.0816484 16.4044C0.153248 16.392 0.173248 16.436 0.167248 16.5244C0.162448 16.5922 0.166248 16.6612 0.166248 16.7318C0.219248 16.735 0.260648 16.7374 0.310648 16.7402C0.310648 16.8048 0.310648 16.8608 0.310648 16.9168C0.310848 17.0744 0.322248 17.0854 0.449648 17.04C0.449648 16.9422 0.449648 16.841 0.449648 16.7396C0.498048 16.7364 0.537248 16.7338 0.588049 16.7304C0.588049 16.657 0.591249 16.588 0.587249 16.5198C0.582249 16.4368 0.599648 16.3952 0.669249 16.402C0.689249 16.404 0.727648 16.371 0.729648 16.3498C0.736848 16.2688 0.732648 16.1862 0.732648 16.1038C0.707648 16.0988 0.692448 16.0906 0.678448 16.0938C0.595448 16.1122 0.581448 16.0528 0.587449 15.961C0.591448 15.8972 0.588248 15.8324 0.588248 15.7686C0.532448 15.7648 0.493248 15.762 0.445448 15.7588C0.445448 15.6512 0.445448 15.55 0.445448 15.4512C0.311048 15.4238 0.311048 15.4238 0.310848 15.5918C0.310848 15.6468 0.310848 15.7016 0.310848 15.7588C0.255848 15.7632 0.214448 15.7664 0.164248 15.7702C0.164248 15.8782 0.164248 15.9794 0.164248 16.0844C0.108448 16.0902 0.0616484 16.0952 0.0148484 16.1002C0.0148484 15.7668 0.0148484 15.4336 0.0148484 15.1002C0.0584484 15.0968 0.102048 15.0936 0.153448 15.0896C0.153448 15.0458 0.153248 15.0102 0.153448 14.9744C0.154048 14.7878 0.154048 14.7878 0.0148484 14.78C0.0150484 14.56 0.0150484 14.34 0.0150484 14.12ZM2.32685 16.7308C2.32685 16.684 2.32685 16.6478 2.32685 16.6116C2.32725 16.4296 2.32725 16.4296 2.45845 16.3962C2.46045 16.3956 2.46225 16.3924 2.46765 16.3862C2.46765 16.2954 2.46765 16.2008 2.46765 16.103C2.44625 16.099 2.42865 16.0908 2.41225 16.0938C2.34145 16.1062 2.31985 16.0632 2.32585 15.9742C2.33045 15.9066 2.32685 15.838 2.32685 15.7688C2.27125 15.7648 2.23025 15.762 2.18305 15.7586C2.18305 15.6478 2.18305 15.5492 2.18305 15.4452C2.13705 15.4452 2.09825 15.4452 2.04845 15.4452C2.04845 15.5504 2.04845 15.6518 2.04845 15.758C1.99685 15.7622 1.95565 15.7656 1.91105 15.7692C1.90925 15.8008 1.90665 15.8266 1.90625 15.8524C1.90525 15.919 1.92265 16.002 1.89925 16.0474C1.87765 16.0892 1.81205 16.0904 1.76345 16.1106C1.76345 16.2044 1.76345 16.299 1.76345 16.3966C1.81185 16.4032 1.85565 16.409 1.90805 16.4162C1.90805 16.525 1.90805 16.6266 1.90805 16.7318C1.95845 16.735 1.99965 16.7374 2.05125 16.7406C2.05125 16.8504 2.05125 16.9514 2.05125 17.0526C2.10085 17.0526 2.13965 17.0526 2.18785 17.0526C2.18785 16.9448 2.18785 16.8436 2.18785 16.7402C2.23625 16.7368 2.27545 16.7342 2.32685 16.7308ZM2.77585 15.7686C2.77585 15.816 2.77585 15.8552 2.77585 15.8944C2.77565 16.0744 2.77565 16.0742 2.64645 16.1002C2.64225 16.101 2.63865 16.1074 2.63425 16.1118C2.63425 16.2062 2.63425 16.3006 2.63425 16.3972C2.65705 16.4002 2.67465 16.4072 2.69145 16.4042C2.76365 16.3912 2.78285 16.4376 2.77685 16.5252C2.77225 16.593 2.77585 16.6618 2.77585 16.7314C2.83005 16.735 2.87125 16.7376 2.91965 16.7408C2.91965 16.851 2.91965 16.9498 2.91965 17.0514C2.96825 17.0514 3.00885 17.0514 3.05905 17.0514C3.05905 16.9422 3.05905 16.841 3.05905 16.7398C3.10805 16.7366 3.14725 16.7338 3.19645 16.7306C3.19645 16.6564 3.20025 16.587 3.19545 16.5186C3.18945 16.432 3.21205 16.3926 3.27905 16.4052C3.33705 16.416 3.35425 16.3754 3.34965 16.3054C3.34745 16.2724 3.34665 16.2384 3.34985 16.2056C3.35805 16.118 3.33105 16.0806 3.26545 16.0928C3.20645 16.1036 3.19285 16.062 3.19585 15.9924C3.19905 15.918 3.19665 15.8432 3.19665 15.769C3.14205 15.7652 3.10285 15.7624 3.05445 15.759C3.05445 15.6514 3.05445 15.5502 3.05445 15.4456C3.00585 15.4456 2.96665 15.4456 2.91705 15.4456C2.91705 15.5522 2.91705 15.6536 2.91705 15.7594C2.86745 15.7624 2.82805 15.765 2.77585 15.7686ZM1.03725 16.0822C0.984448 16.0896 0.938848 16.096 0.894648 16.1022C0.894648 16.2074 0.894648 16.3016 0.894648 16.3978C0.917648 16.4008 0.935449 16.4074 0.952048 16.4044C1.02425 16.3912 1.04305 16.4376 1.03725 16.5252C1.03265 16.593 1.03625 16.6618 1.03625 16.7356C1.06845 16.7356 1.08805 16.7348 1.10785 16.7358C1.12925 16.737 1.15085 16.74 1.17985 16.743C1.17985 16.8064 1.17985 16.8624 1.17985 16.9184C1.18005 17.0738 1.19465 17.0876 1.31585 17.0402C1.31585 16.9928 1.31585 16.9432 1.31585 16.8938C1.31585 16.8448 1.31585 16.7958 1.31585 16.7416C1.36525 16.7374 1.40625 16.734 1.45745 16.7296C1.45745 16.6822 1.45745 16.64 1.45745 16.5978C1.45765 16.4214 1.45765 16.4214 1.58445 16.3982C1.58865 16.3974 1.59225 16.391 1.60285 16.3808C1.60285 16.3246 1.59905 16.2614 1.60385 16.1994C1.61005 16.1166 1.58725 16.0814 1.52485 16.0924C1.47205 16.1018 1.45405 16.0684 1.45705 16.0002C1.46025 15.925 1.45785 15.8494 1.45785 15.7704C1.40565 15.7658 1.36445 15.7622 1.31465 15.7578C1.31465 15.6504 1.31465 15.5492 1.31465 15.45C1.18045 15.4254 1.18045 15.4254 1.18025 15.5932C1.18025 15.6478 1.18025 15.7026 1.18025 15.7602C1.12445 15.7636 1.08325 15.7662 1.03745 15.769C1.03725 15.8748 1.03725 15.9706 1.03725 16.0822ZM1.74705 17.091C1.62165 17.0514 1.61465 17.0586 1.61445 17.2226C1.61445 17.339 1.61445 17.4556 1.61445 17.572C1.61465 17.7336 1.61925 17.7384 1.74705 17.7036C1.74705 17.4998 1.74705 17.2948 1.74705 17.091ZM1.74725 15.4086C1.74725 15.2048 1.74725 15 1.74725 14.7964C1.62085 14.76 1.61485 14.7662 1.61465 14.9272C1.61465 15.0436 1.61465 15.16 1.61465 15.2764C1.61465 15.4394 1.62065 15.4454 1.74725 15.4086ZM3.21445 17.7288C3.26425 17.714 3.33565 17.7108 3.33905 17.6888C3.35225 17.604 3.35105 17.511 3.33765 17.426C3.33465 17.4068 3.26105 17.4076 3.21465 17.398C3.21445 17.5114 3.21445 17.606 3.21445 17.7288ZM3.21685 14.783C3.21685 14.896 3.21685 14.993 3.21685 15.0896C3.26165 15.0896 3.30025 15.0896 3.34845 15.0896C3.34845 15.0022 3.35145 14.9204 3.34625 14.8394C3.34505 14.819 3.31945 14.792 3.30145 14.7852C3.27665 14.776 3.24845 14.783 3.21685 14.783ZM3.21465 19.6916C3.26445 19.679 3.33465 19.6772 3.33765 19.6578C3.35025 19.5724 3.35085 19.4798 3.33785 19.3948C3.33465 19.3746 3.26185 19.3734 3.21485 19.362C3.21465 19.4776 3.21465 19.5718 3.21465 19.6916Z" fill="white"/>
<path d="M2.34062 0.0197313C2.34082 0.0931312 2.33722 0.166931 2.34262 0.239531C2.34942 0.331931 2.32342 0.369131 2.25462 0.357731C2.23802 0.354931 2.22062 0.361931 2.19422 0.365531C2.19422 0.468931 2.19422 0.570131 2.19422 0.677131C2.14342 0.681131 2.10182 0.684531 2.05002 0.688531C2.05002 0.791731 2.05002 0.893131 2.05002 0.999931C1.99922 1.00533 1.95802 1.00953 1.90682 1.01493C1.90682 1.09093 1.90322 1.16333 1.90782 1.23513C1.91322 1.31913 1.88862 1.35133 1.82682 1.34153C1.80782 1.33853 1.78782 1.34453 1.76382 1.34693C1.76382 1.44873 1.76382 1.54653 1.76382 1.65073C1.81042 1.65373 1.85402 1.65633 1.90542 1.65953C1.90542 1.76573 1.90542 1.86433 1.90542 1.95553C1.91762 1.96653 1.92142 1.97273 1.92562 1.97333C2.04822 1.98913 2.04682 1.98913 2.04922 2.15433C2.05002 2.20433 2.04942 2.27373 2.07182 2.29853C2.09642 2.32593 2.14682 2.31253 2.19162 2.31733C2.19162 2.42073 2.19162 2.51973 2.19162 2.61173C2.20122 2.62293 2.20462 2.63053 2.20862 2.63113C2.34142 2.65053 2.34142 2.65033 2.34162 2.82813C2.34162 2.86733 2.34162 2.90653 2.34162 2.93933C2.35382 2.94913 2.35762 2.95493 2.36202 2.95553C2.48302 2.97173 2.48302 2.97173 2.48302 3.14033C2.48302 3.18633 2.48302 3.23233 2.48302 3.28593C2.53182 3.28593 2.57222 3.28593 2.62042 3.28593C2.62042 3.18113 2.62042 3.07933 2.62042 2.98433C2.63222 2.97373 2.63602 2.96753 2.64042 2.96673C2.76202 2.94593 2.76162 2.94593 2.76242 2.77313C2.76262 2.73073 2.76542 2.68833 2.76742 2.64093C2.81542 2.63753 2.85702 2.63453 2.90782 2.63093C2.90782 2.52613 2.90782 2.42473 2.90782 2.33053C2.92142 2.32053 2.92542 2.31533 2.92982 2.31453C3.05582 2.29253 3.05582 2.29253 3.05582 2.11873C3.05582 2.07633 3.05582 2.03393 3.05582 1.98413C3.10362 1.98013 3.14262 1.97693 3.19362 1.97273C3.19362 1.87193 3.19362 1.77093 3.19362 1.66253C3.25102 1.66253 3.29642 1.66253 3.34742 1.66253C3.34742 1.87913 3.34742 2.09373 3.34742 2.31753C3.30382 2.32093 3.26262 2.32413 3.21642 2.32773C3.21642 2.42773 3.21642 2.52293 3.21642 2.63073C3.25622 2.63353 3.29722 2.63653 3.34542 2.63993C3.34542 2.96573 3.34542 3.28993 3.34542 3.62233C3.32882 3.62593 3.31002 3.63033 3.29122 3.63413C3.22342 3.64733 3.18682 3.61993 3.19602 3.51673C3.20182 3.45153 3.19702 3.38473 3.19702 3.30893C3.14902 3.30593 3.10782 3.30313 3.05742 3.29993C3.05742 3.19513 3.05742 3.09393 3.05742 2.98653C3.00902 2.98653 2.97022 2.98653 2.92062 2.98653C2.92062 3.08893 2.92062 3.18993 2.92062 3.29893C2.86922 3.30253 2.82802 3.30533 2.77662 3.30893C2.77662 3.38153 2.77302 3.45093 2.77762 3.51913C2.78302 3.60293 2.76542 3.64713 2.69602 3.63533C2.67722 3.63213 2.65722 3.63973 2.63362 3.64313C2.63362 3.74253 2.63362 3.83713 2.63362 3.93853C2.68062 3.94453 2.72442 3.94993 2.77462 3.95633C2.77462 4.06153 2.77462 4.16033 2.77462 4.27033C2.82222 4.27353 2.86342 4.27633 2.91782 4.28013C2.91782 4.34013 2.91782 4.39853 2.91782 4.45673C2.91782 4.61673 2.92362 4.62233 3.05482 4.58493C3.05482 4.48853 3.05482 4.38993 3.05482 4.28073C3.10242 4.27753 3.14342 4.27473 3.19702 4.27113C3.19702 4.20293 3.19682 4.13773 3.19702 4.07253C3.19722 3.94453 3.19822 3.94313 3.29222 3.94773C3.30942 3.94853 3.32642 3.95293 3.34782 3.95653C3.34782 4.28393 3.34782 4.60833 3.34782 4.93913C3.30402 4.94213 3.26482 4.94473 3.21842 4.94793C3.21842 5.04593 3.21842 5.14333 3.21842 5.25213C3.25782 5.25533 3.29902 5.25853 3.34622 5.26233C3.34622 5.48113 3.34622 5.69553 3.34622 5.91813C3.30122 5.91813 3.25542 5.91813 3.19782 5.91813C3.19782 5.81573 3.19782 5.71453 3.19782 5.60893C3.14762 5.60453 3.10862 5.60113 3.05602 5.59653C3.05602 5.52353 3.05222 5.45153 3.05702 5.38053C3.06262 5.29793 3.04102 5.26293 2.97802 5.27233C2.95902 5.27533 2.93902 5.26793 2.91082 5.26413C2.91082 5.15993 2.91082 5.05853 2.91082 4.96453C2.89782 4.95393 2.89402 4.94813 2.88982 4.94773C2.76262 4.93553 2.75942 4.93553 2.76362 4.76413C2.76602 4.66813 2.76022 4.60013 2.66742 4.61593C2.65442 4.61813 2.62502 4.57573 2.62342 4.55153C2.61782 4.46933 2.62122 4.38593 2.62122 4.29233C2.58982 4.29033 2.56342 4.28973 2.53702 4.28653C2.49862 4.28173 2.48082 4.30313 2.48302 4.35473C2.48382 4.37473 2.48302 4.39473 2.48302 4.41473C2.48262 4.60153 2.48262 4.60153 2.34162 4.63273C2.34162 4.73093 2.34162 4.83193 2.34162 4.93933C2.28922 4.94233 2.24742 4.94493 2.19742 4.94773C2.19742 5.05053 2.19742 5.15213 2.19742 5.24953C2.18342 5.25973 2.17762 5.26713 2.17102 5.26833C2.04842 5.28913 2.04842 5.28893 2.04842 5.44273C2.04842 5.59313 2.04842 5.59313 1.91002 5.60893C1.91002 5.70793 1.91002 5.80893 1.91002 5.91953C1.85622 5.92353 1.81262 5.92653 1.75962 5.93053C1.75962 6.03813 1.75962 6.14273 1.75962 6.25733C1.71342 6.25733 1.67562 6.26433 1.64062 6.25413C1.62542 6.24973 1.60682 6.21093 1.60562 6.18633C1.60122 6.10413 1.60402 6.02113 1.60402 5.94413C1.59262 5.93513 1.58862 5.92953 1.58442 5.92913C1.45882 5.91753 1.45882 5.91773 1.45862 5.74373C1.45862 5.70133 1.45862 5.65873 1.45862 5.60973C1.40882 5.60473 1.36782 5.60053 1.31962 5.59573C1.31962 5.49253 1.31962 5.39393 1.31962 5.28493C1.26782 5.27713 1.22242 5.27033 1.17102 5.26273C1.17102 5.15873 1.17102 5.05973 1.17102 4.95173C1.12182 4.94693 1.07842 4.94253 1.02382 4.93713C1.02382 4.86833 1.02042 4.80233 1.02462 4.73713C1.03042 4.64913 1.01022 4.60393 0.938425 4.61873C0.924425 4.62173 0.909225 4.61553 0.884625 4.61213C0.884625 4.50593 0.884625 4.40193 0.884625 4.30053C0.748025 4.26733 0.746625 4.26893 0.746425 4.43353C0.746225 4.60553 0.746225 4.60553 0.602425 4.62913C0.602425 4.69533 0.598425 4.76453 0.603425 4.83253C0.609625 4.91853 0.589625 4.95873 0.521225 4.94473C0.502425 4.94093 0.482225 4.94673 0.455625 4.94873C0.455625 5.05493 0.455625 5.15673 0.455625 5.25613C0.314225 5.30013 0.314425 5.30013 0.311625 5.49313C0.311225 5.52573 0.308225 5.55813 0.306025 5.59553C0.259225 5.59993 0.217825 5.60373 0.169025 5.60833C0.169025 5.71093 0.169025 5.80953 0.169025 5.91973C0.112825 5.91973 0.064425 5.91973 0.016025 5.91973C0.016025 5.69973 0.016025 5.47973 0.016025 5.25973C0.048225 5.25873 0.080825 5.26193 0.112225 5.25473C0.127025 5.25133 0.150425 5.22893 0.151025 5.21373C0.154825 5.12653 0.152825 5.03893 0.152825 4.94853C0.099225 4.94513 0.057625 4.94233 0.015825 4.93973C0.015825 4.60633 0.015825 4.27313 0.015825 3.93973C0.064425 3.94513 0.113225 3.95073 0.170425 3.95713C0.170425 4.06753 0.170425 4.16893 0.170425 4.27573C0.199425 4.27573 0.219225 4.27493 0.239025 4.27593C0.260625 4.27713 0.282025 4.28013 0.311825 4.28333C0.311825 4.34653 0.311825 4.40233 0.311825 4.45833C0.312025 4.61453 0.326025 4.62793 0.451425 4.57953C0.451425 4.48233 0.451425 4.38113 0.451425 4.27593C0.480625 4.27593 0.500425 4.27653 0.520225 4.27573C0.539625 4.27493 0.558825 4.27273 0.589225 4.27013C0.589225 4.21313 0.589225 4.16093 0.589225 4.10873C0.589225 3.95993 0.589225 3.96013 0.701825 3.94433C0.711025 3.94313 0.719625 3.93613 0.734225 3.92933C0.734225 3.86153 0.730625 3.79513 0.735225 3.72973C0.740425 3.65353 0.717625 3.62453 0.663025 3.63493C0.600625 3.64673 0.585625 3.60353 0.588825 3.53013C0.592025 3.45833 0.589425 3.38613 0.589425 3.31033C0.536825 3.30573 0.495825 3.30233 0.446025 3.29793C0.446025 3.19093 0.446025 3.08973 0.446025 2.99053C0.312025 2.96653 0.312025 2.96653 0.312025 3.13293C0.312025 3.18773 0.312025 3.24233 0.312025 3.29953C0.256425 3.30333 0.215225 3.30613 0.167625 3.30933C0.167625 3.35033 0.167625 3.38293 0.167625 3.41553C0.166625 3.62333 0.166625 3.62333 0.015625 3.63973C0.015625 3.30633 0.015625 2.97313 0.015625 2.63973C0.032825 2.63853 0.050625 2.63273 0.067225 2.63653C0.143225 2.65373 0.157425 2.60453 0.155625 2.51413C0.151625 2.32893 0.154825 2.32893 0.015625 2.31973C0.015625 2.09973 0.015625 1.87973 0.015625 1.65973C0.064225 1.65973 0.112625 1.65973 0.168825 1.65973C0.168825 1.77053 0.168825 1.86913 0.168825 1.97253C0.239025 1.98433 0.324825 1.94213 0.314425 2.10773C0.302825 2.29213 0.312425 2.29313 0.455625 2.32193C0.455625 2.42333 0.455625 2.52753 0.455625 2.63573C0.483825 2.63573 0.501625 2.63853 0.518625 2.63513C0.583225 2.62233 0.610425 2.65373 0.603225 2.74433C0.597825 2.81233 0.602225 2.88173 0.602225 2.95273C0.629625 2.95633 0.647225 2.96313 0.663625 2.95993C0.731425 2.94733 0.753225 2.98833 0.746825 3.07373C0.743025 3.12313 0.747025 3.17353 0.746225 3.22353C0.745425 3.27213 0.758025 3.29893 0.798425 3.29433C0.824425 3.29133 0.851025 3.29373 0.882025 3.29373C0.882025 3.19593 0.878625 3.11253 0.884025 3.03033C0.885625 3.00593 0.914225 2.96273 0.927025 2.96493C1.01822 2.98033 1.02762 2.91633 1.02482 2.81773C1.02022 2.64473 1.02362 2.64453 1.14962 2.63233C1.15382 2.63193 1.15782 2.62613 1.17142 2.61493C1.17142 2.52133 1.17142 2.42013 1.17142 2.31733C1.22462 2.31173 1.26842 2.30693 1.32002 2.30153C1.32002 2.19113 1.32002 2.08953 1.32002 1.98473C1.34242 1.98173 1.35763 1.97553 1.37142 1.97873C1.44922 1.99613 1.46542 1.94333 1.45902 1.85353C1.45462 1.79173 1.45822 1.72873 1.45822 1.66113C1.51142 1.65653 1.55502 1.65273 1.59722 1.64893C1.59722 1.54233 1.59722 1.44453 1.59722 1.34793C1.45822 1.32893 1.45822 1.32893 1.45822 1.16513C1.45822 1.01473 1.45822 1.01473 1.34322 1.00573C1.33642 1.00513 1.32982 0.99973 1.31502 0.992531C1.31502 0.892931 1.31502 0.791531 1.31502 0.688131C1.28922 0.685931 1.27162 0.680331 1.25502 0.683731C1.18602 0.697131 1.16022 0.660531 1.16762 0.568131C1.17282 0.503131 1.16862 0.436531 1.16862 0.366531C1.14142 0.362531 1.12182 0.354731 1.10302 0.357531C1.04022 0.366931 1.01862 0.331131 1.02262 0.249131C1.02622 0.172931 1.02162 0.0961312 1.02062 0.0195312C1.22062 0.0195312 1.42062 0.0195312 1.62062 0.0195312C1.61882 0.191931 1.61622 0.364331 1.61542 0.536731C1.61462 0.682331 1.63322 0.698331 1.75562 0.650531C1.75562 0.442931 1.75562 0.231131 1.75562 0.0195312C1.95062 0.0197312 2.14562 0.0197313 2.34062 0.0197313ZM2.32762 4.27033C2.32762 4.18893 2.33062 4.11893 2.32682 4.04953C2.32262 3.97253 2.34242 3.93933 2.40262 3.94553C2.43162 3.94853 2.47302 3.96153 2.47302 3.89073C2.47302 3.80873 2.47302 3.72653 2.47302 3.64413C2.44762 3.63973 2.43262 3.63273 2.41842 3.63533C2.34582 3.64833 2.31902 3.60813 2.32662 3.51193C2.33182 3.44473 2.32762 3.37613 2.32762 3.30833C2.27282 3.30453 2.23362 3.30193 2.18542 3.29873C2.18542 3.19173 2.18542 3.09033 2.18542 2.98513C2.13702 2.98513 2.09782 2.98513 2.04822 2.98513C2.04822 3.09153 2.04822 3.19273 2.04822 3.29813C1.99682 3.30233 1.95562 3.30593 1.90682 3.30993C1.90682 3.35833 1.90682 3.40093 1.90682 3.44333C1.90682 3.61933 1.90682 3.61933 1.77862 3.64033C1.77422 3.64113 1.77042 3.64673 1.76422 3.65213C1.76422 3.74533 1.76422 3.84013 1.76422 3.93853C1.81282 3.94473 1.85662 3.95033 1.90922 3.95713C1.90922 4.06553 1.90922 4.16713 1.90922 4.27113C1.95982 4.27453 2.00102 4.27733 2.05282 4.28073C2.05282 4.39133 2.05282 4.49213 2.05282 4.59193C2.10282 4.59193 2.14122 4.59193 2.18922 4.59193C2.18922 4.48313 2.18922 4.38213 2.18922 4.27973C2.23802 4.27673 2.27722 4.27393 2.32762 4.27033ZM1.03682 3.95653C1.03682 4.06313 1.03682 4.16453 1.03682 4.27053C1.06522 4.27273 1.08463 4.27433 1.10403 4.27553C1.12602 4.27713 1.14822 4.27833 1.18062 4.28053C1.18062 4.34133 1.18062 4.39713 1.18062 4.45293C1.18082 4.61533 1.18702 4.62173 1.31822 4.58393C1.31822 4.48593 1.31822 4.38473 1.31822 4.27993C1.36842 4.27653 1.40962 4.27373 1.45822 4.27053C1.45822 4.18853 1.46122 4.11553 1.45742 4.04333C1.45342 3.96853 1.47502 3.94413 1.53022 3.94433C1.55442 3.94433 1.59742 3.91553 1.59982 3.89373C1.60822 3.81313 1.60322 3.72993 1.60322 3.64533C1.57762 3.64093 1.56022 3.63293 1.54382 3.63573C1.47242 3.64833 1.45162 3.60393 1.45742 3.51573C1.46182 3.44793 1.45822 3.37933 1.45822 3.30873C1.40342 3.30513 1.36242 3.30233 1.31522 3.29913C1.31522 3.18993 1.31522 3.09113 1.31522 2.99473C1.18502 2.95993 1.18082 2.96433 1.18062 3.12793C1.18062 3.18353 1.18062 3.23933 1.18062 3.29913C1.12862 3.30273 1.08722 3.30573 1.04182 3.30893C1.04002 3.34313 1.03782 3.37233 1.03722 3.40133C1.03582 3.46773 1.05262 3.54953 1.02943 3.59613C1.00962 3.63613 0.944425 3.63613 0.893625 3.65593C0.893625 3.74273 0.893625 3.83733 0.893625 3.93873C0.940825 3.94453 0.984425 3.94993 1.03682 3.95653ZM1.74742 2.94853C1.74742 2.74413 1.74742 2.53913 1.74742 2.33513C1.61842 2.30253 1.61522 2.30573 1.61522 2.46893C1.61522 2.58533 1.61522 2.70193 1.61522 2.81833C1.61522 2.98093 1.62342 2.98913 1.74742 2.94853ZM1.74862 5.24493C1.74862 5.03633 1.74862 4.83413 1.74862 4.62373C1.70542 4.62373 1.66502 4.62373 1.61502 4.62373C1.61502 4.79193 1.61502 4.95093 1.61502 5.10993C1.61522 5.27433 1.61802 5.27733 1.74862 5.24493Z" fill="white"/>
<path d="M0.0148926 6.58031C0.0616926 6.58031 0.108493 6.58031 0.165493 6.58031C0.165493 6.68451 0.165493 6.78571 0.165493 6.89111C0.216893 6.89571 0.258293 6.89931 0.310893 6.90391C0.310893 6.97411 0.314293 7.04011 0.310093 7.10531C0.304493 7.19311 0.324693 7.23871 0.396692 7.22611C0.412892 7.22331 0.430293 7.23231 0.454093 7.23731C0.454093 7.34211 0.454093 7.44411 0.454093 7.55071C0.498093 7.55071 0.534892 7.55071 0.588292 7.55071C0.588292 7.48431 0.592292 7.41591 0.587292 7.34871C0.580293 7.25451 0.603692 7.21011 0.677892 7.22391C0.692092 7.22651 0.707292 7.21971 0.733092 7.21511C0.733092 7.14611 0.737092 7.07671 0.732092 7.00871C0.725692 6.92171 0.747492 6.88331 0.815092 6.89631C0.833892 6.89991 0.853892 6.89351 0.877092 6.89131C0.877092 6.79131 0.877092 6.69591 0.877092 6.58871C0.786692 6.58871 0.695492 6.58871 0.590492 6.58871C0.590492 6.47991 0.588292 6.38191 0.592692 6.28431C0.593492 6.26851 0.623492 6.24291 0.640292 6.24231C0.755292 6.23871 0.870292 6.23731 0.985092 6.24371C1.00289 6.24471 1.03169 6.28791 1.03369 6.31471C1.04009 6.39611 1.03609 6.47911 1.03609 6.56651C1.08649 6.57111 1.12789 6.57491 1.17989 6.57951C1.17989 6.64911 1.18329 6.71511 1.17909 6.78031C1.17329 6.86891 1.19389 6.91371 1.26569 6.89791C1.27989 6.89471 1.29529 6.90031 1.31669 6.90251C1.31669 7.01111 1.31669 7.11871 1.31669 7.22611C1.31229 7.23011 1.30849 7.23651 1.30429 7.23711C1.18029 7.25491 1.18029 7.25491 1.17989 7.42711C1.17989 7.46971 1.17989 7.51231 1.17989 7.56071C1.12909 7.56411 1.08749 7.56671 1.03629 7.57011C1.03629 7.64351 1.03209 7.71311 1.03729 7.78131C1.04429 7.87351 1.01869 7.91131 0.949492 7.89931C0.932892 7.89651 0.915292 7.90291 0.888492 7.90651C0.888492 7.96071 0.888492 8.01291 0.888492 8.06511C0.888492 8.11411 0.888492 8.16311 0.888492 8.21851C0.840892 8.22191 0.801892 8.22471 0.748292 8.22851C0.748292 8.33171 0.748292 8.43511 0.748292 8.54171C0.692692 8.54751 0.651293 8.55191 0.601292 8.55711C0.601292 8.62811 0.601492 8.69391 0.601292 8.75951C0.601093 8.88431 0.600892 8.88451 0.504292 8.88151C0.489492 8.88111 0.474692 8.87851 0.449493 8.87571C0.449493 8.77091 0.449493 8.66691 0.449493 8.55671C0.395493 8.55151 0.351693 8.54731 0.300893 8.54231C0.300893 8.43811 0.300893 8.33931 0.300893 8.23171C0.250893 8.22671 0.207493 8.22231 0.153493 8.21671C0.153493 8.15031 0.149493 8.08731 0.154493 8.02571C0.162493 7.92691 0.137893 7.88011 0.0598926 7.89811C0.0452926 7.90151 0.0298926 7.89971 0.0148926 7.90011C0.0148926 7.78671 0.0148926 7.67351 0.0148926 7.56011C0.0584926 7.55671 0.102093 7.55331 0.153493 7.54931C0.153493 7.50551 0.153293 7.46991 0.153493 7.43411C0.154093 7.24611 0.154093 7.24611 0.0148926 7.23991C0.0148926 7.02031 0.0148926 6.80031 0.0148926 6.58031Z" fill="white"/>
<path d="M0.0148926 12.1402C0.179093 12.1444 0.150093 12.1544 0.153693 11.9648C0.154493 11.9188 0.156893 11.873 0.158693 11.8218C0.205893 11.8182 0.247293 11.815 0.298493 11.8112C0.298493 11.706 0.298493 11.6044 0.298493 11.4982C0.351893 11.493 0.395693 11.4888 0.446893 11.4838C0.446893 11.3758 0.446893 11.274 0.446893 11.1786C0.458893 11.1692 0.462893 11.1634 0.467293 11.163C0.601493 11.1466 0.601493 11.1466 0.601493 11.3208C0.601493 11.3706 0.601493 11.4204 0.601493 11.48C0.626092 11.484 0.647093 11.4882 0.668293 11.4906C0.690293 11.4932 0.712292 11.4942 0.745493 11.4968C0.745493 11.6028 0.745493 11.704 0.745493 11.8096C0.797893 11.8144 0.838893 11.8182 0.886693 11.8224C0.886693 11.9264 0.886693 12.0252 0.886693 12.1168C0.897292 12.1278 0.900893 12.1344 0.905093 12.1352C1.03609 12.1578 1.03629 12.1578 1.03629 12.3386C1.03629 12.3784 1.03629 12.4182 1.03629 12.4672C1.08369 12.4718 1.12729 12.476 1.17989 12.481C1.17989 12.551 1.18369 12.6174 1.17909 12.6828C1.17269 12.7742 1.19809 12.8127 1.26729 12.7987C1.28149 12.7959 1.29649 12.8015 1.31729 12.8041C1.31729 12.9141 1.31729 13.0215 1.31729 13.1279C1.31129 13.1327 1.30729 13.1383 1.30289 13.1389C1.18029 13.1527 1.18029 13.1525 1.18009 13.3197C1.18009 13.3653 1.18009 13.4111 1.18009 13.4607C1.12809 13.4655 1.08669 13.4691 1.03629 13.4737C1.03629 13.5577 1.03469 13.6369 1.03689 13.7157C1.03849 13.7733 1.02509 13.8019 0.977893 13.8007C0.867893 13.7981 0.757893 13.8025 0.648093 13.7975C0.628293 13.7965 0.593893 13.7659 0.592493 13.7457C0.586493 13.6539 0.589893 13.5611 0.589893 13.4579C0.690093 13.4579 0.781292 13.4579 0.876893 13.4579C0.876893 13.3519 0.876893 13.2565 0.876893 13.1593C0.874692 13.1567 0.871293 13.1491 0.867293 13.1483C0.733493 13.1265 0.733493 13.1265 0.733293 12.9417C0.733293 12.9057 0.733293 12.8695 0.733293 12.8399C0.722693 12.8297 0.719093 12.8233 0.714893 12.8225C0.588693 12.7999 0.588893 12.7999 0.588293 12.6217C0.588093 12.5793 0.585493 12.5368 0.583893 12.4898C0.538893 12.4898 0.500293 12.4898 0.454293 12.4898C0.454293 12.596 0.454293 12.6981 0.454293 12.7967C0.402493 12.8181 0.340293 12.8193 0.318693 12.8595C0.295893 12.9019 0.312493 12.9813 0.310693 13.0445C0.309893 13.0739 0.306693 13.1031 0.304493 13.1367C0.258493 13.1407 0.216893 13.1445 0.168093 13.1487C0.168093 13.2517 0.168093 13.3503 0.168093 13.4597C0.112093 13.4597 0.0636926 13.4597 0.0152926 13.4597C0.0152926 13.2397 0.0152926 13.0197 0.0152926 12.7997C0.0474926 12.7989 0.0800926 12.8023 0.111493 12.7951C0.126293 12.7917 0.149693 12.7691 0.150293 12.7537C0.154093 12.6665 0.152093 12.5788 0.152093 12.4888C0.0984926 12.4852 0.0568926 12.4824 0.0150926 12.4794C0.0148926 12.3668 0.0148926 12.2536 0.0148926 12.1402Z" fill="white"/>
<path d="M0.0148926 8.86035C0.166293 8.87095 0.166293 8.87095 0.166493 9.07375C0.166493 9.10975 0.166493 9.14595 0.166493 9.19115C0.213693 9.19395 0.254893 9.19635 0.310893 9.19975C0.310893 9.27035 0.314093 9.33875 0.310093 9.40655C0.305093 9.48995 0.322893 9.53455 0.392093 9.52035C0.408493 9.51695 0.425893 9.52355 0.453492 9.52695C0.453492 9.58255 0.453492 9.63435 0.453492 9.68635C0.453492 9.73615 0.453492 9.78595 0.453492 9.83975C0.502292 9.84975 0.578892 9.84315 0.587092 9.87135C0.607892 9.94455 0.602092 10.0332 0.600492 10.1154C0.597692 10.261 0.500892 10.1466 0.453492 10.2224C0.453492 10.2508 0.453492 10.3028 0.453492 10.3548C0.453492 10.4044 0.453492 10.454 0.453492 10.4976C0.444093 10.5078 0.440693 10.515 0.436493 10.5156C0.311293 10.5378 0.311293 10.5378 0.310893 10.7144C0.310693 10.7538 0.310893 10.793 0.310893 10.839C0.280493 10.8416 0.258893 10.8442 0.237093 10.8452C0.217493 10.8462 0.197693 10.8454 0.166493 10.8454C0.166493 10.92 0.162093 10.9892 0.167493 11.057C0.175293 11.1554 0.145493 11.1908 0.0746926 11.1778C0.0552926 11.1742 0.0348926 11.1794 0.0148926 11.1804C0.0148926 10.407 0.0148926 9.63375 0.0148926 8.86035Z" fill="white"/>
<path d="M0.600093 0.0205078C0.600493 0.0969077 0.597893 0.173708 0.602493 0.249508C0.607493 0.330907 0.586693 0.367907 0.523493 0.358307C0.504293 0.355307 0.484093 0.361107 0.455493 0.363907C0.455493 0.467507 0.455493 0.568707 0.455493 0.661907C0.442493 0.673107 0.438693 0.679107 0.434493 0.679707C0.311293 0.694307 0.311293 0.694107 0.311093 0.858107C0.311093 0.903907 0.311093 0.949707 0.311093 1.00131C0.260693 1.00611 0.219293 1.01011 0.166693 1.01511C0.166693 1.08611 0.162093 1.15511 0.167693 1.22251C0.175893 1.32191 0.144893 1.35511 0.0746926 1.34191C0.0550926 1.33811 0.0348926 1.34071 0.0148926 1.34051C0.0148926 1.12051 0.0148926 0.900507 0.0148926 0.680507C0.153493 0.653907 0.154893 0.653907 0.153093 0.530307C0.150693 0.354707 0.182493 0.351507 0.0148926 0.360507C0.0148926 0.247108 0.0148926 0.133908 0.0148926 0.0205078C0.210093 0.0205078 0.405093 0.0205078 0.600093 0.0205078Z" fill="white"/>
<path d="M0.0148926 18.7002C0.196893 18.6996 0.162693 18.6764 0.166493 18.8976C0.167093 18.9372 0.166493 18.9766 0.166493 19.027C0.212893 19.03 0.254093 19.0328 0.310893 19.0366C0.310893 19.1068 0.314693 19.175 0.309893 19.2422C0.303693 19.3326 0.327693 19.3722 0.397093 19.3574C0.411293 19.3544 0.426493 19.3598 0.450293 19.3622C0.450293 19.4644 0.450293 19.5654 0.450293 19.658C0.463493 19.67 0.467093 19.6762 0.471293 19.6768C0.601293 19.6976 0.601293 19.6976 0.601293 19.8806C0.601293 19.927 0.600293 19.9736 0.599893 20.02C0.404893 20.02 0.209893 20.02 0.0148926 20.02C0.0148926 19.9066 0.0148926 19.7934 0.0148926 19.68C0.0270926 19.681 0.0394926 19.6824 0.0516926 19.6826C0.153093 19.6844 0.153093 19.6842 0.153493 19.5496C0.153893 19.3866 0.153893 19.3866 0.0148926 19.36C0.0148926 19.1402 0.0148926 18.9202 0.0148926 18.7002Z" fill="white"/>
<path d="M3.34501 0.0195312C3.34721 0.109131 3.34841 0.198531 3.35201 0.288131C3.35421 0.342331 3.33361 0.358331 3.29741 0.356531C3.27281 0.355331 3.24801 0.356331 3.21701 0.356331C3.21701 0.462931 3.21701 0.560131 3.21701 0.663731C3.26081 0.668331 3.30201 0.672731 3.35121 0.678131C3.35121 0.885531 3.35301 1.08773 3.34801 1.28993C3.34761 1.30793 3.30301 1.33353 3.27701 1.33813C3.24641 1.34353 3.20101 1.35953 3.19781 1.28513C3.19541 1.22873 3.19341 1.17153 3.19721 1.11533C3.20261 1.03573 3.18461 0.994331 3.11941 1.00693C3.10261 1.01013 3.08481 1.00513 3.05841 1.00313C3.05841 0.900931 3.05841 0.799331 3.05841 0.690331C3.00641 0.685531 2.96281 0.681331 2.90921 0.676331C2.90921 0.572331 2.90921 0.471131 2.90921 0.373331C2.76181 0.330531 2.76181 0.330531 2.76161 0.129531C2.76161 0.0929313 2.76061 0.0563313 2.76001 0.0197313C2.95501 0.0195313 3.15001 0.0195312 3.34501 0.0195312Z" fill="white"/>
<path d="M2.04794 8.53148C2.09954 8.53548 2.14114 8.53888 2.19214 8.54288C2.19214 8.64768 2.19214 8.74888 2.19214 8.84008C2.24814 8.86228 2.31314 8.86248 2.33294 8.90248C2.35614 8.94928 2.33974 9.03088 2.34114 9.09748C2.34174 9.12668 2.34394 9.15587 2.34574 9.19087C2.39074 9.19407 2.43194 9.19708 2.47754 9.20028C2.47754 9.74747 2.47754 10.2889 2.47754 10.8407C2.43534 10.8433 2.39414 10.8457 2.34094 10.8491C2.34094 10.9201 2.33734 10.9889 2.34174 11.0569C2.34754 11.1447 2.32834 11.1911 2.25594 11.1779C2.23914 11.1749 2.22154 11.1813 2.19494 11.1847C2.19494 11.2873 2.19494 11.3885 2.19494 11.4981C2.14454 11.5015 2.10294 11.5045 2.05114 11.5079C2.05114 11.6107 2.05114 11.7117 2.05114 11.8211C2.00014 11.8257 1.95894 11.8293 1.90614 11.8339C1.90614 11.9053 1.90254 11.9741 1.90694 12.0421C1.91274 12.1303 1.89334 12.1763 1.82094 12.1617C1.80434 12.1583 1.78654 12.1643 1.76014 12.1669C1.76014 12.2695 1.76014 12.3709 1.76014 12.4783C1.70494 12.4783 1.65914 12.4783 1.60554 12.4783C1.60554 12.3753 1.60554 12.2769 1.60554 12.1867C1.59414 12.1745 1.59054 12.1675 1.58654 12.1667C1.45794 12.1461 1.45794 12.1461 1.45774 11.9703C1.45774 11.9277 1.45774 11.8851 1.45774 11.8345C1.40794 11.8301 1.36674 11.8265 1.31694 11.8223C1.31694 11.7173 1.31694 11.6157 1.31694 11.5167C1.16934 11.4825 1.16954 11.4825 1.16814 11.2831C1.16794 11.2537 1.16614 11.2241 1.16514 11.1979C1.15794 11.1909 1.15434 11.1843 1.15014 11.1835C1.02314 11.1611 1.02314 11.1613 1.02294 10.9837C1.02294 10.9413 1.02294 10.8991 1.02294 10.8511C0.972142 10.8469 0.930942 10.8437 0.885742 10.8399C0.885742 10.2933 0.885742 9.75167 0.885742 9.19987C0.927542 9.19727 0.968542 9.19448 1.02294 9.19108C1.02294 9.11968 1.02634 9.05068 1.02214 8.98288C1.01654 8.89468 1.03694 8.84948 1.10874 8.86248C1.12514 8.86548 1.14234 8.85768 1.16814 8.85328C1.16814 8.78488 1.17194 8.71868 1.16714 8.65348C1.16054 8.56408 1.18194 8.52128 1.25314 8.53608C1.26994 8.53948 1.28774 8.53408 1.31374 8.53208C1.31374 8.42928 1.31374 8.32788 1.31374 8.23408C1.32634 8.22308 1.33014 8.21708 1.33434 8.21648C1.45734 8.20288 1.45734 8.20288 1.45754 8.03608C1.45774 7.90328 1.45774 7.90328 1.60234 7.86428C1.60234 7.76828 1.60234 7.66968 1.60234 7.56348C1.65574 7.56348 1.70154 7.56348 1.75694 7.56348C1.75694 7.66468 1.75694 7.76588 1.75694 7.86428C1.90534 7.90308 1.90514 7.90308 1.90614 8.10168C1.90634 8.13428 1.90814 8.16688 1.90954 8.20568C1.95534 8.20988 1.99654 8.21388 2.04774 8.21868C2.04794 8.32468 2.04794 8.42628 2.04794 8.53148ZM1.75434 9.85727C1.80214 9.85287 1.84354 9.84927 1.89234 9.84487C1.89234 9.79647 1.89234 9.75708 1.89234 9.71768C1.89254 9.53568 1.89254 9.53568 2.02254 9.51328C2.02654 9.51268 2.02974 9.50508 2.03134 9.50348C2.03134 9.29628 2.03134 9.09208 2.03134 8.88808C1.98814 8.88808 1.95174 8.88808 1.90454 8.88808C1.90454 8.99488 1.90454 9.09588 1.90454 9.19948C1.85054 9.20388 1.80674 9.20728 1.75654 9.21148C1.75654 9.32108 1.75654 9.42308 1.75654 9.53028C1.72534 9.53028 1.70014 9.52408 1.67734 9.53148C1.61234 9.55248 1.59874 9.51228 1.60234 9.43628C1.60574 9.36148 1.60314 9.28607 1.60314 9.20187C1.54994 9.20187 1.50854 9.20187 1.45574 9.20187C1.45574 9.09168 1.45574 8.99088 1.45574 8.89028C1.40554 8.89028 1.36714 8.89028 1.32914 8.89028C1.32914 9.10288 1.32914 9.30748 1.32914 9.51407C1.35174 9.51607 1.36954 9.52208 1.38614 9.51868C1.45834 9.50408 1.47814 9.54967 1.47214 9.63787C1.46774 9.70567 1.47134 9.77467 1.47134 9.84527C1.52434 9.85047 1.56554 9.85447 1.60854 9.85887C1.60854 9.97127 1.60854 10.0759 1.60854 10.1831C1.56154 10.1877 1.52014 10.1915 1.47154 10.1963C1.47154 10.2493 1.47154 10.2951 1.47154 10.3411C1.47154 10.5125 1.47154 10.5125 1.34374 10.5261C1.33934 10.5265 1.33534 10.5319 1.32834 10.5369C1.32834 10.7397 1.32834 10.9443 1.32834 11.1525C1.37134 11.1525 1.40974 11.1525 1.45974 11.1525C1.45974 11.0453 1.45974 10.9445 1.45974 10.8411C1.51274 10.8373 1.55434 10.8345 1.60334 10.8309C1.60334 10.7425 1.60074 10.6599 1.60494 10.5777C1.60634 10.5527 1.62414 10.5127 1.63874 10.5087C1.67554 10.4987 1.71514 10.5053 1.76034 10.5053C1.76034 10.6237 1.76034 10.7257 1.76034 10.8315C1.81094 10.8349 1.85454 10.8377 1.90834 10.8413C1.90834 10.9507 1.90834 11.0519 1.90834 11.1499C1.95734 11.1499 1.99574 11.1499 2.03394 11.1499C2.03394 10.9387 2.03394 10.7367 2.03394 10.5305C1.98914 10.5237 1.93334 10.5367 1.91054 10.5061C1.88754 10.4753 1.89374 10.4013 1.89294 10.3461C1.89094 10.1971 1.89214 10.1971 1.77694 10.1873C1.77014 10.1867 1.76374 10.1807 1.75434 10.1759C1.75434 10.0723 1.75434 9.97027 1.75434 9.85727ZM2.32414 10.1727C2.32414 10.0659 2.32414 9.96868 2.32414 9.87068C2.27594 9.87068 2.23774 9.87068 2.19874 9.87068C2.19874 9.97528 2.19874 10.0729 2.19874 10.1727C2.24094 10.1727 2.27754 10.1727 2.32414 10.1727ZM1.16574 9.87168C1.11834 9.87168 1.08014 9.87168 1.04114 9.87168C1.04114 9.97648 1.04114 10.0735 1.04114 10.1691C1.08674 10.1691 1.12474 10.1691 1.16574 10.1691C1.16574 10.0667 1.16574 9.97208 1.16574 9.87168ZM1.74774 8.21388C1.69914 8.22628 1.62834 8.22968 1.62614 8.24748C1.61554 8.33688 1.61734 8.43148 1.62934 8.52088C1.63134 8.53588 1.70394 8.53428 1.74774 8.54088C1.74774 8.42828 1.74774 8.33328 1.74774 8.21388ZM1.74774 11.4931C1.69934 11.5055 1.62914 11.5077 1.62634 11.5273C1.61374 11.6131 1.61314 11.7061 1.62614 11.7915C1.62914 11.8115 1.70194 11.8129 1.74774 11.8239C1.74774 11.7083 1.74774 11.6131 1.74774 11.4931Z" fill="white"/>
<path d="M2.48658 6.58355C2.48658 6.69235 2.48658 6.78755 2.48658 6.89055C2.53178 6.89435 2.57318 6.89775 2.62438 6.90195C2.62438 7.00355 2.62438 7.10475 2.62438 7.19635C2.63798 7.20975 2.64158 7.21635 2.64578 7.21715C2.77558 7.24095 2.77558 7.24075 2.77578 7.42275C2.77578 7.46215 2.77578 7.50155 2.77578 7.54795C2.82058 7.54795 2.85898 7.54795 2.90598 7.54795C2.90598 7.44595 2.90598 7.34415 2.90598 7.23495C2.95738 7.22815 3.00118 7.22215 3.05438 7.21515C3.05438 7.11195 3.05438 7.01055 3.05438 6.90255C3.10278 6.89895 3.14198 6.89595 3.19278 6.89215C3.19278 6.79155 3.19278 6.69055 3.19278 6.58135C3.24978 6.58135 3.29538 6.58135 3.34638 6.58135C3.34638 6.79695 3.34638 7.01135 3.34638 7.23595C3.30358 7.23955 3.26238 7.24295 3.21598 7.24695C3.21598 7.34915 3.21598 7.44655 3.21598 7.55055C3.26038 7.55375 3.30158 7.55695 3.34698 7.56015C3.34698 7.67135 3.34698 7.77635 3.34698 7.88935C3.30378 7.89475 3.26238 7.89995 3.21038 7.90635C3.21038 7.97415 3.20698 8.03995 3.21118 8.10495C3.21678 8.19135 3.19978 8.24035 3.12618 8.22415C3.10938 8.22055 3.09158 8.22575 3.06558 8.22755C3.06558 8.33015 3.06558 8.43155 3.06558 8.52475C3.05298 8.53675 3.04938 8.54295 3.04518 8.54355C2.91738 8.56075 2.91738 8.56075 2.91678 8.75855C2.91658 8.88575 2.91498 8.88455 2.82118 8.88255C2.77398 8.88155 2.75858 8.85515 2.76138 8.79795C2.76238 8.77815 2.76138 8.75795 2.76138 8.73795C2.76118 8.55915 2.76118 8.55915 2.62418 8.54155C2.62418 8.44215 2.62418 8.34075 2.62418 8.23055C2.57238 8.22595 2.52878 8.22195 2.47498 8.21715C2.47498 8.11455 2.47498 8.01355 2.47498 7.92055C2.46058 7.90915 2.45678 7.90355 2.45238 7.90295C2.32678 7.88595 2.32678 7.88615 2.32658 7.71235C2.32658 7.66675 2.32658 7.62135 2.32658 7.57015C2.27698 7.56695 2.23758 7.56415 2.18898 7.56095C2.18898 7.45975 2.18898 7.35855 2.18898 7.25575C2.13498 7.24375 2.05798 7.24795 2.05098 7.22075C2.03118 7.14255 2.03478 7.05115 2.03878 6.96575C2.04498 6.83055 2.13338 6.93395 2.18178 6.87275C2.18178 6.79015 2.18178 6.68895 2.18178 6.57815C2.23138 6.57435 2.27238 6.57115 2.32658 6.56715C2.32658 6.48535 2.32818 6.40695 2.32618 6.32855C2.32458 6.26715 2.33898 6.23675 2.38978 6.23835C2.49718 6.24175 2.60458 6.24155 2.71198 6.23835C2.76198 6.23675 2.77498 6.26495 2.77618 6.32755C2.78098 6.58335 2.78218 6.58315 2.59198 6.58335C2.55998 6.58355 2.52778 6.58355 2.48658 6.58355Z" fill="white"/>
<path d="M2.76262 10.1799C2.76262 10.0857 2.76022 9.9937 2.76462 9.9023C2.76542 9.8843 2.79022 9.8579 2.80662 9.8537C2.83722 9.8459 2.86962 9.8515 2.90762 9.8515C2.90762 9.7669 2.91182 9.6969 2.90662 9.6283C2.89962 9.5383 2.92582 9.5057 2.99102 9.5175C3.00782 9.5205 3.02562 9.5151 3.05242 9.5127C3.05242 9.4105 3.05242 9.3093 3.05242 9.1997C3.10262 9.1963 3.14362 9.1935 3.19682 9.1899C3.19682 9.1009 3.19682 9.0155 3.19682 8.9301C3.19682 8.8417 3.24722 8.8663 3.28362 8.8633C3.31982 8.8603 3.35262 8.8603 3.35242 8.9325C3.35102 9.6657 3.35102 10.3989 3.35042 11.1321C3.35042 11.1415 3.34662 11.1511 3.34282 11.1697C3.31762 11.1717 3.29062 11.1725 3.26382 11.1761C3.21062 11.1833 3.19302 11.1501 3.19562 11.0823C3.19862 11.0067 3.19622 10.9309 3.19622 10.8499C3.14562 10.8459 3.10442 10.8425 3.05662 10.8387C3.05662 10.7347 3.05662 10.6361 3.05662 10.5443C3.04582 10.5335 3.04222 10.5269 3.03822 10.5261C2.90742 10.5057 2.90742 10.5057 2.90742 10.3243C2.90742 10.2845 2.90742 10.2447 2.90742 10.1959C2.86022 10.1911 2.81662 10.1861 2.76262 10.1799Z" fill="white"/>
<path d="M2.62851 0.679688C2.62851 0.786288 2.62851 0.885088 2.62851 0.979288C2.63911 0.987088 2.64311 0.992688 2.64731 0.993088C2.77551 1.00449 2.77571 1.00449 2.77571 1.17549C2.77571 1.21829 2.77571 1.26109 2.77571 1.29729C2.78591 1.30789 2.78931 1.31469 2.79351 1.31549C2.91691 1.33809 2.91691 1.33789 2.91691 1.50829C2.91691 1.55469 2.91691 1.60109 2.91691 1.65729C2.89171 1.66009 2.87031 1.66329 2.84891 1.66449C2.82911 1.66569 2.80931 1.66469 2.77551 1.66469C2.77551 1.74069 2.77151 1.81269 2.77651 1.88349C2.78271 1.97149 2.75871 2.00749 2.69251 1.99689C2.67391 1.99389 2.65411 2.00209 2.62851 2.00629C2.62851 2.10969 2.62851 2.20849 2.62851 2.30009C2.61751 2.31069 2.61371 2.31729 2.60951 2.31789C2.47251 2.33789 2.47251 2.33769 2.47251 2.15629C2.47251 2.10709 2.47251 2.05809 2.47251 2.01209C2.32851 1.97089 2.32871 1.97089 2.32651 1.76789C2.32611 1.73829 2.32431 1.70869 2.32271 1.66929C2.27871 1.66669 2.23751 1.66409 2.18591 1.66109C2.18591 1.56249 2.18271 1.46689 2.18871 1.37229C2.18991 1.35369 2.22691 1.32309 2.24571 1.32529C2.31511 1.33349 2.33571 1.29229 2.32691 1.20889C2.32631 1.20229 2.32691 1.19549 2.32691 1.18889C2.32731 1.00609 2.32731 1.00609 2.47271 0.989688C2.47271 0.939688 2.47271 0.887888 2.47271 0.836088C2.47271 0.786688 2.47271 0.737488 2.47271 0.679888C2.52551 0.679688 2.57131 0.679688 2.62851 0.679688ZM2.48811 1.34749C2.48811 1.45289 2.48811 1.55049 2.48811 1.64689C2.53491 1.64689 2.57551 1.64689 2.61631 1.64689C2.61631 1.54369 2.61631 1.44869 2.61631 1.34749C2.57371 1.34749 2.53511 1.34749 2.48811 1.34749Z" fill="white"/>
<path d="M3.06311 3.94826C3.04691 3.95546 3.04031 3.96046 3.03331 3.96126C2.90771 3.97586 2.90771 3.97566 2.90771 3.81166C2.90771 3.78846 2.90771 3.76526 2.90771 3.74186C2.90791 3.62146 2.94231 3.58586 3.03131 3.62166C3.04551 3.62726 3.06072 3.66246 3.06172 3.68506C3.06532 3.77106 3.06311 3.85746 3.06311 3.94826Z" fill="white"/>
<path d="M2.47261 18.0344C2.47261 17.9616 2.47701 17.8982 2.47161 17.8362C2.46321 17.7392 2.49101 17.7008 2.56281 17.7162C2.57981 17.7198 2.59741 17.7196 2.62441 17.7218C2.62441 17.824 2.62441 17.925 2.62441 18.017C2.63821 18.03 2.64181 18.0362 2.64601 18.037C2.77541 18.059 2.77541 18.059 2.77541 18.2332C2.77541 18.276 2.77541 18.3186 2.77541 18.3702C2.82301 18.3734 2.86421 18.376 2.91581 18.3794C2.91581 18.4782 2.91801 18.5736 2.91381 18.6684C2.91301 18.6856 2.88661 18.7094 2.86941 18.7148C2.84361 18.7226 2.81541 18.7168 2.77541 18.7168C2.77541 18.7944 2.77161 18.8634 2.77641 18.9312C2.78241 19.017 2.76221 19.0576 2.69381 19.044C2.67501 19.0402 2.65501 19.0464 2.62801 19.0488C2.62801 19.1026 2.62801 19.1518 2.62801 19.2008C2.62801 19.2504 2.62801 19.3 2.62801 19.368C2.58981 19.368 2.55621 19.366 2.52301 19.3686C2.48261 19.3718 2.47101 19.3458 2.47221 19.2962C2.47401 19.2168 2.47261 19.1372 2.47261 19.0632C2.46281 19.0542 2.45901 19.0478 2.45501 19.0472C2.32681 19.0324 2.32681 19.0324 2.32681 18.8636C2.32661 18.7374 2.32661 18.7374 2.19141 18.704C2.19141 18.601 2.19141 18.4964 2.19141 18.3794C2.23061 18.3768 2.27161 18.3742 2.32681 18.3704C2.32681 18.3008 2.33001 18.2322 2.32601 18.1644C2.32101 18.0786 2.33761 18.0286 2.41121 18.0424C2.42781 18.0458 2.44541 18.0384 2.47261 18.0344ZM2.48761 18.389C2.48761 18.491 2.48761 18.5888 2.48761 18.6912C2.53261 18.6912 2.57301 18.6912 2.61521 18.6912C2.61521 18.5864 2.61521 18.4888 2.61521 18.389C2.57101 18.389 2.53201 18.389 2.48761 18.389Z" fill="white"/>
<path d="M0.733192 2.02106C0.722992 2.00866 0.721392 2.00506 0.719392 2.00466C0.588992 1.97186 0.588992 1.97186 0.588392 1.78906C0.588192 1.75286 0.588392 1.71666 0.588392 1.67166C0.560593 1.66886 0.539192 1.66606 0.517592 1.66486C0.497793 1.66386 0.477993 1.66466 0.452393 1.66466C0.452393 1.55166 0.452393 1.44446 0.452393 1.33786C0.497993 1.32166 0.560193 1.32386 0.579392 1.28666C0.601992 1.24286 0.586792 1.16506 0.588592 1.10206C0.589592 1.06966 0.592192 1.03746 0.594392 1.00186C0.642192 0.998064 0.683592 0.994664 0.732192 0.990664C0.732192 0.887064 0.732192 0.788464 0.732192 0.680664C0.785192 0.680664 0.830992 0.680664 0.885192 0.680664C0.885192 0.778664 0.885192 0.880264 0.885192 0.973664C0.897592 0.985264 0.901192 0.991664 0.905392 0.992064C1.03619 1.00746 1.03619 1.00726 1.03639 1.19086C1.03639 1.22986 1.03639 1.26906 1.03639 1.30546C1.08759 1.31946 1.16399 1.32306 1.16659 1.34386C1.17939 1.44306 1.17239 1.54666 1.17239 1.65746C1.15159 1.65966 1.13039 1.66286 1.10899 1.66426C1.08919 1.66546 1.06939 1.66446 1.03639 1.66446C1.03639 1.74046 1.03239 1.81246 1.03739 1.88346C1.04359 1.97126 1.01979 2.00726 0.953792 1.99666C0.934992 1.99366 0.915392 2.00166 0.889792 2.00546C0.889792 2.10846 0.889792 2.20726 0.889792 2.30886C0.872392 2.31466 0.860992 2.32106 0.849392 2.32186C0.733192 2.33026 0.733192 2.33006 0.733192 2.17806C0.733192 2.12226 0.733192 2.06646 0.733192 2.02106ZM0.876792 1.64946C0.876792 1.54666 0.876792 1.44906 0.876792 1.34246C0.829992 1.36086 0.765592 1.29046 0.749592 1.39066C0.736592 1.47206 0.746992 1.56006 0.746992 1.64926C0.796592 1.64946 0.834992 1.64946 0.876792 1.64946Z" fill="white"/>
<path d="M0.588195 19.0377C0.588195 18.9593 0.585195 18.8931 0.588995 18.8275C0.593595 18.7491 0.577195 18.7061 0.511395 18.7169C0.492795 18.7199 0.472995 18.7117 0.450195 18.7081C0.450195 18.5977 0.450195 18.4929 0.450195 18.3811C0.494195 18.3773 0.535195 18.3739 0.588195 18.3693C0.588195 18.3007 0.592795 18.2347 0.587195 18.1703C0.578195 18.0681 0.608195 18.0285 0.683395 18.0429C0.695195 18.0451 0.707795 18.0393 0.733195 18.0351C0.733195 17.9707 0.738195 17.9051 0.731995 17.8413C0.722195 17.7377 0.752795 17.7001 0.827595 17.7167C0.844395 17.7205 0.861595 17.7205 0.887395 17.7233C0.887395 17.8281 0.887395 17.9295 0.887395 18.0209C0.943195 18.0425 1.0082 18.0423 1.0282 18.0821C1.0514 18.1287 1.035 18.2103 1.0364 18.2769C1.037 18.3061 1.039 18.3353 1.0406 18.3705C1.0856 18.3737 1.127 18.3767 1.1788 18.3805C1.1788 18.4759 1.1816 18.5681 1.1766 18.6597C1.1754 18.6803 1.1492 18.7081 1.1308 18.7151C1.1056 18.7247 1.0768 18.7175 1.036 18.7175C1.036 18.7971 1.0322 18.8689 1.037 18.9397C1.0426 19.0243 1.018 19.0553 0.956595 19.0445C0.937395 19.0411 0.917395 19.0465 0.889395 19.0487C0.889395 19.1527 0.889395 19.2541 0.889395 19.3621C0.835195 19.3621 0.789395 19.3621 0.733795 19.3621C0.733795 19.2563 0.733795 19.1553 0.733795 19.0495C0.682995 19.0451 0.641595 19.0419 0.588195 19.0377ZM0.745395 18.3893C0.745395 18.4529 0.745395 18.5055 0.745395 18.5581C0.745595 18.7137 0.758395 18.7259 0.875195 18.6827C0.875195 18.5847 0.875195 18.4869 0.875195 18.3895C0.832595 18.3893 0.795795 18.3893 0.745395 18.3893Z" fill="white"/>
<path d="M0.448829 3.60938C0.448829 3.73477 0.448829 3.83957 0.448829 3.96477C0.400629 3.95857 0.315829 3.96217 0.313229 3.94457C0.299029 3.84617 0.297029 3.74097 0.309629 3.64237C0.312229 3.62237 0.395629 3.62077 0.448829 3.60938Z" fill="white"/>
<path d="M0.448877 16.0674C0.448877 16.1994 0.448877 16.3042 0.448877 16.4298C0.396277 16.4188 0.313077 16.4196 0.309677 16.3978C0.294677 16.3028 0.294077 16.199 0.308877 16.104C0.312477 16.0814 0.394877 16.0804 0.448877 16.0674Z" fill="white"/>
<path d="M2.19312 16.077C2.19312 16.1844 2.19212 16.2736 2.19332 16.363C2.19432 16.4334 2.15612 16.4242 2.12572 16.4202C2.09372 16.416 2.04272 16.4512 2.03912 16.3688C2.03552 16.2894 2.03572 16.2092 2.04032 16.13C2.04132 16.111 2.06492 16.0832 2.08072 16.0794C2.11412 16.0716 2.14892 16.077 2.19312 16.077Z" fill="white"/>
<path d="M3.06317 16.0896C3.06317 16.1832 3.06237 16.2724 3.06337 16.3616C3.06437 16.4392 3.02157 16.4226 2.98977 16.421C2.95697 16.4194 2.90837 16.4462 2.90817 16.3616C2.90797 16.3218 2.90797 16.282 2.90797 16.242C2.90777 16.0576 2.90817 16.057 3.06317 16.0896Z" fill="white"/>
<path d="M1.31929 16.0664C1.31929 16.1986 1.31929 16.3034 1.31929 16.429C1.26689 16.4192 1.18329 16.4208 1.17989 16.3998C1.16489 16.3048 1.16369 16.2008 1.17829 16.106C1.18209 16.0824 1.26409 16.0806 1.31929 16.0664Z" fill="white"/>
<path d="M2.1894 3.60449C2.1894 3.73769 2.1894 3.84229 2.1894 3.96729C2.1374 3.95849 2.0534 3.96109 2.0502 3.94089C2.0352 3.84589 2.0332 3.74229 2.0478 3.64729C2.0514 3.62329 2.1326 3.62029 2.1894 3.60449Z" fill="white"/>
<path d="M1.32099 3.60742C1.32099 3.73802 1.32099 3.84042 1.32099 3.96402C1.27099 3.95782 1.18599 3.96202 1.18339 3.94482C1.16899 3.84642 1.16639 3.74122 1.17899 3.64282C1.18159 3.62222 1.26499 3.62002 1.32099 3.60742Z" fill="white"/>
</g>
<defs>
<clipPath id="clip0">
<path d="M0 3C0 1.34315 1.34315 0 3 0H27C28.6569 0 30 1.34315 30 3V17C30 18.6569 28.6569 20 27 20H3C1.34315 20 0 18.6569 0 17V3Z" fill="white"/>
</clipPath>
</defs>
</svg>
