<svg width="30" height="20" viewBox="0 0 30 20" fill="none" xmlns="http://www.w3.org/2000/svg">
<g clip-path="url(#clip0)">
<path d="M0 0V20H30V0H0Z" fill="#012169"/>
<path d="M0 4.02043L10.535 9.67497L0 15.3295V19.9481L14.8375 11.9843L29.7717 20H30V15.504L19.14 9.67497L30 3.84599V0H28.5605L14.8375 7.36567L1.11448 0H0V4.02043Z" fill="white"/>
<path d="M0 2.30727L13.7285 9.67589L0 17.0445V18.2349L14.8374 10.2711L30 18.4094V17.219L15.9463 9.67589L30 2.13275V0.942383L14.8374 9.08071L0 1.1169V2.30727Z" fill="#C8102E"/>
<path d="M18.0443 20.001V13.1175H30V6.23251H18.0443V0.000976562H11.6305V6.23251H0V13.1175H11.6305V20.001H18.0443Z" fill="white"/>
<path d="M16.7615 20V11.7396H30V7.60854H16.7615V0H12.9133V7.60854H0V11.7396H12.9133V20H16.7615Z" fill="#C8102E"/>
</g>
<defs>
<clipPath id="clip0">
<path d="M0 3C0 1.34315 1.34315 0 3 0H27C28.6569 0 30 1.34315 30 3V17C30 18.6569 28.6569 20 27 20H3C1.34315 20 0 18.6569 0 17V3Z" fill="white"/>
</clipPath>
</defs>
</svg>
