<svg width="30" height="20" viewBox="0 0 30 20" fill="none" xmlns="http://www.w3.org/2000/svg">
<path d="M30 0H0V20H30V0Z" fill="#EE1C25"/>
<path d="M5.00014 2L6.7635 7.42704L2.14697 4.07294H7.85331L3.23679 7.42704L5.00014 2Z" fill="#FFFF00"/>
<path d="M10.3913 1.07919L10.2244 2.97397L9.24572 1.34291L10.9962 2.08724L9.14253 2.51395L10.3913 1.07919Z" fill="#FFFF00"/>
<path d="M12.7176 3.30372L11.8285 4.98521L11.5595 3.10222L12.8839 4.46747L11.0099 4.14143L12.7176 3.30372Z" fill="#FFFF00"/>
<path d="M12.9394 6.65707L11.4416 7.82956L11.9642 6.00062L12.6165 7.78741L11.0385 6.72526L12.9394 6.65707Z" fill="#FFFF00"/>
<path d="M10.3528 8.06505L10.2645 9.96512L9.2191 8.37604L10.9989 9.04715L9.16455 9.55036L10.3528 8.06505Z" fill="#FFFF00"/>
</svg>
