<svg width="30" height="20" viewBox="0 0 30 20" fill="none" xmlns="http://www.w3.org/2000/svg">
<path d="M30 0H0V20H30V0Z" fill="#FF0000"/>
<path d="M12 0H0V20H12V0Z" fill="#006600"/>
<path fill-rule="evenodd" clip-rule="evenodd" d="M15.912 13.1026C14.4015 13.0571 7.47499 8.73358 7.42749 8.04508L7.80997 7.40723C8.49702 8.40553 15.578 12.6102 16.2735 12.4612L15.912 13.1024" fill="#FFFF00"/>
<path fill-rule="evenodd" clip-rule="evenodd" d="M7.80969 7.39259C7.81456 7.39243 7.81917 7.39477 7.82193 7.39878C7.9065 7.52166 8.09075 7.69539 8.35152 7.90565C8.61187 8.11556 8.94723 8.36089 9.33273 8.62691C10.1037 9.15893 11.0747 9.77328 12.046 10.3518C13.0174 10.9304 13.9889 11.473 14.7608 11.8617C15.1469 12.056 15.4828 12.2117 15.7437 12.3141C15.8742 12.3654 15.9856 12.4031 16.075 12.4258C16.1651 12.4486 16.2307 12.4555 16.2706 12.4469C16.2761 12.4457 16.2818 12.4479 16.2852 12.4524C16.2885 12.457 16.2889 12.463 16.2861 12.4679L15.9254 13.1077C15.9232 13.113 15.9179 13.1168 15.9117 13.1166C15.7204 13.1108 15.4451 13.0375 15.1109 12.9136C14.7762 12.7894 14.3811 12.6139 13.9496 12.4025C13.0866 11.9798 12.0773 11.4133 11.1138 10.8269C10.1504 10.2404 9.23255 9.63376 8.55246 9.13057C8.21246 8.879 7.9316 8.65309 7.73412 8.46834C7.63541 8.37599 7.55721 8.29363 7.50284 8.22327C7.44898 8.15359 7.41665 8.09339 7.41336 8.04574C7.41316 8.04282 7.41386 8.0399 7.41537 8.03739L7.79785 7.39954C7.80036 7.39536 7.80481 7.39274 7.80969 7.39259ZM15.9038 13.0876L16.2472 12.4787C16.2018 12.4812 16.1412 12.4721 16.068 12.4536C15.9769 12.4305 15.8643 12.3922 15.7332 12.3408C15.4711 12.2379 15.1343 12.0818 14.748 11.8873C13.9752 11.4982 13.0031 10.9552 12.0314 10.3765C11.0597 9.79767 10.0881 9.18297 9.31646 8.65049C8.93065 8.38426 8.59465 8.13848 8.33354 7.92795C8.08499 7.72755 7.90314 7.55819 7.81116 7.43304L7.44234 8.04811C7.44666 8.08623 7.47393 8.13902 7.52551 8.20575C7.57855 8.27439 7.65551 8.35556 7.75369 8.44742C7.95 8.63107 8.22986 8.85624 8.5695 9.10754C9.24869 9.61007 10.1658 10.2162 11.1287 10.8024C12.0917 11.3886 13.1002 11.9545 13.9622 12.3768C14.3932 12.5879 14.7874 12.763 15.1208 12.8867C15.4495 13.0086 15.7178 13.0801 15.9038 13.0876Z" fill="black"/>
<path fill-rule="evenodd" clip-rule="evenodd" d="M7.7295 7.3199C7.59399 7.68458 9.53695 8.8858 11.8746 10.3076C14.2122 11.7293 16.2279 12.6079 16.3773 12.4819C16.3864 12.4656 16.4508 12.3549 16.4449 12.3557C16.4169 12.3979 16.3487 12.4113 16.2424 12.3806C15.6108 12.1984 13.9636 11.4424 11.9237 10.2053C9.88377 8.96816 8.10897 7.82811 7.83312 7.34371C7.81394 7.31015 7.80027 7.2489 7.80305 7.20127L7.79634 7.20117L7.73761 7.30383L7.72954 7.31993H7.7295L7.7295 7.3199ZM15.9475 13.1219C15.9219 13.1684 15.8741 13.1699 15.7834 13.16C15.2184 13.0974 13.504 12.2637 11.4753 11.0493C9.11482 9.63631 7.16532 8.3488 7.37682 8.0123L7.43436 7.91057L7.4457 7.9141C7.25551 8.48435 11.2931 10.793 11.5308 10.9402C13.867 12.3876 15.8365 13.2328 16.0108 13.0131L15.9474 13.1222V13.1221L15.9475 13.1219Z" fill="#FFFF00"/>
<path fill-rule="evenodd" clip-rule="evenodd" d="M7.78409 7.19373C7.78668 7.18921 7.79153 7.18645 7.79674 7.18653L7.80344 7.18662C7.80735 7.18668 7.81106 7.18833 7.81372 7.1912C7.81638 7.19406 7.81776 7.19788 7.81753 7.20178C7.81489 7.24702 7.82812 7.30544 7.84574 7.33627C7.91324 7.45481 8.07393 7.61543 8.31105 7.80981C8.54763 8.00376 8.8587 8.23007 9.22513 8.48007C9.95797 8.98004 10.9114 9.57418 11.9313 10.1927C13.971 11.4296 15.6169 12.1849 16.2465 12.3665C16.2986 12.3815 16.3401 12.3854 16.3712 12.381C16.4022 12.3766 16.422 12.3643 16.4332 12.3475C16.4354 12.3441 16.439 12.3418 16.443 12.3412C16.4455 12.3408 16.4495 12.341 16.4534 12.3436C16.4571 12.3462 16.4587 12.3497 16.4593 12.3518C16.4602 12.3553 16.4596 12.3584 16.4595 12.3592L16.4595 12.3592C16.459 12.3615 16.4582 12.3637 16.4575 12.3653C16.4561 12.3689 16.4538 12.3736 16.4511 12.3789C16.4456 12.3897 16.4377 12.4042 16.4294 12.419C16.4181 12.4395 16.4054 12.4615 16.3974 12.4756C16.3939 12.4817 16.3913 12.4863 16.39 12.4886C16.3891 12.4901 16.388 12.4914 16.3867 12.4925C16.3733 12.5038 16.3522 12.5077 16.3281 12.5078C16.3032 12.508 16.2716 12.5041 16.2342 12.4967C16.1593 12.4817 16.0584 12.4519 15.9349 12.4084C15.6878 12.3213 15.3483 12.1787 14.9407 11.9878C14.1254 11.6059 13.0366 11.0306 11.8674 10.3195C10.6986 9.60866 9.6281 8.95269 8.86669 8.4288C8.48605 8.16691 8.18212 7.93765 7.98169 7.75079C7.88154 7.65742 7.8066 7.57405 7.76091 7.50201C7.71564 7.43063 7.69685 7.36679 7.71625 7.31458C7.71658 7.3137 7.71699 7.31286 7.71747 7.31208L7.72499 7.29709C7.7251 7.29685 7.72523 7.29662 7.72536 7.29639L7.78409 7.19373ZM7.74271 7.32566C7.72887 7.36453 7.74134 7.41765 7.7851 7.48667C7.82887 7.55567 7.90175 7.63709 8.00122 7.72983C8.20004 7.9152 8.50255 8.14348 8.88293 8.4052C9.64354 8.92854 10.7133 9.58407 11.8823 10.295C13.0507 11.0056 14.1385 11.5805 14.9528 11.9618C15.36 12.1525 15.6985 12.2948 15.9444 12.3814C16.0674 12.4247 16.1668 12.454 16.2398 12.4686C16.2764 12.4759 16.3057 12.4793 16.3279 12.4792C16.3486 12.4791 16.3605 12.4758 16.3665 12.4719C16.3681 12.469 16.3704 12.4651 16.3731 12.4603C16.3811 12.4463 16.3931 12.4255 16.4044 12.4051C16.405 12.404 16.4056 12.4029 16.4062 12.4018C16.3967 12.4052 16.3864 12.4078 16.3752 12.4093C16.3387 12.4145 16.2929 12.4097 16.2386 12.394C15.6052 12.2113 13.9566 11.4544 11.9164 10.2172C10.8964 9.59863 9.94249 9.00417 9.20899 8.50373C8.84225 8.25353 8.5304 8.02668 8.29288 7.83197C8.0559 7.6377 7.89129 7.47415 7.82086 7.35049M7.74271 7.32566L7.75042 7.31028L7.78992 7.24124C7.7938 7.28155 7.80552 7.32364 7.82086 7.35049M7.42208 7.90319C7.4254 7.89732 7.43237 7.89456 7.43881 7.89657L7.45014 7.9001C7.45381 7.90124 7.45687 7.90382 7.45863 7.90725C7.46038 7.91067 7.46069 7.91466 7.45947 7.91831C7.44905 7.94953 7.45261 7.98826 7.47112 8.03483C7.48959 8.08132 7.52243 8.13421 7.56832 8.19264C7.66008 8.30948 7.80225 8.44627 7.97974 8.59551C8.33457 8.89388 8.82829 9.24015 9.33584 9.57349C10.1618 10.116 11.0227 10.6231 11.3793 10.8332C11.461 10.8813 11.5162 10.9139 11.5385 10.9277C12.7062 11.6511 13.7821 12.2239 14.5876 12.5884C14.9905 12.7706 15.3253 12.9006 15.57 12.9713C15.6924 13.0067 15.7917 13.027 15.8653 13.0318C15.9021 13.0342 15.9318 13.0327 15.9545 13.0276C15.9773 13.0225 15.9917 13.0141 15.9998 13.0039C16.0045 12.998 16.0129 12.9967 16.0191 13.0009C16.0253 13.0052 16.0272 13.0135 16.0234 13.02L15.96 13.129C15.9598 13.1294 15.9596 13.1297 15.9594 13.13C15.9443 13.1564 15.9223 13.1703 15.8927 13.1758C15.8638 13.1812 15.8272 13.1788 15.782 13.1739C15.6388 13.158 15.4242 13.0936 15.1522 12.9876C14.8798 12.8814 14.5488 12.7332 14.1721 12.5491C13.4189 12.1808 12.4827 11.6686 11.4682 11.0613C10.2878 10.3547 9.20992 9.67936 8.45342 9.13844C8.07527 8.86805 7.77686 8.63085 7.58609 8.43989C7.49079 8.3445 7.42161 8.25991 7.38295 8.18791C7.34465 8.11658 7.33422 8.05344 7.36469 8.00464L7.42208 7.90319ZM15.9361 13.1131L15.9711 13.0529C15.9678 13.0539 15.9643 13.0548 15.9608 13.0556C15.9344 13.0615 15.9017 13.0629 15.8634 13.0604C15.7868 13.0554 15.6853 13.0344 15.5621 12.9988C15.3154 12.9276 14.9792 12.797 14.5758 12.6145C13.7689 12.2494 12.692 11.676 11.5234 10.952C11.5015 10.9385 11.4469 10.9063 11.3659 10.8586C11.0103 10.6491 10.1472 10.1407 9.32011 9.59744C8.81232 9.26394 8.31745 8.91693 7.9613 8.61744C7.78329 8.46776 7.63936 8.32948 7.54579 8.21034C7.49902 8.15078 7.46438 8.09545 7.44449 8.04541C7.43199 8.01395 7.4251 7.98401 7.42504 7.95615L7.38914 8.01961C7.36696 8.0549 7.37121 8.10548 7.40819 8.17435C7.44488 8.24269 7.51174 8.32493 7.60635 8.41964C7.7954 8.60888 8.09224 8.84496 8.47008 9.11513C9.22559 9.65534 10.3027 10.3302 11.4829 11.0367C12.4969 11.6437 13.4324 12.1555 14.1847 12.5234C14.5609 12.7073 14.8912 12.8551 15.1626 12.9609C15.4343 13.0667 15.6459 13.13 15.7852 13.1454C15.8307 13.1504 15.8633 13.1522 15.8874 13.1477C15.9102 13.1434 15.9246 13.1337 15.9351 13.1146C15.9354 13.1141 15.9358 13.1136 15.9361 13.1131Z" fill="black"/>
<path fill-rule="evenodd" clip-rule="evenodd" d="M12.0087 8.46132C13.5206 8.44937 15.3862 8.25472 16.4599 7.82682L16.2286 7.45098C15.594 7.80221 13.7181 8.03318 11.996 8.06773C9.95917 8.04899 8.52147 7.85932 7.80112 7.37598L7.58276 7.7762C8.90696 8.33655 10.2639 8.45555 12.0088 8.46135" fill="#FFFF00"/>
<path fill-rule="evenodd" clip-rule="evenodd" d="M7.79764 7.36174C7.80155 7.36078 7.80568 7.36151 7.80903 7.36376C8.1666 7.60368 8.70364 7.77153 9.40702 7.8816C10.1101 7.99161 10.9778 8.0437 11.9958 8.05307C12.8564 8.0358 13.7552 7.96946 14.5181 7.86359C14.8995 7.81065 15.2468 7.74786 15.5382 7.67642C15.8299 7.60493 16.0646 7.525 16.2216 7.43812C16.2283 7.43441 16.2367 7.43663 16.2407 7.44314L16.4721 7.81898C16.4743 7.82258 16.4748 7.82698 16.4735 7.83099C16.4721 7.83501 16.4691 7.83823 16.4652 7.8398C15.3892 8.26863 13.5219 8.46327 12.0098 8.4753C12.0094 8.47533 12.0091 8.47534 12.0087 8.47534C10.2633 8.46954 8.90402 8.35056 7.5771 7.78907C7.57338 7.78749 7.57049 7.78441 7.56916 7.78059C7.56783 7.77677 7.56817 7.77257 7.57011 7.76901L7.78847 7.36879C7.7904 7.36526 7.79373 7.3627 7.79764 7.36174ZM12.0077 8.44669C12.008 8.44667 12.0083 8.44666 12.0086 8.44666C13.5127 8.43477 15.3652 8.24196 16.4387 7.81946L16.2235 7.46974C16.0634 7.55589 15.8302 7.63434 15.545 7.70425C15.2524 7.77598 14.9041 7.83894 14.522 7.89197C13.7578 7.99802 12.8577 8.06443 11.9962 8.08172L11.9958 8.08173V8.08172C10.9771 8.07235 10.1077 8.02023 9.4026 7.9099C8.70625 7.80094 8.16881 7.63498 7.80613 7.39624L7.60285 7.76883C8.91947 8.32264 10.2702 8.44087 12.0077 8.44669Z" fill="black"/>
<path fill-rule="evenodd" clip-rule="evenodd" d="M16.5221 7.8358C16.4851 7.89489 15.7849 8.13636 14.7534 8.31456C14.054 8.42118 13.1417 8.51233 12.0032 8.51344C10.9216 8.51445 10.038 8.43746 9.369 8.34679C8.2862 8.17702 7.72735 7.94079 7.52075 7.85732C7.54051 7.81802 7.55321 7.79047 7.57226 7.75378C8.16701 7.99058 8.72846 8.13337 9.38621 8.23457C10.0508 8.32456 10.9237 8.40267 12 8.40165C13.1332 8.40051 14.0355 8.30243 14.7308 8.19898C15.7886 8.02837 16.3664 7.80881 16.4475 7.70686L16.5222 7.8358H16.5221H16.5221ZM16.319 7.45467C16.2044 7.54674 15.6331 7.74933 14.6281 7.90984C13.9573 8.00597 13.1045 8.092 12.0148 8.09306C10.9796 8.09408 10.1339 8.02431 9.49059 7.93061C8.46989 7.7973 7.92664 7.55684 7.73079 7.48673C7.75028 7.45304 7.77012 7.41961 7.79049 7.38605C7.94289 7.46278 8.46714 7.6756 9.50179 7.82217C10.1378 7.91235 10.9848 7.97956 12.0149 7.9785C13.0994 7.97739 13.9425 7.88969 14.609 7.79408C15.6193 7.65509 16.1629 7.39672 16.2454 7.33203L16.3191 7.45458V7.45468L16.319 7.45467Z" fill="#FFFF00"/>
<path fill-rule="evenodd" clip-rule="evenodd" d="M16.2482 7.31762C16.2522 7.31837 16.2558 7.32081 16.2579 7.32433L16.3315 7.44687C16.3329 7.4491 16.3336 7.45165 16.3336 7.45425V7.45435C16.3336 7.45868 16.3316 7.46278 16.3282 7.4655C16.328 7.46573 16.3277 7.46595 16.3274 7.46616C16.2967 7.49049 16.2381 7.52083 16.1533 7.55502C16.0674 7.5897 15.9533 7.62882 15.8116 7.67002C15.5282 7.75243 15.1335 7.84333 14.6305 7.92366L14.6303 7.92369C13.959 8.0199 13.1054 8.106 12.015 8.10707C10.9792 8.10808 10.1328 8.03828 9.48879 7.94448C8.58543 7.82648 8.05506 7.62459 7.80885 7.53087C7.77641 7.51852 7.7489 7.50804 7.72612 7.49989C7.72212 7.49846 7.71896 7.49532 7.7175 7.49133C7.71604 7.48734 7.71642 7.48291 7.71855 7.47923C7.7381 7.44545 7.75799 7.41193 7.77841 7.37829C7.78229 7.37191 7.79043 7.36957 7.7971 7.37293C7.94776 7.44879 8.47043 7.66125 9.50397 7.80767L9.50397 7.80767C10.1392 7.89774 10.9856 7.96491 12.015 7.96385C13.0987 7.96275 13.9412 7.87511 14.6072 7.77958L14.6073 7.77957C15.1115 7.71019 15.4992 7.61104 15.7708 7.52127C15.9066 7.47638 16.0134 7.43386 16.0913 7.3986C16.1695 7.36316 16.2176 7.33547 16.2368 7.32043C16.24 7.3179 16.2442 7.31688 16.2482 7.31762ZM16.3003 7.45057L16.2413 7.35238C16.215 7.36991 16.1687 7.39496 16.1031 7.4247C16.0242 7.46042 15.9165 7.50331 15.7798 7.54847C15.5064 7.6388 15.1171 7.73833 14.6112 7.80794C13.9442 7.90362 13.1004 7.99139 12.0151 7.9925C10.9844 7.99356 10.1367 7.92632 9.49995 7.83603C8.48931 7.69286 7.96416 7.48643 7.79609 7.40441C7.78112 7.4292 7.76642 7.45394 7.75194 7.47879C7.77132 7.48592 7.79355 7.49439 7.81873 7.50397C8.06477 7.59763 8.59256 7.79853 9.49261 7.91608L9.49282 7.91611L9.49282 7.91611C10.1354 8.00971 10.9804 8.07943 12.015 8.07842C13.1038 8.07736 13.9559 7.99139 14.6261 7.89535C15.1281 7.81518 15.5215 7.72453 15.8036 7.64251C15.9447 7.60149 16.0578 7.56267 16.1426 7.52845C16.2185 7.49783 16.2708 7.47127 16.3003 7.45057ZM16.4487 7.69225C16.4534 7.6926 16.4577 7.69526 16.4601 7.69935L16.5348 7.82829C16.5373 7.83273 16.5373 7.83819 16.5348 7.84263C16.5343 7.84353 16.5336 7.84437 16.533 7.84512C16.5288 7.85069 16.5225 7.8558 16.5157 7.86046C16.5076 7.86599 16.4971 7.87201 16.4844 7.87846C16.4591 7.89138 16.4242 7.90655 16.3805 7.92351C16.293 7.95743 16.1694 7.99886 16.0149 8.04394C15.7057 8.13413 15.2723 8.23917 14.756 8.32836L14.7557 8.3284C14.0557 8.43513 13.1427 8.52634 12.0034 8.52745C10.921 8.52846 10.0368 8.45142 9.36724 8.36067L9.36695 8.36063L9.36695 8.36063C8.31952 8.1964 7.76137 7.96998 7.5379 7.87933C7.53004 7.87614 7.52259 7.87312 7.51555 7.87028C7.51184 7.86878 7.50892 7.86579 7.50751 7.86205C7.5061 7.8583 7.50632 7.85414 7.50812 7.85056C7.51607 7.83473 7.52297 7.82064 7.52964 7.80699C7.53928 7.78728 7.54846 7.76851 7.55971 7.74685C7.5631 7.74032 7.57089 7.73742 7.57772 7.74014C8.17127 7.97647 8.73162 8.11901 9.38842 8.22007C10.0524 8.30998 10.9246 8.38802 12.0002 8.38701C13.1325 8.38586 14.034 8.28787 14.7288 8.1845C15.2571 8.09928 15.6653 8.00188 15.9513 7.91317C16.0943 7.8688 16.2066 7.82667 16.288 7.78942C16.3287 7.77079 16.3614 7.75348 16.3864 7.73782C16.4115 7.72202 16.4278 7.70846 16.4365 7.69761C16.4394 7.69391 16.444 7.6919 16.4487 7.69225ZM16.5045 7.83318L16.4448 7.73023C16.4336 7.74046 16.4191 7.7511 16.4016 7.76209C16.3753 7.77862 16.3413 7.79652 16.2999 7.81547C16.2171 7.8534 16.1036 7.89594 15.9598 7.94053C15.6722 8.02974 15.2626 8.12742 14.7333 8.2128L14.7331 8.21283C14.0372 8.31636 13.1342 8.41451 12.0002 8.41566C10.9232 8.41667 10.0496 8.33852 9.38445 8.24844L9.38419 8.24841L9.38419 8.2484C8.73001 8.14775 8.17065 8.00596 7.57921 7.77156C7.57069 7.78826 7.56337 7.80323 7.55565 7.81903C7.55093 7.8287 7.54605 7.83867 7.54066 7.84953C7.54329 7.8506 7.54598 7.85169 7.54871 7.8528C7.77116 7.94304 8.32707 8.16857 9.37124 8.3323C10.0396 8.42288 10.9225 8.49981 12.0034 8.4988C13.141 8.49769 14.0525 8.40662 14.7513 8.3001C15.2665 8.21109 15.6988 8.1063 16.0068 8.01644C16.1609 7.9715 16.2837 7.93033 16.3702 7.8968C16.4134 7.88002 16.4473 7.86524 16.4714 7.85294C16.4835 7.84679 16.4928 7.84139 16.4995 7.8368C16.5015 7.83545 16.5031 7.83425 16.5045 7.83318Z" fill="black"/>
<path fill-rule="evenodd" clip-rule="evenodd" d="M7.04424 10.2829C7.97414 10.7831 10.0395 11.0351 11.9939 11.0525C13.7735 11.0553 16.0918 10.7774 16.9588 10.318L16.9349 9.81738C16.6637 10.2412 14.1793 10.6478 11.9746 10.6312C9.76998 10.6146 7.72273 10.274 7.04028 9.83323L7.04425 10.2828" fill="#FFFF00"/>
<path fill-rule="evenodd" clip-rule="evenodd" d="M16.9383 9.8042C16.9443 9.8058 16.9486 9.81113 16.9489 9.81736L16.9728 10.318C16.973 10.3235 16.9701 10.3287 16.9652 10.3313C16.5293 10.5623 15.7307 10.7469 14.8202 10.8734C13.9092 11.0001 12.884 11.0689 11.9936 11.0675L11.9935 11.0675C11.0157 11.0588 10.0101 10.9914 9.1325 10.8636C8.2553 10.7358 7.5044 10.5475 7.03713 10.2962C7.03214 10.2935 7.02938 10.2883 7.0296 10.283L7.02564 9.83401C7.02559 9.82875 7.02844 9.82388 7.03305 9.82134C7.03767 9.8188 7.04331 9.819 7.04773 9.82185C7.38621 10.0405 8.06594 10.2355 8.93862 10.3778C9.81051 10.52 10.8727 10.6092 11.9744 10.6175C13.0759 10.6258 14.2474 10.5284 15.1772 10.376C15.6421 10.2998 16.0462 10.2099 16.3508 10.1127C16.5031 10.0641 16.6302 10.0138 16.7274 9.96271C16.825 9.91137 16.8907 9.86008 16.9225 9.81032C16.9259 9.80506 16.9323 9.80259 16.9383 9.8042ZM7.05818 10.275C7.52136 10.5218 8.26477 10.7083 9.13662 10.8352C10.0127 10.9628 11.017 11.0301 11.9937 11.0388C12.8828 11.0402 13.9066 10.9715 14.8163 10.845C15.721 10.7193 16.5109 10.5367 16.9437 10.3102L16.9222 9.85785C16.8824 9.90263 16.8205 9.94606 16.7407 9.98806C16.6415 10.0402 16.5127 10.0911 16.3595 10.14C16.0531 10.2378 15.6475 10.3279 15.1818 10.4043C14.2504 10.5569 13.0773 10.6545 11.9742 10.6462C10.8712 10.6378 9.80751 10.5485 8.934 10.4061C8.07978 10.2668 7.40529 10.0764 7.05452 9.86001L7.05818 10.275Z" fill="black"/>
<path fill-rule="evenodd" clip-rule="evenodd" d="M17.0062 10.2111L17.0062 10.3305C16.8759 10.4863 16.0589 10.7217 15.0344 10.8876C14.2546 11.0071 13.238 11.0973 11.9713 11.0973C10.7678 11.0973 9.80813 11.0115 9.06388 10.8972C7.88744 10.7259 7.13494 10.4259 6.98389 10.3364L6.98455 10.1971C7.43829 10.4988 8.66759 10.7195 9.08039 10.787C9.81979 10.9005 10.7738 10.9857 11.9712 10.9857C13.232 10.9857 14.2429 10.8961 15.0178 10.7774C15.7528 10.6712 16.8 10.395 17.0061 10.2112H17.0062L17.0062 10.2111ZM17.0067 9.7865L17.0067 9.90586C16.8764 10.0616 16.0594 10.297 15.0349 10.4629C14.2551 10.5824 13.2385 10.6726 11.9718 10.6726C10.7683 10.6726 9.80863 10.5869 9.06438 10.4725C7.88794 10.3013 7.13544 10.0013 6.98439 9.91172L6.98505 9.77246C7.43879 10.0741 8.66809 10.2948 9.08089 10.3623C9.82029 10.4758 10.7743 10.561 11.9717 10.561C13.2325 10.561 14.2434 10.4714 15.0183 10.3526C15.7533 10.2464 16.8005 9.97027 17.0066 9.7864L17.0067 9.7865L17.0067 9.7865Z" fill="#FFFF00"/>
<path fill-rule="evenodd" clip-rule="evenodd" d="M11.9896 13.0163C9.85099 13.0036 8.01854 12.4334 7.63159 12.3391L7.91376 12.7808C8.59726 13.0684 10.385 13.4968 12.0101 13.4494C13.6353 13.402 15.0556 13.2761 16.0565 12.7888L16.3458 12.3311C15.6637 12.6523 13.3424 13.013 11.9896 13.0163" fill="#FFFF00"/>
<path fill-rule="evenodd" clip-rule="evenodd" d="M16.3565 12.3212C16.3607 12.326 16.3612 12.333 16.3578 12.3384L16.0685 12.7962C16.0671 12.7984 16.0651 12.8002 16.0627 12.8014C15.0586 13.2902 13.6353 13.416 12.0104 13.4634C10.3833 13.5109 8.59351 13.082 7.90812 12.7937C7.90544 12.7926 7.90317 12.7907 7.90161 12.7882L7.61944 12.3465C7.61629 12.3416 7.61646 12.3352 7.61986 12.3305C7.62326 12.3257 7.62922 12.3235 7.6349 12.3249C7.68083 12.3361 7.74699 12.3539 7.83151 12.3767C8.4605 12.5464 10.1059 12.9904 11.9892 13.0017C11.9893 13.0017 11.9894 13.0017 11.9895 13.0017C12.6649 13 13.5827 12.9091 14.4169 12.7784C15.2518 12.6477 16.0007 12.4774 16.3396 12.3178C16.3454 12.3151 16.3523 12.3165 16.3565 12.3212ZM11.99 13.0303C11.9898 13.0303 11.9896 13.0303 11.9894 13.0303C10.1018 13.0191 8.45226 12.5739 7.8239 12.4043C7.75913 12.3869 7.70521 12.3723 7.66299 12.3615L7.92334 12.769C8.608 13.0557 10.3898 13.482 12.0096 13.4347C13.6331 13.3874 15.0489 13.2616 16.0465 12.7774L16.3082 12.3634C15.9476 12.5191 15.2221 12.6813 14.4214 12.8067C13.5864 12.9375 12.6673 13.0286 11.99 13.0303Z" fill="black"/>
<path fill-rule="evenodd" clip-rule="evenodd" d="M16.1651 12.6853C16.1226 12.7503 16.0793 12.8145 16.0353 12.8768C15.5632 13.0433 14.8194 13.218 14.5055 13.269C13.8643 13.4011 12.8722 13.4987 11.9918 13.4992C10.0973 13.4714 8.54654 13.1006 7.81699 12.7842L7.75812 12.683L7.76773 12.6678L7.86756 12.7065C9.16496 13.1707 10.6221 13.3558 12.0025 13.3891C12.8794 13.3922 13.7572 13.2886 14.4671 13.1616C15.5556 12.9435 15.9958 12.7791 16.1308 12.7046L16.1652 12.6853H16.1651L16.1651 12.6853ZM16.416 12.2716C16.4171 12.2729 16.4182 12.2741 16.4193 12.2755C16.3875 12.3291 16.3547 12.3837 16.3212 12.4386C16.0694 12.5286 15.3861 12.7285 14.3882 12.868C13.7308 12.9576 13.3221 13.0443 12.0143 13.0697C9.56352 13.0074 7.97677 12.5282 7.59982 12.41L7.54395 12.3028C8.96425 12.6736 10.415 12.9324 12.0143 12.9589C13.2109 12.9334 13.7199 12.8453 14.3719 12.7564C15.5355 12.5755 16.1217 12.3839 16.2977 12.3286C16.2955 12.3254 16.2929 12.3221 16.29 12.3186L16.4161 12.2715L16.416 12.2716L16.416 12.2716Z" fill="#FFFF00"/>
<path fill-rule="evenodd" clip-rule="evenodd" d="M16.4278 12.2652C16.4278 12.2652 16.4278 12.2651 16.4278 12.2651C16.4243 12.2597 16.4175 12.2574 16.4114 12.2597L16.2852 12.3068C16.2811 12.3084 16.2779 12.3119 16.2768 12.3162C16.2763 12.3181 16.2762 12.3201 16.2765 12.3219C16.2758 12.3222 16.275 12.3224 16.2743 12.3226C16.0776 12.3847 15.4931 12.5692 14.37 12.7438C14.2998 12.7534 14.2312 12.763 14.1633 12.7725C13.6006 12.8509 13.081 12.9234 12.0144 12.9462C10.4166 12.9197 8.96699 12.6611 7.5475 12.2906C7.54224 12.2892 7.53666 12.2911 7.53327 12.2953C7.52988 12.2996 7.52932 12.3054 7.53183 12.3102L7.5877 12.4174C7.58939 12.4206 7.5923 12.4231 7.59578 12.4242C7.97351 12.5426 9.56158 13.0221 12.014 13.0845L12.014 13.0845L12.0146 13.0845C13.1306 13.0629 13.5927 12.9965 14.1122 12.9219C14.2019 12.909 14.2933 12.8959 14.3902 12.8827L14.3902 12.8827C15.3889 12.7431 16.0731 12.5429 16.3259 12.4526C16.3288 12.4515 16.3313 12.4495 16.333 12.4468C16.3666 12.3919 16.3994 12.3372 16.4312 12.2835C16.4341 12.2787 16.4337 12.2725 16.4302 12.2681C16.4294 12.267 16.4286 12.266 16.4278 12.2652ZM16.3112 12.3265C16.3117 12.329 16.3116 12.3316 16.3108 12.3341C16.3094 12.3382 16.3061 12.3415 16.3019 12.3428C16.2959 12.3446 16.2895 12.3467 16.2826 12.3488C16.0852 12.4112 15.4992 12.5961 14.3741 12.771L14.3739 12.7711C14.3036 12.7806 14.235 12.7902 14.167 12.7997C13.604 12.8782 13.0831 12.9509 12.0147 12.9737L12.0142 12.9737V12.9737C10.4248 12.9474 8.98201 12.6918 7.57054 12.325L7.60945 12.3996C7.99524 12.5204 9.57711 12.995 12.0144 13.057C13.1285 13.0354 13.5892 12.9692 14.1083 12.8947C14.1981 12.8818 14.2895 12.8687 14.3864 12.8555C15.3774 12.7169 16.0576 12.5187 16.312 12.4283C16.3391 12.3841 16.3656 12.34 16.3915 12.2964L16.3112 12.3265ZM7.75619 12.6615C7.7597 12.6559 7.76665 12.6536 7.77278 12.656L7.87244 12.6947C9.1679 13.1581 10.6233 13.3432 12.0027 13.3764C12.8785 13.3795 13.7554 13.276 14.4646 13.1492C15.553 12.9311 15.9912 12.7671 16.1242 12.6937C16.1242 12.6936 16.1242 12.6936 16.1242 12.6936L16.1578 12.6748C16.1584 12.6745 16.1589 12.6741 16.1596 12.6739L16.1596 12.6739C16.1638 12.672 16.1685 12.6723 16.1723 12.6746C16.1735 12.6753 16.1747 12.6763 16.1757 12.6775C16.177 12.679 16.178 12.6809 16.1785 12.6829C16.1796 12.687 16.1787 12.6913 16.1763 12.6945C16.1339 12.7594 16.0906 12.8235 16.0467 12.8858C16.045 12.8881 16.0427 12.8899 16.04 12.8908C15.5672 13.0575 14.8228 13.2324 14.5081 13.2836C13.8658 13.4159 12.873 13.5135 11.9919 13.514L11.9917 13.5139C10.0958 13.4862 8.5432 13.1151 7.81159 12.7979C7.8089 12.7967 7.80665 12.7947 7.80518 12.7922L7.74631 12.691C7.74374 12.6865 7.74384 12.681 7.74657 12.6767L7.75619 12.6615ZM16.123 12.7255C16.0913 12.7732 16.0592 12.8202 16.0267 12.8663C15.5553 13.0321 14.8156 13.2058 14.5034 13.2565L14.5034 13.2565L14.5028 13.2566C13.8627 13.3885 12.8716 13.486 11.992 13.4865C10.1024 13.4588 8.55588 13.0895 7.82668 12.7744L7.77559 12.6866L7.86267 12.7204L7.86267 12.7204L7.86301 12.7205C9.16226 13.1853 10.621 13.3706 12.0022 13.4039V13.4039L12.0025 13.4039C12.8804 13.407 13.7591 13.3033 14.4696 13.1762L14.4698 13.1762C15.5225 12.9653 15.9706 12.8043 16.123 12.7255Z" fill="black"/>
<path fill-rule="evenodd" clip-rule="evenodd" d="M16.4416 9.88839C16.4485 11.2952 15.7286 12.5577 15.1487 13.1146C14.3283 13.9026 13.2406 14.4094 11.9703 14.4328C10.5518 14.4588 9.21428 13.5341 8.85553 13.1278C8.15413 12.3336 7.58308 11.325 7.56478 9.96569C7.65166 8.43024 8.25443 7.36069 9.12818 6.62724C10.0019 5.89379 11.1653 5.53659 12.1342 5.56214C13.2521 5.59164 14.558 6.14004 15.4603 7.22874C16.0514 7.94204 16.3074 8.71614 16.4416 9.88839ZM11.9823 5.07129C14.7066 5.07129 16.9471 7.28819 16.9471 10.0064C16.9471 12.7246 14.7066 14.9416 11.9823 14.9416C9.25808 14.9416 7.03613 12.7247 7.03613 10.0064C7.03613 7.28819 9.25808 5.07129 11.9823 5.07129Z" fill="#FFFF00"/>
<path fill-rule="evenodd" clip-rule="evenodd" d="M11.9825 5.08529C9.26613 5.08529 7.05062 7.29581 7.05062 10.0061C7.05062 12.7164 9.26613 14.927 11.9825 14.927C14.6989 14.927 16.933 12.7163 16.933 10.0061C16.933 7.29588 14.6989 5.08529 11.9825 5.08529ZM11.9825 5.05664C9.25037 5.05664 7.02197 7.27992 7.02197 10.0061C7.02197 12.7323 9.25037 14.9556 11.9825 14.9556C14.7146 14.9556 16.9616 12.7323 16.9616 10.0061C16.9616 7.27985 14.7146 5.05664 11.9825 5.05664ZM12.134 5.57614C11.1685 5.55067 10.0085 5.90678 9.13756 6.63789C8.26705 7.36861 7.66605 8.43427 7.57928 9.96567C7.59765 11.3203 8.16665 12.3256 8.86643 13.118C9.04425 13.3194 9.46665 13.6511 10.0221 13.9293C10.5773 14.2074 11.264 14.4311 11.9702 14.4181C13.2366 14.3949 14.321 13.8896 15.139 13.104C15.7163 12.5495 16.4341 11.2911 16.4275 9.88891C16.2934 8.71862 16.038 7.94777 15.4494 7.23756C14.5498 6.15214 13.2479 5.60553 12.134 5.57614ZM9.11914 6.61594C9.99568 5.88015 11.1625 5.52186 12.1348 5.5475C13.2567 5.5771 14.5665 6.12729 15.4715 7.21927C16.0651 7.93551 16.3217 8.71266 16.456 9.88644C16.4561 9.88695 16.4561 9.88747 16.4561 9.88799C16.4631 11.2992 15.7412 12.5653 15.1588 13.1246C14.336 13.9149 13.2449 14.4234 11.9707 14.4468C11.2584 14.4599 10.5671 14.2343 10.0093 13.9549C9.45162 13.6757 9.02589 13.3419 8.84496 13.137C8.14203 12.341 7.56898 11.3293 7.55062 9.96556C7.55062 9.96522 7.55063 9.96489 7.55065 9.96456C7.63774 8.42532 8.24224 7.35204 9.11914 6.61594Z" fill="black"/>
<path fill-rule="evenodd" clip-rule="evenodd" d="M11.9957 5.05371C14.7224 5.05371 16.9463 7.27786 16.9463 10.0048C16.9463 12.7317 14.7224 14.9558 11.9957 14.9558C9.26901 14.9558 7.04517 12.7318 7.04517 10.0048C7.04517 7.27786 9.26906 5.05371 11.9957 5.05371ZM7.15412 10.0048C7.15412 12.6678 9.34091 14.8469 11.9957 14.8469C14.6506 14.8469 16.8374 12.6678 16.8374 10.0048C16.8374 7.34173 14.6505 5.16263 11.9957 5.16263C9.34091 5.16263 7.15412 7.34183 7.15412 10.0048Z" fill="#FFFF00"/>
<path fill-rule="evenodd" clip-rule="evenodd" d="M11.9956 5.06771C9.2769 5.06771 7.05941 7.28544 7.05941 10.0045C7.05941 12.7235 9.27685 14.9411 11.9956 14.9411C14.7144 14.9411 16.9319 12.7235 16.9319 10.0045C16.9319 7.28544 14.7144 5.06771 11.9956 5.06771ZM11.9956 5.03906C9.26108 5.03906 7.03076 7.26962 7.03076 10.0045C7.03076 12.7393 9.26103 14.9698 11.9956 14.9698C14.7302 14.9698 16.9605 12.7393 16.9605 10.0045C16.9605 7.26962 14.7303 5.03906 11.9956 5.03906ZM7.13971 10.0045C7.13971 7.33358 9.33294 5.14798 11.9956 5.14798C14.6583 5.14798 16.8516 7.33348 16.8516 10.0045C16.8516 12.6754 14.6584 14.8609 11.9956 14.8609C9.33294 14.8609 7.13971 12.6754 7.13971 10.0045ZM11.9956 5.17663C9.34874 5.17663 7.16836 7.34943 7.16836 10.0045C7.16836 12.6596 9.34874 14.8323 11.9956 14.8323C14.6426 14.8323 16.823 12.6596 16.823 10.0045C16.823 7.34933 14.6426 5.17663 11.9956 5.17663Z" fill="black"/>
<path fill-rule="evenodd" clip-rule="evenodd" d="M11.9997 5.46484C14.4863 5.46484 16.5344 7.50589 16.5344 10C16.5344 12.4942 14.4862 14.5352 11.9997 14.5352C9.51324 14.5352 7.46509 12.4942 7.46509 10C7.46509 7.50589 9.51329 5.46484 11.9997 5.46484ZM7.57399 10C7.57399 12.4343 9.57294 14.4262 11.9997 14.4262C14.4265 14.4262 16.4255 12.4343 16.4255 10C16.4255 7.56571 14.4266 5.57376 11.9997 5.57376C9.57294 5.57376 7.57399 7.56571 7.57399 10Z" fill="#FFFF00"/>
<path fill-rule="evenodd" clip-rule="evenodd" d="M11.9997 5.47982C9.52111 5.47982 7.47933 7.51447 7.47933 10.0007C7.47933 12.487 9.52106 14.5215 11.9997 14.5215C14.4783 14.5215 16.52 12.487 16.52 10.0007C16.52 7.51447 14.4783 5.47982 11.9997 5.47982ZM11.9997 5.45117C9.50531 5.45117 7.45068 7.49862 7.45068 10.0007C7.45068 12.5028 9.50526 14.5502 11.9997 14.5502C14.4941 14.5502 16.5486 12.5028 16.5486 10.0007C16.5486 7.49862 14.4941 5.45117 11.9997 5.45117ZM7.55958 10.0007C7.55958 7.55844 9.56496 5.56009 11.9997 5.56009C14.4344 5.56009 16.4397 7.55844 16.4397 10.0007C16.4397 12.4428 14.4344 14.4412 11.9997 14.4412C9.56496 14.4412 7.55958 12.4428 7.55958 10.0007ZM11.9997 5.58874C9.58076 5.58874 7.58823 7.57429 7.58823 10.0007C7.58823 12.427 9.58076 14.4125 11.9997 14.4125C14.4186 14.4125 16.4111 12.427 16.4111 10.0007C16.4111 7.57429 14.4186 5.58874 11.9997 5.58874Z" fill="black"/>
<path fill-rule="evenodd" clip-rule="evenodd" d="M12.1992 5.0332H11.7749L11.7754 14.9812H12.2011L12.1992 5.0332Z" fill="#FFFF00"/>
<path fill-rule="evenodd" clip-rule="evenodd" d="M11.7647 5.02373C11.7674 5.02104 11.771 5.01953 11.7748 5.01953H12.1991C12.207 5.01953 12.2134 5.02594 12.2134 5.03385L12.2154 14.9819C12.2154 14.9857 12.2139 14.9893 12.2112 14.992C12.2085 14.9947 12.2049 14.9962 12.2011 14.9962H11.7753C11.7674 14.9962 11.761 14.9898 11.761 14.9819L11.7605 5.03386C11.7605 5.03006 11.762 5.02641 11.7647 5.02373ZM11.7891 5.04818L11.7896 14.9675H12.1867L12.1848 5.04818H11.7891Z" fill="black"/>
<path fill-rule="evenodd" clip-rule="evenodd" d="M12.1564 4.97754H12.2644L12.2653 15.04H12.1573L12.1565 4.97754H12.1564ZM11.7354 4.97763H11.8442L11.8443 15.0401H11.7354V4.97763H11.7354Z" fill="#FFFF00"/>
<path fill-rule="evenodd" clip-rule="evenodd" d="M12.1423 4.97722C12.1423 4.9693 12.1487 4.96289 12.1566 4.96289H12.2646C12.2725 4.96289 12.2789 4.9693 12.2789 4.97721L12.2798 15.0397C12.2798 15.0435 12.2783 15.0472 12.2756 15.0498C12.2729 15.0525 12.2693 15.054 12.2655 15.054H12.1574C12.1495 15.054 12.1431 15.0476 12.1431 15.0397L12.1423 4.97829C12.1423 4.97794 12.1423 4.97758 12.1423 4.97722ZM12.1709 4.99154L12.1717 15.0254H12.2512L12.2503 4.99154H12.1709ZM11.7212 4.97731C11.7212 4.96939 11.7276 4.96298 11.7355 4.96298H11.8443C11.8523 4.96298 11.8587 4.96939 11.8587 4.97731L11.8588 15.0398C11.8588 15.0436 11.8573 15.0472 11.8546 15.0499C11.8519 15.0526 11.8483 15.0541 11.8445 15.0541H11.7356C11.7277 15.0541 11.7213 15.0477 11.7213 15.0398V4.97869C11.7212 4.97823 11.7212 4.97777 11.7212 4.97731ZM11.7499 4.99163V15.0255H11.8302L11.83 4.99163H11.7499Z" fill="black"/>
<path fill-rule="evenodd" clip-rule="evenodd" d="M16.9496 10.1964V9.82862L16.6501 9.54962L14.9501 9.09961L12.5001 8.84961L9.55012 8.99961L7.45012 9.49962L7.02612 9.81362V10.1815L8.10012 9.69963L10.6501 9.29962H13.1001L14.9001 9.49963L16.1501 9.79963L16.9496 10.1964Z" fill="#FFFF00"/>
<path fill-rule="evenodd" clip-rule="evenodd" d="M12.4993 8.83596C12.5001 8.83592 12.5008 8.83594 12.5015 8.83601L14.9515 9.08601C14.9523 9.08609 14.953 9.08622 14.9537 9.08641L16.6537 9.53641C16.656 9.53701 16.6581 9.53817 16.6598 9.53977L16.9593 9.81877C16.9622 9.82148 16.9639 9.82528 16.9639 9.82925V10.197C16.9639 10.202 16.9613 10.2066 16.9571 10.2092C16.9529 10.2118 16.9476 10.2121 16.9432 10.2099L16.1451 9.81382L14.8976 9.5144L13.0993 9.31459H10.6512L8.10416 9.71412L7.03191 10.1952C7.02748 10.1972 7.02234 10.1968 7.01826 10.1941C7.01418 10.1915 7.01172 10.187 7.01172 10.1821V9.81425C7.01172 9.80971 7.01387 9.80544 7.01752 9.80274L7.44152 9.48874C7.44307 9.48759 7.44484 9.48677 7.44673 9.48632L9.54673 8.98633C9.54758 8.98612 9.54845 8.986 9.54932 8.98595L12.4993 8.83596ZM9.55209 9.0145L7.45621 9.51351L7.04037 9.82147V10.16L8.09418 9.68719C8.09534 9.68667 8.09657 9.68631 8.09783 9.68611L10.6478 9.28612C10.6486 9.286 10.6493 9.28594 10.65 9.28594H13.1001C13.1006 9.28594 13.1011 9.28597 13.1016 9.28603L14.9016 9.48603C14.9019 9.48606 14.9022 9.48611 14.9025 9.48616C14.9028 9.48621 14.9031 9.48627 14.9034 9.48634L16.1534 9.78633C16.1544 9.78659 16.1555 9.78695 16.1564 9.78743L16.9352 10.1739V9.83549L16.6429 9.56319L14.9475 9.1144L12.4997 8.86462L9.55209 9.0145Z" fill="black"/>
<path fill-rule="evenodd" clip-rule="evenodd" d="M11.9975 9.23812C13.1666 9.23596 14.301 9.34889 15.2007 9.52409C16.1292 9.70969 16.7826 9.94187 17.006 10.2026L17.0057 10.3318C16.7363 10.0072 15.8571 9.76935 15.1798 9.63335C14.2869 9.45965 13.1602 9.34751 11.9975 9.34967C10.7706 9.35197 9.6281 9.46816 8.74825 9.63983C8.04225 9.77993 7.1007 10.0582 6.98315 10.3327V10.1983C7.04771 10.0083 7.7488 9.72432 8.73235 9.52743C9.6188 9.35457 10.7634 9.24036 11.9975 9.23811V9.23812ZM11.998 8.81351C13.1671 8.81139 14.3015 8.92437 15.2012 9.09948C16.1297 9.28517 16.7831 9.51726 17.0065 9.77803L17.0062 9.90714C16.7368 9.58272 15.8576 9.34479 15.1803 9.20884C14.2874 9.03506 13.1607 8.92292 11.998 8.92516C10.7711 8.92737 9.63416 9.04365 8.7542 9.21523C8.0729 9.34439 7.0929 9.63371 6.9836 9.90823V9.77369C7.04816 9.58575 7.76345 9.29162 8.73285 9.10284C9.6193 8.92998 10.7639 8.81586 11.998 8.81352V8.81351Z" fill="#FFFF00"/>
<path fill-rule="evenodd" clip-rule="evenodd" d="M11.9988 8.82751C11.9986 8.82752 11.9984 8.82752 11.9981 8.82752C10.7648 8.82986 9.62121 8.94391 8.73576 9.11658L8.73576 9.11658C8.2517 9.21084 7.83139 9.33136 7.5243 9.4516C7.37071 9.51173 7.24584 9.57165 7.15558 9.62796C7.11045 9.65612 7.0743 9.68318 7.0476 9.70869C7.02171 9.73342 7.0055 9.75596 6.99809 9.77585V9.85385C7.01296 9.83356 7.03173 9.81358 7.05375 9.79392C7.09332 9.75862 7.14412 9.72373 7.20359 9.68956C7.32253 9.62121 7.47745 9.55494 7.64975 9.49341C7.99442 9.37032 8.41047 9.26553 8.75166 9.20084C9.63259 9.02907 10.7704 8.91272 11.9981 8.91051C13.1617 8.90827 14.2893 9.02048 15.1832 9.19446L15.1833 9.19447C15.5222 9.26251 15.912 9.35613 16.251 9.47345C16.4205 9.53212 16.5776 9.5968 16.7094 9.66733C16.8259 9.72968 16.9234 9.79697 16.9921 9.86928L16.9923 9.78303C16.882 9.65704 16.6672 9.53622 16.3634 9.42371C16.0571 9.31024 15.6624 9.20597 15.1986 9.11321C14.3 8.93832 13.1669 8.82544 11.9988 8.82751ZM11.9974 8.79887C11.9976 8.79886 11.9979 8.79886 11.9981 8.79886C13.1681 8.79674 14.3034 8.90979 15.2041 9.08509L15.2042 9.08511C15.6688 9.17803 16.0651 9.28266 16.3734 9.39684C16.6811 9.51081 16.9033 9.63505 17.0175 9.76839C17.0197 9.77099 17.021 9.7743 17.0209 9.77773L17.0207 9.90685C17.0207 9.91288 17.0169 9.91826 17.0112 9.9203C17.0055 9.92234 16.9992 9.92061 16.9953 9.91597C16.9297 9.83692 16.8261 9.76226 16.6959 9.69259C16.5659 9.62302 16.4103 9.55889 16.2417 9.50053C15.9044 9.3838 15.516 9.29048 15.1777 9.22257C14.2858 9.04898 13.16 8.93692 11.9981 8.93916C10.7721 8.94137 9.63608 9.05758 8.75711 9.22897L8.75704 9.22898C8.41694 9.29346 8.00236 9.3979 7.65939 9.52039C7.48786 9.58165 7.33471 9.64725 7.21787 9.7144C7.15945 9.74797 7.11043 9.78174 7.07282 9.8153C7.03511 9.84896 7.0096 9.88175 6.99708 9.91321C6.99454 9.91959 6.98782 9.92327 6.98107 9.92198C6.97432 9.92068 6.96944 9.91478 6.96944 9.90791V9.77337C6.96944 9.77179 6.96971 9.77021 6.97022 9.76872C6.97934 9.74216 6.99939 9.71512 7.02781 9.68797C7.05638 9.66068 7.09427 9.63245 7.14042 9.60366C7.23273 9.54606 7.35937 9.48541 7.51385 9.42492C7.8229 9.30391 8.24494 9.18297 8.73028 9.08846C9.61757 8.91543 10.7628 8.80125 11.9974 8.79887ZM15.1981 9.53782C14.2993 9.36281 13.1659 9.24996 11.9976 9.25212C11.9975 9.25212 11.9974 9.25212 11.9973 9.25211C10.7641 9.25438 9.62064 9.36852 8.7353 9.54116C8.24411 9.63949 7.8238 9.75949 7.5185 9.87846C7.3658 9.93796 7.24228 9.99705 7.15315 10.0528C7.10859 10.0807 7.07295 10.1075 7.04662 10.133C7.02109 10.1576 7.00506 10.1802 6.99764 10.2004V10.2797C7.03947 10.2231 7.11119 10.1682 7.20226 10.1156C7.31914 10.0481 7.4708 9.98291 7.64036 9.92207C7.97956 9.80036 8.39217 9.6956 8.74563 9.62546L8.74568 9.62545C9.62651 9.45359 10.7699 9.33732 11.9976 9.33502C13.1611 9.33286 14.2888 9.44508 15.1827 9.61897L15.1828 9.61898C15.5217 9.68705 15.9115 9.78067 16.2505 9.898C16.42 9.95667 16.5771 10.0214 16.7089 10.0919C16.8254 10.1543 16.9229 10.2216 16.9916 10.2939L16.9918 10.2076C16.8815 10.0816 16.6667 9.9608 16.3629 9.84829C16.0566 9.73481 15.6619 9.63054 15.1981 9.53782ZM11.998 9.22347C13.1679 9.22133 14.303 9.33433 15.2036 9.5097L15.2037 9.50972C15.6683 9.6026 16.0646 9.70722 16.3729 9.82142C16.6806 9.9354 16.9028 10.0597 17.017 10.193C17.0192 10.1956 17.0205 10.1989 17.0204 10.2023L17.0202 10.3315C17.0202 10.3375 17.0164 10.3429 17.0107 10.3449C17.005 10.347 16.9987 10.3452 16.9948 10.3406C16.9292 10.2615 16.8256 10.1868 16.6954 10.1172C16.5654 10.0476 16.4098 9.98345 16.2412 9.92508C15.9039 9.80834 15.5155 9.71501 15.1772 9.64708C14.2852 9.47357 13.1595 9.36152 11.9976 9.36367C10.7716 9.36597 9.63006 9.48209 8.7512 9.65356C8.39866 9.72352 7.9875 9.82795 7.65004 9.94904C7.48126 10.0096 7.33138 10.0742 7.21659 10.1404C7.10103 10.2072 7.02389 10.2741 6.99649 10.338C6.99381 10.3443 6.9871 10.3478 6.98044 10.3464C6.97378 10.3451 6.96899 10.3392 6.96899 10.3324V10.198C6.96899 10.1964 6.96925 10.1948 6.96976 10.1934C6.97885 10.1666 6.99863 10.1395 7.02672 10.1124C7.05494 10.0851 7.09235 10.0571 7.13796 10.0285C7.22918 9.97145 7.35451 9.91161 7.50809 9.85177C7.81536 9.73204 8.23736 9.61162 8.72971 9.51306L8.72978 9.51305C9.61723 9.33999 10.7627 9.22571 11.9976 9.22346C11.9977 9.22346 11.9979 9.22346 11.998 9.22347Z" fill="black"/>
<path fill-rule="evenodd" clip-rule="evenodd" d="M11.9742 6.64769C13.8167 6.63848 15.4237 6.90531 16.159 7.28194L16.4271 7.74589C15.7881 7.40149 14.0544 7.04339 11.9769 7.09694C10.2842 7.10735 8.47556 7.28329 7.56812 7.76744L7.88829 7.23199C8.63304 6.84579 10.3894 6.64984 11.9743 6.64779" fill="#FFFF00"/>
<path fill-rule="evenodd" clip-rule="evenodd" d="M11.9724 6.63412C11.18 6.63522 10.3447 6.68475 9.61427 6.78229C8.88376 6.87983 8.25635 7.0256 7.88162 7.21992C7.87926 7.22115 7.87728 7.223 7.87592 7.22529L7.55574 7.76073C7.55244 7.76625 7.55322 7.7733 7.55766 7.77796C7.5621 7.78262 7.5691 7.78375 7.57478 7.78072C8.02619 7.53989 8.70315 7.37513 9.47991 7.26938C10.2563 7.16368 11.131 7.11712 11.9769 7.11192L11.9772 7.11191C13.0151 7.08516 13.967 7.16124 14.7391 7.28697C15.5116 7.41277 16.1029 7.58809 16.4203 7.75914C16.426 7.76218 16.4329 7.76111 16.4374 7.75651C16.4419 7.75191 16.4427 7.74491 16.4395 7.73936L16.1713 7.27542C16.1699 7.27303 16.1679 7.2711 16.1655 7.26984C15.7958 7.08048 15.2084 6.91933 14.4839 6.80662C13.7591 6.69386 12.896 6.62941 11.9741 6.63402C11.9735 6.63402 11.973 6.63406 11.9724 6.63412ZM14.4795 6.83493C13.7569 6.7225 12.8959 6.65815 11.976 6.66266C11.9754 6.66273 11.9748 6.66277 11.9742 6.66277C11.1823 6.66379 10.3476 6.71326 9.61806 6.81068C8.89033 6.90786 8.26887 7.05254 7.89841 7.24349L7.60626 7.73207C8.06151 7.50151 8.72359 7.34343 9.47604 7.24099C10.254 7.13509 11.1299 7.08848 11.9766 7.08327C13.0162 7.05648 13.9698 7.13268 14.7437 7.25869C15.4833 7.37914 16.0598 7.54527 16.3901 7.71115L16.1486 7.29342C15.7828 7.10697 15.2005 6.9471 14.4795 6.83493Z" fill="black"/>
<path fill-rule="evenodd" clip-rule="evenodd" d="M11.9985 7.03173C13.0493 7.02895 14.0647 7.08822 14.8723 7.23391C15.6243 7.37387 16.3415 7.58396 16.4441 7.69693L16.5236 7.83742C16.2742 7.67457 15.6535 7.49325 14.8566 7.34213C14.0563 7.19171 13.0416 7.14188 11.9966 7.14462C10.8105 7.14056 9.88903 7.20318 9.09818 7.34107C8.26178 7.49757 7.68148 7.72115 7.53833 7.82737L7.61624 7.67886C7.8944 7.53695 8.33575 7.3659 9.0774 7.23237C9.89525 7.08297 10.8266 7.03817 11.9986 7.03173H11.9985L11.9985 7.03173ZM11.998 6.60751C13.0037 6.60487 13.9966 6.66091 14.7706 6.80004C15.3811 6.91888 15.9848 7.1044 16.2058 7.2695L16.3221 7.45427C16.1244 7.23454 15.3803 7.02631 14.7234 6.90967C13.9554 6.7772 13.0037 6.72477 11.998 6.71639C10.9426 6.71935 9.96726 6.78399 9.21041 6.9218C8.48836 7.0592 8.02241 7.22188 7.82526 7.34892L7.92751 7.19458C8.19958 7.05135 8.63911 6.91981 9.19266 6.81226C9.95511 6.67344 10.9365 6.61047 11.9981 6.60751H11.998Z" fill="#FFFF00"/>
<path fill-rule="evenodd" clip-rule="evenodd" d="M11.9983 6.62151C13.0035 6.61887 13.9954 6.6749 14.7681 6.8138L11.9983 6.62151ZM11.9981 6.59286C13.0042 6.59022 13.9981 6.64627 14.7733 6.78562L14.7735 6.78566C15.0792 6.84517 15.3833 6.92139 15.6388 7.00346C15.8937 7.08537 16.1019 7.1736 16.2145 7.2577C16.216 7.25876 16.2172 7.26006 16.2181 7.26155L16.3344 7.44632C16.3383 7.45262 16.3368 7.4609 16.3309 7.46538C16.325 7.46986 16.3166 7.46906 16.3116 7.46353C16.2641 7.41069 16.1825 7.35745 16.0752 7.30545C15.9682 7.2536 15.8368 7.20356 15.6907 7.15663C15.3987 7.06277 15.0491 6.9817 14.7211 6.92346C13.9542 6.79119 13.0034 6.73877 11.9981 6.73039C10.9432 6.73335 9.96884 6.79797 9.21319 6.93556C8.49136 7.07293 8.02782 7.23521 7.83318 7.36064C7.82748 7.36431 7.81999 7.36349 7.81523 7.35866C7.81046 7.35384 7.80973 7.34634 7.81348 7.34069L7.91573 7.18635C7.91706 7.18434 7.91887 7.1827 7.921 7.18158C8.19497 7.03736 8.63616 6.9055 9.19009 6.79787L9.19026 6.79784C9.95386 6.65881 10.9361 6.59582 11.9981 6.59286M14.7681 6.8138C15.0729 6.87313 15.3758 6.94908 15.63 7.03074C15.8831 7.11205 16.0863 7.19853 16.1953 7.27908L16.2578 7.37847C16.2113 7.34466 16.1537 7.31166 16.0877 7.27967C15.9791 7.22703 15.8463 7.17652 15.6995 7.12935C15.4059 7.035 15.055 6.95364 14.7261 6.89524L14.726 6.89523C13.9568 6.76257 13.0042 6.71013 11.9983 6.70174L11.9981 6.70174C10.9423 6.7047 9.96602 6.76936 9.208 6.90738L9.20789 6.9074C8.54457 7.03363 8.09541 7.18147 7.87187 7.30442L7.93759 7.20524C8.208 7.06366 8.64455 6.93306 9.19547 6.82601C9.95673 6.68742 10.9371 6.62447 11.9983 6.62151M11.9981 7.01709C11.9983 7.01708 11.9984 7.01708 11.9986 7.01708C13.0499 7.0143 14.0662 7.07358 14.875 7.21949L14.875 7.21951C15.2515 7.28957 15.6193 7.37718 15.9059 7.46148C16.0492 7.50362 16.1725 7.54499 16.2665 7.583C16.3135 7.60201 16.3534 7.62026 16.3849 7.63744C16.4162 7.65446 16.4403 7.67103 16.4548 7.68698C16.4555 7.68777 16.4562 7.68863 16.4567 7.68956L16.5362 7.83005C16.5395 7.8358 16.5384 7.84303 16.5335 7.84755C16.5287 7.85207 16.5214 7.85271 16.5159 7.8491C16.3931 7.76889 16.1773 7.68332 15.8915 7.59879C15.6061 7.51439 15.2523 7.43138 14.8541 7.35588C14.0552 7.20572 13.0415 7.15589 11.9968 7.15862H11.9967C10.8112 7.15457 9.8906 7.21716 9.10089 7.35485C8.68333 7.43298 8.32981 7.52784 8.06296 7.61635C7.79541 7.7051 7.61656 7.78696 7.54703 7.83856C7.54167 7.84254 7.53426 7.84229 7.52918 7.83794C7.52411 7.8336 7.52271 7.82632 7.52581 7.8204L7.60372 7.67188C7.6051 7.66926 7.60726 7.66712 7.6099 7.66578C7.88948 7.52314 8.33219 7.35169 9.07498 7.21796C9.89401 7.06834 10.8262 7.02353 11.9981 7.01709ZM11.9991 7.04573C11.999 7.04573 11.9989 7.04573 11.9988 7.04573C10.827 7.05217 9.89669 7.09698 9.08013 7.24614L9.0801 7.24615C8.34322 7.37881 7.90393 7.54846 7.62698 7.68923L7.57643 7.78559C7.66769 7.73274 7.83158 7.66291 8.05394 7.58916C8.32211 7.50021 8.67691 7.40503 9.09571 7.32667L9.09588 7.32664C9.88784 7.18855 10.8102 7.12591 11.9968 7.12997C13.0421 7.12724 14.0578 7.17706 14.8594 7.32773L14.8595 7.32773C15.2582 7.40335 15.6131 7.48657 15.8996 7.57132C16.1529 7.64622 16.3537 7.7226 16.4843 7.79646L16.4326 7.70512C16.4212 7.69306 16.4009 7.67874 16.3712 7.6626C16.341 7.64612 16.3022 7.62833 16.2558 7.60957C16.1629 7.57204 16.0407 7.53096 15.8978 7.48896C15.6123 7.40499 15.2455 7.31759 14.8699 7.24768C14.0636 7.10223 13.0494 7.04297 11.9991 7.04573Z" fill="black"/>
<path fill-rule="evenodd" clip-rule="evenodd" d="M14.4578 12.063C13.5469 11.893 12.6344 11.8683 11.997 11.8758C8.9266 11.9117 7.93475 12.5062 7.8137 12.6862L7.58423 12.3122C8.36593 11.7455 10.0379 11.4278 12.0136 11.4603C13.0395 11.4771 13.9248 11.5452 14.6695 11.6895L14.4578 12.0631" fill="#FFFF00"/>
<path fill-rule="evenodd" clip-rule="evenodd" d="M7.60308 12.3157L7.81466 12.6606C7.85463 12.6132 7.9393 12.5482 8.07973 12.4757C8.23881 12.3935 8.47108 12.3008 8.79526 12.2128C9.44363 12.0368 10.4604 11.8791 11.9964 11.8611C12.6319 11.8536 13.5412 11.8781 14.45 12.0467L14.6469 11.6994C13.9074 11.558 13.0295 11.4909 12.013 11.4743L12.0132 11.46L12.013 11.4743C11.0259 11.458 10.115 11.5293 9.35352 11.6753C8.59868 11.82 7.99192 12.0379 7.60308 12.3157ZM14.4701 12.0694L14.6817 11.6962C14.6839 11.6922 14.6841 11.6873 14.6822 11.6831C14.6803 11.679 14.6764 11.6759 14.6719 11.6751C13.926 11.5306 13.0398 11.4624 12.0135 11.4456C11.0249 11.4294 10.1119 11.5007 9.34813 11.6472C8.58465 11.7935 7.96884 12.0151 7.5755 12.3002C7.56944 12.3046 7.56778 12.3129 7.5717 12.3193L7.80117 12.6934C7.80371 12.6975 7.8082 12.7001 7.81308 12.7002C7.81795 12.7003 7.82254 12.6979 7.82526 12.6939C7.85341 12.652 7.93533 12.5825 8.09288 12.5011C8.24977 12.4201 8.48006 12.3281 8.80276 12.2405C9.44817 12.0653 10.4624 11.9077 11.9968 11.8898C12.6333 11.8823 13.5441 11.9069 14.453 12.0764C14.4592 12.0784 14.466 12.076 14.4695 12.0704C14.4698 12.07 14.47 12.0697 14.4701 12.0694Z" fill="black"/>
<path fill-rule="evenodd" clip-rule="evenodd" d="M11.9792 11.8224C12.8333 11.8351 13.6716 11.8704 14.4809 12.0213L14.4223 12.1248C13.6707 11.986 12.8695 11.9329 11.9821 11.9373C10.8489 11.9284 9.70284 12.0342 8.70504 12.3206C8.3902 12.4082 7.86899 12.6106 7.81584 12.7779L7.75754 12.6818C7.77434 12.5829 8.08936 12.3777 8.67824 12.2123C9.82115 11.885 10.8902 11.8298 11.9792 11.8223V11.8224L11.9792 11.8224ZM12.018 11.3926C12.9029 11.4091 13.8167 11.45 14.705 11.626L14.6439 11.7337C13.8418 11.5744 13.0755 11.5213 12.0232 11.5052C10.8864 11.5072 9.68062 11.5883 8.58427 11.907C8.23031 12.0101 7.61942 12.233 7.59907 12.4095L7.54077 12.3062C7.55404 12.1459 8.08287 11.9368 8.55867 11.7984C9.66348 11.4772 10.8724 11.3946 12.018 11.3926L12.018 11.3926Z" fill="#FFFF00"/>
<path fill-rule="evenodd" clip-rule="evenodd" d="M12.0184 11.3789C12.0182 11.3789 12.018 11.3789 12.0178 11.3789C10.8717 11.381 9.66129 11.4636 8.55467 11.7853L8.55467 11.7853C8.31642 11.8546 8.06454 11.9417 7.87033 12.0317C7.77328 12.0767 7.69007 12.1227 7.63007 12.1678C7.60007 12.1904 7.57546 12.2131 7.5578 12.2357C7.54019 12.2582 7.52886 12.2815 7.5269 12.3052C7.52668 12.3079 7.52728 12.3107 7.52863 12.3131L7.58693 12.4164C7.58985 12.4215 7.59579 12.4242 7.60163 12.4231C7.60746 12.4219 7.61188 12.4171 7.61256 12.4112C7.61468 12.3928 7.6247 12.3724 7.64312 12.3504C7.66146 12.3284 7.68739 12.3056 7.71969 12.2823C7.78428 12.2357 7.87267 12.1885 7.97209 12.1433C8.1708 12.053 8.41134 11.9717 8.58795 11.9203C9.68242 11.6021 10.8867 11.5211 12.0229 11.519C13.0748 11.5352 13.8402 11.5882 14.6411 11.7472C14.6469 11.7484 14.6528 11.7457 14.6557 11.7405L14.7167 11.6328C14.7189 11.629 14.7191 11.6243 14.7173 11.6203C14.7154 11.6163 14.7118 11.6134 14.7075 11.6126C13.8181 11.4364 12.9034 11.3955 12.0184 11.3789ZM12.0175 11.4064C10.8725 11.4085 9.6652 11.4911 8.56235 11.8117C8.32479 11.8808 8.07436 11.9675 7.88189 12.0567C7.78559 12.1013 7.70437 12.1463 7.64661 12.1898C7.61773 12.2115 7.59514 12.2326 7.57947 12.2526C7.56504 12.2711 7.55703 12.2881 7.55477 12.3034L7.5949 12.3745C7.60135 12.3604 7.61061 12.3464 7.622 12.3327C7.64234 12.3084 7.67024 12.284 7.70361 12.26C7.77034 12.2119 7.86061 12.1638 7.96071 12.1183C8.16102 12.0273 8.40291 11.9456 8.58026 11.8939L8.58026 11.8939C9.67845 11.5746 10.8858 11.4936 12.023 11.4915L12.0232 11.4915V11.4915C13.0716 11.5076 13.8369 11.5604 14.6367 11.7183L14.6834 11.6359C13.8023 11.4633 12.8961 11.4228 12.0175 11.4064C12.0175 11.4064 12.0175 11.4064 12.0175 11.4064ZM11.9775 11.8361C11.9781 11.8362 11.9788 11.8363 11.9795 11.8362C12.8265 11.8489 13.6573 11.8837 14.4592 12.0314L14.4149 12.1095C13.6651 11.9719 12.8661 11.9193 11.9819 11.9236C10.848 11.9147 9.70058 12.0206 8.70113 12.3074C8.54313 12.3514 8.33341 12.4242 8.15631 12.507C8.06778 12.5484 7.98697 12.5925 7.92475 12.6371C7.8745 12.6731 7.83469 12.7105 7.81374 12.7483L7.772 12.6794C7.7744 12.6708 7.77968 12.6604 7.78867 12.6482C7.79927 12.6339 7.81448 12.6178 7.83453 12.6004C7.87463 12.5656 7.93308 12.526 8.00978 12.4841C8.16313 12.4004 8.38809 12.3081 8.6818 12.2256L8.68186 12.2256C9.82235 11.899 10.8894 11.8437 11.9775 11.8361ZM11.9789 11.8086C11.9795 11.8086 11.9802 11.8087 11.9808 11.8087C12.8345 11.8215 13.6733 11.8568 14.4832 12.0079C14.4876 12.0087 14.4913 12.0116 14.4931 12.0156C14.495 12.0196 14.4948 12.0243 14.4926 12.0282L14.434 12.1316C14.4311 12.1367 14.4253 12.1394 14.4196 12.1384C13.6691 11.9998 12.8688 11.9468 11.982 11.9511L11.9818 11.9511C10.8495 11.9422 9.70478 12.048 8.70866 12.3339L8.70856 12.3339C8.55172 12.3776 8.34345 12.4498 8.16796 12.5319C8.08019 12.573 8.00106 12.6163 7.94076 12.6595C7.87981 12.7031 7.84061 12.7449 7.82878 12.7821C7.82714 12.7873 7.82265 12.791 7.8173 12.7916C7.81194 12.7923 7.80671 12.7897 7.80391 12.7851L7.74562 12.689C7.7439 12.6861 7.74327 12.6828 7.74382 12.6795C7.74642 12.6642 7.75449 12.6482 7.76655 12.6319C7.77869 12.6155 7.79544 12.5979 7.81649 12.5797C7.85858 12.5431 7.91885 12.5024 7.9966 12.46C8.15219 12.375 8.37916 12.282 8.67433 12.1991C9.81904 11.8713 10.8896 11.8161 11.9789 11.8086Z" fill="black"/>
<path fill-rule="evenodd" clip-rule="evenodd" d="M16.379 12.3692L16.0101 12.9416L14.95 12.0002L12.2 10.1502L9.09998 8.4502L7.49048 7.8997L7.83348 7.2637L7.94998 7.2002L8.94998 7.4502L12.25 9.1502L14.15 10.3502L15.75 11.5002L16.4 12.2502L16.379 12.3692Z" fill="#FFFF00"/>
<path fill-rule="evenodd" clip-rule="evenodd" d="M7.94329 7.18729C7.94644 7.18557 7.95013 7.1851 7.95362 7.18597L8.95362 7.43597C8.95469 7.43624 8.95572 7.43663 8.9567 7.43714L12.2567 9.13714C12.2571 9.13733 12.2574 9.13754 12.2578 9.13776L14.1578 10.3378C14.158 10.3379 14.1583 10.3381 14.1585 10.3382L15.7585 11.4882C15.7594 11.4889 15.7602 11.4896 15.761 11.4905L16.411 12.2405C16.4138 12.2438 16.415 12.2481 16.4143 12.2524L16.3932 12.3714C16.3929 12.3732 16.3922 12.375 16.3912 12.3766L16.0222 12.9491C16.02 12.9526 16.0163 12.9549 16.0121 12.9555C16.008 12.9561 16.0038 12.9548 16.0007 12.952L14.9413 12.0112L12.1927 10.1621L9.09434 8.46303L7.48601 7.91293C7.48202 7.91156 7.47884 7.90852 7.47731 7.9046C7.47577 7.90068 7.47604 7.89628 7.47804 7.89257L7.82104 7.25657C7.82235 7.25413 7.82435 7.25212 7.82679 7.25079L7.94329 7.18729ZM7.95209 7.21512L7.84423 7.27391L7.51128 7.89129L9.10478 8.43632C9.10556 8.43658 9.10631 8.43692 9.10703 8.43731L12.207 10.1373C12.2072 10.1374 12.2074 10.1375 12.2076 10.1377C12.2078 10.1378 12.208 10.1379 12.2081 10.138L14.9581 11.988C14.9587 11.9883 14.9592 11.9887 14.9597 11.9892L16.0072 12.9195L16.3655 12.3635L16.3849 12.2541L15.7404 11.5105L14.1421 10.3618L12.243 9.16232L8.94506 7.46337L7.95209 7.21512Z" fill="black"/>
<path fill-rule="evenodd" clip-rule="evenodd" d="M7.43246 7.91499C7.71476 7.72352 9.78941 8.64774 11.9602 9.95669C14.1253 11.2694 16.194 12.7527 16.0073 13.0303L15.9459 13.127L15.9177 13.1492C15.9237 13.1449 15.9549 13.1068 15.9147 13.0039C15.8224 12.7004 14.3549 11.5293 11.92 10.0591C9.54621 8.64368 7.56792 7.79058 7.37012 8.03443L7.43247 7.91497H7.43242L7.43246 7.91499ZM16.4544 12.3613C16.6329 12.0087 14.7087 10.5591 12.3229 9.14774C9.88221 7.76444 8.12316 6.95019 7.80186 7.19299L7.73047 7.32294C7.72985 7.33009 7.73307 7.31408 7.74816 7.30244C7.80658 7.25146 7.90342 7.2549 7.94712 7.25411C8.50036 7.2624 10.0805 7.98956 12.2974 9.26051C13.2688 9.82626 16.401 11.8351 16.389 12.4C16.3898 12.4485 16.393 12.4585 16.3748 12.4826L16.4544 12.3614V12.3613L16.4544 12.3613Z" fill="#FFFF00"/>
<path fill-rule="evenodd" clip-rule="evenodd" d="M9.27355 7.54714C10.0592 7.89356 11.1096 8.44322 12.3301 9.13495L12.3303 9.13508C13.5235 9.84097 14.6016 10.5565 15.3592 11.1399C15.7379 11.4315 16.037 11.6905 16.2304 11.8989C16.327 12.003 16.3978 12.0951 16.4389 12.1729C16.4794 12.2497 16.493 12.3165 16.4676 12.3671C16.4673 12.3677 16.467 12.3683 16.4666 12.3689L16.3955 12.477C16.3931 12.4815 16.39 12.486 16.3863 12.4909C16.3817 12.497 16.373 12.4984 16.3667 12.4939C16.3604 12.4895 16.3587 12.4808 16.363 12.4744L16.3708 12.4624C16.3733 12.4576 16.3744 12.4534 16.375 12.4484C16.3759 12.441 16.3757 12.4324 16.3753 12.4187C16.3751 12.4133 16.375 12.4071 16.3749 12.3999L16.3749 12.3993C16.3755 12.3672 16.365 12.3286 16.343 12.2838C16.3211 12.2391 16.2882 12.1892 16.2454 12.1346C16.1597 12.0254 16.0352 11.899 15.8819 11.761C15.5754 11.4849 15.1552 11.1635 14.7038 10.8419C13.8013 10.1987 12.7758 9.55527 12.2904 9.27259C11.1822 8.63724 10.2333 8.13794 9.49255 7.79649C9.12215 7.62576 8.80397 7.49459 8.54402 7.40561C8.28386 7.31655 8.08324 7.2702 7.9473 7.26811C7.94374 7.26817 7.93989 7.26821 7.93579 7.26825C7.91408 7.26846 7.88546 7.26874 7.85547 7.27329C7.81966 7.27873 7.78398 7.29001 7.75774 7.31291C7.75752 7.3131 7.7573 7.31328 7.75708 7.31345C7.75162 7.31766 7.74817 7.32278 7.74603 7.32653C7.74549 7.32747 7.74505 7.32829 7.74462 7.32908C7.7446 7.32913 7.74457 7.32918 7.74454 7.32924C7.74425 7.32979 7.7436 7.33103 7.74295 7.33199C7.74273 7.33233 7.7423 7.33295 7.7417 7.33365C7.74131 7.3341 7.73983 7.33581 7.73734 7.3371C7.73422 7.33871 7.72791 7.34021 7.72208 7.33584C7.71802 7.33281 7.71696 7.32873 7.71675 7.3279L7.71674 7.32788C7.71618 7.32571 7.71624 7.32376 7.71625 7.32338C7.71625 7.32336 7.71625 7.32335 7.71625 7.32334C7.71627 7.32262 7.71632 7.32192 7.71637 7.32138C7.71654 7.3194 7.71713 7.31747 7.71809 7.31572L7.78948 7.18577C7.79045 7.184 7.79178 7.18245 7.79339 7.18124C7.8374 7.14798 7.90397 7.13414 7.98873 7.13589C8.0739 7.13765 8.17969 7.15522 8.30433 7.18726C8.55369 7.25136 8.88079 7.37397 9.27355 7.54714ZM16.4038 12.4123L16.442 12.3542C16.4421 12.354 16.4422 12.3538 16.4423 12.3536C16.4607 12.3162 16.453 12.2609 16.4135 12.1863C16.3742 12.1118 16.3053 12.0218 16.2094 11.9184C16.0176 11.7117 15.72 11.4539 15.3417 11.1626C14.5853 10.5802 13.5084 9.86529 12.3158 9.15981C11.0957 8.46827 10.0463 7.91918 9.26199 7.57336C8.86975 7.40041 8.54431 7.27853 8.2972 7.21501C8.17362 7.18324 8.07021 7.16623 7.98814 7.16453C7.90746 7.16286 7.84955 7.17605 7.81307 7.20232L7.77806 7.26606C7.80168 7.2549 7.82718 7.24861 7.85117 7.24497C7.88337 7.24008 7.91432 7.23979 7.93596 7.23959C7.93999 7.23956 7.94369 7.23952 7.94702 7.23946L7.9475 7.23945L7.9475 7.23946C8.08818 7.24157 8.29246 7.28921 8.5533 7.3785C8.8145 7.46791 9.13364 7.59951 9.50454 7.77048C10.2464 8.11241 11.196 8.61216 12.3047 9.24775L12.3048 9.2478C12.7908 9.53088 13.8171 10.1748 14.7205 10.8186C15.1721 11.1404 15.5934 11.4625 15.9011 11.7397C16.0549 11.8782 16.1808 12.0059 16.2679 12.1169C16.3115 12.1724 16.3456 12.2241 16.3687 12.2712C16.3917 12.318 16.4043 12.3612 16.4035 12.3997C16.4036 12.4041 16.4037 12.4083 16.4038 12.4123ZM7.42552 7.90218C7.42284 7.9037 7.42068 7.90608 7.41943 7.90899L7.35758 8.02748C7.35418 8.034 7.35627 8.04204 7.36242 8.04608C7.36857 8.05012 7.37677 8.04884 7.38141 8.04313C7.39123 8.03102 7.40741 8.02129 7.43153 8.01496C7.45564 8.00864 7.48668 8.006 7.52471 8.00735C7.60077 8.01005 7.70233 8.02858 7.82709 8.06237C8.07645 8.1299 8.4157 8.25758 8.82345 8.43732C9.63878 8.79675 10.7262 9.36358 11.9127 10.0711C13.1299 10.806 14.1051 11.466 14.7874 11.9801C15.1286 12.2372 15.3963 12.4576 15.5844 12.6326C15.6785 12.7201 15.7524 12.7961 15.8056 12.8594C15.8591 12.9231 15.8905 12.9727 15.9011 13.0077C15.9012 13.0078 15.9012 13.0079 15.9012 13.008C15.9013 13.0083 15.9014 13.0085 15.9015 13.0088C15.9377 13.1015 15.9123 13.1337 15.9097 13.1369C15.9096 13.1371 15.9095 13.1372 15.9095 13.1372L15.909 13.1376C15.9029 13.1424 15.9018 13.1512 15.9064 13.1575C15.9111 13.1637 15.9199 13.165 15.9262 13.1605C15.9267 13.1602 15.9271 13.1598 15.9276 13.1594L15.9549 13.1379C15.9562 13.1369 15.9573 13.1357 15.9581 13.1343L16.0194 13.038C16.0194 13.0379 16.0194 13.0379 16.0195 13.0378C16.0338 13.0164 16.0365 12.9901 16.0306 12.9613C16.0247 12.9326 16.0101 12.9001 15.9882 12.8646C15.9444 12.7934 15.8694 12.7066 15.7684 12.607C15.5662 12.4077 15.2568 12.1548 14.8744 11.8699C14.1094 11.2999 13.0506 10.6006 11.9678 9.94411L11.9678 9.94409C10.882 9.28938 9.82011 8.73081 8.99419 8.35979C8.58128 8.1743 8.227 8.03554 7.95802 7.95511C7.82358 7.91491 7.70996 7.88913 7.62073 7.87949C7.57612 7.87467 7.53719 7.87384 7.50459 7.87742C7.47261 7.88093 7.44573 7.88879 7.42552 7.90218ZM15.9493 13.0947L15.9954 13.0223L15.9956 13.022C16.0045 13.0088 16.0075 12.991 16.0026 12.967C15.9976 12.9429 15.9848 12.9137 15.9638 12.8796C15.9218 12.8114 15.8488 12.7265 15.7483 12.6274C15.5475 12.4295 15.2394 12.1775 14.8573 11.8928C14.0933 11.3236 13.0353 10.6248 11.953 9.96863C10.868 9.31439 9.80713 8.75638 8.98245 8.38592C8.57005 8.20067 8.21707 8.06247 7.94981 7.98256C7.81614 7.94258 7.7044 7.91734 7.61766 7.90797C7.57429 7.90329 7.53758 7.90262 7.50771 7.9059C7.4796 7.90899 7.45845 7.91548 7.44357 7.92464L7.40831 7.9922C7.41341 7.99035 7.41873 7.9887 7.42426 7.98725C7.45203 7.97997 7.48609 7.97731 7.52572 7.97872C7.60498 7.98153 7.70897 8.0007 7.83458 8.03471C8.08597 8.10279 8.42674 8.23113 8.83501 8.41111C9.6517 8.77113 10.7402 9.33856 11.9275 10.0465L11.9275 10.0465C13.1453 10.7818 14.1214 11.4424 14.8046 11.9572C15.1462 12.2146 15.4148 12.4357 15.6039 12.6116C15.6985 12.6996 15.7733 12.7764 15.8275 12.841C15.8812 12.9048 15.9158 12.958 15.9284 12.9989C15.944 13.0389 15.9494 13.0705 15.9493 13.0947Z" fill="black"/>
<path d="M9.03 10.5499C9.03 11.3634 9.36314 12.0992 9.90285 12.637C10.4436 13.1759 11.1784 13.5159 11.9933 13.5159C12.8123 13.5159 13.5556 13.1833 14.0941 12.6465C14.6325 12.1097 14.9662 11.3689 14.9664 10.5525H14.9663V6.59299L9.0293 6.58594L9.02991 10.5498H9.03001L9.03 10.5499Z" fill="white"/>
<path fill-rule="evenodd" clip-rule="evenodd" d="M9.01245 6.56934L14.983 6.57643V10.5359H14.9831L14.9831 10.5526C14.9829 11.3737 14.6473 12.1188 14.1059 12.6585C13.5644 13.1983 12.8169 13.5328 11.9932 13.5328C11.1736 13.5328 10.4346 13.1908 9.89094 12.649C9.35195 12.112 9.01774 11.3784 9.0132 10.5668H9.01307L9.01245 6.56934ZM9.03292 10.55L9.04659 10.55L9.04597 6.60289L14.9495 6.60991V10.5694H14.9495C14.9448 11.3745 14.6139 12.1047 14.0822 12.6348C13.5467 13.1686 12.8076 13.4993 11.9932 13.4993C11.1832 13.4993 10.4525 13.1613 9.91459 12.6253C9.37786 12.0905 9.04667 11.3589 9.04667 10.55L9.03292 10.55Z" fill="black"/>
<path d="M9.14071 10.5552V10.5575C9.14071 11.3353 9.46278 12.0437 9.97946 12.5579C10.4972 13.0732 11.2102 13.3935 11.9902 13.3935C12.7742 13.3935 13.4858 13.0755 14.0013 12.5622C14.5167 12.049 14.8361 11.3406 14.8362 10.56H14.8361V6.7187L9.14411 6.71777L9.14062 10.5552L9.14071 10.5552ZM13.6917 7.86783L13.6919 10.3124L13.6899 10.571H13.6899C13.6899 10.639 13.6858 10.7166 13.6779 10.7826C13.6316 11.1691 13.4539 11.506 13.1906 11.768C12.8824 12.0748 12.4571 12.2651 11.9883 12.2651C11.5219 12.2651 11.1063 12.0682 10.7968 11.7601C10.4793 11.4441 10.2953 11.0108 10.2953 10.5627L10.2946 7.86159L13.6916 7.86772L13.6917 7.86782L13.6917 7.86783Z" fill="#FF0000"/>
<path fill-rule="evenodd" clip-rule="evenodd" d="M9.13168 6.70508L14.849 6.70601V10.5473H14.8491L14.8491 10.56C14.849 11.3441 14.5281 12.0557 14.0105 12.5712C13.4927 13.0867 12.778 13.4062 11.9904 13.4062C11.2069 13.4062 10.4907 13.0844 9.97075 12.5669C9.45345 12.052 9.13029 11.3433 9.12828 10.5648L9.12817 10.5647L9.13168 6.70508ZM14.8237 10.5727H14.8237V6.73137L9.15702 6.73045L9.15356 10.5456L9.15364 10.5456V10.5574C9.15364 11.3317 9.47422 12.0369 9.98865 12.5489C10.5041 13.0619 11.2139 13.3808 11.9904 13.3808C12.771 13.3808 13.4793 13.0642 13.9926 12.5532C14.5029 12.045 14.8202 11.3447 14.8237 10.5727ZM10.2822 7.84887L13.6971 7.85504L13.7169 7.87466L13.7047 7.87772L13.7049 10.3124L13.7049 10.3125L13.7028 10.5655V10.571C13.7028 10.6394 13.6987 10.7175 13.6907 10.7841C13.6441 11.1737 13.4649 11.5131 13.1998 11.777C12.8893 12.0861 12.4608 12.2778 11.9885 12.2778C11.5184 12.2778 11.0997 12.0793 10.7881 11.7691C10.4683 11.4508 10.2829 11.0142 10.2829 10.5627L10.2822 7.84887ZM13.6774 10.5836H13.6773L13.6795 10.3124L13.6795 10.3123L13.6793 7.88037L10.3076 7.87429L10.3082 10.5627C10.3082 11.0073 10.4908 11.4374 10.806 11.7511C11.1134 12.0571 11.5259 12.2524 11.9885 12.2524C12.4538 12.2524 12.876 12.0636 13.1819 11.759C13.4433 11.4988 13.6196 11.1645 13.6655 10.7811C13.6729 10.7197 13.6769 10.6481 13.6774 10.5836Z" fill="black"/>
<path d="M9.50928 7.72128C9.51602 7.44523 9.7119 7.37989 9.71331 7.37892C9.71472 7.37799 9.92488 7.44929 9.92418 7.72384L9.50928 7.72128" fill="#FFFF00"/>
<path d="M9.34024 7.38381L9.30615 7.70105L9.51319 7.7015C9.51517 7.43903 9.71188 7.39537 9.71664 7.39634C9.7211 7.39609 9.91609 7.45437 9.92129 7.7015H10.1289L10.0914 7.38184L9.34026 7.38373V7.38383L9.34024 7.38381Z" fill="#FFFF00"/>
<path fill-rule="evenodd" clip-rule="evenodd" d="M9.32901 7.37162L9.32775 7.37163V7.38334L9.29224 7.71389L9.52558 7.71439L9.52568 7.70196C9.52664 7.57429 9.57477 7.50116 9.62208 7.45992C9.64591 7.43914 9.66981 7.42623 9.68796 7.41859C9.69703 7.41477 9.70461 7.4123 9.70993 7.41082C9.71261 7.41008 9.71464 7.40962 9.71597 7.40936C9.71595 7.40936 9.71598 7.40936 9.71597 7.40936C9.71603 7.40938 9.71614 7.40939 9.7162 7.40941C9.71757 7.40979 9.71963 7.41044 9.7223 7.41139C9.72763 7.41328 9.7352 7.41632 9.74426 7.42076C9.76239 7.42963 9.78631 7.44399 9.81026 7.46577C9.8579 7.50909 9.90626 7.58228 9.90878 7.70213L9.90904 7.71437H10.1429L10.1025 7.36967L9.34562 7.37158L9.33075 7.35547L9.32901 7.37162ZM9.34972 7.41288L9.32006 7.68895L9.50092 7.68934C9.50489 7.56203 9.55456 7.48561 9.60565 7.44107C9.63163 7.41842 9.65772 7.40424 9.6778 7.39574L9.35275 7.39656V7.41617L9.34972 7.41288ZM9.74949 7.39556C9.75134 7.39642 9.75327 7.39733 9.75525 7.3983C9.77509 7.40801 9.80108 7.42362 9.82708 7.44727C9.87766 7.49327 9.92774 7.5692 9.93336 7.68937H10.1148L10.0802 7.39473L9.74949 7.39556Z" fill="black"/>
<path d="M9.29222 7.70312H10.1395C10.1574 7.70312 10.172 7.72076 10.172 7.74233C10.172 7.76385 10.1574 7.7814 10.1395 7.7814H9.29222C9.27436 7.7814 9.25977 7.76385 9.25977 7.74233C9.25977 7.72076 9.27436 7.70312 9.29222 7.70312Z" fill="#FFFF00"/>
<path fill-rule="evenodd" clip-rule="evenodd" d="M9.29227 7.71543C9.28342 7.71543 9.27231 7.72516 9.27231 7.74213C9.27231 7.75901 9.28338 7.7687 9.29227 7.7687H10.1396C10.1485 7.7687 10.1595 7.75901 10.1595 7.74213C10.1595 7.72516 10.1484 7.71543 10.1396 7.71543H9.29227ZM9.24731 7.74213C9.24731 7.71598 9.2654 7.69043 9.29227 7.69043H10.1396C10.1665 7.69043 10.1845 7.71598 10.1845 7.74213C10.1845 7.76829 10.1664 7.7937 10.1396 7.7937H9.29227C9.26544 7.7937 9.24731 7.76829 9.24731 7.74213Z" fill="black"/>
<path d="M9.60034 7.7007C9.60127 7.53507 9.71345 7.48819 9.71402 7.48828C9.71407 7.48828 9.83114 7.53661 9.83207 7.7007H9.60035" fill="#FFFF00"/>
<path fill-rule="evenodd" clip-rule="evenodd" d="M9.714 7.50187C9.71685 7.50335 9.72084 7.50558 9.72563 7.50867C9.73587 7.51528 9.74965 7.52576 9.76348 7.5411C9.78948 7.56993 9.81611 7.61639 9.8193 7.68796H9.61319C9.61624 7.61549 9.64186 7.56894 9.66679 7.54032C9.68004 7.52511 9.69324 7.5148 9.70306 7.50836C9.70754 7.50542 9.71129 7.50329 9.714 7.50187ZM9.6004 7.70046L9.58789 7.70039C9.58837 7.61447 9.61781 7.55848 9.64794 7.5239C9.66291 7.50671 9.67792 7.49496 9.68933 7.48746C9.69504 7.48371 9.69987 7.48102 9.70337 7.47923C9.70512 7.47833 9.70656 7.47765 9.70764 7.47718C9.70817 7.47694 9.70866 7.47673 9.70908 7.47657C9.70927 7.47649 9.70955 7.47638 9.70985 7.47628C9.70998 7.47623 9.71028 7.47613 9.71065 7.47602C9.71082 7.47598 9.7112 7.47587 9.71169 7.47578C9.71194 7.47573 9.71255 7.47564 9.71291 7.4756C9.71316 7.47559 9.71358 7.47558 9.71407 7.47559C9.71425 7.47561 9.71444 7.47558 9.71462 7.4756C9.7151 7.47562 9.7156 7.47565 9.716 7.4757L9.71599 7.4758C9.71731 7.47603 9.71838 7.47632 9.71849 7.47636L9.71868 7.47643L9.71882 7.47649L9.71899 7.47656L9.71938 7.47672C9.71968 7.47685 9.72009 7.47704 9.7206 7.47727C9.72162 7.47774 9.72304 7.47841 9.72481 7.47932C9.72836 7.48113 9.7333 7.48387 9.73918 7.48766C9.75093 7.49524 9.76649 7.5071 9.78204 7.52435C9.81333 7.55905 9.84413 7.61506 9.84462 7.70039L9.84469 7.71296H9.6004V7.70046Z" fill="black"/>
<path d="M9.31018 7.25195H10.1224C10.1395 7.25195 10.1536 7.26787 10.1536 7.28719C10.1536 7.30655 10.1395 7.32242 10.1224 7.32242H9.31018C9.29308 7.32242 9.27905 7.30663 9.27905 7.28719C9.27905 7.26787 9.29308 7.25195 9.31018 7.25195Z" fill="#FFFF00"/>
<path fill-rule="evenodd" clip-rule="evenodd" d="M9.31023 7.26426C9.30145 7.26426 9.2916 7.27307 9.2916 7.28699C9.2916 7.30101 9.30142 7.30973 9.31023 7.30973H10.1225C10.1313 7.30973 10.1411 7.30095 10.1411 7.28699C10.1411 7.27307 10.1313 7.26426 10.1225 7.26426H9.31023ZM9.2666 7.28699C9.2666 7.26228 9.2848 7.23926 9.31023 7.23926H10.1225C10.1479 7.23926 10.1661 7.26228 10.1661 7.28699C10.1661 7.31175 10.1479 7.33473 10.1225 7.33473H9.31023C9.28483 7.33473 9.2666 7.31186 9.2666 7.28699Z" fill="black"/>
<path d="M9.32713 7.32324H10.104C10.1204 7.32324 10.1338 7.33907 10.1338 7.35843C10.1338 7.37783 10.1204 7.39367 10.104 7.39367H9.32713C9.31077 7.39367 9.29736 7.37783 9.29736 7.35843C9.29736 7.33907 9.31077 7.32324 9.32713 7.32324Z" fill="#FFFF00"/>
<path fill-rule="evenodd" clip-rule="evenodd" d="M9.32718 7.33555C9.3196 7.33555 9.30991 7.34374 9.30991 7.35824C9.30991 7.37279 9.31961 7.38097 9.32718 7.38097H10.1041C10.1116 7.38097 10.1213 7.37279 10.1213 7.35824C10.1213 7.34374 10.1117 7.33555 10.1041 7.33555H9.32718ZM9.28491 7.35824C9.28491 7.33401 9.30204 7.31055 9.32718 7.31055H10.1041C10.1292 7.31055 10.1463 7.33401 10.1463 7.35824C10.1463 7.38249 10.1292 7.40597 10.1041 7.40597H9.32718C9.30203 7.40597 9.28491 7.38249 9.28491 7.35824Z" fill="black"/>
<path d="M9.57845 6.79384L9.63978 6.79394V6.83751H9.68454V6.79297L9.74737 6.79317V6.83753H9.79226V6.79299H9.85514L9.85504 6.89358C9.85504 6.90936 9.84234 6.91959 9.82762 6.91959H9.60705C9.59223 6.91959 9.57856 6.90773 9.57852 6.89327L9.57837 6.79387H9.57841L9.57845 6.79384Z" fill="#FFFF00"/>
<path fill-rule="evenodd" clip-rule="evenodd" d="M9.6718 6.78027L9.75963 6.78055V6.82488H9.77952V6.78034H9.86741L9.8673 6.89343C9.8673 6.89343 9.8673 6.89342 9.8673 6.89343M9.6718 6.78027V6.79281V6.78027ZM9.6968 6.80535V6.84985H9.62705V6.80626L9.59065 6.8062L9.59079 6.89308C9.59079 6.89308 9.59079 6.89308 9.59079 6.89308C9.59081 6.89954 9.59773 6.90694 9.60682 6.90694H9.82737C9.83642 6.90694 9.8423 6.90114 9.8423 6.89343L9.84239 6.80534H9.80452V6.84988H9.73463V6.80547L9.6968 6.80535ZM9.57275 6.78122L9.57279 6.78117L9.65205 6.7813V6.82485H9.6718V6.79281" fill="black"/>
<path d="M9.80945 6.92857L9.8233 7.25114L9.60815 7.25035L9.6224 6.92773L9.80945 6.92857" fill="#FFFF00"/>
<path fill-rule="evenodd" clip-rule="evenodd" d="M9.61032 6.91504L9.80938 6.91593L9.80932 6.92843L9.82181 6.9279L9.83622 7.26355L9.59497 7.26266L9.61032 6.91504ZM9.79734 6.94088L9.63423 6.94015L9.62109 7.23775L9.81012 7.23845L9.79734 6.94088Z" fill="black"/>
<path d="M9.54688 7.07812L9.55345 7.252L9.34717 7.2521L9.35299 7.07813H9.54692H9.54687L9.54688 7.07812Z" fill="#FFFF00"/>
<path fill-rule="evenodd" clip-rule="evenodd" d="M9.34089 7.06543H9.54686L9.54691 7.07538L9.55936 7.07745L9.56642 7.26429L9.33423 7.2644L9.34089 7.06543ZM9.53483 7.09043H9.36506L9.36008 7.23939L9.54045 7.2393L9.53483 7.09043Z" fill="black"/>
<path d="M9.31477 6.95106L9.37474 6.95121V6.99482H9.41862V6.9502L9.48009 6.9504V6.99485H9.52405V6.95022L9.58556 6.95032L9.58546 7.0509C9.58546 7.0666 9.57303 7.07683 9.55865 7.07683H9.3428C9.32834 7.07683 9.31489 7.06506 9.31485 7.05055L9.3147 6.95111H9.31474L9.31477 6.95106Z" fill="#FFFF00"/>
<path fill-rule="evenodd" clip-rule="evenodd" d="M9.40623 6.93848L9.4927 6.93876V6.98317H9.51166V6.93852L9.59819 6.93866L9.59807 7.05173C9.59807 7.05173 9.59807 7.05173 9.59807 7.05173M9.40623 6.93848V6.95102V6.93848ZM9.43123 6.96356V7.00815H9.36236V6.9645L9.32733 6.96441L9.32746 7.05134C9.32746 7.05134 9.32746 7.05134 9.32746 7.05134C9.32749 7.05802 9.33437 7.06516 9.34292 7.06516H9.55876C9.56722 7.06516 9.57307 7.05958 9.57307 7.05173L9.57316 6.96362L9.53666 6.96356V7.00817H9.4677V6.96368L9.43123 6.96356ZM9.30762 6.93943L9.30766 6.93936L9.38736 6.93956V6.98315H9.40623V6.95102" fill="black"/>
<path d="M9.69485 7.03048C9.69353 6.99913 9.73868 6.99878 9.73815 7.03048V7.1073H9.69485V7.0305" fill="black"/>
<path d="M9.42822 7.14111C9.42807 7.11082 9.47008 7.11021 9.46956 7.14111V7.20046H9.42824V7.14112" fill="black"/>
<path d="M11.6316 10.1194V10.1196C11.6316 10.2302 11.6741 10.331 11.7422 10.4041C11.8105 10.4774 11.9045 10.523 12.0073 10.523C12.1107 10.523 12.2045 10.4777 12.2725 10.4047C12.3404 10.3318 12.3826 10.2311 12.3826 10.1201V9.58167L11.633 9.58105L11.6316 10.1194" fill="#003399"/>
<path d="M11.8035 9.86051C11.8446 9.86051 11.8778 9.82725 11.8778 9.78621C11.8778 9.74518 11.8446 9.71191 11.8035 9.71191C11.7625 9.71191 11.7292 9.74518 11.7292 9.78621C11.7292 9.82725 11.7625 9.86051 11.8035 9.86051Z" fill="white"/>
<path d="M12.2193 9.86051C12.2604 9.86051 12.2936 9.82725 12.2936 9.78621C12.2936 9.74518 12.2604 9.71191 12.2193 9.71191C12.1783 9.71191 12.145 9.74518 12.145 9.78621C12.145 9.82725 12.1783 9.86051 12.2193 9.86051Z" fill="white"/>
<path d="M12.0111 10.0607C12.0521 10.0607 12.0854 10.0275 12.0854 9.98642C12.0854 9.94538 12.0521 9.91211 12.0111 9.91211C11.97 9.91211 11.9368 9.94538 11.9368 9.98642C11.9368 10.0275 11.97 10.0607 12.0111 10.0607Z" fill="white"/>
<path d="M11.8035 10.2687C11.8446 10.2687 11.8778 10.2354 11.8778 10.1944C11.8778 10.1534 11.8446 10.1201 11.8035 10.1201C11.7625 10.1201 11.7292 10.1534 11.7292 10.1944C11.7292 10.2354 11.7625 10.2687 11.8035 10.2687Z" fill="white"/>
<path d="M12.2191 10.2687C12.2601 10.2687 12.2934 10.2354 12.2934 10.1944C12.2934 10.1534 12.2601 10.1201 12.2191 10.1201C12.178 10.1201 12.1448 10.1534 12.1448 10.1944C12.1448 10.2354 12.178 10.2687 12.2191 10.2687Z" fill="white"/>
</svg>
