<svg width="30" height="20" viewBox="0 0 30 20" fill="none" xmlns="http://www.w3.org/2000/svg">
<g clip-path="url(#clip0)">
<path d="M0.5 19.5V0.5H29.5V19.5H0.5Z" fill="white" stroke="#EDEDED"/>
<path d="M15 16C18.3137 16 21 13.3137 21 10C21 6.68629 18.3137 4 15 4C11.6863 4 9 6.68629 9 10C9 13.3137 11.6863 16 15 16Z" fill="#BC002D"/>
</g>
<defs>
<clipPath id="clip0">
<path d="M0 3C0 1.34315 1.34315 0 3 0H27C28.6569 0 30 1.34315 30 3V17C30 18.6569 28.6569 20 27 20H3C1.34315 20 0 18.6569 0 17V3Z" fill="white"/>
</clipPath>
</defs>
</svg>
