<svg width="18" height="18" viewBox="0 0 18 18" fill="none" xmlns="http://www.w3.org/2000/svg">
<path d="M9.27923 0.967773C4.97472 0.967773 1.47266 4.46983 1.47266 8.77435C1.47266 13.0789 4.97472 16.5809 9.27923 16.5809C13.5838 16.5809 17.0859 13.0789 17.0859 8.77435C17.0859 4.46983 13.5838 0.967773 9.27923 0.967773ZM15.6476 8.07443H12.7511C12.5534 5.90157 11.4931 3.81367 10.706 2.52796C13.3328 3.12766 15.3498 5.34646 15.6476 8.07443ZM11.3443 8.07443H7.19985C7.4266 6.01365 8.5757 3.97383 9.2783 2.89203C9.97764 3.97285 11.1195 6.0095 11.3443 8.07443ZM7.8475 2.52903C7.05624 3.81514 5.99144 5.90223 5.79278 8.07443H2.9109C3.20852 5.34825 5.22319 3.13042 7.8475 2.52903ZM2.9109 9.47427H5.79278C5.99144 11.6465 7.05624 13.7336 7.8475 15.0197C5.22319 14.4183 3.20852 12.2005 2.9109 9.47427ZM9.27709 14.6567C8.57427 13.5764 7.4258 11.5394 7.19967 9.47427H11.3441C11.1186 11.5351 9.97608 13.5746 9.27709 14.6567ZM10.706 15.0208C11.4931 13.7351 12.5534 11.6472 12.7511 9.47432H15.6477C15.3498 12.2022 13.3328 14.4211 10.706 15.0208Z" fill="white"/>
</svg>
