<svg xmlns="http://www.w3.org/2000/svg" fill="none" viewBox="0 0 20 20"><g clip-path="url(#clip0)"><path fill="#E0E0E0" d="M3.5 15.94H9v-9.2a2.5 2.5 0 01-1.36-1.5L3.52 3.88a.5.5 0 01-.32-.64l.32-.95a.5.5 0 01.64-.31L7.84 3.2a2.49 2.49 0 014.63 1.56l4.01 1.34a.5.5 0 01.32.63l-.32.95a.5.5 0 01-.64.32L11.41 6.5c-.13.09-.27.16-.41.22v10.71a.5.5 0 01-.5.5h-7a.5.5 0 01-.5-.5v-1a.5.5 0 01.5-.5z"/><path fill="#103464" d="M0 11.44c0 1.38 1.8 2.5 4 2.5s4-1.12 4-2.5c0-.49.07-.22-2.66-5.67a1.5 1.5 0 00-2.68 0C-.04 11.17 0 10.94 0 11.44zm1.75-.5L4 6.44l2.25 4.5h-4.5zM12 15.44c0 1.38 1.8 2.5 4 2.5s4-1.12 4-2.5c0-.49.07-.22-2.66-5.67a1.5 1.5 0 00-2.68 0c-2.7 5.4-2.66 5.17-2.66 5.67zm1.75-.5l2.25-4.5 2.25 4.5h-4.5z"/></g><defs><clipPath id="clip0"><path fill="#fff" d="M0 0h20v20H0z"/></clipPath></defs></svg>