<svg xmlns="http://www.w3.org/2000/svg" fill="none" viewBox="0 0 20 20"><g clip-path="url(#clip0)"><path fill="#E0E0E0" d="M12.48 5a1.87 1.87 0 011.74 1.18L15 8.13H5l.78-1.95A1.87 1.87 0 017.52 5h4.96zM3.12 15a2.5 2.5 0 01-1.85-.83l-.02.2v1.88A1.25 1.25 0 002.5 17.5h1.25A1.25 1.25 0 005 16.25V15H3.12zm13.75 0H15v1.25a1.25 1.25 0 001.25 1.25h1.25a1.25 1.25 0 001.25-1.25v-1.88c0-.06 0-.13-.02-.2a2.5 2.5 0 01-1.86.83z"/><path fill="#103464" d="M19.53 6.88H17.2l-.65-1.63a4.35 4.35 0 00-4.06-2.75H7.52a4.35 4.35 0 00-4.06 2.75L2.8 6.88H.47a.47.47 0 00-.46.58l.24.93a.47.47 0 00.45.36h.79a2.48 2.48 0 00-.86 1.88v1.87a2.5 2.5 0 002.5 2.5h13.74a2.5 2.5 0 002.5-2.5v-1.88a2.48 2.48 0 00-.86-1.87h.79a.47.47 0 00.45-.36l.24-.93a.47.47 0 00-.46-.58zm-13.75-.7A1.88 1.88 0 017.52 5h4.96a1.87 1.87 0 011.74 1.18L15 8.13H5l.78-1.95zM3.75 10c.75 0 1.88 1.12 1.88 1.87s-1.13.62-1.88.62S2.5 12 2.5 11.25C2.5 10.5 3 10 3.75 10zm10.63 1.87c0-.75 1.12-1.87 1.87-1.87s1.25.5 1.25 1.25c0 .74-.5 1.24-1.25 1.24s-1.88.13-1.88-.62z"/></g><defs><clipPath id="clip0"><path fill="#fff" d="M0 0h20v20H0z"/></clipPath></defs></svg>