<svg xmlns="http://www.w3.org/2000/svg" fill="none" viewBox="0 0 20 20"><path fill="#E0E0E0" d="M20 8.1v8.96a1 1 0 01-1 1H1a1 1 0 01-1-1V8.11a1 1 0 011-1h5.35l4 3.98h-7.1a.25.25 0 00-.25.25v.5a.25.25 0 00.25.25h8.1l2 1.99H3.24a.25.25 0 00-.25.25v.5a.25.25 0 00.25.24H17.5a.5.5 0 00.5-.5v-2.31a1.98 1.98 0 00-.59-1.4L13.66 7.1H19a1 1 0 011 1z"/><path fill="#103464" d="M16.7 11.55l-7.23-7.2L7.23 6.6l7.23 7.2a1 1 0 00.71.29h1.33a.5.5 0 00.5-.5v-1.32a1 1 0 00-.3-.7zm-9.24-9.2a.75.75 0 00-1.06 0L5.22 3.53a.74.74 0 000 1.05l1.3 1.3 2.25-2.23-1.3-1.3z"/></svg>