<svg width="20" height="20" fill="none" xmlns="http://www.w3.org/2000/svg">
  <path d="M7.222 13.438a8.952 8.952 0 01-3.864-.855c-.757.434-1.81.854-3.08.854a.276.276 0 01-.254-.164.27.27 0 01.052-.297c.01-.01.778-.83 1.243-1.863C.49 10.221 0 9.141 0 7.97 0 4.947 3.233 2.5 7.222 2.5c3.99 0 7.222 2.447 7.222 5.469 0 3.021-3.232 5.468-7.222 5.468z" fill="#E0E0E0"/>
  <path d="M20 12.344c0 1.172-.49 2.256-1.32 3.144.466 1.036 1.233 1.853 1.244 1.863a.272.272 0 01-.202.462c-1.27 0-2.323-.42-3.08-.855-1.118.54-2.44.855-3.864.855-2.993 0-5.563-1.381-6.656-3.347.365.041.732.063 1.1.065 4.594 0 8.334-2.943 8.334-6.562 0-.23-.015-.46-.045-.687 2.631.817 4.49 2.775 4.49 5.062z" fill="#103464"/>
</svg>
