<svg xmlns="http://www.w3.org/2000/svg" fill="none" viewBox="0 0 20 20"><path fill="#E0E0E0" d="M0 16.11a1.67 1.67 0 001.67 1.67h16.66A1.67 1.67 0 0020 16.1V10H0v6.11zm6.67-2.36a.42.42 0 01.41-.42h4.73a.42.42 0 01.41.42v1.39a.42.42 0 01-.41.42H7.08a.42.42 0 01-.41-.42v-1.39zm-4.45 0a.42.42 0 01.42-.42h2.5a.42.42 0 01.42.42v1.39a.42.42 0 01-.42.42h-2.5a.42.42 0 01-.42-.42v-1.39zM18.33 2.22H1.67A1.67 1.67 0 000 3.9v1.67h20V3.89a1.67 1.67 0 00-1.67-1.67z"/><path fill="#103464" d="M20 10H0V5.56h20V10z"/></svg>