<svg xmlns="http://www.w3.org/2000/svg" fill="none" viewBox="0 0 20 20"><g clip-path="url(#clip0)"><path fill="#103464" d="M2.5 10.06l6.4 4.63a1.86 1.86 0 002.2 0l6.4-4.63V3.75a1.25 1.25 0 00-1.25-1.25H3.75A1.25 1.25 0 002.5 3.75v6.31zm3.75-3.81a.62.62 0 01.63-.63h6.25a.62.62 0 01.62.63v.63a.62.62 0 01-.63.62H6.88a.62.62 0 01-.63-.63v-.62zm0 3.13a.62.62 0 01.63-.63h6.25a.62.62 0 01.62.63V10a.62.62 0 01-.63.63H6.88a.62.62 0 01-.63-.63v-.63z"/><path fill="#E0E0E0" d="M13.75 6.25a.62.62 0 00-.63-.63H6.88a.62.62 0 00-.63.63v.62a.63.63 0 00.63.63h6.25a.62.62 0 00.62-.63v-.62zm-.63 2.5H6.88a.62.62 0 00-.63.62V10a.63.63 0 00.63.62h6.25a.62.62 0 00.62-.62v-.63a.62.62 0 00-.63-.62zm-.25-7.13C12.2 1.14 10.9-.01 10 0c-.9-.01-2.21 1.14-2.87 1.62l-1.2.88h8.13l-1.2-.88zM2.5 5.04C1.57 5.73.83 6.27.72 6.37A1.88 1.88 0 000 7.84v.42l2.5 1.8V5.04zm16.78 1.33c-.11-.1-.85-.64-1.78-1.33v5.02l2.5-1.8v-.42a1.87 1.87 0 00-.72-1.47zM10 16.29c-.66 0-1.3-.2-1.83-.6L0 9.8v8.32A1.87 1.87 0 001.88 20h16.25A1.88 1.88 0 0020 18.12V9.8l-8.17 5.9c-.53.38-1.17.6-1.83.6z"/></g><defs><clipPath id="clip0"><path fill="#fff" d="M0 0h20v20H0z"/></clipPath></defs></svg>