<svg xmlns="http://www.w3.org/2000/svg" fill="none" viewBox="0 0 20 20"><g clip-path="url(#clip0)"><path fill="#E0E0E0" d="M20 5v14.07a.94.94 0 01-.94.93H8.75v-3.56a2.41 2.41 0 001.43-1.76 8 8 0 01.07-.28l.2-.2.1-.1a2.44 2.44 0 00.62-2.33l-.04-.15-.07-.28.07-.28.04-.15a2.44 2.44 0 00-.6-2.32l-.12-.1-.2-.21-.07-.28-.04-.15a2.4 2.4 0 00-1.68-1.7L8.3 6.1l-.27-.07a8.89 8.89 0 01-.2-.2l-.1-.1a2.38 2.38 0 00-2.32-.64l-.15.04-.26.07V.93A.94.94 0 015.94 0H15v4.38a.63.63 0 00.63.62H20z"/><path fill="#103464" d="M19.73 4.1L15.9.27a.94.94 0 00-.66-.27H15v4.37a.63.63 0 00.62.63H20v-.24a.93.93 0 00-.27-.66zM9.96 10.6a1.18 1.18 0 00-.3-1.13c-.58-.59-.52-.49-.73-1.3a1.16 1.16 0 00-.81-.82c-.8-.21-.7-.16-1.28-.75a1.13 1.13 0 00-1.1-.3c-.8.22-.69.22-1.48 0a1.13 1.13 0 00-1.1.3c-.59.6-.5.54-1.28.75a1.15 1.15 0 00-.8.82c-.22.81-.16.71-.75 1.3a1.18 1.18 0 00-.3 1.13c.22.8.22.7 0 1.5a1.18 1.18 0 00.3 1.12c.58.6.53.5.74 1.3a1.15 1.15 0 00.81.83c.56.15.45.11.62.2V20L5 18.75 7.5 20v-4.47c.17-.08.06-.04.62-.2a1.15 1.15 0 00.8-.82c.22-.8.16-.7.74-1.3a1.18 1.18 0 00.3-1.12c-.21-.8-.21-.7 0-1.5zM5 13.75a2.5 2.5 0 110-5 2.5 2.5 0 010 5z"/></g><defs><clipPath id="clip0"><path fill="#fff" d="M0 0h20v20H0z"/></clipPath></defs></svg>