<svg xmlns="http://www.w3.org/2000/svg" fill="none" viewBox="0 0 20 20"><g clip-path="url(#clip0)"><path fill="#E0E0E0" d="M6.27 12.5h7.46V10H6.27v2.5zM17.47 5H13.1a.62.62 0 01-.62-.63V0H3.47a.93.93 0 00-.93.93v18.13a.94.94 0 00.92.94h13.07a.93.93 0 00.93-.93V5zM5.01 2.81a.31.31 0 01.31-.31h3.11a.31.31 0 01.32.31v.63a.31.31 0 01-.32.31h-3.1a.31.31 0 01-.32-.31V2.8zm0 2.5A.31.31 0 015.33 5h3.11a.31.31 0 01.32.31v.63a.31.31 0 01-.32.31h-3.1a.31.31 0 01-.32-.31V5.3zm9.96 11.88a.31.31 0 01-.31.31h-3.11a.31.31 0 01-.32-.31v-.63a.31.31 0 01.32-.31h3.1a.31.31 0 01.32.31v.63zm0-4.07a.63.63 0 01-.63.63h-8.7a.62.62 0 01-.63-.63V9.37a.63.63 0 01.63-.62h8.7a.62.62 0 01.63.62v3.75z"/><path fill="#103464" d="M17.2 4.1L13.38.27a.93.93 0 00-.66-.27h-.24v4.38a.63.63 0 00.62.62h4.35v-.24a.94.94 0 00-.27-.66zm-2.85 4.65h-8.7a.62.62 0 00-.63.63v3.74a.63.63 0 00.63.63h8.7a.62.62 0 00.63-.63V9.38a.63.63 0 00-.63-.63zm-.62 3.75H6.27V10h7.46v2.5zm.94 3.75h-3.11a.31.31 0 00-.32.31v.63a.31.31 0 00.32.31h3.1a.31.31 0 00.32-.31v-.63a.31.31 0 00-.31-.31z"/></g><defs><clipPath id="clip0"><path fill="#fff" d="M0 0h20v20H0z"/></clipPath></defs></svg>