<svg xmlns="http://www.w3.org/2000/svg" fill="none" viewBox="0 0 20 20"><g clip-path="url(#clip0)"><path fill="#E0E0E0" d="M20 19.06a.93.93 0 01-.94.94H5.93a.93.93 0 01-.93-.94v-5.31h4.99v2.54c0 .55.67.83 1.06.44l3.74-3.76a.66.66 0 000-.94l-3.73-3.76a.63.63 0 00-1.07.44v2.54H5V.93A.94.94 0 015.94 0H15v4.38a.62.62 0 00.63.62H20v14.06z"/><path fill="#103464" d="M19.73 4.1L15.9.27a.94.94 0 00-.66-.27H15v4.37a.62.62 0 00.63.63H20v-.24a.93.93 0 00-.27-.66zm-8.67 4.17a.63.63 0 00-1.07.44v2.54H.62a.62.62 0 00-.62.63v1.24a.62.62 0 00.63.63h9.36v2.54c0 .55.67.83 1.06.44l3.74-3.76a.66.66 0 000-.94l-3.73-3.76z"/></g><defs><clipPath id="clip0"><path fill="#fff" d="M0 0h20v20H0z"/></clipPath></defs></svg>