<svg xmlns="http://www.w3.org/2000/svg" fill="none" viewBox="0 0 20 20"><path fill="#E0E0E0" d="M3.24 2.5a2.5 2.5 0 115 0 2.5 2.5 0 01-5 0zM3.87 5.63h.44a3.43 3.43 0 002.86 0h.45A1.87 1.87 0 019.49 7.5v5.31a.94.94 0 01-.94.94h-.62v5.31a.94.94 0 01-.94.94H4.5a.94.94 0 01-.94-.94v-5.31h-.62a.94.94 0 01-.94-.94V7.5a1.88 1.88 0 011.88-1.88z"/><path fill="#103464" d="M14.02 2.18a.53.53 0 00-.79-.06l-.25.25a.53.53 0 00-.06.7 4.26 4.26 0 010 5.19.53.53 0 00.06.7l.25.25a.53.53 0 00.8-.06 5.68 5.68 0 000-6.97zM16.05.19a.53.53 0 00-.77-.04l-.26.25a.53.53 0 00-.04.72 7.1 7.1 0 010 9.09.53.53 0 00.04.72l.26.25a.53.53 0 00.77-.04 8.51 8.51 0 000-10.95zm-4.88 3.92l-.26.25a.54.54 0 00-.1.64 1.42 1.42 0 010 1.33.54.54 0 00.1.63l.26.26A.53.53 0 0012 7.1a2.84 2.84 0 000-2.88.53.53 0 00-.83-.1z"/></svg>