<svg xmlns="http://www.w3.org/2000/svg" fill="none" viewBox="0 0 20 20"><g clip-path="url(#clip0)"><path fill="#103464" d="M5.44 2.63A3.7 3.7 0 014.41.53.63.63 0 003.78 0h-.64a.64.64 0 00-.64.7c.15 1.25.71 2.4 1.59 3.3.46.47.77 1.07.87 1.72a.63.63 0 00.63.53h.64c.39 0 .7-.33.64-.7a5.1 5.1 0 00-1.43-2.92zm5.8 2.92a5.1 5.1 0 00-1.42-2.92A3.7 3.7 0 018.79.53.63.63 0 008.16 0h-.64a.63.63 0 00-.64.7c.15 1.25.7 2.4 1.58 3.3.47.47.77 1.07.88 1.72a.63.63 0 00.62.53h.65c.38 0 .69-.33.64-.7z"/><path fill="#E0E0E0" d="M15.63 7.5H1.24A1.25 1.25 0 000 8.75v7.5A3.75 3.75 0 003.75 20h7.5A3.75 3.75 0 0015 16.25h.63a4.37 4.37 0 100-8.75zm0 6.25H15V10h.63a1.87 1.87 0 110 3.75z"/></g><defs><clipPath id="clip0"><path fill="#fff" d="M0 0h20v20H0z"/></clipPath></defs></svg>