<svg width="20" height="20" fill="none" xmlns="http://www.w3.org/2000/svg">
  <g clip-path="url(#clip0)">
    <path d="M5.5 8.75c.89 0 1.76-.257 2.5-.737a4.404 4.404 0 001.657-1.964c.341-.8.43-1.679.257-2.528a4.339 4.339 0 00-1.232-2.24A4.541 4.541 0 006.378.084a4.62 4.62 0 00-2.6.249 4.475 4.475 0 00-2.02 1.611 4.267 4.267 0 00-.416 4.105c.226.532.557 1.014.975 1.42.418.407.914.729 1.46.949A4.61 4.61 0 005.5 8.75zm0-6.25c.381 0 .754.11 1.071.316.318.206.565.499.71.841.147.343.185.72.11 1.084a1.86 1.86 0 01-.527.96c-.27.262-.614.44-.988.513a1.98 1.98 0 01-1.114-.107 1.918 1.918 0 01-.866-.69 1.838 1.838 0 01.24-2.368C4.498 2.698 4.99 2.5 5.5 2.5zm9 17.5c.89 0 1.76-.257 2.5-.737a4.404 4.404 0 001.657-1.964c.341-.8.43-1.679.256-2.527a4.339 4.339 0 00-1.231-2.24 4.542 4.542 0 00-2.304-1.198 4.62 4.62 0 00-2.6.249 4.476 4.476 0 00-2.02 1.611 4.268 4.268 0 00-.416 4.105c.226.532.557 1.014.975 1.42.418.407.914.729 1.46.949A4.61 4.61 0 0014.5 20zm0-6.25c.381 0 .754.11 1.072.316.317.206.564.499.71.841.146.343.184.72.11 1.084a1.86 1.86 0 01-.528.96c-.27.262-.614.44-.988.513a1.98 1.98 0 01-1.114-.107 1.919 1.919 0 01-.866-.69 1.838 1.838 0 01.24-2.368c.362-.351.853-.549 1.364-.549z" fill="#E0E0E0"/>
    <path d="M18.812 1.48L4.026 19.595a.957.957 0 01-.344.292.985.985 0 01-.443.106l-1.27.004c-.78.004-1.242-.851-.792-1.476L15.892.406a.956.956 0 01.344-.292.986.986 0 01.443-.106L18.02.004c.784 0 1.242.855.792 1.477z" fill="#103464"/>
  </g>
  <defs>
    <clipPath id="clip0">
      <path fill="#fff" transform="rotate(-180 10 10)" d="M0 0h20v20H0z"/>
    </clipPath>
  </defs>
</svg>
