<svg xmlns="http://www.w3.org/2000/svg" fill="none" viewBox="0 0 20 20"><g clip-path="url(#clip0)"><path fill="#E0E0E0" d="M18.75 16.25H1.25A1.25 1.25 0 010 15v-1.25A3.75 3.75 0 013.75 10h2.6A1.15 1.15 0 007.5 8.85c0-1.24-.4-2.43-.91-3.55a3.67 3.67 0 01.01-3.14 3.75 3.75 0 116.74 3.29c-.5.94-.84 1.96-.84 3.03v.37A1.15 1.15 0 0013.65 10h2.6A3.75 3.75 0 0120 13.75V15a1.25 1.25 0 01-1.25 1.25z"/><path fill="#103464" d="M18.75 16.25V20H1.25v-3.75h17.5z"/></g><defs><clipPath id="clip0"><path fill="#fff" d="M0 0h20v20H0z"/></clipPath></defs></svg>