<svg xmlns="http://www.w3.org/2000/svg" fill="none" viewBox="0 0 20 20"><path fill="#E0E0E0" d="M10 3.75A8.12 8.12 0 1010 20a8.12 8.12 0 000-16.25zm1.25 9.38a.62.62 0 01-.63.62H9.38a.62.62 0 01-.63-.63V8.14a.62.62 0 01.63-.62h1.24a.62.62 0 01.63.62v4.98z"/><path fill="#103464" d="M10.63 7.52H9.37a.62.62 0 00-.62.62v4.98a.62.62 0 00.63.63h1.24a.62.62 0 00.63-.63V8.14a.62.62 0 00-.63-.62zm7.36-1.9l-1.1-1.1a.47.47 0 00-.67 0l-1.07 1.07a8.17 8.17 0 011.67 1.87l.02-.03L18 6.3a.47.47 0 000-.67zM12.19 0H7.8a.62.62 0 00-.62.63v1.25a.62.62 0 00.62.62h.94v1.35a8.2 8.2 0 012.5 0V2.5h.94a.62.62 0 00.62-.63V.63A.62.62 0 0012.2 0z"/></svg>