<svg width="20" height="20" viewBox="0 0 20 20" fill="none" xmlns="http://www.w3.org/2000/svg">
<g clip-path="url(#clip0)">
<path d="M3.5 15.9434H9V6.73211C8.68362 6.59222 8.39974 6.38813 8.16638 6.13277C7.93302 5.87741 7.75526 5.57634 7.64438 5.24867L3.51938 3.86554C3.45712 3.84466 3.39958 3.81172 3.35006 3.76859C3.30053 3.72547 3.25999 3.67302 3.23074 3.61423C3.20149 3.55543 3.1841 3.49146 3.17958 3.42594C3.17506 3.36043 3.18348 3.29467 3.20438 3.23242L3.52188 2.28429C3.54275 2.22189 3.57574 2.16423 3.61895 2.1146C3.66216 2.06498 3.71474 2.02437 3.77367 1.9951C3.83261 1.96584 3.89674 1.94849 3.96239 1.94407C4.02804 1.93964 4.09392 1.94821 4.15625 1.96929L7.84031 3.20492C8.27188 2.45461 9.07219 1.94336 10 1.94336C10.663 1.94336 11.2989 2.20675 11.7678 2.67559C12.2366 3.14443 12.5 3.78031 12.5 4.44336C12.4962 4.54808 12.4858 4.65246 12.4688 4.75586L16.4813 6.10117C16.5435 6.12205 16.601 6.155 16.6506 6.19812C16.7001 6.24124 16.7406 6.29369 16.7699 6.35249C16.7991 6.41128 16.8165 6.47526 16.821 6.54077C16.8256 6.60628 16.8171 6.67204 16.7963 6.73429L16.4781 7.68336C16.4573 7.74576 16.4243 7.80342 16.3811 7.85305C16.3378 7.90267 16.2853 7.94328 16.2263 7.97255C16.1674 8.00181 16.1033 8.01915 16.0376 8.02358C15.972 8.02801 15.9061 8.01944 15.8438 7.99836L11.4063 6.50992C11.278 6.59642 11.142 6.67091 11 6.73242V17.4434C11 17.576 10.9473 17.7031 10.8536 17.7969C10.7598 17.8907 10.6326 17.9434 10.5 17.9434H3.5C3.36739 17.9434 3.24021 17.8907 3.14645 17.7969C3.05268 17.7031 3 17.576 3 17.4434V16.4434C3 16.3107 3.05268 16.1836 3.14645 16.0898C3.24021 15.996 3.36739 15.9434 3.5 15.9434Z" fill="#E0E0E0"/>
<path d="M3.62221e-05 11.4434C3.62221e-05 12.824 1.79097 13.9434 4.00004 13.9434C6.2091 13.9434 8.00004 12.824 8.00004 11.4434C8.00004 10.9537 8.06504 11.2169 5.34379 5.77123C4.79129 4.66623 3.21191 4.66842 2.66035 5.77123C-0.0412138 11.1706 3.62221e-05 10.9378 3.62221e-05 11.4434ZM1.75004 10.9434L4.00004 6.44342L6.25004 10.9434H1.75004ZM12 15.4434C12 16.824 13.791 17.9434 16 17.9434C18.2091 17.9434 20.0001 16.824 20.0001 15.4434C20.0001 14.9537 20.0651 15.2169 17.3422 9.77123C16.7897 8.66623 15.2104 8.66842 14.6588 9.77123C11.9588 15.1706 12 14.9378 12 15.4434ZM13.75 14.9434L16 10.4434L18.25 14.9434H13.75Z" fill="#B91F2E"/>
</g>
<defs>
<clipPath id="clip0">
<rect width="20" height="20" fill="white"/>
</clipPath>
</defs>
</svg>
