<svg width="20" height="20" viewBox="0 0 20 20" fill="none" xmlns="http://www.w3.org/2000/svg">
<g clip-path="url(#clip0)">
<path d="M12.4805 5C12.8552 4.99997 13.2214 5.11222 13.5317 5.32229C13.842 5.53235 14.0823 5.83059 14.2215 6.17852L15 8.125H5L5.77852 6.17852C5.91772 5.83059 6.15798 5.53235 6.46831 5.32229C6.77864 5.11222 7.14479 4.99997 7.51953 5H12.4805ZM3.125 15C2.77445 15.0004 2.42777 14.9268 2.10758 14.7841C1.78739 14.6414 1.5009 14.4328 1.2668 14.1719C1.25565 14.239 1.25003 14.3069 1.25 14.375V16.25C1.25 16.5815 1.3817 16.8995 1.61612 17.1339C1.85054 17.3683 2.16848 17.5 2.5 17.5H3.75C4.08152 17.5 4.39946 17.3683 4.63388 17.1339C4.8683 16.8995 5 16.5815 5 16.25V15H3.125ZM16.875 15H15V16.25C15 16.5815 15.1317 16.8995 15.3661 17.1339C15.6005 17.3683 15.9185 17.5 16.25 17.5H17.5C17.8315 17.5 18.1495 17.3683 18.3839 17.1339C18.6183 16.8995 18.75 16.5815 18.75 16.25V14.375C18.75 14.3069 18.7444 14.239 18.7332 14.1719C18.4991 14.4328 18.2126 14.6414 17.8924 14.7841C17.5722 14.9268 17.2255 15.0004 16.875 15V15Z" fill="#E0E0E0"/>
<path d="M19.5313 6.87503H17.1922L16.5422 5.25002C16.22 4.4365 15.6602 3.73897 14.9356 3.24841C14.2111 2.75785 13.3555 2.49705 12.4805 2.50003H7.51956C6.64448 2.49711 5.78883 2.75792 5.06417 3.24846C4.33951 3.739 3.77947 4.4365 3.45706 5.25002L2.80745 6.87503H0.468777C0.397582 6.8751 0.327339 6.89138 0.263378 6.92265C0.199417 6.95391 0.143418 6.99934 0.0996302 7.05548C0.055843 7.11161 0.025418 7.17699 0.0106641 7.24663C-0.00408973 7.31628 -0.0027848 7.38838 0.0144799 7.45745L0.248855 8.39495C0.274187 8.49629 0.332645 8.58627 0.41495 8.6506C0.497255 8.71493 0.59869 8.74992 0.703152 8.75003H1.48753C1.21769 8.98241 1.001 9.27012 0.852185 9.59364C0.703365 9.91716 0.625893 10.2689 0.625027 10.625V12.5C0.625027 13.1631 0.888419 13.799 1.35726 14.2678C1.8261 14.7366 2.46199 15 3.12503 15H16.875C17.5381 15 18.174 14.7366 18.6428 14.2678C19.1116 13.799 19.375 13.1631 19.375 12.5V10.625C19.3741 10.269 19.2967 9.91725 19.1479 9.59374C18.9992 9.27023 18.7826 8.98249 18.5129 8.75003H19.2969C19.4014 8.75001 19.503 8.71506 19.5853 8.65072C19.6677 8.58638 19.7262 8.49636 19.7516 8.39495L19.986 7.45745C20.0032 7.38835 20.0045 7.31622 19.9898 7.24654C19.975 7.17686 19.9445 7.11147 19.9007 7.05532C19.8569 6.99918 19.8008 6.95376 19.7368 6.92252C19.6728 6.89128 19.6025 6.87504 19.5313 6.87503V6.87503ZM5.77854 6.17854C5.91774 5.83061 6.15801 5.53238 6.46833 5.32231C6.77866 5.11225 7.14482 4.99999 7.51956 5.00003H12.4805C12.8552 4.99999 13.2214 5.11225 13.5317 5.32231C13.842 5.53238 14.0823 5.83061 14.2215 6.17854L15 8.12503H5.00003L5.77854 6.17854ZM3.75003 10C4.50003 10 5.62503 11.1215 5.62503 11.8692C5.62503 12.6168 4.50003 12.4922 3.75003 12.4922C3.00003 12.4922 2.50003 11.9922 2.50003 11.2461C2.50003 10.5 3.00003 10 3.75003 10ZM14.375 11.8692C14.375 11.1215 15.5 10 16.25 10C17 10 17.5 10.4985 17.5 11.2461C17.5 11.9938 17 12.4922 16.25 12.4922C15.5 12.4922 14.375 12.6172 14.375 11.8692V11.8692Z" fill="#B91F2E"/>
</g>
<defs>
<clipPath id="clip0">
<rect width="20" height="20" fill="white"/>
</clipPath>
</defs>
</svg>
