<svg width="20" height="20" viewBox="0 0 20 20" fill="none" xmlns="http://www.w3.org/2000/svg">
<path d="M20 8.10574V17.0621C20 17.326 19.8946 17.5791 19.7071 17.7657C19.5196 17.9524 19.2652 18.0572 19 18.0572H1C0.734784 18.0572 0.48043 17.9524 0.292893 17.7657C0.105357 17.5791 0 17.326 0 17.0621V8.10574C0 7.84181 0.105357 7.58869 0.292893 7.40207C0.48043 7.21544 0.734784 7.1106 1 7.1106H6.34562L10.3438 11.0912H3.25C3.1837 11.0912 3.12011 11.1174 3.07322 11.164C3.02634 11.2107 3 11.274 3 11.34V11.8375C3 11.9035 3.02634 11.9668 3.07322 12.0135C3.12011 12.0601 3.1837 12.0863 3.25 12.0863H11.3438L13.3438 14.0766H3.25C3.1837 14.0766 3.12011 14.1028 3.07322 14.1495C3.02634 14.1961 3 14.2594 3 14.3254V14.823C3 14.889 3.02634 14.9522 3.07322 14.9989C3.12011 15.0455 3.1837 15.0718 3.25 15.0718H17.5C17.6326 15.0718 17.7598 15.0193 17.8536 14.926C17.9473 14.8327 18 14.7062 18 14.5742V12.2586C18 11.9972 17.9483 11.7384 17.8479 11.4969C17.7474 11.2554 17.6001 11.0359 17.4144 10.8511L13.6562 7.1106H19C19.2652 7.1106 19.5196 7.21544 19.7071 7.40207C19.8946 7.58869 20 7.84181 20 8.10574Z" fill="#E0E0E0"/>
<path d="M16.7074 11.5549L9.47432 4.35746L7.23369 6.58721L14.4646 13.7849C14.5575 13.8774 14.6678 13.9508 14.7892 14.0008C14.9106 14.0509 15.0407 14.0766 15.1721 14.0766H16.4999C16.6326 14.0766 16.7597 14.0242 16.8535 13.9309C16.9473 13.8376 16.9999 13.711 16.9999 13.579V12.2586C17.0001 11.9947 16.8949 11.7416 16.7074 11.5549ZM7.46182 2.35256C7.32082 2.21373 7.13048 2.13586 6.93213 2.13586C6.73378 2.13586 6.54344 2.21373 6.40244 2.35256L5.21869 3.53025C5.07939 3.67004 5.00122 3.85894 5.00122 4.05581C5.00122 4.25268 5.07939 4.44158 5.21869 4.58137L6.52807 5.88439L8.76869 3.65153L7.46182 2.35256Z" fill="#B91F2E"/>
</svg>
