<svg width="20" height="20" viewBox="0 0 20 20" fill="none" xmlns="http://www.w3.org/2000/svg">
<path d="M0 16.1112C0 16.5532 0.175595 16.9771 0.488155 17.2897C0.800716 17.6022 1.22464 17.7778 1.66667 17.7778H18.3333C18.7754 17.7778 19.1993 17.6022 19.5118 17.2897C19.8244 16.9771 20 16.5532 20 16.1112V10.0001H0V16.1112ZM6.66667 13.7501C6.66667 13.6396 6.71057 13.5336 6.78871 13.4554C6.86685 13.3773 6.97283 13.3334 7.08333 13.3334H11.8056C11.9161 13.3334 12.022 13.3773 12.1002 13.4554C12.1783 13.5336 12.2222 13.6396 12.2222 13.7501V15.139C12.2222 15.2495 12.1783 15.3554 12.1002 15.4336C12.022 15.5117 11.9161 15.5556 11.8056 15.5556H7.08333C6.97283 15.5556 6.86685 15.5117 6.78871 15.4336C6.71057 15.3554 6.66667 15.2495 6.66667 15.139V13.7501ZM2.22222 13.7501C2.22222 13.6396 2.26612 13.5336 2.34426 13.4554C2.4224 13.3773 2.52838 13.3334 2.63889 13.3334H5.13889C5.2494 13.3334 5.35538 13.3773 5.43352 13.4554C5.51166 13.5336 5.55556 13.6396 5.55556 13.7501V15.139C5.55556 15.2495 5.51166 15.3554 5.43352 15.4336C5.35538 15.5117 5.2494 15.5556 5.13889 15.5556H2.63889C2.52838 15.5556 2.4224 15.5117 2.34426 15.4336C2.26612 15.3554 2.22222 15.2495 2.22222 15.139V13.7501ZM18.3333 2.22229H1.66667C1.22464 2.22229 0.800716 2.39788 0.488155 2.71045C0.175595 3.02301 0 3.44693 0 3.88896L0 5.55562H20V3.88896C20 3.44693 19.8244 3.02301 19.5118 2.71045C19.1993 2.39788 18.7754 2.22229 18.3333 2.22229Z" fill="#E0E0E0"/>
<path d="M20 9.99999H0V5.55554H20V9.99999Z" fill="#B91F2E"/>
</svg>
