<svg width="20" height="20" viewBox="0 0 20 20" fill="none" xmlns="http://www.w3.org/2000/svg">
<g clip-path="url(#clip0)">
<path d="M2.5 10.0625L8.90234 14.6875C9.22119 14.9198 9.60551 15.045 10 15.045C10.3945 15.045 10.7788 14.9198 11.0977 14.6875L17.5 10.0625V3.75C17.5 3.41848 17.3683 3.10054 17.1339 2.86612C16.8995 2.6317 16.5815 2.5 16.25 2.5H3.75C3.41848 2.5 3.10054 2.6317 2.86612 2.86612C2.6317 3.10054 2.5 3.41848 2.5 3.75V10.0625ZM6.25 6.25C6.25 6.08424 6.31585 5.92527 6.43306 5.80806C6.55027 5.69085 6.70924 5.625 6.875 5.625H13.125C13.2908 5.625 13.4497 5.69085 13.5669 5.80806C13.6842 5.92527 13.75 6.08424 13.75 6.25V6.875C13.75 7.04076 13.6842 7.19973 13.5669 7.31694C13.4497 7.43415 13.2908 7.5 13.125 7.5H6.875C6.70924 7.5 6.55027 7.43415 6.43306 7.31694C6.31585 7.19973 6.25 7.04076 6.25 6.875V6.25ZM6.25 9.375C6.25 9.20924 6.31585 9.05027 6.43306 8.93306C6.55027 8.81585 6.70924 8.75 6.875 8.75H13.125C13.2908 8.75 13.4497 8.81585 13.5669 8.93306C13.6842 9.05027 13.75 9.20924 13.75 9.375V10C13.75 10.1658 13.6842 10.3247 13.5669 10.4419C13.4497 10.5592 13.2908 10.625 13.125 10.625H6.875C6.70924 10.625 6.55027 10.5592 6.43306 10.4419C6.31585 10.3247 6.25 10.1658 6.25 10V9.375Z" fill="#B91F2E"/>
<path d="M13.75 6.24978C13.75 6.08402 13.6842 5.92505 13.5669 5.80784C13.4497 5.69063 13.2908 5.62478 13.125 5.62478H6.875C6.70924 5.62478 6.55027 5.69063 6.43306 5.80784C6.31585 5.92505 6.25 6.08402 6.25 6.24978V6.87478C6.25 7.04054 6.31585 7.19952 6.43306 7.31673C6.55027 7.43394 6.70924 7.49978 6.875 7.49978H13.125C13.2908 7.49978 13.4497 7.43394 13.5669 7.31673C13.6842 7.19952 13.75 7.04054 13.75 6.87478V6.24978ZM13.125 8.74978H6.875C6.70924 8.74978 6.55027 8.81563 6.43306 8.93284C6.31585 9.05005 6.25 9.20902 6.25 9.37478V9.99978C6.25 10.1655 6.31585 10.3245 6.43306 10.4417C6.55027 10.5589 6.70924 10.6248 6.875 10.6248H13.125C13.2908 10.6248 13.4497 10.5589 13.5669 10.4417C13.6842 10.3245 13.75 10.1655 13.75 9.99978V9.37478C13.75 9.20902 13.6842 9.05005 13.5669 8.93284C13.4497 8.81563 13.2908 8.74978 13.125 8.74978ZM12.8672 1.61697C12.2109 1.14041 10.9063 -0.0119352 10 -0.000216459C9.09375 -0.0119352 7.78906 1.14041 7.13281 1.61697L5.9375 2.49978H14.0625L12.8672 1.61697ZM2.5 5.03885C1.56641 5.73025 0.832031 6.27322 0.71875 6.36697C0.495286 6.54202 0.314484 6.76552 0.189978 7.02062C0.0654724 7.27572 0.000513506 7.55577 0 7.83963L0 8.2576L2.5 10.0623V5.03885ZM19.2813 6.36697C19.168 6.27713 18.4336 5.73025 17.5 5.04275V10.0623L20 8.2576V7.83963C19.9995 7.55577 19.9345 7.27572 19.81 7.02062C19.6855 6.76552 19.5047 6.54202 19.2813 6.36697V6.36697ZM10 16.2928C9.34204 16.2926 8.70091 16.0848 8.16797 15.699L0 9.80057V18.1248C0 18.6221 0.197544 19.099 0.549175 19.4506C0.900805 19.8022 1.37772 19.9998 1.875 19.9998H18.125C18.6223 19.9998 19.0992 19.8022 19.4508 19.4506C19.8025 19.099 20 18.6221 20 18.1248V9.80057L11.832 15.699C11.2991 16.0848 10.658 16.2926 10 16.2928Z" fill="#E0E0E0"/>
</g>
<defs>
<clipPath id="clip0">
<rect width="20" height="20" fill="white"/>
</clipPath>
</defs>
</svg>
