<svg width="20" height="20" viewBox="0 0 20 20" fill="none" xmlns="http://www.w3.org/2000/svg">
<g clip-path="url(#clip0)">
<path d="M20 19.0625V19.0672C19.9997 19.19 19.9752 19.3115 19.9279 19.4249C19.8806 19.5382 19.8115 19.6411 19.7244 19.7277C19.6374 19.8144 19.5341 19.883 19.4205 19.9297C19.307 19.9764 19.1853 20.0003 19.0625 20H5.93282C5.81001 19.9997 5.68847 19.9752 5.57512 19.9279C5.46178 19.8806 5.35887 19.8115 5.27225 19.7244C5.18563 19.6374 5.117 19.5341 5.07029 19.4205C5.02358 19.307 4.99969 19.1853 5 19.0625V13.75H9.98555V16.2851C9.98555 16.8426 10.6605 17.1187 11.0547 16.7254L14.7875 12.9687C14.9107 12.8444 14.9798 12.6764 14.9798 12.5014C14.9798 12.3263 14.9107 12.1583 14.7875 12.034L11.0574 8.27422C10.6633 7.88086 9.98828 8.15703 9.98828 8.71445V11.2535H5V0.932815C5.00031 0.810008 5.0248 0.688465 5.07208 0.575124C5.11936 0.461783 5.18851 0.358865 5.27556 0.272246C5.36262 0.185626 5.46588 0.117001 5.57946 0.0702897C5.69303 0.0235782 5.8147 -0.000305227 5.9375 2.94464e-06H15V4.375C15 4.54076 15.0658 4.69973 15.1831 4.81694C15.3003 4.93415 15.4592 5 15.625 5H20V19.0625Z" fill="#E0E0E0"/>
<path d="M19.7266 4.10144L15.9023 0.273318C15.8151 0.186334 15.7115 0.117411 15.5975 0.0704922C15.4836 0.0235732 15.3615 -0.000421433 15.2383 -0.000119251H15V4.37488C15 4.54064 15.0658 4.69961 15.1831 4.81682C15.3003 4.93403 15.4592 4.99988 15.625 4.99988H20V4.7616C20 4.639 19.9759 4.5176 19.9289 4.40433C19.882 4.29106 19.8133 4.18814 19.7266 4.10144V4.10144ZM11.0574 8.2741C10.6633 7.88074 9.98828 8.15691 9.98828 8.71433V11.2534H0.625C0.45924 11.2534 0.300269 11.3192 0.183058 11.4365C0.065848 11.5537 0 11.7126 0 11.8784L0 13.1249C0 13.2906 0.065848 13.4496 0.183058 13.5668C0.300269 13.684 0.45924 13.7499 0.625 13.7499H9.98555V16.285C9.98555 16.8425 10.6605 17.1186 11.0547 16.7253L14.7875 12.9686C14.9107 12.8443 14.9798 12.6763 14.9798 12.5012C14.9798 12.3262 14.9107 12.1582 14.7875 12.0339L11.0574 8.2741Z" fill="#B91F2E"/>
</g>
<defs>
<clipPath id="clip0">
<rect width="20" height="20" fill="white"/>
</clipPath>
</defs>
</svg>
