<svg width="20" height="20" viewBox="0 0 20 20" fill="none" xmlns="http://www.w3.org/2000/svg">
<g clip-path="url(#clip0)">
<path d="M20.0001 5V19.0672C19.9998 19.19 19.9753 19.3115 19.9281 19.4249C19.8808 19.5382 19.8116 19.6411 19.7246 19.7278C19.6375 19.8144 19.5343 19.883 19.4207 19.9297C19.3071 19.9764 19.1855 20.0003 19.0626 20H8.75015V16.4379C9.08829 16.2935 9.38897 16.0738 9.62923 15.7955C9.8695 15.5172 10.043 15.1876 10.1365 14.832C10.1513 14.7766 10.1646 14.7258 10.1755 14.6781C10.2013 14.5781 10.2302 14.4676 10.2494 14.4047C10.2939 14.3566 10.3712 14.2781 10.4416 14.207L10.5552 14.0922C10.8491 13.7914 11.0603 13.4198 11.1683 13.0135C11.2764 12.6071 11.2777 12.1797 11.172 11.7727C11.1576 11.7176 11.1439 11.6668 11.133 11.6195C11.106 11.5176 11.0759 11.4047 11.0611 11.3398C11.0759 11.2742 11.1064 11.1602 11.1337 11.0566C11.1458 11.0105 11.1591 10.9609 11.1728 10.907C11.2787 10.5011 11.2782 10.0748 11.1712 9.66914C11.0643 9.26351 10.8545 8.89232 10.5623 8.59141L10.4544 8.48164C10.3822 8.4082 10.3021 8.32734 10.2572 8.27852C10.238 8.21445 10.2091 8.10234 10.1826 8.00117C10.1703 7.9543 10.1573 7.90352 10.1435 7.84883C10.0362 7.44197 9.82416 7.07031 9.52858 6.77082C9.233 6.47134 8.86415 6.25447 8.45874 6.1418H8.45444L8.30796 6.10273C8.21265 6.07695 8.10757 6.04844 8.04429 6.0293C7.99624 5.9832 7.91851 5.90391 7.84897 5.83203C7.81616 5.79844 7.7814 5.7625 7.74311 5.72383C7.4477 5.42042 7.07662 5.20139 6.66822 5.08939C6.25983 4.97739 5.82894 4.97646 5.42007 5.08672H5.41811L5.27085 5.12578C5.1771 5.15156 5.07554 5.18008 5.00952 5.1957V0.932812C5.01013 0.686413 5.10796 0.450212 5.28176 0.275542C5.45555 0.100873 5.69125 0.00185187 5.93765 0L15.0001 0V4.375C15.0001 4.54076 15.066 4.69973 15.1832 4.81694C15.3004 4.93415 15.4594 5 15.6251 5H20.0001Z" fill="#E0E0E0"/>
<path d="M19.7257 4.1015L15.9015 0.273379C15.8142 0.186395 15.7106 0.117472 15.5967 0.0705533C15.4827 0.0236342 15.3606 -0.000360398 15.2374 -5.82161e-05H14.9991V4.37494C14.9991 4.5407 15.065 4.69967 15.1822 4.81688C15.2994 4.93409 15.4584 4.99994 15.6241 4.99994H19.9991V4.76166C19.9991 4.63906 19.975 4.51766 19.9281 4.40439C19.8812 4.29112 19.8124 4.1882 19.7257 4.1015V4.1015ZM9.96007 10.5894C10.0123 10.3923 10.0125 10.1851 9.96057 9.98798C9.90867 9.79085 9.80647 9.61057 9.66398 9.46479C9.08351 8.87416 9.13976 8.97221 8.92726 8.16401C8.876 7.96843 8.77431 7.78974 8.63234 7.64579C8.49038 7.50183 8.31312 7.39767 8.11828 7.34369C7.32609 7.12768 7.4214 7.18354 6.84132 6.5933C6.70105 6.44868 6.52466 6.34421 6.33042 6.2907C6.13619 6.2372 5.93117 6.23661 5.73663 6.28901C4.94288 6.50541 5.0546 6.50502 4.26202 6.28901C4.06775 6.23631 3.86293 6.23644 3.66873 6.28939C3.47453 6.34233 3.29798 6.44617 3.15734 6.59018C2.57492 7.18315 2.66906 7.12533 1.88077 7.34057C1.68548 7.39467 1.50789 7.49926 1.36587 7.64381C1.22385 7.78837 1.12242 7.96779 1.07179 8.16401C0.858509 8.97416 0.91554 8.87221 0.334681 9.46361C0.191956 9.60949 0.0895884 9.78996 0.0376131 9.98731C-0.0143623 10.1847 -0.0141613 10.3921 0.0381964 10.5894C0.251087 11.3984 0.249915 11.2843 0.0381964 12.0898C-0.0140396 12.2868 -0.0142138 12.4939 0.0376908 12.691C0.0895954 12.8881 0.191799 13.0683 0.33429 13.214C0.914759 13.8042 0.858509 13.7066 1.07179 14.5136C1.12245 14.7098 1.22389 14.8891 1.36591 15.0336C1.50793 15.1781 1.68551 15.2826 1.88077 15.3367C2.43937 15.489 2.33077 15.4538 2.49913 15.532V19.9999L4.99913 18.7499L7.49913 19.9999V15.5324C7.66749 15.4542 7.55851 15.4894 8.11788 15.3371C8.31306 15.2829 8.49054 15.1784 8.63248 15.0339C8.77442 14.8894 8.87582 14.7101 8.92648 14.514C9.14015 13.7038 9.08273 13.8058 9.66398 13.2144C9.80647 13.0687 9.90867 12.8885 9.96058 12.6914C10.0125 12.4943 10.0123 12.2872 9.96007 12.0902C9.74796 11.2835 9.74757 11.3972 9.96007 10.5894ZM4.99913 13.7499C4.50468 13.7499 4.02133 13.6033 3.61021 13.3286C3.19909 13.0539 2.87865 12.6635 2.68944 12.2067C2.50022 11.7498 2.45071 11.2472 2.54717 10.7622C2.64363 10.2773 2.88174 9.83181 3.23137 9.48218C3.581 9.13254 4.02646 8.89444 4.51141 8.79798C4.99636 8.70152 5.49903 8.75102 5.95584 8.94024C6.41266 9.12946 6.8031 9.44989 7.07781 9.86102C7.35251 10.2721 7.49913 10.7555 7.49913 11.2499C7.49913 11.913 7.23574 12.5489 6.7669 13.0177C6.29806 13.4866 5.66218 13.7499 4.99913 13.7499Z" fill="#B91F2E"/>
</g>
<defs>
<clipPath id="clip0">
<rect width="20" height="20" fill="white"/>
</clipPath>
</defs>
</svg>
