<svg width="20" height="20" viewBox="0 0 20 20" fill="none" xmlns="http://www.w3.org/2000/svg">
<g clip-path="url(#clip0)">
<path d="M2.22222 14.8476C2.22222 14.9943 2.28076 15.1349 2.38494 15.2386C2.48913 15.3423 2.63044 15.4005 2.77778 15.4005H3.20799C3.52291 15.4008 3.82993 15.3024 4.08547 15.1192C4.34101 14.9361 4.5321 14.6775 4.6316 14.3801L5 13.2785L5.58438 15.0225C5.73889 15.4876 6.38681 15.5363 6.60799 15.0947L6.875 14.5646C6.9063 14.4997 6.95564 14.445 7.01717 14.4071C7.07871 14.3692 7.14986 14.3496 7.22222 14.3507C7.29668 14.3502 7.36967 14.3713 7.43235 14.4113C7.49504 14.4513 7.54471 14.5085 7.57535 14.576C7.69724 14.8201 7.88425 15.0262 8.11593 15.1716C8.34761 15.317 8.61502 15.3962 8.88889 15.4005H12.3958L13.3333 14.461V17.8926C13.3331 18.0013 13.3113 18.1088 13.2693 18.2091C13.2272 18.3093 13.1658 18.4004 13.0884 18.477C13.011 18.5536 12.9192 18.6143 12.8183 18.6556C12.7173 18.697 12.6092 18.7181 12.5 18.7178H0.829169C0.720008 18.7175 0.611969 18.6959 0.511222 18.6541C0.410474 18.6122 0.318991 18.5511 0.241996 18.4741C0.165001 18.397 0.104001 18.3057 0.0624798 18.2052C0.0209585 18.1048 -0.000271313 17.9971 2.61746e-06 17.8885V1.8507C0.000275862 1.74206 0.0220475 1.63454 0.0640743 1.53428C0.106101 1.43401 0.16756 1.34297 0.244942 1.26635C0.322325 1.18972 0.414115 1.12901 0.515071 1.08769C0.616028 1.04637 0.724175 1.02524 0.833336 1.02552H8.88889V4.89571C8.88889 5.04234 8.94742 5.18297 9.05161 5.28666C9.1558 5.39034 9.2971 5.44859 9.44445 5.44859H13.3333V9.72204L10 13.0162V14.2947H8.88889C8.81997 14.2881 8.75391 14.264 8.69705 14.2247C8.6402 14.1854 8.59446 14.1321 8.56424 14.0701C8.14965 13.2456 6.95834 13.0214 6.27257 13.5808L5.79063 12.142C5.73542 11.9767 5.62933 11.8329 5.48738 11.7309C5.34544 11.629 5.17485 11.5742 4.99983 11.5742C4.8248 11.5742 4.65422 11.629 4.51228 11.7309C4.37033 11.8329 4.26423 11.9767 4.20903 12.142L3.57639 14.0301C3.55057 14.107 3.50113 14.174 3.43503 14.2214C3.36893 14.2689 3.28951 14.2946 3.20799 14.2947H2.77778C2.63044 14.2947 2.48913 14.353 2.38494 14.4567C2.28076 14.5604 2.22222 14.701 2.22222 14.8476V14.8476Z" fill="#E0E0E0"/>
<path d="M13.3334 5.23793C13.3334 5.12947 13.3119 5.02208 13.2702 4.92188C13.2285 4.82168 13.1674 4.73063 13.0903 4.65394L9.691 1.26752C9.61341 1.19058 9.52134 1.12961 9.42006 1.0881C9.31877 1.0466 9.21026 1.02537 9.10072 1.02564H8.88892V4.89583C8.88892 5.04246 8.94745 5.18309 9.05163 5.28678C9.15582 5.39046 9.29713 5.44871 9.44447 5.44871H13.3334V5.23793ZM10 13.0163V15.4006H12.3959L18.0094 9.77573L15.6524 7.43011L10 13.0163ZM19.7417 6.80846L18.6351 5.70719C18.4692 5.54243 18.2444 5.44989 18.0101 5.44989C17.7757 5.44989 17.551 5.54243 17.3851 5.70719L16.4389 6.64882L18.7958 8.99443L19.742 8.0528C19.8242 7.9711 19.8893 7.8741 19.9337 7.76733C19.9782 7.66056 20.001 7.54612 20.001 7.43056C20.001 7.315 19.978 7.20057 19.9335 7.09383C19.8891 6.98708 19.8239 6.89012 19.7417 6.80846V6.80846Z" fill="#B91F2E"/>
</g>
<defs>
<clipPath id="clip0">
<rect width="20" height="20" fill="white"/>
</clipPath>
</defs>
</svg>
