<svg width="20" height="20" viewBox="0 0 20 20" fill="none" xmlns="http://www.w3.org/2000/svg">
<g clip-path="url(#clip0)">
<path d="M6.26755 12.4999H13.7323V9.99988H6.26755V12.4999ZM17.4647 4.99988H13.1103C12.9453 4.99988 12.7871 4.93403 12.6704 4.81682C12.5537 4.69961 12.4882 4.54064 12.4882 4.37488V-0.000119126H3.46826C3.34603 -0.000427297 3.22493 0.0234562 3.11189 0.0701677C2.99885 0.116879 2.89607 0.185504 2.80942 0.272124C2.72278 0.358743 2.65396 0.461662 2.6069 0.575003C2.55984 0.688343 2.53547 0.809887 2.53516 0.932693V19.0624C2.53485 19.1852 2.55862 19.3069 2.60512 19.4204C2.65161 19.534 2.71991 19.6373 2.80612 19.7243C2.89234 19.8114 2.99477 19.8805 3.10758 19.9278C3.22039 19.9751 3.34136 19.9996 3.46359 19.9999H16.5316C16.6539 20.0002 16.775 19.9763 16.888 19.9296C17.001 19.8829 17.1038 19.8143 17.1905 19.7276C17.2771 19.641 17.3459 19.5381 17.393 19.4248C17.4401 19.3114 17.4644 19.1899 17.4647 19.0671V4.99988ZM5.02342 2.81238C5.02342 2.7295 5.05619 2.65002 5.11452 2.59141C5.17285 2.5328 5.25196 2.49988 5.33445 2.49988H8.44478C8.52727 2.49988 8.60639 2.5328 8.66472 2.59141C8.72305 2.65002 8.75582 2.7295 8.75582 2.81238V3.43738C8.75582 3.52026 8.72305 3.59975 8.66472 3.65835C8.60639 3.71696 8.52727 3.74988 8.44478 3.74988H5.33445C5.25196 3.74988 5.17285 3.71696 5.11452 3.65835C5.05619 3.59975 5.02342 3.52026 5.02342 3.43738V2.81238ZM5.02342 5.31238C5.02342 5.2295 5.05619 5.15001 5.11452 5.09141C5.17285 5.0328 5.25196 4.99988 5.33445 4.99988H8.44478C8.52727 4.99988 8.60639 5.0328 8.66472 5.09141C8.72305 5.15001 8.75582 5.2295 8.75582 5.31238V5.93738C8.75582 6.02026 8.72305 6.09975 8.66472 6.15835C8.60639 6.21696 8.52727 6.24988 8.44478 6.24988H5.33445C5.25196 6.24988 5.17285 6.21696 5.11452 6.15835C5.05619 6.09975 5.02342 6.02026 5.02342 5.93738V5.31238ZM14.9765 17.1874C14.9765 17.2703 14.9437 17.3497 14.8854 17.4084C14.827 17.467 14.7479 17.4999 14.6654 17.4999H11.5551C11.4726 17.4999 11.3935 17.467 11.3352 17.4084C11.2768 17.3497 11.2441 17.2703 11.2441 17.1874V16.5624C11.2441 16.4795 11.2768 16.4 11.3352 16.3414C11.3935 16.2828 11.4726 16.2499 11.5551 16.2499H14.6654C14.7479 16.2499 14.827 16.2828 14.8854 16.3414C14.9437 16.4 14.9765 16.4795 14.9765 16.5624V17.1874ZM14.9765 13.1249C14.9765 13.2906 14.9109 13.4496 14.7943 13.5668C14.6776 13.684 14.5194 13.7499 14.3544 13.7499H5.64549C5.48051 13.7499 5.32228 13.684 5.20562 13.5668C5.08896 13.4496 5.02342 13.2906 5.02342 13.1249V9.37488C5.02342 9.20912 5.08896 9.05015 5.20562 8.93294C5.32228 8.81573 5.48051 8.74988 5.64549 8.74988H14.3544C14.5194 8.74988 14.6776 8.81573 14.7943 8.93294C14.9109 9.05015 14.9765 9.20912 14.9765 9.37488V13.1249Z" fill="#E0E0E0"/>
<path d="M17.1926 4.10157L13.3863 0.27344C13.2995 0.186456 13.1964 0.117533 13.083 0.0706143C12.9695 0.0236953 12.848 -0.000299363 12.7254 2.81903e-06H12.4882V4.375C12.4882 4.54076 12.5538 4.69973 12.6704 4.81694C12.7871 4.93415 12.9453 5 13.1103 5H17.4648V4.76172C17.4648 4.63912 17.4407 4.51772 17.394 4.40445C17.3473 4.29118 17.2789 4.18826 17.1926 4.10157V4.10157ZM14.3544 8.75H5.6455C5.48052 8.75 5.3223 8.81585 5.20564 8.93306C5.08898 9.05027 5.02344 9.20924 5.02344 9.375V13.125C5.02344 13.2908 5.08898 13.4497 5.20564 13.5669C5.3223 13.6842 5.48052 13.75 5.6455 13.75H14.3544C14.5194 13.75 14.6776 13.6842 14.7943 13.5669C14.911 13.4497 14.9765 13.2908 14.9765 13.125V9.375C14.9765 9.20924 14.911 9.05027 14.7943 8.93306C14.6776 8.81585 14.5194 8.75 14.3544 8.75ZM13.7324 12.5H6.26757V10H13.7324V12.5ZM14.6655 16.25H11.5551C11.4726 16.25 11.3935 16.2829 11.3352 16.3415C11.2769 16.4001 11.2441 16.4796 11.2441 16.5625V17.1875C11.2441 17.2704 11.2769 17.3499 11.3352 17.4085C11.3935 17.4671 11.4726 17.5 11.5551 17.5H14.6655C14.7479 17.5 14.8271 17.4671 14.8854 17.4085C14.9437 17.3499 14.9765 17.2704 14.9765 17.1875V16.5625C14.9765 16.4796 14.9437 16.4001 14.8854 16.3415C14.8271 16.2829 14.7479 16.25 14.6655 16.25Z" fill="#B91F2E"/>
</g>
<defs>
<clipPath id="clip0">
<rect width="20" height="20" fill="white"/>
</clipPath>
</defs>
</svg>
