<svg width="20" height="20" viewBox="0 0 20 20" fill="none" xmlns="http://www.w3.org/2000/svg">
<path d="M3 9C3.39556 9 3.78224 8.8827 4.11114 8.66294C4.44004 8.44318 4.69638 8.13082 4.84776 7.76537C4.99913 7.39992 5.03874 6.99778 4.96157 6.60982C4.8844 6.22186 4.69392 5.86549 4.41421 5.58579C4.13451 5.30608 3.77814 5.1156 3.39018 5.03843C3.00222 4.96126 2.60009 5.00087 2.23463 5.15224C1.86918 5.30362 1.55682 5.55996 1.33706 5.88886C1.1173 6.21776 1 6.60444 1 7C1.0005 7.53028 1.21137 8.0387 1.58633 8.41367C1.9613 8.78863 2.46972 8.9995 3 9V9ZM18 10H16C15.4718 9.99943 14.9649 10.2085 14.5906 10.5813C15.2236 10.9257 15.7662 11.415 16.1741 12.0092C16.5819 12.6033 16.8435 13.2855 16.9375 14H19C19.2652 14 19.5196 13.8946 19.7071 13.7071C19.8946 13.5196 20 13.2652 20 13V12C19.9995 11.4697 19.7886 10.9613 19.4137 10.5863C19.0387 10.2114 18.5303 10.0005 18 10ZM2 10C1.46972 10.0005 0.9613 10.2114 0.586335 10.5863C0.21137 10.9613 0.00049644 11.4697 0 12V13C0 13.2652 0.105357 13.5196 0.292893 13.7071C0.48043 13.8946 0.734784 14 1 14H3.05938C3.15459 13.2855 3.41702 12.6035 3.82535 12.0095C4.23368 11.4154 4.77639 10.9261 5.40938 10.5813C5.03512 10.2085 4.52824 9.99943 4 10H2ZM17 9C17.3956 9 17.7822 8.8827 18.1111 8.66294C18.44 8.44318 18.6964 8.13082 18.8478 7.76537C18.9991 7.39992 19.0387 6.99778 18.9616 6.60982C18.8844 6.22186 18.6939 5.86549 18.4142 5.58579C18.1345 5.30608 17.7781 5.1156 17.3902 5.03843C17.0022 4.96126 16.6001 5.00087 16.2346 5.15224C15.8692 5.30362 15.5568 5.55996 15.3371 5.88886C15.1173 6.21776 15 6.60444 15 7C15.0005 7.53028 15.2114 8.0387 15.5863 8.41367C15.9613 8.78863 16.4697 8.9995 17 9Z" fill="#E0E0E0"/>
<path d="M12.4 11H12.1406C11.4739 11.3259 10.7421 11.4968 10 11.5C9.23125 11.5 8.5125 11.3125 7.85938 11H7.6C6.6453 11.0003 5.72977 11.3796 5.05469 12.0547C4.37961 12.7298 4.00025 13.6453 4 14.6V15.5C4 15.8978 4.15804 16.2794 4.43934 16.5607C4.72064 16.842 5.10218 17 5.5 17H14.5C14.8978 17 15.2794 16.842 15.5607 16.5607C15.842 16.2794 16 15.8978 16 15.5V14.6C15.9998 13.6453 15.6204 12.7298 14.9453 12.0547C14.2702 11.3796 13.3547 11.0003 12.4 11V11ZM10 10C10.6922 10 11.3689 9.79473 11.9445 9.41015C12.5201 9.02556 12.9687 8.47894 13.2336 7.83939C13.4985 7.19985 13.5678 6.49612 13.4327 5.81719C13.2977 5.13825 12.9644 4.51461 12.4749 4.02513C11.9854 3.53564 11.3618 3.2023 10.6828 3.06725C10.0039 2.9322 9.30015 3.00152 8.66061 3.26642C8.02107 3.53133 7.47444 3.97993 7.08986 4.55551C6.70527 5.13108 6.5 5.80777 6.5 6.5C6.49975 6.9597 6.59012 7.41493 6.76592 7.83968C6.94172 8.26444 7.19952 8.65037 7.52458 8.97542C7.84963 9.30048 8.23557 9.55828 8.66032 9.73408C9.08507 9.90989 9.5403 10.0002 10 10Z" fill="#B91F2E"/>
</svg>
