<svg width="20" height="20" viewBox="0 0 20 20" fill="none" xmlns="http://www.w3.org/2000/svg">
<path d="M5.53437 15.634C6.61352 16.489 7.91551 17.016 9.28551 17.1524C10.6555 17.2889 12.0359 17.0289 13.2624 16.4036C14.489 15.7782 15.5101 14.8138 16.2044 13.6249C16.8987 12.436 17.2369 11.0727 17.1789 9.69712C17.1208 8.32157 16.6689 6.99164 15.8768 5.86549C15.0848 4.73935 13.986 3.86437 12.7111 3.34463C11.4362 2.82489 10.0388 2.68225 8.68519 2.93368C7.33156 3.1851 6.07863 3.82001 5.07539 4.7629L7.0582 6.74571C7.45195 7.13946 7.17305 7.81251 6.61602 7.81251H0.9375C0.77174 7.81251 0.612769 7.74666 0.495558 7.62945C0.378348 7.51224 0.3125 7.35327 0.3125 7.18751V1.50899C0.3125 0.951962 0.985547 0.673055 1.3793 1.06681L3.3082 2.99571C5.10859 1.27069 7.50659 0.30917 10 0.312509C15.3441 0.312509 19.6777 4.63985 19.6875 9.98165C19.6973 15.3234 15.3445 19.6836 10.007 19.6875C7.79207 19.6924 5.64287 18.935 3.92031 17.5426C3.81836 17.4598 3.73493 17.3566 3.67542 17.2395C3.61592 17.1225 3.58167 16.9942 3.57489 16.8631C3.56811 16.7319 3.58896 16.6008 3.63609 16.4783C3.68321 16.3557 3.75555 16.2444 3.84844 16.1516L4.28867 15.7113C4.45061 15.5478 4.66706 15.4495 4.89678 15.4352C5.1265 15.421 5.35345 15.4917 5.53437 15.634V15.634Z" fill="#E0E0E0"/>
<path d="M11.25 5.9375V10.0137L12.8398 11.25C12.937 11.3256 13.0184 11.4196 13.0792 11.5266C13.1401 11.6336 13.1793 11.7516 13.1946 11.8738C13.2098 11.9959 13.2009 12.1199 13.1682 12.2386C13.1356 12.3573 13.0799 12.4684 13.0043 12.5656L12.6207 13.0586C12.5451 13.1558 12.4511 13.2371 12.3441 13.298C12.2371 13.3588 12.1191 13.398 11.997 13.4133C11.8748 13.4286 11.7508 13.4196 11.6321 13.387C11.5134 13.3543 11.4023 13.2986 11.3051 13.223L8.75 11.2363V5.9375C8.75 5.68886 8.84877 5.4504 9.02459 5.27459C9.2004 5.09877 9.43886 5 9.6875 5H10.3125C10.5611 5 10.7996 5.09877 10.9754 5.27459C11.1512 5.4504 11.25 5.68886 11.25 5.9375Z" fill="#B91F2E"/>
</svg>
