<svg width="20" height="20" viewBox="0 0 20 20" fill="none" xmlns="http://www.w3.org/2000/svg">
<path d="M3.24219 2.5C3.24219 2.00555 3.38881 1.5222 3.66351 1.11108C3.93822 0.699953 4.32866 0.379521 4.78548 0.190302C5.24229 0.0010832 5.74496 -0.0484251 6.22991 0.0480379C6.71487 0.144501 7.16032 0.382603 7.50995 0.732234C7.85959 1.08187 8.09769 1.52732 8.19415 2.01228C8.29061 2.49723 8.24111 2.99989 8.05189 3.45671C7.86267 3.91352 7.54224 4.30397 7.13111 4.57868C6.71999 4.85338 6.23664 5 5.74219 5C5.07915 5 4.44326 4.73661 3.97442 4.26777C3.50558 3.79893 3.24219 3.16304 3.24219 2.5V2.5Z" fill="#E0E0E0"/>
<path d="M3.86719 5.625H4.31094C4.75999 5.8309 5.24818 5.93748 5.74219 5.93748C6.23619 5.93748 6.72438 5.8309 7.17344 5.625H7.61719C8.11447 5.625 8.59138 5.82254 8.94301 6.17417C9.29464 6.52581 9.49219 7.00272 9.49219 7.5V12.8125C9.49219 13.0611 9.39342 13.2996 9.2176 13.4754C9.04178 13.6512 8.80333 13.75 8.55469 13.75H7.92969V19.0625C7.92969 19.3111 7.83092 19.5496 7.6551 19.7254C7.47928 19.9012 7.24083 20 6.99219 20H4.49219C4.24355 20 4.00509 19.9012 3.82927 19.7254C3.65346 19.5496 3.55469 19.3111 3.55469 19.0625V13.75H2.92969C2.68105 13.75 2.44259 13.6512 2.26677 13.4754C2.09096 13.2996 1.99219 13.0611 1.99219 12.8125V7.5C1.99219 7.00272 2.18973 6.52581 2.54136 6.17417C2.89299 5.82254 3.36991 5.625 3.86719 5.625V5.625Z" fill="#E0E0E0"/>
<path d="M14.0217 2.17899C13.9759 2.1201 13.9183 2.07149 13.8526 2.03628C13.7868 2.00107 13.7145 1.98006 13.6401 1.97459C13.5658 1.96913 13.4911 1.97934 13.4209 2.00457C13.3508 2.02979 13.2867 2.06947 13.2328 2.12103L12.9756 2.36791C12.8814 2.45799 12.8236 2.57962 12.8133 2.7096C12.8029 2.83958 12.8407 2.96884 12.9195 3.07271C13.4899 3.81585 13.7992 4.72683 13.7992 5.66406C13.7992 6.60129 13.4899 7.51227 12.9195 8.25541C12.8408 8.35939 12.8032 8.48871 12.8137 8.61869C12.8242 8.74868 12.8822 8.87025 12.9765 8.96021L13.2337 9.20709C13.2876 9.25866 13.3517 9.29833 13.4218 9.32356C13.492 9.34878 13.5666 9.35899 13.641 9.35353C13.7153 9.34807 13.7877 9.32705 13.8534 9.29185C13.9192 9.25664 13.9768 9.20802 14.0226 9.14913C14.7975 8.153 15.2182 6.92648 15.2181 5.66391C15.2179 4.40134 14.7969 3.17493 14.0217 2.17899V2.17899ZM16.0547 0.190685C16.008 0.134671 15.9503 0.0888968 15.8851 0.0562193C15.8199 0.0235418 15.7487 0.00466251 15.6759 0.000759959C15.6032 -0.00314259 15.5304 0.00801533 15.4621 0.0335373C15.3938 0.0590592 15.3315 0.0983973 15.2791 0.149096L15.0227 0.39509C14.9253 0.488094 14.8668 0.614732 14.8591 0.749316C14.8515 0.883899 14.8953 1.01635 14.9816 1.1198C16.0453 2.39466 16.628 4.00299 16.628 5.66406C16.628 7.32514 16.0453 8.93346 14.9816 10.2083C14.8953 10.3118 14.8515 10.4442 14.8591 10.5788C14.8668 10.7134 14.9253 10.84 15.0227 10.933L15.2791 11.179C15.3315 11.2297 15.3938 11.2691 15.4621 11.2946C15.5304 11.3201 15.6032 11.3313 15.6759 11.3274C15.7487 11.3235 15.8199 11.3046 15.8851 11.2719C15.9503 11.2392 16.008 11.1935 16.0547 11.1374C17.3417 9.60452 18.0471 7.66623 18.0469 5.66382C18.0466 3.66141 17.3407 1.72329 16.0534 0.190685H16.0547ZM11.1711 4.11067L10.9059 4.36419C10.8224 4.44493 10.7674 4.5507 10.7493 4.66549C10.7312 4.78028 10.751 4.89784 10.8056 5.00041C10.9135 5.20447 10.9699 5.43185 10.9699 5.66274C10.9699 5.89362 10.9135 6.121 10.8056 6.32506C10.7506 6.42773 10.7306 6.54554 10.7486 6.66061C10.7667 6.77569 10.8217 6.88172 10.9054 6.96261L11.1706 7.21613C11.2286 7.27178 11.2984 7.31358 11.3748 7.3384C11.4513 7.36321 11.5323 7.3704 11.6119 7.35942C11.6915 7.34844 11.7675 7.31958 11.8344 7.27499C11.9013 7.23041 11.9572 7.17126 11.998 7.10198C12.2547 6.66589 12.3901 6.16893 12.3901 5.66274C12.3901 5.15654 12.2547 4.65958 11.998 4.22349C11.9571 4.15415 11.901 4.09498 11.834 4.05043C11.7671 4.00587 11.6908 3.97709 11.6112 3.96623C11.5315 3.95538 11.4503 3.96273 11.3739 3.98775C11.2974 4.01276 11.2276 4.05479 11.1697 4.11067H11.1711Z" fill="#B91F2E"/>
</svg>
