<svg width="20" height="20" viewBox="0 0 20 20" fill="none" xmlns="http://www.w3.org/2000/svg">
<g clip-path="url(#clip0)">
<path d="M10 0C5.85938 0 2.5 3.35938 2.5 7.5C2.5 10.5238 3.55469 11.3672 9.2293 19.5965C9.31557 19.7211 9.43075 19.8229 9.56498 19.8932C9.69921 19.9635 9.84847 20.0002 10 20.0002C10.1515 20.0002 10.3008 19.9635 10.435 19.8932C10.5692 19.8229 10.6844 19.7211 10.7707 19.5965C16.4453 11.3672 17.5 10.5238 17.5 7.5C17.5 3.35938 14.1406 0 10 0ZM10 11.25C9.25832 11.25 8.5333 11.0301 7.91661 10.618C7.29993 10.206 6.81928 9.62029 6.53545 8.93506C6.25162 8.24984 6.17736 7.49584 6.32206 6.76841C6.46675 6.04098 6.8239 5.3728 7.34835 4.84835C7.8728 4.3239 8.54098 3.96675 9.26841 3.82206C9.99584 3.67736 10.7498 3.75162 11.4351 4.03545C12.1203 4.31928 12.706 4.79993 13.118 5.41661C13.5301 6.0333 13.75 6.75832 13.75 7.5C13.75 8.49456 13.3549 9.44839 12.6517 10.1517C11.9484 10.8549 10.9946 11.25 10 11.25Z" fill="#E0E0E0"/>
<path d="M10 10C9.50555 10 9.0222 9.85338 8.61108 9.57868C8.19995 9.30397 7.87952 8.91353 7.6903 8.45671C7.50108 7.99989 7.45157 7.49723 7.54804 7.01228C7.6445 6.52732 7.8826 6.08187 8.23223 5.73223C8.58187 5.3826 9.02732 5.1445 9.51228 5.04804C9.99723 4.95157 10.4999 5.00108 10.9567 5.1903C11.4135 5.37952 11.804 5.69995 12.0787 6.11108C12.3534 6.5222 12.5 7.00555 12.5 7.5C12.5 8.16304 12.2366 8.79893 11.7678 9.26777C11.2989 9.73661 10.663 10 10 10Z" fill="#B91F2E"/>
</g>
<defs>
<clipPath id="clip0">
<rect width="20" height="20" fill="white"/>
</clipPath>
</defs>
</svg>
