<svg width="20" height="20" viewBox="0 0 20 20" fill="none" xmlns="http://www.w3.org/2000/svg">
<g clip-path="url(#clip0)">
<path d="M5.44142 2.62894C4.88179 2.06141 4.52014 1.32851 4.41017 0.539092C4.38834 0.388343 4.31256 0.250629 4.19691 0.151499C4.08126 0.0523689 3.93358 -0.00144878 3.78126 2.96709e-05H3.14064C3.05115 -0.000397278 2.96257 0.0180337 2.88068 0.0541218C2.79879 0.09021 2.72541 0.143146 2.66534 0.209481C2.60528 0.275815 2.55985 0.354061 2.53204 0.439121C2.50423 0.52418 2.49464 0.614145 2.50392 0.703155C2.65435 1.94699 3.21196 3.10614 4.08986 4.00003C4.55353 4.46931 4.85939 5.07146 4.96486 5.72269C4.99003 5.87022 5.06659 6.00408 5.18097 6.10059C5.29536 6.19711 5.4402 6.25004 5.58986 6.25003H6.23439C6.6172 6.25003 6.92189 5.918 6.87111 5.5469C6.72499 4.44452 6.223 3.41997 5.44142 2.62894V2.62894ZM11.2461 5.5469C11.1 4.44452 10.598 3.41997 9.81642 2.62894C9.25679 2.06141 8.89514 1.32851 8.78517 0.539092C8.76334 0.388343 8.68757 0.250629 8.57191 0.151499C8.45626 0.0523689 8.30858 -0.00144878 8.15627 2.96709e-05H7.51564C7.13283 2.96709e-05 6.83205 0.332061 6.87892 0.703155C7.02936 1.94699 7.58696 3.10614 8.46486 4.00003C8.92853 4.46931 9.23439 5.07146 9.33986 5.72269C9.36503 5.87022 9.44159 6.00408 9.55597 6.10059C9.67036 6.19711 9.8152 6.25004 9.96486 6.25003H10.6094C10.9922 6.25003 11.2969 5.918 11.2461 5.5469V5.5469Z" fill="#B91F2E"/>
<path d="M15.625 7.5H1.25C0.918479 7.5 0.600537 7.6317 0.366117 7.86612C0.131696 8.10054 0 8.41848 0 8.75L0 16.25C0 17.2446 0.395088 18.1984 1.09835 18.9017C1.80161 19.6049 2.75544 20 3.75 20H11.25C12.2446 20 13.1984 19.6049 13.9017 18.9017C14.6049 18.1984 15 17.2446 15 16.25H15.625C16.7853 16.25 17.8981 15.7891 18.7186 14.9686C19.5391 14.1481 20 13.0353 20 11.875C20 10.7147 19.5391 9.60188 18.7186 8.78141C17.8981 7.96094 16.7853 7.5 15.625 7.5ZM15.625 13.75H15V10H15.625C16.1223 10 16.5992 10.1975 16.9508 10.5492C17.3025 10.9008 17.5 11.3777 17.5 11.875C17.5 12.3723 17.3025 12.8492 16.9508 13.2008C16.5992 13.5525 16.1223 13.75 15.625 13.75V13.75Z" fill="#E0E0E0"/>
</g>
<defs>
<clipPath id="clip0">
<rect width="20" height="20" fill="white"/>
</clipPath>
</defs>
</svg>
