<svg width="20" height="20" viewBox="0 0 20 20" fill="none" xmlns="http://www.w3.org/2000/svg">
<g clip-path="url(#clip0)">
<path d="M18.75 16.25H1.25C0.918479 16.25 0.600537 16.1183 0.366117 15.8839C0.131696 15.6495 0 15.3315 0 15V13.75C0 12.7555 0.395088 11.8016 1.09835 11.0984C1.80161 10.3951 2.75544 10 3.75 10H6.35C6.655 10 6.94751 9.87886 7.16317 9.6632C7.37884 9.44753 7.5 9.15502 7.5 8.85002V8.84729C7.5 7.60549 7.10938 6.42307 6.58945 5.29612C6.36507 4.81162 6.24922 4.28396 6.25 3.75002C6.25005 3.20042 6.37084 2.65753 6.60382 2.15975C6.8368 1.66197 7.17629 1.22145 7.59828 0.869325C8.02026 0.517202 8.51445 0.262077 9.04591 0.121987C9.57736 -0.0181018 10.1331 -0.0397351 10.6738 0.0586171C12.1875 0.322289 13.4273 1.56916 13.6918 3.08596C13.8375 3.89014 13.7133 4.71994 13.3383 5.44612C12.8469 6.39377 12.5 7.41096 12.5 8.4801V8.84963C12.4999 9.00065 12.5296 9.1502 12.5874 9.28975C12.6451 9.42929 12.7298 9.5561 12.8366 9.66292C12.9433 9.76974 13.07 9.8545 13.2096 9.91234C13.3491 9.97018 13.4986 9.99997 13.6496 10H16.25C17.2446 10 18.1984 10.3951 18.9017 11.0984C19.6049 11.8016 20 12.7555 20 13.75V15C20 15.3315 19.8683 15.6495 19.6339 15.8839C19.3995 16.1183 19.0815 16.25 18.75 16.25Z" fill="#E0E0E0"/>
<path d="M18.75 16.25V20H1.25V16.25H18.75Z" fill="#B91F2E"/>
</g>
<defs>
<clipPath id="clip0">
<rect width="20" height="20" fill="white"/>
</clipPath>
</defs>
</svg>
