<svg width="20" height="20" viewBox="0 0 20 20" fill="none" xmlns="http://www.w3.org/2000/svg">
<path d="M10 3.75C5.5125 3.75 1.875 7.3875 1.875 11.875C1.875 16.3625 5.5125 20 10 20C14.4875 20 18.125 16.3625 18.125 11.875C18.125 7.3875 14.4875 3.75 10 3.75ZM11.25 13.125C11.25 13.2908 11.1842 13.4497 11.0669 13.5669C10.9497 13.6842 10.7908 13.75 10.625 13.75H9.375C9.20924 13.75 9.05027 13.6842 8.93306 13.5669C8.81585 13.4497 8.75 13.2908 8.75 13.125V8.14453C8.75 7.97877 8.81585 7.8198 8.93306 7.70259C9.05027 7.58538 9.20924 7.51953 9.375 7.51953H10.625C10.7908 7.51953 10.9497 7.58538 11.0669 7.70259C11.1842 7.8198 11.25 7.97877 11.25 8.14453V13.125Z" fill="#E0E0E0"/>
<path d="M10.625 7.51953H9.375C9.20924 7.51953 9.05027 7.58538 8.93306 7.70259C8.81585 7.8198 8.75 7.97877 8.75 8.14453V13.125C8.75 13.2908 8.81585 13.4497 8.93306 13.5669C9.05027 13.6842 9.20924 13.75 9.375 13.75H10.625C10.7908 13.75 10.9497 13.6842 11.0669 13.5669C11.1842 13.4497 11.25 13.2908 11.25 13.125V8.14453C11.25 7.97877 11.1842 7.8198 11.0669 7.70259C10.9497 7.58538 10.7908 7.51953 10.625 7.51953ZM17.9895 5.62227L16.884 4.5168C16.8404 4.4731 16.7887 4.43842 16.7317 4.41476C16.6747 4.39111 16.6136 4.37893 16.552 4.37893C16.4903 4.37893 16.4292 4.39111 16.3722 4.41476C16.3152 4.43842 16.2635 4.4731 16.2199 4.5168L15.1477 5.58906C15.7977 6.12176 16.3616 6.75157 16.8195 7.45625L16.841 7.43477L17.9895 6.28633C18.0332 6.24278 18.0678 6.19103 18.0915 6.13406C18.1151 6.07708 18.1273 6.01599 18.1273 5.9543C18.1273 5.8926 18.1151 5.83152 18.0915 5.77454C18.0678 5.71756 18.0332 5.66581 17.9895 5.62227V5.62227ZM12.1875 0H7.8125C7.64674 0 7.48777 0.065848 7.37056 0.183058C7.25335 0.300269 7.1875 0.45924 7.1875 0.625V1.875C7.1875 2.04076 7.25335 2.19973 7.37056 2.31694C7.48777 2.43415 7.64674 2.5 7.8125 2.5H8.75V3.8457C9.57844 3.71797 10.4216 3.71797 11.25 3.8457V2.5H12.1875C12.3533 2.5 12.5122 2.43415 12.6294 2.31694C12.7467 2.19973 12.8125 2.04076 12.8125 1.875V0.625C12.8125 0.45924 12.7467 0.300269 12.6294 0.183058C12.5122 0.065848 12.3533 0 12.1875 0V0Z" fill="#B91F2E"/>
</svg>
