<svg xmlns="http://www.w3.org/2000/svg" fill="none" viewBox="0 0 140 140"><path fill="#E0E0E0" d="M11.23 7.7a1.85 1.85 0 100-3.7 1.85 1.85 0 000 3.7zM1.85 7.7a1.85 1.85 0 100-3.7 1.85 1.85 0 000 3.7zM22.46 5.85a1.85 1.85 0 11-3.7 0 1.85 1.85 0 013.7 0zM29.99 7.7a1.85 1.85 0 100-3.7 1.85 1.85 0 000 3.7zM41.22 5.85a1.85 1.85 0 11-3.7 0 1.85 1.85 0 013.7 0zM48.74 7.7a1.85 1.85 0 100-3.7 1.85 1.85 0 000 3.7zM59.97 5.85a1.85 1.85 0 11-3.7 0 1.85 1.85 0 013.7 0zM67.5 7.7a1.85 1.85 0 100-3.7 1.85 1.85 0 000 3.7zM78.73 5.85a1.85 1.85 0 11-3.7 0 1.85 1.85 0 013.7 0zM86.25 7.7a1.85 1.85 0 100-3.7 1.85 1.85 0 000 3.7zM3.7 15.34a1.85 1.85 0 11-3.7 0 1.85 1.85 0 013.7 0zM11.23 17.2a1.85 1.85 0 100-3.7 1.85 1.85 0 000 3.7zM22.46 15.34a1.85 1.85 0 11-3.7 0 1.85 1.85 0 013.7 0zM39.36 17.2a1.85 1.85 0 100-3.7 1.85 1.85 0 000 3.7zM50.6 15.34a1.85 1.85 0 11-3.71 0 1.85 1.85 0 013.7 0zM58.12 17.2a1.85 1.85 0 100-3.7 1.85 1.85 0 000 3.7zM69.35 15.34a1.85 1.85 0 11-3.7 0 1.85 1.85 0 013.7 0zM76.88 17.2a1.85 1.85 0 100-3.7 1.85 1.85 0 000 3.7zM88.1 15.34a1.85 1.85 0 11-3.7 0 1.85 1.85 0 013.7 0zM1.85 26.69a1.85 1.85 0 100-3.7 1.85 1.85 0 000 3.7zM13.08 24.84a1.85 1.85 0 11-3.7 0 1.85 1.85 0 013.7 0zM20.6 26.69a1.85 1.85 0 100-3.7 1.85 1.85 0 000 3.7zM31.84 24.84a1.85 1.85 0 11-3.7 0 1.85 1.85 0 013.7 0zM93.94 37.93a.47.47 0 00-.17-.04H56.76a.47.47 0 00-.47.47v.94a.47.47 0 00.47.47h37a.47.47 0 00.47-.47v-.94a.47.47 0 00-.29-.43zM93.77 42.34a.47.47 0 01.46.47v.94a.47.47 0 01-.46.46H56.76a.47.47 0 01-.47-.46v-.94a.47.47 0 01.47-.47h37zM94.1 51.47a.47.47 0 00-.33-.13H56.76a.47.47 0 00-.47.46v.94a.47.47 0 00.47.47h37a.47.47 0 00.47-.47v-.94a.47.47 0 00-.13-.33zM93.77 55.78a.47.47 0 01.46.47v.94a.47.47 0 01-.46.47H56.76a.47.47 0 01-.47-.47v-.94a.47.47 0 01.47-.47h37zM94.1 60.37a.47.47 0 00-.33-.14H56.76a.47.47 0 00-.47.47v.94a.47.47 0 00.47.47h37a.47.47 0 00.47-.47v-.94a.47.47 0 00-.13-.33z"/><path fill="#E0E0E0" fill-rule="evenodd" d="M37.51 24.84c0-1 .8-1.83 1.8-1.86v-.09a2.34 2.34 0 012.34-2.34h67.22a2.34 2.34 0 012.34 2.34v93.65a2.34 2.34 0 01-2.34 2.34H41.65a2.35 2.35 0 01-2.34-2.34V93.13a1.85 1.85 0 010-3.7v-5.8a1.85 1.85 0 010-3.7v-5.79a1.85 1.85 0 010-3.7v-5.79a1.85 1.85 0 010-3.7v-5.79a1.85 1.85 0 010-3.7v-5.8a1.85 1.85 0 010-3.7v-5.78a1.85 1.85 0 010-3.7v-5.8c-1-.02-1.8-.84-1.8-1.84zm71.09 91.43H41.92v-93.1h66.68v93.1z" clip-rule="evenodd"/><path fill="#E0E0E0" d="M3.7 34.33a1.85 1.85 0 11-3.7 0 1.85 1.85 0 013.7 0zM11.23 36.18a1.85 1.85 0 100-3.7 1.85 1.85 0 000 3.7zM22.46 34.33a1.85 1.85 0 11-3.7 0 1.85 1.85 0 013.7 0zM29.99 36.18a1.85 1.85 0 100-3.7 1.85 1.85 0 000 3.7zM1.85 45.67a1.85 1.85 0 100-3.7 1.85 1.85 0 000 3.7zM22.46 43.82a1.85 1.85 0 11-3.7 0 1.85 1.85 0 013.7 0zM29.99 45.67a1.85 1.85 0 100-3.7 1.85 1.85 0 000 3.7zM1.85 55.16a1.85 1.85 0 100-3.7 1.85 1.85 0 000 3.7zM13.08 53.31a1.85 1.85 0 11-3.7 0 1.85 1.85 0 013.7 0zM20.6 55.16a1.85 1.85 0 100-3.7 1.85 1.85 0 000 3.7zM31.84 53.31a1.85 1.85 0 11-3.7 0 1.85 1.85 0 013.7 0zM3.7 62.8a1.85 1.85 0 11-3.7 0 1.85 1.85 0 013.7 0zM11.23 64.65a1.85 1.85 0 100-3.7 1.85 1.85 0 000 3.7zM31.84 62.8a1.85 1.85 0 11-3.7 0 1.85 1.85 0 013.7 0zM3.7 72.3a1.85 1.85 0 11-3.7 0 1.85 1.85 0 013.7 0zM11.23 74.14a1.85 1.85 0 100-3.7 1.85 1.85 0 000 3.7zM22.46 72.3a1.85 1.85 0 11-3.7 0 1.85 1.85 0 013.7 0zM29.99 74.14a1.85 1.85 0 100-3.7 1.85 1.85 0 000 3.7zM1.85 83.64a1.85 1.85 0 100-3.7 1.85 1.85 0 000 3.7zM13.08 81.78a1.85 1.85 0 11-3.7 0 1.85 1.85 0 013.7 0zM20.6 83.64a1.85 1.85 0 100-3.7 1.85 1.85 0 000 3.7zM31.84 81.78a1.85 1.85 0 11-3.7 0 1.85 1.85 0 013.7 0zM3.7 91.28a1.85 1.85 0 11-3.7 0 1.85 1.85 0 013.7 0zM11.23 93.13a1.85 1.85 0 100-3.7 1.85 1.85 0 000 3.7zM22.46 91.28a1.85 1.85 0 11-3.7 0 1.85 1.85 0 013.7 0zM29.99 93.13a1.85 1.85 0 100-3.7 1.85 1.85 0 000 3.7z"/><path fill="#103464" d="M29.99 17.2a1.85 1.85 0 100-3.7 1.85 1.85 0 000 3.7zM11.23 45.67a1.85 1.85 0 100-3.7 1.85 1.85 0 000 3.7zM20.6 64.65a1.85 1.85 0 100-3.7 1.85 1.85 0 000 3.7zM93.77 46.79a.47.47 0 01.46.47v.94a.47.47 0 01-.46.46H56.76a.47.47 0 01-.47-.46v-.94a.47.47 0 01.47-.47h37zM57 75.2a.54.54 0 00-.55.54v25.25a.54.54 0 00.55.55h36.47a.54.54 0 00.54-.55V75.74a.54.54 0 00-.54-.54H57z"/><path fill="#103464" d="M75.38 47.8l-.38-.1 8.36-31.4h48.46v.39H83.66L75.38 47.8z"/><path fill="#103464" d="M135.78 20.64a4.16 4.16 0 110-8.32 4.16 4.16 0 010 8.32zm0-7.91a3.76 3.76 0 100 7.53 3.76 3.76 0 000-7.53z"/><path fill="#103464" d="M135.78 18.07a1.58 1.58 0 100-3.16 1.58 1.58 0 000 3.16zM74.09 101.01l.38.1-8.41 31.4-48.46-.09v-.4l48.15.1 8.34-31.1z"/><path fill="#103464" d="M13.64 128.06a4.15 4.15 0 110 8.31 4.15 4.15 0 010-8.3zm-.01 7.92a3.77 3.77 0 10.01-7.54 3.77 3.77 0 00-.01 7.54z"/><path fill="#103464" d="M13.64 133.8a1.58 1.58 0 100-3.17 1.58 1.58 0 000 3.17z"/></svg>