<svg xmlns="http://www.w3.org/2000/svg" fill="none" viewBox="0 0 101 35">
  <path fill="#fff" d="M98.43 31.93c-.73-.66-1.66-2.28-2.8-4.85l-5.2-11.83c3.58-.04 5.8-.04 5.8-.04-11.1-2.57-43.2-.83-43.2-.83C13.37 16.88 0 33.68 0 33.68h10.65c2.55-3.06 5.98-5.6 9.96-7.74l1.08 2.48c.45 1.07.7 1.68.73 1.83.1.3.14.6.15.9 0 .49-.18.86-.54 1.12-.52.36-1.42.54-2.7.54h-.65v.9h15.94v-.9a3.8 3.8 0 01-2.33-.88c-.73-.66-1.66-2.28-2.8-4.85l-1.9-4.33c4.22-1.66 8.77-3.05 13.35-4.28.8-.21 1.74-.42 2.79-.6 1.31.88 3.14 1.9 5.48 3.06a28.48 28.48 0 014.47 2.57 7.19 7.19 0 011.88 2.08c.4.68.62 1.47.62 2.26 0 1.32-.54 2.47-1.61 3.46a6.17 6.17 0 01-4.34 1.49c-2.35 0-4.54-.92-6.58-2.77-2.03-1.84-3.4-4.51-4.12-8.02h-.9v12.46h.9c.3-.66.68-1.16 1.15-1.49.47-.32.91-.49 1.33-.48.5 0 1.15.16 1.92.48 1.4.6 2.55.99 3.48 1.2.96.22 1.95.32 2.94.32 3.3 0 6.03-1 8.18-2.99a9.37 9.37 0 003.22-7.12c0-2.17-.67-4.1-2-5.8a12.59 12.59 0 00-2.38-2.2c6.1-.42 12.85-.69 18.98-.86L71.5 26.36c-1.12 2.51-2.06 4.17-2.82 4.98-.76.8-1.73 1.29-2.92 1.47v.9h10.96v-.9c-1.71-.13-2.8-.33-3.23-.59a2.22 2.22 0 01-1.12-2.04c0-.7.23-1.59.68-2.66l.6-1.37 3.31-7.41 1.46-3.27 3.76-.1 2.56 5.95.01.02 3.08 7.08c.45 1.07.7 1.68.73 1.83.1.29.14.6.14.9 0 .49-.17.86-.53 1.12-.52.36-1.42.54-2.7.54h-.65v.9h15.94v-.9a3.8 3.8 0 01-2.33-.88z"/>
  <path fill="#fff" d="M40.69 15.76c3.69-.59 7.67-1.04 11.96-1.32l.52-.03-1.22-.64a50.11 50.11 0 01-5.27-2.96 8.44 8.44 0 01-2.26-2.35 4.26 4.26 0 01.94-5.2 5.45 5.45 0 013.92-1.37c2.14 0 4.13.87 5.97 2.62 1.83 1.74 2.99 4.05 3.46 6.91h1L59.44 0h-.73a4.76 4.76 0 01-.68 1.95c-.25.27-.58.4-1 .4-.44 0-1.2-.27-2.3-.82A11.95 11.95 0 0048.83 0a9.9 9.9 0 00-10.17 9.85 9.25 9.25 0 002.03 5.91zM80.34 11.2l.96 2.22a139 139 0 018.5.45L83.76.07h-.46l-5.95 13.28c.69 0 1.36.02 2.03.03l.97-2.18zM7.5 26.21l3.32-7.4 3.38-7.61 4.28 9.9c2.2-.89 4.6-1.75 7.24-2.55L17.6.07h-.47L5.36 26.42c-.48 1.07-.92 2-1.34 2.75a49 49 0 013.18-2.25l.3-.7z"/>
</svg>
