<svg xmlns="http://www.w3.org/2000/svg" fill="none" viewBox="0 0 140 140"><path fill="#E0E0E0" fill-rule="evenodd" d="M59.76 44.02a7.4 7.4 0 01-.24.02l-33.36-.02a.16.16 0 110-.31l31.54.01a7.11 7.11 0 112.06.3zm0-13.9a6.8 6.8 0 100 13.59 6.8 6.8 0 000-13.6zM82.83 52.22h-.08-.01a9.11 9.11 0 112.51-.32h25.87c.04 0 .08 0 .1.04a.16.16 0 01-.1.27l-28.2.01h-.09zm-4.79-16.35a8.7 8.7 0 119.67 14.48 8.7 8.7 0 01-9.67-14.48zM110.37 115.47l-34.05.02H76a9.24 9.24 0 112.39-.32l31.97-.01c.04 0 .08.02.1.04.04.03.06.07.06.12 0 .04-.02.08-.05.1a.16.16 0 01-.11.05zM71.1 98.9a8.83 8.83 0 119.82 14.69 8.83 8.83 0 01-9.82-14.7zM26.16 86.85l37.78.01a12 12 0 10-1.45-.32H26.16a.16.16 0 100 .3zm39.6-23.32a11.47 11.47 0 100 22.94 11.47 11.47 0 000-22.94z" clip-rule="evenodd"/><path fill="#E0E0E0" d="M100.22 77.36c-1.25 1.04-1.96 1.51-3.13 2.64V69.06c2.32-1.4 4.54-1.5 7.23-1.29 2.33.19 4.56 1.04 6.43 2.46a64.18 64.18 0 00-10.52 7.13z"/><path fill="#E0E0E0" d="M106.08 90.27c-3.05 1.26-5.74 1.45-8.99 1.83V81.04a58.77 58.77 0 0113.98-10.15.3.3 0 00.18-.25 10.94 10.94 0 011.95 14.65c-1.74 2.36-4.41 3.86-7.13 4.98z"/><path fill="#103464" fill-rule="evenodd" d="M58.6 40.09c.4.17.84.26 1.28.25.52.03 1.04-.07 1.53-.28a.29.29 0 00-.23-.53c-.4.18-.85.27-1.3.24a2.55 2.55 0 01-2.58-2.83 3.21 3.21 0 013.13-2.88c.87 0 1.57.26 2.03.77.44.48.64 1.14.57 1.91-.06.67-.32 1-.53 1.16a.69.69 0 01-.5.16c-.31-.06-.48-.37-.44-.83l.16-1.72a.29.29 0 00-.57-.05l-.02.16a1.43 1.43 0 00-1.02-.42 1.58 1.58 0 00-1.14.5 1.96 1.96 0 00-.46 1.88c.07.22.18.43.34.6a1.36 1.36 0 001.01.45 1.68 1.68 0 001.28-.58c.17.34.48.52.76.57a1.25 1.25 0 00.95-.27c.3-.23.67-.68.75-1.56a3.03 3.03 0 00-.72-2.35 3.2 3.2 0 00-2.45-.95 3.79 3.79 0 00-3.7 3.4 3.12 3.12 0 001.86 3.2zm.41-3.15c.06-.66.54-1.17 1.1-1.17a.86.86 0 01.64.28 1.1 1.1 0 01.26.84c-.07.8-.63 1.17-1.15 1.17a.79.79 0 01-.6-.26 1.12 1.12 0 01-.25-.86z" clip-rule="evenodd"/><path fill="#103464" d="M76.19 106.9c.06.06.14.09.23.09.08 0 .16-.03.22-.08l3.35-2.6a.38.38 0 00.14-.25.37.37 0 00-.33-.41.37.37 0 00-.27.07l-3.11 2.42-3.12-2.42a.37.37 0 10-.46.59l3.35 2.6z"/><path fill="#103464" fill-rule="evenodd" d="M72.52 110.33h7.8a1.3 1.3 0 001.3-1.3v-5.57a1.3 1.3 0 00-1.3-1.3h-7.8a1.3 1.3 0 00-1.3 1.3v5.57a1.3 1.3 0 001.3 1.3zm-.4-7.27c.1-.1.25-.16.4-.16h7.8a.56.56 0 01.55.56v5.57a.56.56 0 01-.56.56h-7.8a.56.56 0 01-.55-.56v-5.57c0-.15.06-.3.16-.4z" clip-rule="evenodd"/><path fill="#103464" d="M84.27 42.53a.66.66 0 11-1.31 0 .66.66 0 011.31 0zM82.4 42.53a.66.66 0 11-1.3 0 .66.66 0 011.3 0zM86.14 42.53a.66.66 0 11-1.32 0 .66.66 0 011.32 0z"/><path fill="#103464" fill-rule="evenodd" d="M80.08 48.4a.55.55 0 00.57-.03l1.62-1.1a4.74 4.74 0 10-1.8-1l-.62 1.42a.55.55 0 00.23.7zm1.18-8.96a4.06 4.06 0 111.06 7.16l-.15-.05-1.57 1.06.69-1.52-.2-.16a4.06 4.06 0 01.17-6.5zM70.24 76.67c-.3-.3-.64-.46-1-.46-.37 0-.71.16-1.01.46l-.94.93-.06-.03a19.9 19.9 0 00-.09-.05l-.06-.03h-.01l-.3-.16a10.15 10.15 0 01-2.43-2.22 5.98 5.98 0 01-.8-1.26l.63-.6.06-.07.12-.13.07-.07.06-.05c.62-.62.62-1.43 0-2.05l-.81-.8-.27-.29-.56-.55a1.4 1.4 0 00-.99-.43c-.36 0-.7.15-1 .43l-.01.01-1 1.01c-.38.38-.6.84-.65 1.38-.07.86.19 1.66.38 2.19.48 1.3 1.2 2.49 2.26 3.77a13.9 13.9 0 004.63 3.63 7.22 7.22 0 002.79.77c.68 0 1.25-.25 1.7-.73l.01-.01c.15-.18.31-.34.48-.5l.04-.04.39-.38c.29-.3.44-.66.44-1.03 0-.36-.15-.71-.45-1l-1.62-1.64zm1.05 3.11l-.29.3-.07.06c-.19.19-.38.38-.57.6-.3.31-.65.47-1.1.47h-.14a6.4 6.4 0 01-2.3-.7 13.12 13.12 0 01-4.37-3.41 12 12 0 01-2.13-3.55A4.22 4.22 0 0160 71.7c.03-.34.16-.63.4-.88l1.02-1c.14-.14.3-.21.45-.21.18 0 .33.11.43.2v.01c.19.17.36.35.54.53l.06.06.15.16.07.07.8.8c.32.32.32.6 0 .92l-.08.09-.17.17c-.25.25-.48.49-.74.72l-.02.01c-.25.26-.2.5-.15.67l.01.03c.21.5.5.99.95 1.56.82 1 1.68 1.79 2.63 2.39l.37.2.29.15.02.01.01.01c.1.05.2.08.3.08.24 0 .4-.16.44-.2l1.02-1.02c.1-.1.26-.22.44-.22s.34.11.43.22l1.63 1.63c.3.3.3.61 0 .92z" clip-rule="evenodd"/><path fill="#103464" d="M66.74 71.33a3.77 3.77 0 013.1 3.1c.03.2.2.33.39.33h.06a.4.4 0 00.33-.47 4.56 4.56 0 00-3.74-3.75.4.4 0 00-.46.33.4.4 0 00.32.46z"/><path fill="#103464" d="M73.16 74.18a7.5 7.5 0 00-2.11-4.07 7.5 7.5 0 00-4.06-2.1.4.4 0 10-.13.78 6.71 6.71 0 015.5 5.52.4.4 0 00.46.32h.01a.4.4 0 00.33-.45z"/><path fill="#103464" fill-rule="evenodd" d="M97.92 41.12h-.6V24.57A9.57 9.57 0 0087.73 15H52.69a9.58 9.58 0 00-9.58 9.57v90.76a9.57 9.57 0 009.58 9.58h35.05a9.57 9.57 0 009.57-9.58V52.9h.6V41.12zm-9.8-23.63h-4.57a3.4 3.4 0 01-3.15 4.68H60.32a3.4 3.4 0 01-3.14-4.68H52.9a7.15 7.15 0 00-7.16 7.15v90.63a7.15 7.15 0 007.16 7.15h35.21a7.15 7.15 0 007.15-7.16V24.64a7.15 7.15 0 00-7.15-7.15z" clip-rule="evenodd"/><path fill="#103464" d="M110.33 117.53a2.21 2.21 0 100-4.43 2.21 2.21 0 000 4.43zM112.33 54.42a2.21 2.21 0 100-4.42 2.21 2.21 0 000 4.42zM26.21 46.24a2.21 2.21 0 100-4.43 2.21 2.21 0 000 4.43zM26.21 89.06a2.21 2.21 0 100-4.42 2.21 2.21 0 000 4.42z"/></svg>