<svg xmlns="http://www.w3.org/2000/svg" fill="none" viewBox="0 0 140 140"><path fill="#E0E0E0" fill-rule="evenodd" d="M58.48 82.83l-13.1-5.96v-.41l-.5.18 13.6 6.2zm7.4-58.77l7.4 20.47H47.66l4.61-1.68a2.36 2.36 0 00-1.6-4.43l-9.72 3.53a2.35 2.35 0 001.6 4.44l3.08-1.12a1.6 1.6 0 00-.26.86v6.55l-8.17 2.98a2.35 2.35 0 00-.94 3.8 2.35 2.35 0 002.54.63l6.57-2.39v4.31l-5.19 1.9a2.35 2.35 0 001.6 4.43l3.6-1.3v4.4l-2.19.8a2.36 2.36 0 00-1.41 3l-11.02-5.01-.17-.5-10.5-29.02a1.61 1.61 0 01.96-2.05L63.83 23.1a1.6 1.6 0 012.05.96zm54.13 42.68a14.74 14.74 0 01-13.54 14.67l-.37.02V67.47a.94.94 0 00-1.33-.86l-.16-.34c.17-.08.36-.12.55-.12l-10.72-9.26.26-.28a14.66 14.66 0 0125.31 10.13z" clip-rule="evenodd"/><path fill="#103464" fill-rule="evenodd" d="M70.17 35.9l9.97 8.63H46.97a1.6 1.6 0 00-1.6 1.6v30.33l-22.41-10.2a1.14 1.14 0 00-.24-.07l5-4.37-.13-.38-5.44 4.73a1.32 1.32 0 00-1.05 1.3v47.37a1.33 1.33 0 001.32 1.32h82.74a1.32 1.32 0 001.31-1.32V67.47c0-.35-.13-.68-.37-.93l-.02-.07a.18.18 0 00-.05-.06L94.08 56.08v-9.95a1.6 1.6 0 00-1.6-1.6H80.72L69.9 35.18l.27.73zm34.98 30.25l-11.07-9.58v14.49l10.53-4.8c.17-.07.36-.11.55-.11zm-.38.46a.94.94 0 01.96.11l.02.02a.94.94 0 01.35.73v47.37a.94.94 0 01-.94.94H22.42a.94.94 0 01-.94-.94V67.47a.95.95 0 01.73-.92c.03 0 .07 0 .1-.02h.1c.14 0 .27.02.4.08L63.23 85a1.32 1.32 0 001.09 0l40.44-18.39zM84.6 75.37a2.33 2.33 0 00-1.52-.57h-26.7a2.35 2.35 0 00-2.36 2.36 2.36 2.36 0 002.35 2.36h19.1l9.13-4.15zm-18.27 8.3h-5.1l2.17.98.04.02a.94.94 0 00.73-.02l2.16-.98zM77.1 55.98a2.36 2.36 0 00-2.2-1.55H64.55a2.35 2.35 0 00-2.35 2.36 2.37 2.37 0 002.35 2.36H74.9a2.35 2.35 0 002.2-3.17zm5.98 10.05h-26.7a2.35 2.35 0 00-2.36 2.36 2.36 2.36 0 002.36 2.36h26.7a2.35 2.35 0 002.35-2.36 2.36 2.36 0 00-2.35-2.36z" clip-rule="evenodd"/></svg>