<svg xmlns="http://www.w3.org/2000/svg" fill="none" viewBox="0 0 140 140"><path fill="#E0E0E0" d="M117.74 64.73v.2a7.18 7.18 0 01-7.18 7.2h-81.1a7.18 7.18 0 01-7.19-7.2v-.2h95.47z"/><path fill="#103464" d="M31.46 29.38a10.17 10.17 0 005.38 1.58c.77 0 1.54-.1 2.3-.28l.22-.06-.06-.22c-1.21-5.02-6.88-8.59-11.9-7.48l-.63.11.05.23c.5 2.31 2.29 4.66 4.64 6.12zM94.83 50.26h4.56a1.14 1.14 0 100-2.28h-4.56a1.14 1.14 0 000 2.28zM94.83 53.9h4.56a1.14 1.14 0 100-2.28h-4.56a1.14 1.14 0 000 2.28zM94.83 57.55h4.56a1.14 1.14 0 100-2.28h-4.56a1.14 1.14 0 000 2.28zM102.81 50.26h4.56a1.14 1.14 0 000-2.28h-4.56a1.14 1.14 0 100 2.28zM102.81 53.9h4.56a1.14 1.14 0 000-2.28h-4.56a1.14 1.14 0 100 2.28zM102.81 57.55h4.56a1.14 1.14 0 000-2.28h-4.56a1.14 1.14 0 100 2.28z"/><path fill="#103464" fill-rule="evenodd" d="M95.68 60.48c-1.3 0-2.35-.39-3.1-1.16-1.68-1.73-1.57-5.08-1.49-7.77.03-.78.05-1.52.03-2.14a4.59 4.59 0 014.56-4.57h10.86c1.3 0 2.34.38 3.09 1.15 1.68 1.74 1.58 5.08 1.5 7.77-.03.78-.05 1.52-.03 2.14a4.59 4.59 0 01-4.57 4.58H95.68zm-4.1-11.08c.02.63 0 1.38-.03 2.17-.08 2.6-.19 5.84 1.36 7.44.67.68 1.57 1.01 2.77 1.01h10.85a4.13 4.13 0 004.11-4.1c-.02-.64 0-1.38.03-2.18.08-2.6.18-5.84-1.37-7.43a3.64 3.64 0 00-2.76-1.02H95.68a4.13 4.13 0 00-4.1 4.11zM27.1 54.98a3.78 3.78 0 003.49 1.88h14.46a3.81 3.81 0 003.5-1.88 4.73 4.73 0 000-4.64 3.8 3.8 0 00-3.5-1.89H30.6a3.8 3.8 0 00-3.5 1.89 4.73 4.73 0 000 4.64zm.4-4.41a3.35 3.35 0 013.02-1.66H45.06a3.37 3.37 0 013.1 1.66 4.27 4.27 0 010 4.18 3.36 3.36 0 01-3.1 1.66H30.59a3.35 3.35 0 01-3.1-1.66 4.26 4.26 0 010-4.18z" clip-rule="evenodd"/><path fill="#103464" fill-rule="evenodd" d="M110.22 72.25h-80.7A7.53 7.53 0 0122 64.73v-39.2A7.53 7.53 0 0129.52 18h80.7a7.53 7.53 0 017.52 7.52v39.21a7.53 7.53 0 01-7.52 7.52zm-80.7-53.8a7.07 7.07 0 00-7.06 7.07v8.54h94.83v-8.54a7.08 7.08 0 00-7.07-7.06h-80.7zm87.77 16.06H22.46v30.22a7.07 7.07 0 007.06 7.07h80.7a7.07 7.07 0 007.07-7.07V34.51z" clip-rule="evenodd"/><path fill="#103464" d="M67.65 96.23c-.72-1.04-4.18.1-7.73 2.57-3.54 2.46-5.83 5.3-5.1 6.34.72 1.04 4.18-.1 7.72-2.57 3.55-2.46 5.84-5.3 5.11-6.34z"/><path fill="#103464" fill-rule="evenodd" d="M51.42 118.95a2.53 2.53 0 01-3.51-.67l-8.62-12.47a2.58 2.58 0 01.65-3.58l.15-.08A78.45 78.45 0 0070.73 80.8l.13-.11a2.56 2.56 0 013.57.64l5.46 7.9a82.11 82.11 0 004.97-5.14l.13-.12a2.56 2.56 0 013.57.64l8.63 12.48a2.55 2.55 0 01.39 2.05c-.14.6-.5 1.13-.99 1.49a119.73 119.73 0 01-31.05 21.6 2.55 2.55 0 01-3.51-.67l-4.15-6c-2.12 1.2-4.27 2.33-6.46 3.4zm7.73-4.1l4.07 5.88a1.11 1.11 0 001.54.28l.1-.05a118.3 118.3 0 0030.76-21.41l.1-.08a1.12 1.12 0 00.28-1.55l-8.64-12.48a1.11 1.11 0 00-1.48-.32 83.5 83.5 0 01-5.16 5.32l2.33 3.36a2.55 2.55 0 01.4 1.99l-.01.06c-.14.6-.49 1.13-.99 1.5l-1.8 1.72-.1.08.27-.03a1.17 1.17 0 011.05.38c.72 1.06-1.58 3.93-5.13 6.42-3.38 2.36-6.67 3.53-7.61 2.76a.67.67 0 01-.14-.14 125.7 125.7 0 01-9.84 6.3zm-9.74 2.9a1.12 1.12 0 001.24-.02l.1-.05a124.25 124.25 0 0018.45-11.07c2.89-2.09 5.63-4.3 8.25-6.6a101.1 101.1 0 004.04-3.74l.09-.08a1.14 1.14 0 00.28-1.55l-8.62-12.48a1.1 1.1 0 00-1.48-.32 79.93 79.93 0 01-31.06 21.63c-.21.17-.35.4-.4.67a1.1 1.1 0 00.18.84l8.62 12.47c.09.12.2.23.31.3z" clip-rule="evenodd"/></svg>