<svg xmlns="http://www.w3.org/2000/svg" fill="none" viewBox="0 0 705 353"><path fill="#fff" d="M699.78 300.27a1.09 1.09 0 00-.99-.08c-.1 2.38-.26 4.16-.47 5.35-.37 1.9-1.04 3.5-2.02 4.8l-2.73 1.67c.48.24.78.4.91.51.32.24.54.56.67.96-.18.68-.52 1.3-1.02 1.82-.32.3-.83.7-1.55 1.23-.42.08-.8 0-1.14-.24a3 3 0 00-.95-.79c-.3.63-.8.93-1.5.87a6.05 6.05 0 00-1.78.04c-2.14 1.56-5.5 3.7-10.09 6.39a120.29 120.29 0 00-10.24 6.38c.66.59 1.04.92 1.15 1 .47.29.97.45 1.5.47 2.22-.69 4.67-2.2 7.36-4.52a13.02 13.02 0 016.2-2.97c.48-1.2 1.6-2.3 3.37-3.3 1.95-1.13 3.18-2.13 3.71-2.97 1.58.4 3.18.16 4.79-.72.9-.5 2.13-1.28 3.71-2.34.3-.26.57-.72.83-1.38.24-.59.54-.98.91-1.2 1.7-.23 3.22-1.36 4.59-3.37l-1.5.2c-.53.08-1 0-1.38-.24-2.27-2.09-2.77-4.39-1.5-6.9-.46-.4-.73-.62-.84-.67zm-6.2 11.74c-.03-.03-.06-.04-.09-.04v.08l.08-.04zM444.77 20.53c.16-.23.1-.46-.16-.67-.19-.13-.33-.2-.44-.2-.15-.03-.3.08-.43.32.1.08.25.22.43.43.19.16.39.2.6.12zM569.33 154.7c-.2 0-.66.05-1.34.16-1.1.9-1.41 1.91-.91 3.05.97.35 1.94.13 2.89-.63.31-.53.51-.89.59-1.07.16-.43.2-.85.12-1.27a2.91 2.91 0 00-1.35-.24zm-66.27 35.26c.27.3.58.48.95.56 1.9-.95 2.61-2.33 2.14-4.13-.45-1.66-1.74-3.25-3.88-4.76v7.22c.32.53.58.9.8 1.11zm45.28 8.97a6.73 6.73 0 00-2.89-2.5 140.74 140.74 0 00-5.85-2.9c-.42-.08-.87.08-1.35.48.5.37 1.25.84 2.26 1.43a4 4 0 011.66 1.74 7.32 7.32 0 001.98 2.74 16.7 16.7 0 002.76 1.94c-.1.3-.06.61.12.96.08.18.24.44.48.79 2.24 4.02 3.74 7.5 4.5 10.43a10.3 10.3 0 003.29 5 28 28 0 005.06 3.33c.1.05.25.07.43.04l.52-.12.9-.99c.35-.45.63-.91.84-1.39-.53-.69-.61-1.52-.24-2.5.6-1.43.92-2.2.95-2.34a16.09 16.09 0 01-3.13-3.05c-1.1-1.38-2.08-2.24-2.92-2.58-.3-.4-.37-.85-.24-1.35.1-.5.1-.83 0-1a13.11 13.11 0 00-4.63-4.08c-1.92-1-3.42-2.36-4.5-4.08zm20.6 26.65a7.73 7.73 0 00-2.73-1.7 5.57 5.57 0 00-3.64.12c.48.45 1.21.87 2.21 1.27.9.34 1.5.71 1.79 1.1.92 1.25 2.4 1.91 4.42 2 1.27.02 2.7.18 4.27.47.56.1 1.94.4 4.16.9 2.79.59 4.3.88 4.5.88a6.19 6.19 0 004.31-1.03c1.87.71 3.26 1.07 4.16 1.07.92 0 1.68-.36 2.29-1.07-1.6-.08-3.63-.49-6.05-1.23a6.78 6.78 0 01-4.5.4 49.42 49.42 0 00-4.16-1.15c-.32-.37-.33-.8-.04-1.27.29-.5.33-.88.12-1.11-.37-.19-.9-.19-1.58 0a3.1 3.1 0 01-1.58.12 3.55 3.55 0 01-1.2-.68c-.44-.37-.8-.53-1.1-.47-.29.05-.67.3-1.14.75-.4.4-.88.6-1.43.63h-3.08zm21.75-98.33v.44l.08-.16c.07-.08.05-.18-.08-.28zm1.93 13.53c-.6.5-1.04 1.2-1.3 2.1-.06.18-.25 1.04-.6 2.58l1.2 1.7c.1.13.3.3.62.48 1.75-3.04 1.77-5.33.08-6.86zm12.06 33.04a5.8 5.8 0 01-1.02-.24c-.32-.1-.56-.28-.72-.52.13.88.65 1.72 1.55 2.54a12.73 12.73 0 012.37 2.62c.1-1.4 0-2.4-.32-3.01-.31-.61-.93-1.07-1.86-1.4zm-.31 8.05c.26-.18.55-.53.87-1.03a16.13 16.13 0 00-1.94-2.62 4.56 4.56 0 00-2.5-1.35l-.35-.08c-.2.8-.09 1.58.36 2.34.13.24.29.47.47.68 1.03 1.16 1.58 1.93 1.66 2.3.58.1 1.06.02 1.43-.24zm3.48-.16c.16.53.16.95 0 1.27a3.84 3.84 0 01-2.5 1.83c-.15.05-.44 0-.86-.16-.45-.13-.8-.2-1.07-.2l-2.18 2.62a22.1 22.1 0 002.26-.36c.74-.05 1.34.08 1.82.4.23.31.4.78.47 1.39.08.58.21.97.4 1.18l2.21 2.5c.24-.34.3-.83.2-1.46-.13-.66-.1-1.18.12-1.55.02-.08.29-.19.79-.32.45-.13.74-.4.87-.83-.53-1.8-.69-3.77-.48-5.91l-.83-1.2a1.75 1.75 0 00-1.38-.5c-.06.26 0 .7.16 1.3zm-1.19 23.96a4.87 4.87 0 001.7-2.46c-.4.16-1.12.5-2.17 1.03-.77.4-1.4.62-1.9.68-.27.05-.89-.03-1.86-.24a4.87 4.87 0 00-2.17.08 8.68 8.68 0 002.02 1.27c.33.16.98.4 1.93.75a7.64 7.64 0 002.45-1.1zM623.9 209c-.6.08-1.36.32-2.25.72.1.9.75 1.61 1.93 2.14 1.22.58 1.91 1.19 2.1 1.82.1.38.2.96.28 1.75.13.69.44 1.19.94 1.5 1.2.27 2.7.76 4.55 1.47 2.38.93 3.88 1.49 4.51 1.67 1.3.42 2.25 1.47 2.89 3.13a8 8 0 01.35 1.59c.13.6.3 1.06.52 1.35-.06.34-.3.73-.75 1.15-.4.4-.61.78-.64 1.15h2.3c2.37 1.24 3.6 1.88 3.67 1.9 1.4.56 2.7.68 3.92.36.45-.24 1.3-.96 2.57-2.18 1-.93 1.98-1.45 2.93-1.59.36.27.93.66 1.7 1.2.66.47 1.13.96 1.42 1.46 1.58 2.67 4.15 4.26 7.7 4.76.06-.48-.06-.88-.35-1.23a9.94 9.94 0 00-.99-.91 23.68 23.68 0 01-2.68-2.58 10.27 10.27 0 01-1.9-3.25l-.12-.72c.05-.1.36-.4.9-.91.35-.37.47-.75.36-1.15-.28-.58-.93-1-1.93-1.27-1.08-.32-1.8-.69-2.14-1.1-.08-.11-.28-.56-.6-1.36a4.27 4.27 0 00-.94-1.55 125.94 125.94 0 00-7.87-4.28 23.96 23.96 0 00-8.58-2.5 14.2 14.2 0 00-2.69 2.38 10.94 10.94 0 01-2.37 2.14c-.9-.13-1.67-.68-2.34-1.66-.81-1.22-1.42-1.93-1.81-2.14-.08-.27-.16-.81-.24-1.63a3.75 3.75 0 00-.4-1.35c-.34.1-.59.17-.75.2-.26.03-.54-.03-.83-.16a4.5 4.5 0 00-2.37-.32zm-30.17-15.7a120.66 120.66 0 00-2.25-2.43c-.9-.87-1.78-1.62-2.65-2.26a9.55 9.55 0 01-2.38 4.05c-.87.9-2.08 1.82-3.63 2.78-.4.26-.66.51-.8.75-.97 1.72-2.75 3.17-5.33 4.36-.13.19-.41.73-.83 1.63-.32.66-.7 1.12-1.15 1.39-.18.03-.54-.03-1.07-.16-.42-.16-.7-.17-.87-.04a4.5 4.5 0 00-1.34 1.27c-.24.37-.42.83-.55 1.39.07.37.17.92.27 1.66.13.61.32 1.05.56 1.31a5.85 5.85 0 011.42 5.95c1.08 1.06 2.06 1.47 2.92 1.23.7-.2 1.41-.23 2.18-.08.32.06 1.01.24 2.1.56 1.02.34 2.54.78 4.54 1.3.85-.2 1.45-.59 1.82-1.14.3-.48.42-1.1.4-1.87-.03-.76.01-1.36.12-1.78.13-.64.42-1.17.87-1.59a8.13 8.13 0 002.6-5.6c.11-.3.43-.56.96-.75.55-.18.86-.44.94-.79a4.56 4.56 0 00-1.02-1.9 5.75 5.75 0 01-1.03-1.9c0-1.17.4-2.45 1.18-3.85 1.32-2.23 2-3.39 2.02-3.5zm4 11.82c.39-.27.67-.68.82-1.24-.6 0-1.06.16-1.38.48-.26.24-.55.7-.87 1.39.4-.16.87-.37 1.42-.63zm3.08 23.95c-.87.11-1.62.55-2.25 1.31.68.3 1.43.43 2.25.4.42-.03.87-.1 1.34-.2l3.36-.83a4.9 4.9 0 01-1.74-.2c-.76-.21-1.34-.36-1.74-.44-.42-.07-.82-.09-1.22-.04zm7.9-.07c-.1.02-.38.13-.82.31v1.79c.18-.35.54-.7 1.06-1.07.48-.32.76-.65.83-1-.34-.1-.7-.11-1.06-.03zm-2.45 2.61l-2.33 1.67c1.06-.08 1.83-.64 2.34-1.67zm58.76 2.98c-.05-.13-.13-.2-.23-.2h-.12l.35.2zM314.32 55.92c-.57-.11-.97-.3-1.18-.56-.13-.08-.18-.34-.15-.8.02-.41-.19-.7-.64-.86a2.5 2.5 0 00-2.1.79c-.2.21-.68.85-1.42 1.9-.37.5-.5 1.2-.4 2.1.12 1.06.09 1.78-.07 2.15l1.62.63c.05.13.04.38-.04.75-.05.27.05.47.32.6.24.1.6.13 1.1.08.48-.03.83.04 1.07.2.48.77.74 1.24.8 1.43.26.55.36 1.08.3 1.58-.15.32-.47.6-.94.84-.55.29-.92.55-1.1.79.15.63-.02 1.18-.52 1.63-.08.07-.6.42-1.58 1.03.2.16.67.3 1.38.43.5.06.83.3.99.76-.03.23-.4.55-1.1.95-.61.34-.79.84-.52 1.5a6.2 6.2 0 002.53-.55 7.3 7.3 0 012.65-.6l2.88.24a4.1 4.1 0 002.81-1.07c-.13-.42-.02-1.02.32-1.78.37-.77.5-1.38.4-1.83l-.16-.28c-.14-.18-.41-.27-.83-.27-.45-.03-.77-.14-.95-.32a19.32 19.32 0 00-2.34-4.28l-2.92-3.77c-.06-.45.1-.95.47-1.5.34-.54.48-.97.4-1.32-.16-.32-.52-.51-1.07-.6zm107.44-29.67c-.1-.19-.35-.27-.75-.24l.91.63c-.05-.18-.1-.32-.16-.4zm.16.4v.07l.04-.04-.04-.04zM190.68 3.94c-.6.35-1.45.89-2.53 1.63a3.4 3.4 0 01-2.88.28c-.03.37-.06.84-.08 1.42 0 .48.1.9.31 1.27.61.48.97.74 1.07.8.45.26.91.4 1.39.4.23.05.63-.1 1.18-.44.5-.27.92-.3 1.27-.12.52.4.62.84.27 1.35-.47.68-.7 1.1-.7 1.23 1.2-.06 3 0 5.37.2 2.06.05 3.77-.2 5.14-.76l1.5.56 4.51-1.9a33.65 33.65 0 004.3-2.23c1.57-.9 3.1-1.48 4.64-1.74a42.92 42.92 0 007.47-2.07c.6-.16 1.15-.22 1.62-.2 1 .03 2.12-.14 3.36-.51.77-.21 1.86-.57 3.28-1.07-2.21-.24-5.36-.3-9.45-.2-4.32.1-7.46.08-9.4-.08a1.66 1.66 0 00-.84.04c-1.42.6-3.1 1.02-5.06 1.23l-5.18.4c-2.4.2-4.18.37-5.34.47-2.08.16-3.82.17-5.22.04zm-4.23 9.6c.27-.5.3-.91.08-1.23-1.6.58-2.8.94-3.6 1.07-1.42.24-2.53-.3-3.32-1.62h-1.86c-.66.05-1.2.3-1.62.75-.18.16-.33.56-.43 1.2-.1.57-.36 1-.75 1.26-1.3.29-2.34.2-3.13-.28l-.87-2.02c-.6-.1-1.05-.2-1.34-.28-.5-.08-.88-.08-1.15 0a3.3 3.3 0 00-1.1.91c-.2.24-.44.57-.76 1 .6.52 1.11.84 1.5.95.96.31 2.22.5 3.8.55 1.8.1 2.98.23 3.56.36.63-.18 1.2-.62 1.7-1.31.58-.8 1-1.25 1.27-1.39.76-.08 1.3.14 1.62.64.05.1.25.6.59 1.5 1.3.38 2.65.6 4.07.68 1.14.05 2.48.04 4.04-.04 4.27-.24 6.78-.58 7.55-1.03a8.05 8.05 0 00-4.9-1.15c-.14 0-1.76.25-4.87.75-.29-.37-.31-.8-.08-1.27zm4.4 18.84c.76-.45 1.18-1.05 1.26-1.82-.8.08-1.37.14-1.74.2-.66.1-1.16.37-1.5.8l.86.55c.4.18.77.27 1.11.27zm93.35 4.13a4.82 4.82 0 01-1.54-.71c-.61-.4-1.15-.59-1.62-.56a2.3 2.3 0 00-1.7 1.47c.29.37.65.6 1.1.71.21.03.66.04 1.35.04.18.77.72 1.5 1.62 2.22a5.55 5.55 0 011.7 1.79c1.24-.4 2.13-.62 2.69-.68 1.92-.16 4.28-.84 7.07-2.06.58-.24.9-.74.95-1.5a2.28 2.28 0 00-1.3-1.36c-1.3-.05-3.03.04-5.22.28a64.1 64.1 0 01-5.1.36zm22.93 29.4c.13-1.22.47-2.06 1-2.5a2.67 2.67 0 00-1.55-1.35c-.76-.14-1.33-.26-1.7-.36-.58.16-1.07.49-1.46.99-.35.58-.6 1-.8 1.23-.26.18-.73.29-1.42.32-.58.02-.97.22-1.19.6-.05.34.1.83.44 1.46.32.58.4 1.07.24 1.47-.08.24-.41.53-1 .87-.5.3-.76.63-.78 1.03.53.37.95.58 1.26.64.27.08 1 .11 2.18.11.4-.37 1.01-.7 1.86-.99l2.05-.71c.45-.53.74-1.47.87-2.82zm1.3 8.12v-.03c-.02.05-.04.07-.07.07v.04c.05.08.08.11.08.08.02-.02.02-.08 0-.16zm114.4 174.82c-.79.37-1.96.88-3.52 1.55-.74 1-1.2 2.02-1.38 3.05-.19 1-.13 2.13.16 3.37.68 2.97.2 5.5-1.47 7.62a6.2 6.2 0 00-1.14 3.73c-.03.9.06 2.24.27 4.04.03.27.16.54.4.83a8.55 8.55 0 003.83 2.26c1.8-.73 2.97-1.38 3.53-1.94.52-.55 1.06-1.7 1.62-3.45l.9-4c.38-1.64.78-2.95 1.23-3.93a20 20 0 001.15-4.37c.34-1.9.83-3.33 1.46-4.28.16-.26.22-.58.2-.95a17 17 0 01-.16-.95c-.08-.85.13-1.68.63-2.5l1.66-1.11c.19-2.51.23-4.09.12-4.72a6.06 6.06 0 00-1.66-2.86c-.76.77-1.58 1.77-2.45 3.02-.5.7-1.24 1.78-2.21 3.2a7.25 7.25 0 01-3.17 2.39zm197.08 53.67a1.2 1.2 0 00-.83.16c-.24.16-.44.27-.6.36.35.23.62.32.83.27.27-.05.46-.31.6-.8zm9.45 19.63a21.3 21.3 0 003.2-2.3c1-.98 1.6-2.11 1.82-3.4-.48-.2-1.44-.31-2.89-.37-1.21-.05-2.12-.4-2.73-1.03-.5 1.06-.92 2.25-1.26 3.57a38 38 0 00-.83 3.53h2.69zM134.57 13.36c.45.15 1.15.25 2.1.27.82.03 1.45.13 1.9.32.55.63 1.6 1.23 3.12 1.78 1.58.56 2.68 1.18 3.28 1.87a92.35 92.35 0 015.58-1.7c2.13-.51 4.04-.54 5.73-.09l.83-.51c.37-.21.6-.5.71-.88l-1.34-1.9c-.45.16-1.3.62-2.53 1.39a7.57 7.57 0 01-2.65 1.15c-.6-.19-1.54-.6-2.8-1.23a11.5 11.5 0 00-2.81-1.11c-.06-.27 0-.58.15-.95.21-.4.3-.76.24-1.07-1.56.02-3.47.38-5.73 1.07-3.2.92-5.12 1.45-5.78 1.58zm21.99-4.6a9.83 9.83 0 00-2.14 2.17c1.45-.4 2.4-.71 2.85-.95a14.3 14.3 0 002.17-2.06c-1.05 0-2.01.28-2.88.83zm12.81-1.32a4.02 4.02 0 002.69 2.03 5.7 5.7 0 003.72-.64 145.8 145.8 0 00-3.17-.91 12.64 12.64 0 00-3.24-.48zm11.31.08c-.5-.24-.96-.24-1.39 0-.1.06-.43.32-.98.8.34.6.64 1.03.9 1.27.43.4.92.58 1.47.55.55-.98.55-1.85 0-2.62zm-62.48 14.6c.56.82 1.14 1.32 1.74 1.5.64.25 1.45.22 2.46-.07 1.08-.32 2.49-1 4.23-2.02l1.02-.64c.42-.13.8-.05 1.11.24.21 1.03-.16 2.14-1.1 3.33-1.06 1.32-1.59 2.35-1.59 3.1 1.24.58 1.93.93 2.06 1.07.68.5 1.1 1.21 1.27 2.14a12.68 12.68 0 015.57-2.26c3.59-.64 5.52-1 5.81-1.11 1.13.18 2.02.27 2.65.27.4.03.9.15 1.5.36.82.3 1.3.45 1.43.48 1.03.29 1.99.2 2.88-.28a2.6 2.6 0 001.5-1.98 4.09 4.09 0 00-.55-1.11c-.26-.5-.37-.98-.31-1.43 1.03-1.54 1.29-2.97.79-4.29-1 .03-1.95.45-2.85 1.27a69.54 69.54 0 01-2.13 1.99c-.38-.14-.81-.46-1.3-.96a3.47 3.47 0 00-1.35-.9c-.56.02-1.39-.08-2.5-.29-1.18-.26-2.06-.4-2.64-.4a18.67 18.67 0 00-1.5-1.98 2.83 2.83 0 00-1.99-1.1 39.26 39.26 0 00-4.42-.24c-1.61.02-3.05.22-4.31.59-.5 1.45-1.61 2.5-3.33 3.13a46.74 46.74 0 00-4.15 1.59zm45.67-4.09c-.6.14-1.5.38-2.68.72-.19.13-.39.46-.6.99-.18.42-.43.7-.75.83-.18.13-.47.15-.87.04-.42-.13-.75-.1-.99.08l1.94 2.3c2.24-.6 4-1.32 5.26-2.14l1.46-2.42a3.75 3.75 0 00-2.77-.4zm2.97 23.37c.87-.08 1.46-.2 1.78-.36.32-.13.99-.55 2.02-1.27.58-.24 1.38-.04 2.4.6.98.58 1.81.68 2.5.31a5.89 5.89 0 00-1.98-2.61c-.45-.35-1.45-.96-3-1.83l-2.34 2.22a3.7 3.7 0 00-1.38 2.94zM.01 62.3c-.05.24.04.35.28.32.1 0 .17-.04.2-.12.05-.08.03-.16-.08-.24-.03-.02-.16 0-.4.04zm144.73 90.88c-.32-.32-.9-.67-1.74-1.07a4.62 4.62 0 01-1.66-1.15 10.33 10.33 0 00-4.83-3.13 24.63 24.63 0 00-6.52-1 1.1 1.1 0 00-.83.56c.45.24 1.63.66 3.56 1.27 1.42.45 2.47 1 3.16 1.63l1.07 3.76c2.08.3 3.62.39 4.62.28 1-.13 2.06-.52 3.17-1.15zM125 147.75l2.61-1.03c-1.2-.72-2.08-.38-2.6 1.03zm-.63.63l.56-.55c.02-.06.05-.08.07-.08h-.11l-.6.6.08.03zm-1.03.91c.35.06.6-.02.76-.23.08-.11.14-.3.2-.6l-.6.2a.6.6 0 00-.36.63zm29.07 6.15a6.7 6.7 0 01-1.47-.51c-.58-.24-1.09-.23-1.54.04-.23.23-.38.7-.43 1.42-.06.7-.25 1.17-.6 1.43-.15.1-.77.22-1.85.32-.85.1-1.47.51-1.86 1.23 2.53-.34 4.58-.16 6.16.55a4.96 4.96 0 013.37-1.66c1.76-.05 3.1-.19 4.03-.4a5.17 5.17 0 00-1.66-1.9c-.82-.48-1.37-.85-1.66-1.11a2.1 2.1 0 00-1.39.28c-.52.26-.9.37-1.1.31zM655.1 38.38v.04h.08l-.08-.04zm-262.64-1.07v.08c0-.02.02-.04.04-.04l-.04-.04zm-67.7 55.58a3.53 3.53 0 011.7-1.07 2.82 2.82 0 011.99.08c1.31.47 2.6.47 3.83 0 .63-.27 1.73-.93 3.28-1.99l1-.71a2.41 2.41 0 011.85.23c.37.27.74.75 1.1 1.43a14.37 14.37 0 007.52 7.03c2 .81 3.69 2.37 5.06 4.68a4.63 4.63 0 01-1.94 3.73c-.52.28-1.34.38-2.45.27-1.05-.1-1.9.04-2.53.44l4.07 1.94c.4-.16.7-.5.91-1.03a5.7 5.7 0 01.72-1.35 4.97 4.97 0 002.92-2.3c.24-.45.24-1.03 0-1.74-.29-.85-.4-1.45-.31-1.79.26-.6.67-.96 1.22-1.07.4-.1.91-.07 1.54.12-.07-.6-.5-1.03-1.26-1.27a19.22 19.22 0 01-11-9.52 5.46 5.46 0 01.2-2.14 5.8 5.8 0 011.59-1.47c.39-.05.75.2 1.06.75.98 1.8 2.34 3.43 4.08 4.88a30.74 30.74 0 005.3 3.5l1.1.63c.63.4 1.12.72 1.46.99a5.68 5.68 0 011.79 2.54c-.61 1.56-.4 2.9.63 4.04.55.7 1.64 1.6 3.28 2.74.2.43.46 1.14.75 2.14.4.88 1.12 1.35 2.18 1.43.13-.5.55-1.08 1.26-1.74a6.15 6.15 0 001.34-1.75l-2.01-2.38a2.7 2.7 0 01-.48-2.97c.45-.24.89-.22 1.3.07.59.37.93.57 1.04.6l1.3-1.55a2.35 2.35 0 012.26.04 3.2 3.2 0 011.42 1.95c.26.81.63 2.07 1.1 3.76a15.7 15.7 0 001.7 3.65c1.82.27 3.67 1.02 5.54 2.26 1-1.05 2.08-1.49 3.25-1.3.87.13 1.9.68 3.08 1.66a52.5 52.5 0 003.36-1.35 5.67 5.67 0 013.52-.4c1.08 3.23.75 6.43-.99 9.6a65.9 65.9 0 01-1.42 3.02 4.77 4.77 0 01-1.82 2.02c-.69.4-1.5.45-2.45.16-1.14-.29-2.39-.35-3.76-.2-.58.06-1.8.28-3.64.68-1.55.34-2.99.25-4.3-.28-.35-.13-2.3-.95-5.86-2.46a51.2 51.2 0 00-6.13-2.26c-1.47.37-2.49.73-3.04 1.07a6.82 6.82 0 00-1.86 2.14c-.1.35-.08.77.08 1.27.18.58.27 1 .27 1.23-.29.77-.9 1.25-1.85 1.43a1.14 1.14 0 01-.56-.16 7.64 7.64 0 00-1.74-1.07c-.9-.4-1.84-.58-2.85-.55a3.4 3.4 0 01-2.96-1.23c-2.11-2.41-4.94-3.76-8.5-4.05l-1.74-1.5c-.71-.56-1.39-1-2.02-1.32a11.32 11.32 0 001.1-3.96 6.95 6.95 0 00-.9-3.9 3.5 3.5 0 00-1.82-.67c-.29-.02-1-.03-2.14-.03-1.31.02-3.3.31-5.97.87-2.6.47-4.62.71-6.05.71-2.34 0-4.19.3-5.53.91-1.13.5-2.57 1.58-4.31 3.22-1.77.23-3.2.3-4.31.2-1.08-.11-2.24-.43-3.48-.96-.13-1.1-.1-1.89.08-2.34.2-.47.7-.87 1.5-1.19a13.1 13.1 0 013.4-1.03 7.5 7.5 0 006.25-5.23 14.2 14.2 0 012.1-4.2 8.94 8.94 0 013.6-2.87c.2-.1.44-.25.7-.43.24-.19.43-.32.56-.4.26-.34.42-.83.47-1.46.03-.7.12-1.18.28-1.47zm35.28-49.83c-.16.72-.15 1.52.04 2.42.13.53.37 1.29.71 2.27.24.79.71 1.36 1.42 1.7.7.34 1.48.44 2.38.28l6.72-1.35a5.5 5.5 0 011.82-.08c.6.08 1.13.4 1.58.95 0 .64-.22 1.17-.67 1.59-.32.29-.86.6-1.62.91-2.61-.6-5.2-.4-7.75.6l.16.4-.16.15c.23.16.59.39 1.06.68.4.26.7.57.91.9a6.2 6.2 0 01-.15 1.71c-.16.59-.52 1-1.07 1.23-.45 0-.92-.25-1.43-.75a3.13 3.13 0 00-1.42-.75c-.6.1-1.07.4-1.38.91-.19.26-.4.75-.63 1.47-.08.42 0 .94.27 1.54.24.66.34 1.2.32 1.59-.4.6-1.04 1.15-1.94 1.63a34.53 34.53 0 00-2.17 1.07c-.48 0-1-.2-1.59-.6-.6-.42-1.1-.67-1.5-.75l-5.81 2.38a2.08 2.08 0 01-1.47-.52l-1.02-.87c-.27-.03-.91.25-1.94.83-.8.45-1.52.32-2.17-.4.5-.31 1-.88 1.54-1.7.63-1 1.1-1.65 1.38-1.94l3.4.75c0-.95.5-1.61 1.5-1.98a8.38 8.38 0 001.5-.6c.5-.26.81-.58.91-.95.14-.48.15-1 .04-1.59a3.48 3.48 0 01-.11-1.26c.2-.83.8-1.57 1.78-2.23a24.3 24.3 0 002.45-1.7c-.3-.4-.8-.8-1.54-1.23a5.66 5.66 0 01-1.55-1.11c-.47-1.46-.58-2.54-.31-3.25.26-.72 1.28-2.06 3.04-4.01a7.96 7.96 0 011.74-.6 3.05 3.05 0 001.43-.83c.76-2.12 1.85-3.45 3.28-4 1.45-.56 3.06-.26 4.82.9-.55 1.01-1.69 2.07-3.4 3.18-1.74 1.16-2.87 2.17-3.4 3.02zm59.79 52.05c-.72-.48-1.32-1.5-1.82-3.1-.45-1.45-1.12-2.4-2.02-2.85.87-1.4 2.28-2.73 4.23-3.97a43.4 43.4 0 004.5-3.1l4.32 1.91a4.51 4.51 0 01-.83 3.3c-.24.23-.65.35-1.23.35-.55 0-.9.07-1.02.2-.5.29-.82.63-.95 1.03-.08.27-.1.63-.08 1.11l4.86 4.4.51 2.7 1.55-1.43c.97.53 1.62.97 1.94 1.31.55.56.79 1.25.7 2.06-.34.5-.84.76-1.5.76-.73-.1-1.3-.15-1.7-.12-.02.87.43 1.65 1.35 2.34 1.03.85 1.63 1.52 1.82 2.02-.08 1.78.12 3.38.59 4.8-1.92.98-3.53 1.4-4.82 1.23-1.3-.13-2.63-.84-4-2.14-1.92-.03-3.08-.75-3.48-2.18 0-.53.23-1.03.68-1.5.63-.64.97-1.03 1.02-1.16-.13-.63-.2-1.1-.2-1.39 0-.53.26-.94.76-1.23a55.81 55.81 0 00-2.45-3.01 15.03 15.03 0 00-2.73-2.34zM385.3 84.24c.76.32 1.4.37 1.94.16.28.47.38.88.27 1.23-.08.2-.27.43-.6.67l2.26 2.38c.37.03.85-.17 1.43-.6.52-.39.98-.53 1.38-.43.18-.4.14-.75-.12-1.07-.26-.34-.38-.56-.35-.63.07-.56.33-1.1.75-1.63.2-.3.54-.71.99-1.27l5.89-1.31c-.56 1.4-1 2.43-1.35 3.1a5.67 5.67 0 01-2.65 2.37 37.38 37.38 0 016.69 3.65 20.43 20.43 0 015.14 5.08 3.92 3.92 0 01-1.07 1.59l-1.54 1.35-4.9-.48a11.65 11.65 0 01-4.75-1.3 7.12 7.12 0 00-6.13-.48c-1.1.2-1.88.45-2.33.7a6.46 6.46 0 01-4.99.8c-1.13-.26-2.6-.98-4.38-2.14.18-2.35.75-4.44 1.7-6.27.92-1.77 2.5-3.8 4.74-6.1.32.02.98.23 1.98.63zm224.9-57.92c0 .03.4.4 1.15 1.11.48.45.66 1.04.56 1.75a142.9 142.9 0 00-11.11-1.59 69.1 69.1 0 00-9.25-.16l-2.46-1.98c-1.66-.4-3.63-.63-5.93-.71-2.55-.06-4.46-.13-5.73-.24-2.37-.13-4.15-.3-5.34-.52-1.95-.29-3.68-.76-5.18-1.42-1-.45-1.88-.68-2.65-.68-2.42-.02-4.35-.08-5.77-.16a41.57 41.57 0 01-5.74-.87.96.96 0 00-.75.08c-.23.16-.42.38-.55.68 0 .1.12.4.36.87.2.34.18.7-.08 1.07-1.37.34-3.02.43-4.95.27-2.21-.26-3.88-.44-5.02-.55-.1.08-.34.44-.7 1.07a1.5 1.5 0 01-1.27.8c-1.38-.53-2.41-.94-3.13-1.23a10.62 10.62 0 01-3.16-1.95 8.18 8.18 0 00-4.94-2.26 31.6 31.6 0 01-5.62-1.15.78.78 0 00-.36 0c-.2.05-.35.08-.43.08a4 4 0 00.04 1.23c0 .5-.28.85-.83 1.03a7.07 7.07 0 00-2.77-.67c-.1-.03-1.1-.06-3-.08l-.56.04c-.24-.03-.4-.07-.51-.12-.85-.61-1.9-.95-3.16-1.03-1.45.05-2.55.06-3.29.04-.87 0-1.55-.06-2.05-.16a4.23 4.23 0 01-1.86-.92c-.74-.63-1.75-.78-3.05-.43-1.58 1.93-3.62 2.46-6.13 1.58a11.9 11.9 0 013.01-2.06c1.32-.71 2.19-1.44 2.61-2.18a8.12 8.12 0 00-2.3-1.39 4.53 4.53 0 00-2.4-.43 14 14 0 01-4.28-.12c-2.16-.35-3.5-.53-4.03-.56l-.9-1.03c-.3-.37-.65-.58-1.07-.63a14.74 14.74 0 00-6.73.83c-.45 1.82-1.75 2.64-3.91 2.46a27.54 27.54 0 00-7.16.43l-7.04 1.51c-.42.21-.74.36-.95.44 0 .02.19.3.56.83.2.32.2.66 0 1.03-.74.21-1.93.3-3.56.28a12.9 12.9 0 00-3.96.28l2.73 2.38c.19.1.66.14 1.43.12.5 0 .85.26 1.06.79-.76.98-1.87 1.1-3.32.36a12.4 12.4 0 00-5.1-1.11c-.58-.03-.91.24-.99.79.03.29.32.5.87.64.53.13.8.4.8.83-.93.71-1.6 1.03-2.02.95-.4-.08-1.39-.76-2.97-2.02-.5.15-.75.51-.75 1.07.16.31.48.65.95.99.53.4.87.71 1.03.95.18.19.29.52.31 1 0 .5.1.86.32 1.1l1.54.8c1.3-.66 1.95-1 1.98-1 .68-.23 1.28-.02 1.78.64 0 .6-.27 1.06-.8 1.35-.65.32-1.02.58-1.1.8.18.79.1 1.6-.28 2.41a10.1 10.1 0 01-1.3 2.06l-1.7.04a2.84 2.84 0 01-1.58-.31c-.13-.5.08-1.03.63-1.59.6-.58.92-1.12.95-1.63a58.04 58.04 0 00-2.77-3.96c-.4-.56-1.48-2-3.24-4.33-.05-.05-.08-.35-.08-.9 0-.51-.15-.92-.44-1.24-.58.05-1.2-.08-1.86-.4-.79-.4-1.37-.7-1.73-.9-1.03.26-1.67.97-1.9 2.13-.27 1.38-.57 2.2-.91 2.46l1.54 3.06c1.92.87 3.02 1.46 3.28 1.78.26.35.21 1.06-.16 2.14a120.37 120.37 0 00-7-2.45 21.75 21.75 0 00-7.5-1.04c.18.77.24 1.3.19 1.6-.08.52-.47.81-1.19.86-.34-.02-.67-.23-.98-.63-.32-.42-.61-.68-.88-.75-.7.4-1.95.76-3.71 1.1-1.61.3-2.77.72-3.48 1.28-.48-.11-.74-.4-.8-.88-.02-.53-.15-.84-.39-.95-4.48 1.22-8 2.8-10.55 4.76a7.27 7.27 0 01-1.35-.4 1.63 1.63 0 01-.75-.83c-.05-.32.08-.62.4-.91.31-.3.42-.53.31-.72a2.85 2.85 0 00-1.9-1.38c-.37-.06-1.1-.06-2.17 0l2.05 4.84c-.5.42-1.16.6-1.97.55a6.2 6.2 0 00-2.02.16 11.88 11.88 0 00-2.89 2.06c.35.35.46.66.36.95-.08.27-.37.5-.87.72-.95-.34-1.66-.58-2.14-.72a3.26 3.26 0 00-2.33-.08c.08.24.41.52.99.84.5.29.75.63.75 1.03-.13.58-.37.83-.71.75a14 14 0 01-3.24-.95c-1.1-.5-2-1.2-2.7-2.1-.33-.42-.36-.93-.07-1.5-.45-.3-.78-.54-.99-.72-.37-.32-.6-.7-.71-1.15 1.82-.3 3.37-.25 4.66.12 1.88.5 3.44.56 4.71.2a6.08 6.08 0 003.28-2.58 23.11 23.11 0 00-4.98-1.59 164.9 164.9 0 01-5.06-1.15c-2.16-.72-3.77-1.22-4.82-1.5-1.85-.49-3.4-.63-4.67-.44-.42-.32-.58-.72-.48-1.2.14-.44.08-.75-.15-.9-1.82-.46-3-.68-3.52-.68-.53 0-1.43.21-2.7.63-3.08-.29-6.33-.01-9.76.84h-.04c-2.19.52-5.2 1.53-9.01 3.01a10.31 10.31 0 01-1 2.94 5.15 5.15 0 01-2.05 2.06 7.64 7.64 0 00-3.48 4.56 4.96 4.96 0 01-2.33 3.06 6.22 6.22 0 00-5.06.23c-1.08.53-2.22 1.5-3.4 2.9a7.92 7.92 0 00-.12 4.12c.31 1.67.38 2.83.2 3.5 1.31 1.21 2.42 1.87 3.32 1.98.9.05 1.99-.4 3.28-1.35.66-.5 1.16-.85 1.5-1.03.6-.3 1.24-.44 1.9-.44.08.24.78 1.42 2.1 3.53a5.23 5.23 0 01.83 4.17c-.87.37-1.55.63-2.02.8-.8.28-1.58.3-2.37.07.58-.66.7-1.38.4-2.14a6.6 6.6 0 01-.88-1.95c-1.16.06-2.03.44-2.6 1.16-.4.52-.7 1.3-.88 2.34.06.63.28 1.41.68 2.33.44.96.7 1.65.75 2.07a9.52 9.52 0 01-1.35 1.7c-.32.22-.87.3-1.66.28-3.48-.21-5.54 1.24-6.17 4.36a12.26 12.26 0 01-5.45 2.94c-.14.16-.39.58-.76 1.27a3.8 3.8 0 01-.9 1.23c-.93.29-1.82.73-2.7 1.3-.23.03-.61-.08-1.14-.35-.45-.24-.84-.29-1.19-.16-.05.1-.07.45-.07 1.03.05.43-.14.76-.56 1l-2.77-.44a3.73 3.73 0 00-2.88.55c.07.64.35 1.1.83 1.4.26.18.7.38 1.34.59l1.5.75c.5.32.9.72 1.19 1.2a10.17 10.17 0 011.54 4.55 8.37 8.37 0 01-1.26 4.96c-1.64.48-3.83.54-6.57.2-3.53-.42-5.86-.6-7-.55l-2.25 1.22c.34 1.38.54 2.46.6 3.26.07 1.19-.11 2.2-.56 3.05a9.1 9.1 0 00-.9 4.48c.02.98.16 2.46.43 4.45.39.08.93-.02 1.62-.28a4.76 4.76 0 011.7-.32c.74.27 1.35.83 1.85 1.7.3.48.7 1.25 1.2 2.3a14.2 14.2 0 01-2.02 4.21 8.58 8.58 0 01-3.56 2.86 6.22 6.22 0 00-2.22 1.9c-.24.35-.75 1.2-1.54 2.54.32 1.3.21 2.86-.32 4.68-.63.48-1.75 1.43-3.36 2.86a26.3 26.3 0 01-3.56 2.81c-3.56 2.3-5.33 4.91-5.33 7.82-.19.24-.7.73-1.55 1.47a5.56 5.56 0 00-1.38 1.7c.05.82-.16 1.68-.63 2.58-.24.53-.74 1.34-1.5 2.42 0 .27-.03.65-.08 1.15 0 .42.05.78.15 1.07.08.16.3.52.68 1.07.31.45.5.88.55 1.27l-.56 1.39c.8 2.06.92 4.26.36 6.59a40.16 40.16 0 01-2.53 6.22c.03.06.25.3.67.72.32.34.52.76.6 1.27l-.28 2.77a4.3 4.3 0 001.19 2.94c2.13.93 3.84 2.38 5.13 4.36a19.87 19.87 0 012.54 6.11 93.92 93.92 0 0011.82 8.57c.53-.08 1.6-.45 3.2-1.11 1.3-.5 2.39-.73 3.28-.68.77.03 1.91.06 3.44.08a9.1 9.1 0 013.29.68c2.29-.53 4.36-1.43 6.2-2.7 1-.69 2.18-1.1 3.52-1.27.64-.08 1.86-.08 3.68 0 1.63.05 2.89.87 3.76 2.46.18.3.43.8.75 1.5.31.62.7 1.12 1.14 1.52h4.51c1.48.02 2.68.51 3.6 1.46.9.95 1.21 2.12.95 3.5-.13.68-.26 1.73-.4 3.13a7.94 7.94 0 01-.98 3.01 7.07 7.07 0 00-1.07 2.7 83.61 83.61 0 015.97 9.56 50.18 50.18 0 014.19 10.67l-.51 2.22c1.84 3.52 1.7 7.11-.44 10.8-.1.15-.4.84-.87 2.05a19.64 19.64 0 00-1.58 7.1c0 2.46.65 4.82 1.94 7.07.31.52.7 1.3 1.14 2.33.48 1.14.85 1.95 1.11 2.43a19.18 19.18 0 012.61 11.74c-.08.87.21 1.93.87 3.17 1.19 2.25 2.97 5.92 5.34 11.03a11.84 11.84 0 01.9 2.7 4.63 4.63 0 01-.3 2.73 26.86 26.86 0 011.34 2.38c.5.93 1.08 1.55 1.74 1.87 4.08-1.38 7.85-1.86 11.3-1.43.61-.48 1.34-.82 2.18-1.03.58-.11 1.38-.2 2.41-.28a35.38 35.38 0 008.19-8.01c1.79-2.51 3.43-4.3 4.9-5.36.47-1.19.8-2.09.99-2.7.32-1.08.43-2.05.36-2.9-.21-1.71.58-3.05 2.37-4 1-.5 1.66-.86 1.98-1.07a5.23 5.23 0 001.58-1.66l.75-3.34c-.32-.69-.57-1.77-.75-3.25a9.76 9.76 0 00-.71-3.06c.28-1.32.78-2.26 1.5-2.81.13-.1 1.51-1.34 4.15-3.7a15.28 15.28 0 014.63-3.04c1.16-.43 2.28-1.47 3.36-3.14a14.05 14.05 0 01-.08-3.69c.02-.4.18-1.58.47-3.57a6.46 6.46 0 000-2.5c-.68-2.27-1.18-3.99-1.5-5.15-.55-2.01-.99-3.76-1.3-5.24a69.08 69.08 0 01-.8-2.82 5.09 5.09 0 01.04-2.89l.95-2.86c.4-1.14.8-2.07 1.23-2.81a44.6 44.6 0 015.61-7.94 88 88 0 016.84-6.9c.98-.74 1.66-1.35 2.06-1.83a67.18 67.18 0 0010.44-17.65 17.76 17.76 0 001.03-6.62c-.45.05-1.11.25-1.98.6-.76.31-1.4.46-1.9.43-1.1-.08-2.33.04-3.68.36-.55.16-1.74.54-3.55 1.15l-4.28 1.23a17.4 17.4 0 01-2.65-2.66c-.23-.42-.3-.86-.2-1.3.11-.56.15-.92.13-1.08l-1.11-1.55a10.4 10.4 0 00-1.23-1.42 84.45 84.45 0 01-3.71-3.62l-3.56-3.68-.91-.92c-.3-.37-.46-.74-.51-1.1a9.42 9.42 0 00-3.68-6.12 7.2 7.2 0 00-.44-4.84c-.16-.42-.95-1.82-2.37-4.2a80.85 80.85 0 01-3.05-5.67 80.7 80.7 0 01-1.77-4.13c-1.09-2.5-1.67-3.86-1.74-4.04.4-.5.84-.82 1.34-.96.42-.13.92-.13 1.5 0 .5.5 1.3 1.34 2.38 2.5a33.22 33.22 0 013.48 5.2 49.8 49.8 0 003.4 5.28c.31.37.47.88.47 1.54.1 2.44 1.3 4.66 3.56 6.67.26.24.66.58 1.19 1.03.42.4.67.82.75 1.27.13.74.44 1.47.94 2.18l1.59 1.7c.63.67 1.1 1.22 1.38 1.67.4.66.6 1.34.6 2.02-.43.22-.88.15-1.35-.2-.55-.42-1.02-.6-1.38-.55.26.45.76 1.06 1.5 1.82a6.16 6.16 0 011.34 1.79c.27.56.52 1.3.75 2.22.3 1.2.5 1.95.64 2.26.18.58.4 1.03.63 1.35a2 2 0 001.15.83 6.05 6.05 0 004.1-1.9c1.17-.1 1.96-.2 2.38-.28.87-.16 1.64-.38 2.3-.67.79-.35 2.35-1.2 4.7-2.54a17.2 17.2 0 014.63-2.02c.18-.21.4-.63.63-1.23.18-.45.45-.8.79-1.03l5.57-1.99c.3-.71.5-1.13.6-1.27.24-.42.55-.75.95-.99a11.07 11.07 0 004.47-5.04 33.36 33.36 0 013.71-6.18 28.85 28.85 0 00-2.65-2.86 4.1 4.1 0 00-3.4-1.07c-.84-.4-1.5-1.2-1.98-2.38-.55-1.38-1.02-2.23-1.42-2.58-.6.29-1.3.85-2.1 1.67-.89.9-1.55 1.48-1.97 1.74-1.8 1.06-3.32 1.39-4.59 1-.84-.43-1.29-1.2-1.34-2.3-.06-1.22-.25-1.98-.6-2.27-.34-.1-.73.03-1.18.4-.42.37-.8.46-1.1.28-.5-.22-.88-.73-1.12-1.55a12.67 12.67 0 00-3.12-5.2 5.17 5.17 0 01-1.54-3.97c2.5-3.01 4.63-2.89 6.36.36.19.32.45.8.8 1.47 2.6 3.65 5.72 5.6 9.33 5.83.37-.16.9-.47 1.58-.95.53-.4 1.01-.6 1.46-.63.08.05.42.18 1.03.39.47.19.86.46 1.15.83l.47 1.63a11.9 11.9 0 004.5 1.35l4.8.63 2.52.56c1 .13 1.89.1 2.65-.12.82-.24 1.82-.37 3-.4.7-.02 1.7-.04 3.01-.04.95.8 2.3 2.06 4.04 3.81 1.53 1.43 2.99 2.31 4.39 2.66.15.45.06.85-.28 1.19-.34.34-.46.67-.36 1 .3.68.8 1.31 1.5 1.9.5.37 1.22.77 2.14 1.22h.08a4 4 0 001.94-.9 5 5 0 00.43-1.36c.1-.53.42-.84.95-.95.76.37 1.15 1.15 1.15 2.34.02 2.83.47 5.8 1.34 8.93.69 2.4 1.73 5.2 3.13 8.4l3.16 7.27a124.8 124.8 0 012.89 7.33c.55 1.51 1.43 2.44 2.65 2.78.36-.21.7-.54.98-1l.64-1.02c.31-.45.6-.74.87-.87.34-.19.72-.19 1.14 0-.4-.7-.4-1.4 0-2.15.56-.76.89-1.36 1-1.78l.03-1.5c0-.6.05-1.07.16-1.44.66-2.83.57-5.47-.28-7.93-.31-.9-.09-1.76.68-2.58.05-.03.48-.17 1.3-.43.55-.22.99-.48 1.3-.8.48-1.24 1.8-2.72 3.96-4.44 2.05-1.64 3.28-3.15 3.68-4.52.34-.32.88-.68 1.62-1.07a3.82 3.82 0 001.34-.96c.05-.1.12-.63.2-1.58.08-.66.32-1.2.71-1.59l1.98-1.03c.79.58 1.76.74 2.92.47.61-.1 1.45-.27 2.54-.51.39-.08.76-.36 1.1-.83.32-.43.62-.61.91-.56a2.5 2.5 0 011.58 1.9 6.02 6.02 0 001.63 3.34c.63.71 1.62 1.48 2.96 2.3l.28 2.02a7.3 7.3 0 012.45 3.41 9.73 9.73 0 00-.12 4.33c.26.1.62.26 1.07.47.37.16.67.23.9.2.4-.19 1.22-.77 2.46-1.75a6.04 6.04 0 012.8-1.22c.5 1.77 1.28 4.4 2.34 7.89.87 3.04 1.5 5.72 1.9 8.05-.32.88-.52 2.07-.6 3.57-.1 2.06-.18 3.32-.23 3.77 1.52.5 2.79 1.61 3.8 3.33l2.37 4c.13.51.11 1.05-.04 1.63a4.48 4.48 0 00-.24 1.4c.37 1.1.8 1.96 1.3 2.57.74.88 2 1.92 3.76 3.14a24.83 24.83 0 013.88 3.09c-.14-.8-.77-2.46-1.9-5-.87-1.98-1.14-3.66-.8-5.04a20.95 20.95 0 00-3.47-4.12 47.6 47.6 0 00-4.08-3.33 12.58 12.58 0 00-2.37-4.84c-1.05-1.2-1.23-2.57-.51-4.13.92-1.93 1.43-3.7 1.54-5.31.08-1.06.53-1.62 1.34-1.67.56.08.93.41 1.11 1 .24.73.44 1.17.6 1.3a7.96 7.96 0 013.83 2.5c.71.74 1.78 1.93 3.2 3.57 1.06.1 1.74.46 2.06 1.07.18.3.26.77.24 1.43-.03.6.08 1.04.31 1.3a5.65 5.65 0 002.33-1.66c.37-.42.89-1.16 1.55-2.22a23.6 23.6 0 012.49-1.27c.9-.5 1.47-1.08 1.74-1.74-.03-.9-.04-1.56-.04-1.99-.03-.74 0-1.35.08-1.82.45-2.88-.62-5.46-3.2-7.74a39.03 39.03 0 01-5.66-6.5 4.8 4.8 0 01-.95-2.7c0-.95.3-1.77.91-2.46a24.26 24.26 0 012.21-2.3c.9-.8 1.89-1.3 2.97-1.5l2.1.5c.47.32.77.83.9 1.51.2.75.36 1.2.52 1.4.5-.14.75-.48.75-1.04 0-.63.1-1.02.28-1.15a9.92 9.92 0 012.21-1.27 3.77 3.77 0 012.41 0 18.43 18.43 0 015.86-2.93c.9-.3 1.54-.62 1.93-1 1.9-1.8 3.25-3.22 4.04-4.28a14.82 14.82 0 002.69-5.35c.65-2.6.98-3.94.98-4.05.37-1.53.61-2.9.72-4.09a2.4 2.4 0 00-1.23-.35c-.6-.06-1-.22-1.19-.48-.08-.32 0-.7.2-1.15.19-.47.28-.83.28-1.07-1.74-3.78-4.7-7.28-8.9-10.51a9.44 9.44 0 011.9-3.57c.55-.72 1.42-1.76 2.61-3.14-1-.2-2.23-.13-3.68.24-1.71.45-2.91.68-3.6.68-.05-.98-.7-1.75-1.93-2.3-1.5-.7-2.44-1.4-2.81-2.15a9.98 9.98 0 003.52-2.5 47.82 47.82 0 012.96-2.93c.5.1.89.25 1.15.44.29.2.5.53.63.95-.2.87-.3 1.45-.27 1.74.05.69.42 1.27 1.1 1.75 2.27-2.8 4.62-3.1 7.04-.87.1.42.19 1.05.24 1.9.1.74.36 1.28.75 1.63l4.03 1.42c.1.06.28.2.52.44l-.2 1.55c.74.9 1.32 1.73 1.74 2.5.24.42.29.98.16 1.66a3.7 3.7 0 00-.08 1.83c1.08.34 2.17.22 3.28-.36.47-.26 1.12-.67 1.94-1.23l.71-.48c-.26-1.03-.5-1.91-.71-2.65-.32-1.06-.6-1.79-.83-2.18-.45-.64-1.61-1.6-3.48-2.9l-2.06-1.43a7.62 7.62 0 01-1.7-1.78c.16-.56.54-1.1 1.15-1.63.68-.66 1.1-1.11 1.26-1.35a7.6 7.6 0 00.24-2.1c-.02-1 0-1.7.08-2.06.37-.74.74-1.29 1.1-1.63a2.82 2.82 0 011.7-.83c.32-.03.72.1 1.2.4.47.31.82.47 1.06.47a5.65 5.65 0 002.37-1.67c.5-.66.91-1.53 1.23-2.61.29-1.01.48-2.37.55-4.1.06-2.03.14-3.4.24-4.12a9.34 9.34 0 00-1.62-7.14 10.8 10.8 0 01-.87-1.54l-.8-1.63c-.25-.5-.53-.98-.82-1.43a12.3 12.3 0 00-2.5-2.93 8.27 8.27 0 00-5.17-1.87l-1.74 1.47a18.74 18.74 0 00-3.72-2.1 75.59 75.59 0 01-4.03-1.98c1.21-1.04 2.12-2.7 2.73-5 .73-2.7 1.4-4.46 1.97-5.28 2.08-.6 4.79-.87 8.1-.8l4.36.09a67.6 67.6 0 003.68-.12c.2.05.46.26.75.63.26.35.54.5.83.48.6.13 1.43.07 2.49-.2a8.48 8.48 0 012.57-.36c-.19-.29-.6-.66-1.27-1.1-.58-.38-.93-.8-1.06-1.28l.9-4.08a3.66 3.66 0 012.61-.48c.56.1 1.35.27 2.38.48.18.16.72.74 1.62 1.74a3.18 3.18 0 001.78 1.15c.6-.45 1.1-1.15 1.5-2.1.05-.18-.04-.53-.28-1.03-.18-.42-.15-.78.08-1.07.4-.45.98-.52 1.74-.2a9.45 9.45 0 012.02 3.97c-.34.55-.75 1.93-1.23 4.12-.4 1.8-1.08 3.1-2.05 3.89.31 2.9 1.87 5.25 4.66 7.02.3.19.62.45 1 .8l.9.83c.9.82 2.19 2.06 3.88 3.73a53.36 53.36 0 004.03 3.53c.34-.1.6-.28.75-.52.19-.21.3-.53.32-.95l-1.03-2.26c.4-.5.57-1.13.51-1.87 0-.13-.12-.78-.35-1.94.05-.24.2-.48.43-.71.27-.32.44-.55.52-.68a11.1 11.1 0 01-1.35-1.86 3.68 3.68 0 01-.4-2.34 5.92 5.92 0 01-3.24-2.94c-.26-.26-.75-.45-1.46-.55a3.23 3.23 0 01-1.66-.72c-.05-1-.43-2.36-1.15-4.08 1.95-1.4 3.75-1.63 5.38-.68.32-.05.8-.25 1.46-.6a3 3 0 011.59-.43l3.28.91c.84-1.9 1.84-3.34 3-4.32a9.06 9.06 0 015.42-1.98 125.9 125.9 0 01-3.91-1.6 9.8 9.8 0 01-3.05-2.1l1.9-1.58c.08-.16.1-.48.08-.95-.05-.4.09-.7.43-.91.69.1 1.78.2 3.28.31 1.32.16 2.4.5 3.2 1.03.98.64 2.09 1.1 3.33 1.4.87.2 2.02.36 3.44.47l.04-.56c-.48-.37-.67-.78-.6-1.23.03-.34.24-.78.64-1.3a8.6 8.6 0 00-3.28-1.2 121.83 121.83 0 01-17.24-3.92 105.59 105.59 0 00-15.03-3.3l-9.37-1.15zm-12.2 137.06c.25-1 .24-2.06-.05-3.14-.18-.6-.6-1.55-1.23-2.81-.6.18-1.06.44-1.38.79-.29.29-.51.71-.67 1.27.4.87.28 2.13-.36 3.77-.66 1.64-.84 2.9-.55 3.8l1.98 2.23c.1 1.3.22 2.13.35 2.5.1.34.33.51.67.51.16-.13.32-.45.48-.95.16-.42.4-.69.71-.8a6.55 6.55 0 012.85 1.11l2.1 1.16c.13-.19.34-.45.63-.8.2-.34.2-.71 0-1.1-.48-.59-1.39-.99-2.73-1.2-.03-.02-.05-.04-.08-.04-1.42-.24-2.39-.63-2.89-1.19a5.32 5.32 0 01-.4-2.58c.06-.63.24-1.48.56-2.53zm3.75 47.8c.68-.43 1.07-.93 1.14-1.51a2.34 2.34 0 00-2.37.12c-.55.4-.9.62-1.03.67-.42.24-.85.34-1.3.32l-1.98-2.18a6.77 6.77 0 01-.87 1.86c-.6 1.32-.97 2.45-1.1 3.37a5.72 5.72 0 00.59 3.57c.26.5.4 1.13.4 1.87.02.45 0 1.1-.05 1.94l.16.8c.82-.06 1.3-.19 1.46-.4a9.7 9.7 0 00.24-3.61 22.8 22.8 0 01-.12-3.25c.58-.22 1.09-.2 1.5.03.3.14.63.41 1 .84.42 2 .65 3.08.7 3.21.16.45.39.86.68 1.23.42.56.99.98 1.7 1.27.37-1.16.52-2.2.47-3.13a9.02 9.02 0 01-1.34-2.9c-.26-.9-.54-1.63-.83-2.18-.13-.3-.28-.53-.44-.72.08-.15.23-.33.44-.51.24-.21.55-.45.95-.71zm-.83 41.17l-.87-.04c-.37-.03-.69.07-.95.28-.16.2-.3.38-.44.51-.18.24-.31.47-.4.68a8.02 8.02 0 01-2.44 3.96c-.98.88-2.3 1.68-3.96 2.42a24.8 24.8 0 01-6.28 2.1c-1.4.25-2.98.93-4.75 2.07a34.2 34.2 0 01-4.5 2.66c.18.9-.02 2.26-.6 4.08-.55 1.64-.63 2.93-.24 3.85-.13.34-.46.66-.99.95-.47.27-.74.58-.79.95.05.22.24.63.55 1.23.27.5.43.94.48 1.31l.44 4.64c.13 1.78.17 3.35.11 4.73a17.3 17.3 0 01-.95 5.03 11.97 11.97 0 01-2.6 4.2c.07.9.55 1.49 1.42 1.75 1.4.43 2.12.65 2.17.68.35-.08.85-.21 1.5-.4a4.67 4.67 0 001.35-.56 13.3 13.3 0 019.49-2.26c.37.06.94.03 1.7-.08 1.63-1.63 4.03-2.97 7.2-4 .63-.21 1.6-.44 2.92-.68l1.3-.24c.72-.15 1.29-.3 1.7-.43.64-.21 1.4-.38 2.26-.52.5-.08 1.28-.17 2.34-.27 1.34-.19 2.7.09 4.07.83.79.4 1.94 1.12 3.44 2.18a3.92 3.92 0 011.5 1.83c.18.52.32 1.3.4 2.3.02.42.33.66.9.71.59-.4 1.4-1.11 2.46-2.14 1-.88 2-1.36 3-1.47-.02 0-.04-.01-.04-.04h.08c.03-.08.03-.12 0-.12.03-.02.05-.04.08-.04.05-.03.07-.01.04.04a.26.26 0 01-.12.12l-.04.04c.13.4.07.87-.2 1.43a3.76 3.76 0 00-.55 1.5c.63.3.91.73.83 1.31-.05.32-.24.82-.55 1.51.63.61.95 1.36.95 2.26 0 .08-.1.85-.32 2.3l.6 1.55c.26.5.56.93.9 1.27a14 14 0 004.99 1.47c.47.05 1.1-.2 1.9-.76.73-.52 1.37-.75 1.9-.67.1.08.3.49.63 1.23.26.58.7.93 1.3 1.03a19.19 19.19 0 013.68-2.81 9 9 0 014.5-1.2c.77-.58 1.63-1.44 2.57-2.57.35-.37 1.56-1.95 3.64-4.73a27.38 27.38 0 014.03-4.4 27.12 27.12 0 006.13-7.42 21.49 21.49 0 001.74-4.2c.5-1.93.91-3.39 1.23-4.36.37-1.04.62-1.83.75-2.38.26-.95.36-1.84.28-2.66a38.89 38.89 0 01-2.18-3.18c-.74-1.29-1.2-2.57-1.38-3.84a3.56 3.56 0 01-2.33-2.34c-.08-.27-.23-1.35-.44-3.26-.55-.68-.97-1.19-1.26-1.5a16.63 16.63 0 01-3.29-4.76c-.76-1.8-1.04-3.7-.83-5.72a3.8 3.8 0 00-.2-1.54c-.2-.58-.34-1-.39-1.23a2.5 2.5 0 00-1.5-.68 2.27 2.27 0 01-1.39-.75 63.7 63.7 0 00-.59-4.2c-.29-1.75-.75-3.23-1.38-4.45-.64.93-1.08 2.01-1.35 3.25-.1.53-.25 1.65-.43 3.34-.27 2.24-.7 4.2-1.3 5.87a15.45 15.45 0 01-3.17 5.11c-1.98.46-3.75-.2-5.3-1.98a63.8 63.8 0 00-4.47-4.52 5.11 5.11 0 01-.67-.71 2.48 2.48 0 01-.4-1.04c.7-1.77 2.09-3.75 4.2-5.95l-1.03-1.1c-.37.05-.98.23-1.82.55-.71.32-1.32.45-1.82.4a9.77 9.77 0 01-3-1.35 344.5 344.5 0 00-2.81-2.07c-.08.35-.01.88.2 1.6.18.6.11 1.13-.2 1.58-.27.45-.71.74-1.35.87h-1.7a6.09 6.09 0 00-2.49 3.02c-.34.76-.83 2-1.46 3.69a2.74 2.74 0 00-1.66.03c-.71.22-1.17.3-1.38.24a3.3 3.3 0 01-1.2-.87c-.28-.42-.52-.74-.7-.95-.27-.37-.5-.65-.72-.84a2.4 2.4 0 00-.98-.51c-.85.1-1.44.58-1.78 1.43a7.28 7.28 0 01-.84 2.18H605a4.93 4.93 0 01-1.82 2.5 14.1 14.1 0 00-2.25 2.14zM264.5.62c-2.32-.1-4.17.34-5.54 1.35a3 3 0 01-1.54.6l-1.66.07c-.92.06-2.8.06-5.66 0a52.34 52.34 0 00-5.7.12 250.54 250.54 0 00-8.85 1.11c-1.13.14-2.1.23-2.92.28-.4 0-.89.1-1.47.28-.63.21-1.12.36-1.46.44-.08.26-.2.68-.35 1.26-.16.53-.44.97-.84 1.31-1.02.32-3.1.6-6.24.84-2.77.23-4.9.74-6.4 1.5.23.85.73 1.38 1.5 1.6 3.05.97 5.56 1.51 7.5 1.62 3.38.18 6.18 1.23 8.39 3.13.32.98.37 1.97.16 2.98-.08.4-.37 1.24-.87 2.53.26.32.79.67 1.58 1.04.71.31 1.17.67 1.38 1.07-.26.55-.97.87-2.13.95-1.08.08-1.75.5-2.02 1.27.37.24.98.28 1.82.12.79-.19 1.37-.1 1.74.27.08.45.03.81-.16 1.07-.18.3-.53.5-1.03.64-1.76.55-3.3 1.9-4.62 4v5.2c-.06 1.22.08 2.6.4 4.17.07.47.38 1.82.9 4.04.35 1.38.98 2.07 1.9 2.07a4.2 4.2 0 011.86.63c.6.35 1.07.6 1.38.8l.4.15c.45 0 1.15.07 2.1.2.89.05 1.7-.01 2.4-.2.72-1.1 1.84-2.5 3.37-4.16 1.84-2.06 3.04-3.45 3.6-4.17 2.29-3.01 5.15-4.78 8.58-5.31.2-.03.66-.12 1.34-.28.55-.13 1-.2 1.34-.2a8.02 8.02 0 002.7-.67c.63-.27 1.44-.7 2.44-1.31.5-.32 1.26-.82 2.26-1.5.95-.62 1.8-1.03 2.53-1.24 1.84-.53 4.56-1.47 8.15-2.81a27.45 27.45 0 018.38-1.71 6.4 6.4 0 00.63-2.26c.03-.43.02-1.13-.04-2.1a7.3 7.3 0 013-2.82c.77-.45 1.93-1.1 3.49-1.94l-.75-1.51c-.22-.53-.26-.94-.12-1.23.29-.5.75-.94 1.38-1.31.6-.34.97-.69 1.1-1.03.03-.35-.14-.9-.5-1.67a3.53 3.53 0 01-.44-1.98c.71-.48 2.32-1.07 4.82-1.79 2.22-.6 3.84-1.42 4.86-2.46a6.62 6.62 0 00-3.24 0c-1.42.3-2.5.32-3.24.08a3.06 3.06 0 00-1.3-1.03 87.64 87.64 0 00-9.21-2.26 34.1 34.1 0 00-7.56-.4c-.42.03-1.24.2-2.45.52-1 .26-1.82.36-2.45.28-1.11-.16-2.55-.23-4.31-.2-2.32 0-3.76-.01-4.31-.04zm-102.89 320.6a4.88 4.88 0 00-.2-1.32c-.13-.37-.42-.6-.87-.71.1.24.16.6.16 1.07.1.48.41.8.91.95zm-1.15-2.03h.08c0-.03-.01-.05-.04-.08l-.04.08zm46.7-293.94a30.17 30.17 0 01-4.78-2.02 10.66 10.66 0 01-3.88-3.41c-.1-.13-.27-.27-.51-.4l-.48-.28c-1.84-.2-3.58-.1-5.22.32a1.8 1.8 0 01-.95-.47l-.43-.36-5.02 1.19c-.34.21-.8.6-1.35 1.19-.5.47-1.08.6-1.74.36a1.7 1.7 0 01.08-1.67l1.19-1.19c-2.66.71-4.5 1.34-5.5 1.86a8.51 8.51 0 00-3.95 4.17c.37.58 1.08 1 2.13 1.23 1.11.26 1.86.6 2.26 1.03a12.92 12.92 0 01-3.84 3.93c-1.13.76-2.7 1.53-4.7 2.3-.69-.42-1-.83-.95-1.23.1-.48.4-.87.87-1.2.47-.28.71-.5.71-.66-.08-.64-.47-1.12-1.19-1.43-.79-.32-1.26-.7-1.42-1.11.32-.56.3-1.4-.04-2.5-.37-1.2-.45-2.1-.24-2.7 1.08-1.24 2.18-1.85 3.29-1.83 1 .06 2-.15 3-.63.6-.3 1.6-.91 3-1.86-1.81.26-3.79.29-5.93.07-3.6 3.52-6.86 6-9.76 7.46-.24.32-.41.8-.51 1.47-.09.53-.3.9-.68 1.11-.16.05-1.26.01-3.32-.12-1.4-.08-2.49.3-3.28 1.11-.19.16-.38.5-.6 1.03-.18.5-.4.86-.67 1.07-4.21.75-7.02.98-8.42.72-.82-.16-2.03-.87-3.64-2.14a6.68 6.68 0 00-5.73 2.18c-.13.03-1.53.04-4.2.04-1.6 0-2.92.17-3.95.51l-2.64-.75c.05-.34.28-.66.7-.95.45-.3.7-.6.76-.91-.92-.35-2.41-.73-4.47-1.16-1.95-.42-3.4-.81-4.35-1.19-1.4.38-2.28.55-2.65.52l-.36-.08a7.93 7.93 0 01-1.42-.87c-.23-.03-.63.07-1.18.28-.5.18-.94.22-1.31.12-.21 0-.46-.2-.75-.6-.3-.37-.6-.53-.91-.48a2119.76 2119.76 0 01-9.85 2.19c-.34 0-.64-.06-.9-.16-.61-.3-1.26-.39-1.94-.28-.43.08-1.02.3-1.78.63-2.4 1.01-4.7.82-6.92-.55a4.32 4.32 0 00-1.15-.48 17.3 17.3 0 01-1.15-.31 8.4 8.4 0 00-3.08-.2c-1.45.1-2.44.12-2.97.04-4.3-.61-6.78-.98-7.47-1.11a46.92 46.92 0 01-7.4-1.79c-.63-.2-1.06-.28-1.3-.2-.87.35-2.08.63-3.64.84-1.74.2-2.95.42-3.63.63a352.2 352.2 0 00-6.57 2.1 63.06 63.06 0 01-6.64 1.83c-.37.1-.96.18-1.78.24-.66.13-1.15.42-1.46.87a2.59 2.59 0 00-.16 1.82c.2.93.29 1.54.24 1.83-1.5 1.3-3.13 1.28-4.87-.04a93.42 93.42 0 00-6.4 2.1A3 3 0 0025.99 38c1.95.66 4.18.83 6.69.51.02.58-.07 1.11-.28 1.59-.16.34-.45.75-.87 1.23-.9.08-2.19.33-3.88.75-1.76.45-3.07.72-3.91.8-1.3.15-2.58.53-3.88 1.1-.97.46-2.12 1.12-3.44 1.99-1.42.95-2.08 2.02-1.97 3.21.29.43.7.65 1.22.68.63.02 1.02.08 1.15.16.13.13.16.4.08.83-.08.37.03.65.32.83.97.16 1.7.33 2.21.52.9.29 1.63.82 2.21 1.58L1.91 61.63c1 .13 2.08.08 3.24-.16.64-.13 1.64-.41 3.01-.83 2.32-.64 4.05-1.14 5.18-1.51a20.37 20.37 0 004.86-2.26 14.44 14.44 0 016.01-2.06c1.43-.16 2.63-.4 3.6-.72 1.3-.42 2.39-1 3.28-1.74.21-.21.3-.61.28-1.2-.05-.58.07-.99.36-1.22 1.18-.08 2.6-.37 4.23-.88a98.8 98.8 0 014.07-1.35c.16.45.03.92-.4 1.4-.44.47-.6.93-.47 1.38 1.3 0 2.83-.35 4.63-1.07 2.48-.92 3.94-1.45 4.39-1.59.42.14 1.44.53 3.08 1.2 1.21.5 2.24.76 3.09.79 3.29.18 5.28 1.64 5.96 4.36-.44 3.18-.48 5.65-.11 7.42.31.37.83.55 1.54.55.71 0 1.24.16 1.58.48-.55 1.16-.73 2.84-.51 5.04.2 2.35.17 3.98-.12 4.88-.37.4-.85.58-1.43.55-.6-.02-1.01.07-1.22.28-.16.98.27 1.92 1.3 2.82 1.19.97 1.82 1.78 1.9 2.42-.05.13-.33.71-.83 1.74-.32.72-.57 1.3-.75 1.75a20.8 20.8 0 01-5.42 8.6 9.89 9.89 0 00-1.5 1.6c-.5.65-.82 1.34-.95 2.06-.45 2.3-1.46 4.01-3.04 5.15a28.64 28.64 0 00-.2 7.9c.16 1.71.5 4.24 1.03 7.57l3 1.86a4.02 4.02 0 012.02 2.9c.13.72.34 1.76.63 3.14a8.8 8.8 0 01.04 3.2c-.1.46-.08.96.08 1.52l.55 1.43c.14.28.33.7.6 1.22.23.5.35.97.35 1.4-.13.6-.54 1.16-1.22 1.66.23.76.97 1.62 2.21 2.58 1.21.95 1.94 1.83 2.18 2.65.05.19.02.6-.08 1.23-.1.58-.02 1.09.27 1.51.32.26.83.95 1.54 2.06a5.89 5.89 0 002.02 2.15c.27-.4.32-.8.16-1.2-.24-.42-.4-.75-.51-.99-.06-.18-.39-.95-1-2.3-.41-.92-.7-1.7-.82-2.34-.32-1.48-.8-3.12-1.47-4.92-.29-.79-.9-2.38-1.85-4.76a6.64 6.64 0 01-.6-2.97c.08-.93.4-1.87.95-2.82a4.79 4.79 0 013.32 1.03 13.1 13.1 0 001.23 6.47 25.18 25.18 0 003.64 5.51c-.32.72-.41 1.43-.28 2.15.13.5.43 1.12.9 1.86.2.32.51.73.96 1.23l.95 1.15c.58.87 1.6 2.12 3.08 3.73a6.05 6.05 0 011.15 4.8c-.5.6-.83 1.13-1 1.59-.23.68-.2 1.36.09 2.02.37.55.85.99 1.46 1.3.87.46 1.94 1.1 3.2 1.91.69.48 1.72 1.15 3.09 2.03a66.81 66.81 0 006.96 3.96c2.13 1.06 4.1 1.26 5.9.6 2.1-.77 3.9-.22 5.4 1.66.43.56 1 1.18 1.7 1.87.4.4 1 .96 1.79 1.7 1.13.1 2.67.52 4.62 1.23 2.09.77 3.65 1.23 4.7 1.39.09.37.2.74.32 1.11.4 1.08 1.08 2.17 2.06 3.25.6.69.84 1.64.71 2.86l5.3 5.83a3.72 3.72 0 013.4.4c.58.37 1.44.95 2.57 1.74l.91-.67c-.31-1.7.4-2.86 2.14-3.5.55 0 1.05.14 1.5.4.34.19.74.52 1.19 1-.11.84.17 1.77.82 2.77.93 1.35 1.44 2.2 1.55 2.54-.03.42-.1 1.08-.24 1.98-.05.77-.06 1.4-.04 1.9.3 3.18-.82 5.66-3.32 7.43-.08.16-.18.6-.32 1.3-.1.56-.29 1-.55 1.31l-2.25 1.31a17.3 17.3 0 01-1.39 3.97c-.76 1.27-.68 2.67.24 4.2.1.19.3.44.6.76.23.34.33.7.3 1.07l-2.72 3.5c.13.25.44 1.23.91 2.92.32 1.2.78 2.06 1.38 2.58.53.48 1.02 1.04 1.47 1.67.29.42.66 1.06 1.1 1.9.3.53.7 1.37 1.23 2.5a13 13 0 001.38 2.38 45.78 45.78 0 013.76 6.03l3.2 6.3c.6 1.2 1.4 2.2 2.38 2.98 2.6 2.1 5.23 4.01 7.86 5.76 1.22.82 2.14 1.69 2.77 2.62.69 1 1.11 2.19 1.27 3.56.13 1.09.35 2.41.67 3.97.16.87.4 2.2.75 3.97.19.87.22 1.98.12 3.33-.16 2.06-.24 3.17-.24 3.33-.05 6.3.46 11.78 1.54 16.46.22.8.3 1.63.24 2.5-.13 4.37-.2 6.67-.24 6.9-.13 2.62-.3 4.9-.51 6.83.87 1.69 1.53 3.57 1.98 5.63l.27 3.13a6.6 6.6 0 00.95 3.02c.56-.85 1.33-.98 2.34-.4l.87 2.86c.31 1.14.48 2.1.51 2.9-.18.23-.55.44-1.1.63-.43.16-.7.44-.84.83.27.56.27 1.35 0 2.38a9.1 9.1 0 00-.4 2.66l1.67.47c.6.25.97.67 1.1 1.27v.05c.06.23-.05.68-.31 1.34-.24.61-.28 1.17-.12 1.67a63.08 63.08 0 007.28 10.04 17.33 17.33 0 009.76 5.87c.42.13 1.1.26 2.02.4.79.15 1.44.34 1.94.55.95.4 1.82.47 2.6.24.7-.24 1.4-.78 2.14-1.63-.58-.58-1.66-1.18-3.24-1.79-1.53-.58-2.58-1.21-3.16-1.9a77.12 77.12 0 01-2.61-2.9 7.02 7.02 0 01-1.59-3.68c.5-.37.78-.92.84-1.63l-.08-1.78c.18-.59.52-1.25 1.02-1.99.61-.87 1-1.47 1.15-1.78a19.75 19.75 0 01-2.5-1.75 5.56 5.56 0 01-1.61-2.38c.16-1.96.83-3.34 2.02-4.17a3.9 3.9 0 01-.08-2.89c.18-.5.64-1.35 1.38-2.54-1.42-.4-2.36-.92-2.8-1.58-.43-.67-.48-1.66-.17-2.98l2.06.12c.74 0 1.36-.1 1.86-.28.6-.45.86-1.32.75-2.62-.08-1.27.26-2.13 1.03-2.58.76-.1 1.97-.22 3.64-.35a7.45 7.45 0 003.47-1.31c.53-.72.88-1.56 1.03-2.54.1-.66.13-1.6.08-2.82-.87-.23-1.62-1.01-2.25-2.34-.69-1.37-1.38-2.22-2.1-2.53.32-.67.73-.97 1.23-.92.08 0 .54.16 1.38.48.58.24 1.4.65 2.46 1.23.97.4 1.88.46 2.72.2a14.68 14.68 0 003.92-5.32 40.32 40.32 0 001.94-6.27c.2-.45.6-.69 1.18-.71.69-.05 1.12-.16 1.3-.32a15.4 15.4 0 002.1-5.08 9.23 9.23 0 00-.6-5.39c.35-.98.84-1.7 1.47-2.14 1.9-1.46 3.35-2.53 4.35-3.21a14.87 14.87 0 014.82-2.35c1.93-.52 3.5-1.37 4.71-2.53a7.94 7.94 0 002.41-4.53l1.54-7.81c.48-3.02.6-5.69.36-8.01a5.89 5.89 0 011.39-4.4 36.97 36.97 0 003.87-5.92c.76-1.4 1.8-3.51 3.08-6.34.61-1.33.68-2.58.2-3.77a41.6 41.6 0 01-.95-2.78c-1.71-.4-3.63-1.57-5.77-3.53-2.48-2.27-4.3-3.69-5.46-4.24-.7.26-1.56.4-2.57.43l-2.6-.04c-.35 0-1.23-.1-2.66-.31a7.25 7.25 0 00-2.4 0c-.5-.32-.79-.82-.84-1.51a4.68 4.68 0 00-.24-1.5c-.63-.2-1.54-.59-2.72-1.2a10.07 10.07 0 00-2.42-1.03c-.42-.03-.94.18-1.58.63-.52.35-1.01.43-1.46.24-.1-.16-.2-.53-.28-1.1-.03-.54-.16-.9-.4-1.12a27.7 27.7 0 00-1.46-1.03c-.63-.4-1.08-.8-1.34-1.23l-.16-2.82a4.64 4.64 0 01-2.17-4c-.03-.77-.44-1.68-1.23-2.74-1-1.24-2.37-2.42-4.11-3.53-2.08.16-4.17-.12-6.25-.83a27.9 27.9 0 01-5.7-2.94 4.72 4.72 0 00-1.97-3.01c-.26-.19-1.38-.78-3.36-1.79a2.22 2.22 0 00-.83-1.82l-1.66-1.2c-.53-.26-.9-.5-1.1-.7-.38-.32-.44-.76-.2-1.32l-.05.04c-1.2.03-2.12.07-2.72.12-1 .08-1.77.43-2.3 1.03-.42-.05-1-.25-1.74-.6a4.48 4.48 0 00-1.62-.43c-3.61.06-6.51-.97-8.7-3.1-.4.59-.93 1.19-1.62 1.8-.87.73-1.36 1.17-1.46 1.3-.13.37-.2.9-.2 1.59.03.63-.08 1.1-.32 1.43-.92-.16-1.47-.76-1.66-1.79.45-.5.75-1.39.91-2.66.19-1.37.49-2.34.91-2.9-.84.43-2.07 1.15-3.68 2.15a8.63 8.63 0 01-3.75 1.15 3.87 3.87 0 00-1.62 2.02c-.22.5-.44 1.25-.68 2.22-.37.38-.88.93-1.54 1.67-.58.61-1.19 1-1.82 1.2a6.24 6.24 0 01-2.01-1.24 21.5 21.5 0 00-1.55-1.27 6.48 6.48 0 00-3.48 0c-.68.21-1.67.56-2.96 1.03a12.26 12.26 0 01-3.05-1.78c-.44-.48-1.12-1.64-2.01-3.5-.21-1.6-.08-3.5.4-5.66a347 347 0 001.06-5.16 4.76 4.76 0 00-2.45-2.18 6.94 6.94 0 00-3-.28 27 27 0 01-3.53.08c-1.05-.08-2-.24-2.84-.48a80.1 80.1 0 012.53-6.86l.31-.8c1-2.5 1.7-4.53 2.06-6.06a31.6 31.6 0 00-2.06-.28 6.43 6.43 0 00-1.42-.12c-1.24.03-2.3.41-3.16 1.15-.03.05-.27.86-.72 2.42a4.9 4.9 0 01-1.14 2.22c-1.3.64-3.11 1.22-5.46 1.75l-3.08.71a10.16 10.16 0 01-4-3.77 21.2 21.2 0 01-2.29-6.66l2.18-6.7c.87-2.68 1.16-5.02.87-7.02 1-.59 2.92-1.87 5.77-3.85a39.68 39.68 0 015.81-3.46c1.3.16 2.24.3 2.85.4 1 .19 1.75.57 2.25 1.15a5.31 5.31 0 002.61-.99l2.02-1.7h6.68l2.02 1.42c.6-.16 1.05-.26 1.34-.31.5-.11 1-.12 1.47-.04l1.14 1.19c.5.53.9 1.12 1.19 1.78a11.1 11.1 0 00-.36 4.88 6.8 6.8 0 002.89 4.4c.9-1.72 1.37-3.53 1.42-5.43.03-1.56-.22-3.35-.75-5.36a4.85 4.85 0 010-2.46 6.5 6.5 0 011.15-2.18c2.1-2.93 5.26-5.6 9.45-8.01a31.7 31.7 0 006-4.96l.2-2.22c.11-.9.3-1.68.56-2.34 1.13-.48 1.99-1.47 2.57-2.98.34-.42.8-.7 1.38-.83.61-.18.97-.33 1.07-.43l2.77-3.38 8.38-2.65c.16-.3.15-.61-.04-.96-.18-.31-.23-.55-.16-.71 1.22-2.75 3-4.4 5.34-4.96.24-.05.54-.17.91-.36.4-.2.69-.34.87-.4.82-.26 2.05-.72 3.68-1.38 1.5-.56 2.85-.87 4.03-.95a3.35 3.35 0 01-1.42 1.74c-.82.56-1.3.98-1.46 1.27.37.43.73.66 1.1.72.32.02.73-.07 1.23-.28 1.5-.72 2.6-1.2 3.28-1.47a21.4 21.4 0 013.44-1.03c.66-.13 1.2-.45 1.62-.95a3.97 3.97 0 013.17-1.51c-.24-.24-.3-.58-.2-1.03.08-.4-.04-.69-.36-.87a6 6 0 00-1.5 1.22 8.55 8.55 0 01-1.5 1.43h-1.98a9.4 9.4 0 01-2.06-.2c-.55-.5-.95-.96-1.18-1.38a3.6 3.6 0 01-.63-1.83l1.46-2.18c.63-.92 1-1.76 1.1-2.5a4.25 4.25 0 00-1.73-.75c-1.24.26-2.81.82-4.71 1.66-2.3 1-3.91 1.67-4.86 1.99a22.15 22.15 0 012.05-2.42 5.6 5.6 0 012.14-1.43 13.9 13.9 0 005.18-3.41c1.08 0 2.71-.03 4.9-.08 1.98-.05 3.63 0 4.94.16 2.9.34 5.71-.33 8.43-2.03a5.8 5.8 0 011.14-.67c.5-.18 1.03-.07 1.58.36-.66 1.08-2.03 2.58-4.1 4.48-1.96 1.8-3.28 3.34-3.96 4.64 1.18.21 2.96.27 5.34.16 2.08.1 3.7.77 4.86 1.98a2.67 2.67 0 001.58-2.7c-.08-1.93-.1-2.94-.04-3.05a4.37 4.37 0 00-1.54-.32c-.63 0-1.1-.12-1.38-.35a9.06 9.06 0 01-1.07-2.46c.4-.5.81-1.44 1.26-2.82.37-1.24.85-2.1 1.43-2.58a9.22 9.22 0 00-.52-2.7c-.18-.55-.51-1.37-.98-2.45-1-.35-1.97-.93-2.9-1.75a27.1 27.1 0 01-2.29-2.5l.91-2.9c-.29-.63-.52-1.65-.7-3.05-.22-1.48-.47-2.6-.76-3.33-.9.58-2.21 1.45-3.95 2.62-1.5.95-2.85 1.57-4.04 1.86a3.03 3.03 0 01-2.4-1.86c-.3-.64-.29-1.4.03-2.26.45-.96.74-1.7.87-2.23-.76-.15-1.58-.74-2.45-1.74-.87-1.03-1.65-1.63-2.34-1.79-.76.37-1.94.43-3.55.16-1.69-.29-2.97-.27-3.84.04a9.3 9.3 0 00-2.65 5.95l-3.48 3.06c.08.29.28.63.6 1.03.34.34.51.65.51.91a6.75 6.75 0 01-2.89 4.68 56.5 56.5 0 01-6.05 3.02c-.44.23-.8.49-1.06.75-.16.42-.41 1.47-.76 3.13a7.28 7.28 0 01-1.18 2.98l-3.56 2.1a6.83 6.83 0 01-1.19-1.9c-.26-.8-.44-1.34-.55-1.63.24-2.51.92-4.56 2.06-6.15a8.25 8.25 0 00-2.7-.43 6.1 6.1 0 01-2.56-.56 103.84 103.84 0 00-4.7-3.01 12.46 12.46 0 00-5.3-1.75l-.2-.24c-.3-.42-.39-.9-.28-1.43.05-.23.24-.68.55-1.34-.08-.22-.34-.48-.79-.8-.42-.29-.65-.63-.67-1.03 2.08-2.4 4.07-4.1 5.97-5.08 2.58-1.19 4.5-2.1 5.77-2.73a29.3 29.3 0 005.3-3.3c4.4-1 8.5-3.16 12.3-6.46.42-.05.92.08 1.5.4a3 3 0 001.39.51c.47-.45 1.56-.92 3.28-1.43 1.58-.45 2.7-1.17 3.36-2.18-.1-.5.08-1.02.55-1.55.66-.58 1.12-1.03 1.39-1.34-.27-.48-.45-.82-.56-1.04-.2-.4-.14-.79.2-1.19.98-.26 2.45-.34 4.43-.23 2.03.08 3.54 0 4.55-.2.63.69 1.68 1.64 3.16 2.85a6.73 6.73 0 012.25 3.65 8.85 8.85 0 01-2.53 1.75c-1.45.71-2.29 1.15-2.53 1.3-.13.14-.27.46-.43.96-.14.4-.33.66-.6.8-.29.07-1.51.16-3.67.27-1.56.08-2.8.58-3.72 1.5.74.27 1.73.15 2.97-.35 1.18-.5 2.13-.6 2.84-.28a4.5 4.5 0 011.94 1.99c.71 1.48 2 2.54 3.88 3.17 1.02.37 2.71.91 5.06 1.63-.06-.14-.61-.88-1.66-2.23-.56-.7-.66-1.45-.32-2.22.69.06 1.5.43 2.45 1.12 1 .7 1.82 1.12 2.45 1.22a4.45 4.45 0 012.22-2.57c-.11-.3-.66-1.08-1.66-2.34-.69-.88-.91-1.75-.68-2.62.61-.85 1.35-1.23 2.22-1.15.18.13.7.66 1.58 1.58a4.32 4.32 0 002.1 1.35c.23-.5 1.05-.99 2.45-1.47 1.24-.4 1.92-1.12 2.05-2.18a4.62 4.62 0 00-1.1-1.3c-.27-.22-.74-.55-1.43-1l-2.3-.24c-.47-.45-.75-.7-.86-.75-.24-.26-.34-.47-.32-.63.08-.53.35-1.11.8-1.75.41-.6.63-1.07.63-1.39a2.54 2.54 0 00-1.39-1.39z" opacity=".02"/></svg>