<svg xmlns="http://www.w3.org/2000/svg" fill="none" viewBox="0 0 140 140"><path fill="#E0E0E0" fill-rule="evenodd" d="M122.28 106.14h.03c.37 0 2.3-.1 4.05-2.22 2.66-3.2 4.86-11.04.28-30.29-6.05-25.39-1-47.82 1.45-56.28A3.4 3.4 0 00124.8 13H66.12a3.42 3.42 0 00-2.75 1.4c-1.06 1.46-2.51 4.23-3.43 9.17h-4.39a3.42 3.42 0 00-2.76 1.4c-1.07 1.5-2.55 4.33-3.47 9.42l.57.1c.9-4.98 2.33-7.74 3.37-9.17a2.84 2.84 0 012.3-1.17h58.68a2.83 2.83 0 012.72 3.61c-2.47 8.51-7.53 31.06-1.46 56.58 4.52 18.98 2.42 26.66-.14 29.77-1.71 2.08-3.58 2.03-3.67 2.02h-3.94v.58h3.99c.37 0 2.3-.1 4.05-2.21 1.26-1.51 2.4-4.06 2.8-8.36h3.69zm-58.44-91.4c-1.02 1.4-2.41 4.07-3.31 8.83h53.7a3.4 3.4 0 013.28 4.35c-2.45 8.47-7.49 30.9-1.44 56.28 2.32 9.76 2.9 16.58 2.56 21.36h3.64c.09 0 1.95.06 3.67-2.03 2.56-3.1 4.66-10.79.14-29.77-6.08-25.52-1.01-48.06 1.45-56.57a2.82 2.82 0 00-2.72-3.61H66.12a2.84 2.84 0 00-2.28 1.16z" clip-rule="evenodd"/><path fill="#E0E0E0" d="M19.08 95.44a.47.47 0 00-.1-.07 14.74 14.74 0 018.15-1.49c4.77.52 9.17 3.43 11.7 7.5 2.27 3.63 3.06 7.91 3.53 12.2.09.8.16 1.62.23 2.43a35.64 35.64 0 01-2 7.16 61.39 61.39 0 00-2.23-4.45 78.48 78.48 0 00-19.28-23.28z"/><path fill="#E0E0E0" d="M52.4 126.71c-3.27.48-6.58.65-9.87.48a45.32 45.32 0 01-22.46-7.06c-2.96-1.93-5.79-4.3-7.32-7.48a13.17 13.17 0 015.55-16.91.36.36 0 00.15.33 77.13 77.13 0 0122.57 30.32l.05.13.03.06c0 .03.02.06.03.08a.5.5 0 00.28.27.5.5 0 00.38 0 .36.36 0 00.22-.21.36.36 0 00-.01-.3l-.01-.02-.01-.03c.4.22.87.34 1.34.34h9.08zM47.37 61.8h30.24a2.32 2.32 0 100-4.64H47.37a2.32 2.32 0 100 4.63zM77.61 71.78H47.37a2.32 2.32 0 010-4.64h30.24a2.32 2.32 0 110 4.64zM49.8 82h30.25a2.32 2.32 0 100-4.63H49.8a2.32 2.32 0 000 4.63zM81.75 92.71H51.51a2.32 2.32 0 110-4.63h30.24a2.32 2.32 0 110 4.63zM96.9 90.4a3.17 3.17 0 11-6.33 0 3.17 3.17 0 016.33 0zM83.21 103.19H52.97a2.32 2.32 0 010-4.64h30.24a2.32 2.32 0 110 4.64zM98.37 100.87a3.17 3.17 0 11-6.33 0 3.17 3.17 0 016.33 0z"/><path fill="#103464" fill-rule="evenodd" d="M90.09 62.91a3.17 3.17 0 100-6.33 3.17 3.17 0 000 6.33zm-.32-1.95a.33.33 0 01-.2-.07l-.74-.57a.33.33 0 01-.06-.47.33.33 0 01.46-.06l.48.37 1.14-1.48a.33.33 0 01.46-.06.33.33 0 01.07.46l-1.34 1.75a.33.33 0 01-.27.13zM93.25 69a3.17 3.17 0 11-6.33 0 3.17 3.17 0 016.33 0zm-3.67 1.14a.33.33 0 00.34.03.33.33 0 00.12-.1l1.34-1.74a.33.33 0 00-.53-.4l-1.14 1.48-.48-.36a.33.33 0 00-.53.3.33.33 0 00.13.22l.74.57zM91.8 82.88a3.17 3.17 0 100-6.33 3.17 3.17 0 000 6.33zm-.32-1.96a.33.33 0 01-.2-.07l-.75-.57a.33.33 0 01-.06-.46.33.33 0 01.46-.06l.49.37 1.13-1.49a.33.33 0 01.47-.06.33.33 0 01.06.46l-1.34 1.75a.33.33 0 01-.26.13z" clip-rule="evenodd"/><path fill="#103464" d="M60.03 43.8h21.73a2.32 2.32 0 100-4.64H60.03a2.32 2.32 0 100 4.64z"/><path fill="#103464" fill-rule="evenodd" d="M105.5 94.78c-6.05-25.39-1.01-47.82 1.44-56.28a3.43 3.43 0 00-1.76-4c-.47-.23-.99-.35-1.52-.35H44.97a3.42 3.42 0 00-2.75 1.4c-2.37 3.26-7.29 14.06-1.8 43.95 2.94 16 2.9 26.9 1.94 34.08a38.32 38.32 0 01-2.12 8.84l-.08.2a3.32 3.32 0 00.03 2.62 3.36 3.36 0 001.25 1.48H7.7a.29.29 0 000 .58h131.8a.29.29 0 000-.58h-36.28a6.52 6.52 0 001.99-1.65c2.65-3.2 4.85-11.04.27-30.3zm-.71 29.9c-1.72 2.08-3.58 2.03-3.67 2.03h-57.8a2.83 2.83 0 01-2.63-3.87c.86-2.21 1.5-4.5 1.9-6.83 1.38-7.5 1.63-19.04-1.6-36.61-5.45-29.67-.63-40.31 1.7-43.5a2.85 2.85 0 012.28-1.17h58.7a2.83 2.83 0 012.71 3.6c-2.46 8.51-7.53 31.06-1.45 56.58 4.52 18.98 2.42 26.67-.14 29.77zM19 85.31a9.5 9.5 0 11-19 0 9.5 9.5 0 0119 0zM7.95 88.74a.99.99 0 001.03.1 1 1 0 00.35-.3l4.02-5.23a1 1 0 00-1.57-1.2l-3.42 4.45-1.44-1.11a1 1 0 10-1.21 1.57l2.23 1.71h.01z" clip-rule="evenodd"/></svg>